<svg width="379" height="420" viewBox="0 0 379 420" fill="none" xmlns="http://www.w3.org/2000/svg">
<g clip-path="url(#clip0_614_248)">
<mask id="mask0_614_248" style="mask-type:alpha" maskUnits="userSpaceOnUse" x="0" y="0" width="379" height="420">
<rect width="379" height="420" rx="20" fill="#D9D9D9"/>
</mask>
<g mask="url(#mask0_614_248)">
<g clip-path="url(#clip1_614_248)">
<rect x="-18" y="-32" width="461" height="500" rx="4" fill="#363D5B"/>
<circle opacity="0.71" cx="393.5" cy="419.5" r="384" stroke="url(#paint0_linear_614_248)" stroke-width="3"/>
<g opacity="0.1">
<path d="M666.892 174.102L756.851 405.695C760.233 414.4 762 431.811 762 431.811C762 431.811 758.953 450.288 754.932 459.526L670.091 654.443C662.699 671.425 655.729 678.624 655.729 678.624C655.729 678.624 643.002 687.714 635.466 690.547L407.114 776.385C395.545 780.734 387.91 781 387.91 781C387.91 781 381.9 780.159 372.913 776.385C354.51 768.655 320.454 754.407 282.249 738.421C233.438 717.998 177.853 694.741 139.478 678.624C134.734 676.632 125.245 667.763 125.245 667.763C125.245 667.763 120.595 660.917 118.269 655.053L28.4858 428.613C25.6586 421.482 25 407.222 25 407.222C25 407.222 27.3916 390.299 31.0853 381.837L118.968 180.517C125.153 166.35 131.218 159.913 131.218 159.913C131.218 159.913 138.215 154.144 153.51 148.276L379.696 61.5057C387.854 58.3759 404.171 57 404.171 57C404.171 57 419.348 58.6173 426.936 61.8679L649.618 157.256C657.793 160.758 660.979 163.87 660.979 163.87C660.979 163.87 664.085 166.874 666.892 174.102Z" fill="url(#paint1_linear_614_248)"/>
<path d="M666.892 174.102L756.851 405.695C760.233 414.4 762 431.811 762 431.811C762 431.811 758.953 450.288 754.932 459.526L670.091 654.443C662.699 671.425 655.729 678.624 655.729 678.624C655.729 678.624 643.002 687.714 635.466 690.547L407.114 776.385C395.545 780.734 387.91 781 387.91 781C387.91 781 381.9 780.159 372.913 776.385C354.51 768.655 320.454 754.407 282.249 738.421C233.438 717.998 177.853 694.741 139.478 678.624C134.734 676.632 125.245 667.763 125.245 667.763C125.245 667.763 120.595 660.917 118.269 655.053L28.4858 428.613C25.6586 421.482 25 407.222 25 407.222C25 407.222 27.3916 390.299 31.0853 381.837L118.968 180.517C125.153 166.35 131.218 159.913 131.218 159.913C131.218 159.913 138.215 154.144 153.51 148.276L379.696 61.5057C387.854 58.3759 404.171 57 404.171 57C404.171 57 419.348 58.6173 426.936 61.8679L649.618 157.256C657.793 160.758 660.979 163.87 660.979 163.87C660.979 163.87 664.085 166.874 666.892 174.102Z" stroke="url(#paint2_linear_614_248)"/>
</g>
<g clip-path="url(#clip2_614_248)">
<path d="M531.87 136.327C413.919 101.763 289.378 172.394 253.721 294.127C218.064 415.861 284.81 542.546 402.761 577.111C520.713 611.674 645.255 541.044 680.911 419.31C716.567 297.577 649.821 170.891 531.87 136.327Z" stroke="#D5DAE1"/>
<path d="M549.426 225.585C431.475 191.021 306.934 261.652 271.278 383.385C235.621 505.118 302.367 631.804 420.318 666.368C538.27 700.933 662.811 630.301 698.468 508.568C734.124 386.835 667.378 260.149 549.426 225.585Z" stroke="#D5DAE1"/>
<path d="M244.609 338.226L240.599 353.658L225.297 357.51L240.662 362.015L244.909 377.623L248.919 362.191L264.221 358.338L248.856 353.834L244.609 338.226Z" fill="#FC7F39"/>
</g>
</g>
<g opacity="0.99">
<path opacity="0.2" d="M34 48C34 39.1634 41.1634 32 50 32H226C234.837 32 242 39.1634 242 48V216C242 224.837 234.837 232 226 232H50C41.1634 232 34 224.837 34 216V48Z" fill="url(#paint3_linear_614_248)"/>
<rect opacity="0.99" x="20" y="19" width="208" height="200" rx="16" fill="url(#paint4_linear_614_248)"/>
<path d="M46.916 143L54.364 122.56H58.116L50.696 143H46.916ZM45.516 133.788C44.4147 133.788 43.4907 133.545 42.744 133.06C42.016 132.556 41.4653 131.893 41.092 131.072C40.7373 130.232 40.56 129.308 40.56 128.3V127.572C40.56 126.508 40.7467 125.565 41.12 124.744C41.4933 123.923 42.0533 123.279 42.8 122.812C43.5467 122.345 44.452 122.112 45.516 122.112C46.5987 122.112 47.504 122.345 48.232 122.812C48.9787 123.279 49.5387 123.923 49.912 124.744C50.2853 125.565 50.472 126.508 50.472 127.572V128.3C50.472 129.308 50.2853 130.232 49.912 131.072C49.5573 131.893 49.016 132.556 48.288 133.06C47.56 133.545 46.636 133.788 45.516 133.788ZM45.516 130.792C46.0947 130.792 46.5147 130.587 46.776 130.176C47.056 129.747 47.196 129.009 47.196 127.964C47.196 126.863 47.056 126.107 46.776 125.696C46.496 125.285 46.076 125.08 45.516 125.08C44.956 125.08 44.536 125.285 44.256 125.696C43.976 126.107 43.836 126.853 43.836 127.936C43.836 128.981 43.976 129.719 44.256 130.148C44.536 130.577 44.956 130.792 45.516 130.792ZM59.432 143.476C58.312 143.476 57.388 143.233 56.66 142.748C55.932 142.263 55.3813 141.609 55.008 140.788C54.6533 139.948 54.476 139.024 54.476 138.016V137.288C54.476 136.205 54.6627 135.253 55.036 134.432C55.4093 133.611 55.96 132.967 56.688 132.5C57.4347 132.033 58.3493 131.8 59.432 131.8C60.5147 131.8 61.42 132.033 62.148 132.5C62.876 132.967 63.4267 133.611 63.8 134.432C64.1733 135.253 64.36 136.205 64.36 137.288V138.016C64.36 139.024 64.1733 139.948 63.8 140.788C63.4453 141.609 62.904 142.263 62.176 142.748C61.4667 143.233 60.552 143.476 59.432 143.476ZM59.432 140.508C60.0107 140.508 60.4307 140.303 60.692 139.892C60.972 139.463 61.112 138.725 61.112 137.68C61.112 136.56 60.972 135.804 60.692 135.412C60.412 135.001 59.992 134.796 59.432 134.796C58.872 134.796 58.4427 135.001 58.144 135.412C57.864 135.804 57.724 136.551 57.724 137.652C57.724 138.697 57.864 139.435 58.144 139.864C58.424 140.293 58.8533 140.508 59.432 140.508ZM74.1215 121.972C75.6335 121.972 76.9308 122.224 78.0135 122.728C79.0962 123.213 79.9735 123.913 80.6455 124.828C81.3362 125.724 81.8402 126.76 82.1575 127.936C82.4935 129.112 82.6615 130.372 82.6615 131.716V132.892C82.6615 136.289 81.7935 138.856 80.0575 140.592C78.3215 142.309 75.7642 143.168 72.3855 143.168C71.6948 143.168 71.0135 143.149 70.3415 143.112C69.6695 143.075 69.0162 143.019 68.3815 142.944V139.108C68.9975 139.164 69.6602 139.22 70.3695 139.276C71.0788 139.313 71.8068 139.332 72.5535 139.332C74.0468 139.332 75.2228 139.089 76.0815 138.604C76.9402 138.1 77.5468 137.353 77.9015 136.364C78.2562 135.375 78.4335 134.152 78.4335 132.696V130.568L79.4415 129.896C79.4228 131.296 79.1335 132.472 78.5735 133.424C78.0322 134.357 77.2762 135.057 76.3055 135.524C75.3348 135.991 74.2148 136.224 72.9455 136.224C71.5082 136.224 70.2668 135.944 69.2215 135.384C68.1762 134.805 67.3735 134.003 66.8135 132.976C66.2535 131.949 65.9735 130.736 65.9735 129.336C65.9735 127.861 66.3095 126.573 66.9815 125.472C67.6535 124.352 68.5962 123.493 69.8095 122.896C71.0415 122.28 72.4788 121.972 74.1215 121.972ZM74.2615 125.78C73.4402 125.78 72.7402 125.929 72.1615 126.228C71.6015 126.527 71.1628 126.937 70.8455 127.46C70.5468 127.964 70.3975 128.561 70.3975 129.252C70.3975 129.961 70.5468 130.577 70.8455 131.1C71.1442 131.604 71.5642 132.005 72.1055 132.304C72.6655 132.584 73.3468 132.724 74.1495 132.724C74.8775 132.724 75.5402 132.603 76.1375 132.36C76.7535 132.099 77.2388 131.716 77.5935 131.212C77.9482 130.689 78.1255 130.036 78.1255 129.252C78.1255 128.58 77.9762 127.983 77.6775 127.46C77.3975 126.937 76.9682 126.527 76.3895 126.228C75.8108 125.929 75.1015 125.78 74.2615 125.78ZM93.2882 143.532C91.6642 143.532 90.2642 143.224 89.0882 142.608C87.9122 141.973 87.0068 141.124 86.3722 140.06C85.7562 138.996 85.4482 137.82 85.4482 136.532H89.8722C89.8722 137.167 90.0122 137.727 90.2922 138.212C90.5908 138.679 91.0015 139.052 91.5242 139.332C92.0468 139.593 92.6442 139.724 93.3162 139.724C94.0628 139.724 94.6882 139.575 95.1922 139.276C95.7148 138.959 96.1162 138.539 96.3962 138.016C96.6762 137.475 96.8162 136.868 96.8162 136.196C96.8162 135.505 96.6762 134.899 96.3962 134.376C96.1348 133.835 95.7428 133.405 95.2202 133.088C94.7162 132.771 94.1002 132.612 93.3722 132.612C92.7002 132.612 92.0935 132.752 91.5522 133.032C91.0108 133.312 90.6095 133.667 90.3482 134.096H86.0362L87.0722 122.56H99.4762V126.48H88.8922L90.6562 125.304L90.0402 131.94L88.9762 131.66C89.5362 130.988 90.2082 130.428 90.9922 129.98C91.7948 129.513 92.8402 129.28 94.1282 129.28C95.6215 129.28 96.8908 129.588 97.9362 130.204C99.0002 130.801 99.8122 131.613 100.372 132.64C100.951 133.648 101.24 134.777 101.24 136.028V136.392C101.24 137.643 100.932 138.809 100.316 139.892C99.7002 140.975 98.7948 141.852 97.6002 142.524C96.4242 143.196 94.9868 143.532 93.2882 143.532Z" fill="black"/>
<path opacity="0.99" d="M44.968 170.544C44.584 170.544 44.2373 170.475 43.928 170.336C43.6187 170.197 43.336 170.037 43.08 169.856C42.824 169.675 42.5787 169.515 42.344 169.376C42.12 169.237 41.9013 169.168 41.688 169.168C41.4747 169.168 41.288 169.248 41.128 169.408C40.9787 169.568 40.872 169.835 40.808 170.208L39.32 170.224C39.352 169.509 39.4853 168.928 39.72 168.48C39.9653 168.032 40.264 167.701 40.616 167.488C40.9787 167.275 41.3467 167.168 41.72 167.168C42.104 167.168 42.4507 167.243 42.76 167.392C43.0693 167.531 43.352 167.691 43.608 167.872C43.864 168.053 44.104 168.213 44.328 168.352C44.5627 168.491 44.792 168.56 45.016 168.56C45.2293 168.56 45.4107 168.48 45.56 168.32C45.72 168.149 45.8267 167.883 45.88 167.52H47.368C47.3467 168.235 47.2133 168.816 46.968 169.264C46.7333 169.712 46.4347 170.037 46.072 170.24C45.72 170.443 45.352 170.544 44.968 170.544ZM51.3035 170.656V168.384H53.3995C53.8048 168.384 54.1515 168.304 54.4395 168.144C54.7382 167.984 54.9675 167.76 55.1275 167.472C55.2875 167.173 55.3675 166.832 55.3675 166.448C55.3675 166.043 55.2875 165.696 55.1275 165.408C54.9675 165.109 54.7382 164.885 54.4395 164.736C54.1515 164.576 53.8048 164.496 53.3995 164.496H51.3035V162.224H53.2715C54.2635 162.224 55.1115 162.389 55.8155 162.72C56.5302 163.051 57.0742 163.52 57.4475 164.128C57.8315 164.736 58.0235 165.467 58.0235 166.32V166.576C58.0235 167.408 57.8315 168.133 57.4475 168.752C57.0742 169.36 56.5302 169.829 55.8155 170.16C55.1115 170.491 54.2635 170.656 53.2715 170.656H51.3035ZM48.9995 174V162.224H51.6235V174H48.9995ZM59.6055 174V165.232H61.6375V168.992H61.5895C61.5895 167.755 61.8508 166.8 62.3735 166.128C62.9068 165.456 63.6748 165.12 64.6775 165.12H65.0135V167.328H64.3735C63.6695 167.328 63.1255 167.52 62.7415 167.904C62.3575 168.277 62.1655 168.821 62.1655 169.536V174H59.6055ZM70.565 174.304C69.797 174.304 69.1143 174.187 68.517 173.952C67.9197 173.707 67.413 173.376 66.997 172.96C66.5917 172.544 66.2823 172.069 66.069 171.536C65.8557 170.992 65.749 170.421 65.749 169.824V169.456C65.749 168.848 65.8557 168.272 66.069 167.728C66.293 167.173 66.613 166.688 67.029 166.272C67.4557 165.856 67.9677 165.531 68.565 165.296C69.1623 165.051 69.829 164.928 70.565 164.928C71.3223 164.928 71.9943 165.051 72.581 165.296C73.1783 165.531 73.685 165.856 74.101 166.272C74.517 166.688 74.837 167.173 75.061 167.728C75.285 168.272 75.397 168.848 75.397 169.456V169.824C75.397 170.421 75.2903 170.992 75.077 171.536C74.8637 172.069 74.549 172.544 74.133 172.96C73.7277 173.376 73.2263 173.707 72.629 173.952C72.0317 174.187 71.3437 174.304 70.565 174.304ZM70.565 172.144C71.0663 172.144 71.4823 172.037 71.813 171.824C72.1437 171.611 72.3943 171.312 72.565 170.928C72.7463 170.544 72.837 170.117 72.837 169.648C72.837 169.147 72.7463 168.709 72.565 168.336C72.3837 167.952 72.1223 167.648 71.781 167.424C71.4503 167.2 71.045 167.088 70.565 167.088C70.0957 167.088 69.6903 167.2 69.349 167.424C69.0077 167.648 68.7463 167.952 68.565 168.336C68.3943 168.709 68.309 169.147 68.309 169.648C68.309 170.117 68.3943 170.544 68.565 170.928C68.7357 171.312 68.9917 171.611 69.333 171.824C69.6743 172.037 70.085 172.144 70.565 172.144ZM76.0796 177.28V175.12H76.6396C77.0343 175.12 77.333 175.013 77.5356 174.8C77.7383 174.597 77.8396 174.304 77.8396 173.92V165.232H80.3196V173.84C80.3196 174.683 80.1863 175.355 79.9196 175.856C79.6636 176.357 79.253 176.72 78.6876 176.944C78.133 177.168 77.4183 177.28 76.5436 177.28H76.0796ZM76.6236 167.12V165.232H80.3196V167.12H76.6236ZM78.7516 164.336C78.2716 164.336 77.9143 164.213 77.6796 163.968C77.4556 163.712 77.3436 163.392 77.3436 163.008C77.3436 162.613 77.4556 162.293 77.6796 162.048C77.9143 161.792 78.2716 161.664 78.7516 161.664C79.2423 161.664 79.5996 161.792 79.8236 162.048C80.0476 162.293 80.1596 162.613 80.1596 163.008C80.1596 163.392 80.0476 163.712 79.8236 163.968C79.5996 164.213 79.2423 164.336 78.7516 164.336ZM86.6215 174.304C85.8748 174.304 85.2135 174.176 84.6375 173.92C84.0722 173.664 83.5975 173.323 83.2135 172.896C82.8402 172.459 82.5522 171.973 82.3495 171.44C82.1575 170.896 82.0615 170.341 82.0615 169.776V169.456C82.0615 168.869 82.1575 168.309 82.3495 167.776C82.5522 167.232 82.8402 166.747 83.2135 166.32C83.5868 165.893 84.0508 165.557 84.6055 165.312C85.1708 165.056 85.8108 164.928 86.5255 164.928C87.4642 164.928 88.2535 165.141 88.8935 165.568C89.5442 165.984 90.0402 166.533 90.3815 167.216C90.7228 167.888 90.8935 168.624 90.8935 169.424V170.288H83.1335V168.832H89.3415L88.5095 169.504C88.5095 168.981 88.4348 168.533 88.2855 168.16C88.1362 167.787 87.9122 167.504 87.6135 167.312C87.3255 167.109 86.9628 167.008 86.5255 167.008C86.0775 167.008 85.6988 167.109 85.3895 167.312C85.0802 167.515 84.8455 167.813 84.6855 168.208C84.5255 168.592 84.4455 169.067 84.4455 169.632C84.4455 170.155 84.5202 170.613 84.6695 171.008C84.8188 171.392 85.0535 171.691 85.3735 171.904C85.6935 172.117 86.1095 172.224 86.6215 172.224C87.0908 172.224 87.4748 172.133 87.7735 171.952C88.0722 171.771 88.2748 171.547 88.3815 171.28H90.7335C90.6055 171.867 90.3548 172.389 89.9815 172.848C89.6082 173.307 89.1388 173.664 88.5735 173.92C88.0082 174.176 87.3575 174.304 86.6215 174.304ZM96.5259 174.304C95.7685 174.304 95.1072 174.181 94.5419 173.936C93.9872 173.68 93.5232 173.339 93.1499 172.912C92.7765 172.485 92.4992 172.005 92.3179 171.472C92.1365 170.928 92.0459 170.368 92.0459 169.792V169.488C92.0459 168.891 92.1419 168.32 92.3339 167.776C92.5259 167.221 92.8085 166.731 93.1819 166.304C93.5552 165.877 94.0192 165.541 94.5739 165.296C95.1392 165.051 95.7845 164.928 96.5099 164.928C97.2992 164.928 97.9979 165.083 98.6059 165.392C99.2139 165.691 99.6992 166.112 100.062 166.656C100.425 167.2 100.627 167.824 100.67 168.528H98.1579C98.1152 168.133 97.9552 167.803 97.6779 167.536C97.4112 167.259 97.0219 167.12 96.5099 167.12C96.0832 167.12 95.7259 167.227 95.4379 167.44C95.1605 167.653 94.9525 167.947 94.8139 168.32C94.6752 168.693 94.6059 169.136 94.6059 169.648C94.6059 170.117 94.6699 170.544 94.7979 170.928C94.9259 171.301 95.1285 171.595 95.4059 171.808C95.6939 172.011 96.0672 172.112 96.5259 172.112C96.8672 172.112 97.1552 172.053 97.3899 171.936C97.6352 171.808 97.8272 171.637 97.9659 171.424C98.1152 171.2 98.2059 170.944 98.2379 170.656H100.734C100.702 171.381 100.499 172.021 100.126 172.576C99.7525 173.12 99.2565 173.547 98.6379 173.856C98.0192 174.155 97.3152 174.304 96.5259 174.304ZM106.355 174.112C105.47 174.112 104.755 174.005 104.211 173.792C103.667 173.568 103.267 173.2 103.011 172.688C102.766 172.165 102.643 171.461 102.643 170.576V162.864H105.027V170.672C105.027 171.088 105.134 171.408 105.347 171.632C105.571 171.845 105.886 171.952 106.291 171.952H107.587V174.112H106.355ZM101.315 167.104V165.232H107.587V167.104H101.315ZM116.604 174.304C115.847 174.304 115.185 174.181 114.62 173.936C114.065 173.68 113.601 173.339 113.228 172.912C112.855 172.485 112.577 172.005 112.396 171.472C112.215 170.928 112.124 170.368 112.124 169.792V169.488C112.124 168.891 112.22 168.32 112.412 167.776C112.604 167.221 112.887 166.731 113.26 166.304C113.633 165.877 114.097 165.541 114.652 165.296C115.217 165.051 115.863 164.928 116.588 164.928C117.377 164.928 118.076 165.083 118.684 165.392C119.292 165.691 119.777 166.112 120.14 166.656C120.503 167.2 120.705 167.824 120.748 168.528H118.236C118.193 168.133 118.033 167.803 117.756 167.536C117.489 167.259 117.1 167.12 116.588 167.12C116.161 167.12 115.804 167.227 115.516 167.44C115.239 167.653 115.031 167.947 114.892 168.32C114.753 168.693 114.684 169.136 114.684 169.648C114.684 170.117 114.748 170.544 114.876 170.928C115.004 171.301 115.207 171.595 115.484 171.808C115.772 172.011 116.145 172.112 116.604 172.112C116.945 172.112 117.233 172.053 117.468 171.936C117.713 171.808 117.905 171.637 118.044 171.424C118.193 171.2 118.284 170.944 118.316 170.656H120.812C120.78 171.381 120.577 172.021 120.204 172.576C119.831 173.12 119.335 173.547 118.716 173.856C118.097 174.155 117.393 174.304 116.604 174.304ZM126.721 174.304C125.953 174.304 125.271 174.187 124.673 173.952C124.076 173.707 123.569 173.376 123.153 172.96C122.748 172.544 122.439 172.069 122.225 171.536C122.012 170.992 121.905 170.421 121.905 169.824V169.456C121.905 168.848 122.012 168.272 122.225 167.728C122.449 167.173 122.769 166.688 123.185 166.272C123.612 165.856 124.124 165.531 124.721 165.296C125.319 165.051 125.985 164.928 126.721 164.928C127.479 164.928 128.151 165.051 128.737 165.296C129.335 165.531 129.841 165.856 130.257 166.272C130.673 166.688 130.993 167.173 131.217 167.728C131.441 168.272 131.553 168.848 131.553 169.456V169.824C131.553 170.421 131.447 170.992 131.233 171.536C131.02 172.069 130.705 172.544 130.289 172.96C129.884 173.376 129.383 173.707 128.785 173.952C128.188 174.187 127.5 174.304 126.721 174.304ZM126.721 172.144C127.223 172.144 127.639 172.037 127.969 171.824C128.3 171.611 128.551 171.312 128.721 170.928C128.903 170.544 128.993 170.117 128.993 169.648C128.993 169.147 128.903 168.709 128.721 168.336C128.54 167.952 128.279 167.648 127.937 167.424C127.607 167.2 127.201 167.088 126.721 167.088C126.252 167.088 125.847 167.2 125.505 167.424C125.164 167.648 124.903 167.952 124.721 168.336C124.551 168.709 124.465 169.147 124.465 169.648C124.465 170.117 124.551 170.544 124.721 170.928C124.892 171.312 125.148 171.611 125.489 171.824C125.831 172.037 126.241 172.144 126.721 172.144ZM133.34 174V165.232H135.372V169.008H135.228C135.228 168.112 135.34 167.365 135.564 166.768C135.788 166.171 136.124 165.723 136.572 165.424C137.02 165.115 137.569 164.96 138.22 164.96H138.332C138.993 164.96 139.543 165.115 139.98 165.424C140.428 165.723 140.764 166.171 140.988 166.768C141.223 167.365 141.34 168.112 141.34 169.008H140.716C140.716 168.112 140.828 167.365 141.052 166.768C141.287 166.171 141.628 165.723 142.076 165.424C142.524 165.115 143.073 164.96 143.724 164.96H143.836C144.497 164.96 145.052 165.115 145.5 165.424C145.959 165.723 146.305 166.171 146.54 166.768C146.775 167.365 146.892 168.112 146.892 169.008V174H144.332V168.864C144.332 168.384 144.204 167.995 143.948 167.696C143.703 167.397 143.351 167.248 142.892 167.248C142.433 167.248 142.071 167.403 141.804 167.712C141.537 168.011 141.404 168.411 141.404 168.912V174H138.828V168.864C138.828 168.384 138.7 167.995 138.444 167.696C138.199 167.397 137.852 167.248 137.404 167.248C136.935 167.248 136.567 167.403 136.3 167.712C136.033 168.011 135.9 168.411 135.9 168.912V174H133.34ZM149.074 177.2V165.232H151.106V169.024L150.834 169.008C150.877 168.133 151.058 167.397 151.378 166.8C151.698 166.192 152.13 165.739 152.674 165.44C153.218 165.131 153.832 164.976 154.514 164.976C155.122 164.976 155.672 165.088 156.162 165.312C156.664 165.536 157.09 165.851 157.442 166.256C157.805 166.651 158.077 167.12 158.258 167.664C158.45 168.197 158.546 168.784 158.546 169.424V169.792C158.546 170.421 158.456 171.013 158.274 171.568C158.093 172.112 157.826 172.587 157.474 172.992C157.133 173.397 156.712 173.717 156.21 173.952C155.72 174.176 155.154 174.288 154.514 174.288C153.853 174.288 153.256 174.155 152.722 173.888C152.2 173.611 151.778 173.195 151.458 172.64C151.138 172.075 150.962 171.36 150.93 170.496L151.634 171.456V177.2H149.074ZM153.794 172.144C154.232 172.144 154.61 172.037 154.93 171.824C155.261 171.611 155.517 171.312 155.698 170.928C155.88 170.544 155.97 170.101 155.97 169.6C155.97 169.099 155.88 168.661 155.698 168.288C155.517 167.915 155.266 167.627 154.946 167.424C154.626 167.211 154.242 167.104 153.794 167.104C153.41 167.104 153.048 167.195 152.706 167.376C152.365 167.557 152.088 167.819 151.874 168.16C151.672 168.491 151.57 168.896 151.57 169.376V169.968C151.57 170.427 151.677 170.821 151.89 171.152C152.114 171.472 152.397 171.717 152.738 171.888C153.08 172.059 153.432 172.144 153.794 172.144ZM160.436 174V162.32H163.012V174H160.436ZM159.396 164.208V162.32H163.012V164.208H159.396ZM169.387 174.304C168.64 174.304 167.979 174.176 167.403 173.92C166.838 173.664 166.363 173.323 165.979 172.896C165.606 172.459 165.318 171.973 165.115 171.44C164.923 170.896 164.827 170.341 164.827 169.776V169.456C164.827 168.869 164.923 168.309 165.115 167.776C165.318 167.232 165.606 166.747 165.979 166.32C166.352 165.893 166.816 165.557 167.371 165.312C167.936 165.056 168.576 164.928 169.291 164.928C170.23 164.928 171.019 165.141 171.659 165.568C172.31 165.984 172.806 166.533 173.147 167.216C173.488 167.888 173.659 168.624 173.659 169.424V170.288H165.899V168.832H172.107L171.275 169.504C171.275 168.981 171.2 168.533 171.051 168.16C170.902 167.787 170.678 167.504 170.379 167.312C170.091 167.109 169.728 167.008 169.291 167.008C168.843 167.008 168.464 167.109 168.155 167.312C167.846 167.515 167.611 167.813 167.451 168.208C167.291 168.592 167.211 169.067 167.211 169.632C167.211 170.155 167.286 170.613 167.435 171.008C167.584 171.392 167.819 171.691 168.139 171.904C168.459 172.117 168.875 172.224 169.387 172.224C169.856 172.224 170.24 172.133 170.539 171.952C170.838 171.771 171.04 171.547 171.147 171.28H173.499C173.371 171.867 173.12 172.389 172.747 172.848C172.374 173.307 171.904 173.664 171.339 173.92C170.774 174.176 170.123 174.304 169.387 174.304ZM179.34 174.112C178.454 174.112 177.74 174.005 177.196 173.792C176.652 173.568 176.252 173.2 175.996 172.688C175.75 172.165 175.628 171.461 175.628 170.576V162.864H178.012V170.672C178.012 171.088 178.118 171.408 178.332 171.632C178.556 171.845 178.87 171.952 179.276 171.952H180.572V174.112H179.34ZM174.3 167.104V165.232H180.572V167.104H174.3ZM182.709 174V165.232H185.269V174H182.709ZM181.541 167.12V165.232H185.269V167.12H181.541ZM183.701 164.368C183.221 164.368 182.864 164.245 182.629 164C182.405 163.744 182.293 163.424 182.293 163.04C182.293 162.645 182.405 162.325 182.629 162.08C182.864 161.824 183.221 161.696 183.701 161.696C184.181 161.696 184.533 161.824 184.757 162.08C184.992 162.325 185.109 162.645 185.109 163.04C185.109 163.424 184.992 163.744 184.757 164C184.533 164.245 184.181 164.368 183.701 164.368ZM191.909 174.304C191.141 174.304 190.458 174.187 189.861 173.952C189.263 173.707 188.757 173.376 188.341 172.96C187.935 172.544 187.626 172.069 187.413 171.536C187.199 170.992 187.093 170.421 187.093 169.824V169.456C187.093 168.848 187.199 168.272 187.413 167.728C187.637 167.173 187.957 166.688 188.373 166.272C188.799 165.856 189.311 165.531 189.909 165.296C190.506 165.051 191.173 164.928 191.909 164.928C192.666 164.928 193.338 165.051 193.925 165.296C194.522 165.531 195.029 165.856 195.445 166.272C195.861 166.688 196.181 167.173 196.405 167.728C196.629 168.272 196.741 168.848 196.741 169.456V169.824C196.741 170.421 196.634 170.992 196.421 171.536C196.207 172.069 195.893 172.544 195.477 172.96C195.071 173.376 194.57 173.707 193.973 173.952C193.375 174.187 192.687 174.304 191.909 174.304ZM191.909 172.144C192.41 172.144 192.826 172.037 193.157 171.824C193.487 171.611 193.738 171.312 193.909 170.928C194.09 170.544 194.181 170.117 194.181 169.648C194.181 169.147 194.09 168.709 193.909 168.336C193.727 167.952 193.466 167.648 193.125 167.424C192.794 167.2 192.389 167.088 191.909 167.088C191.439 167.088 191.034 167.2 190.693 167.424C190.351 167.648 190.09 167.952 189.909 168.336C189.738 168.709 189.653 169.147 189.653 169.648C189.653 170.117 189.738 170.544 189.909 170.928C190.079 171.312 190.335 171.611 190.677 171.824C191.018 172.037 191.429 172.144 191.909 172.144ZM198.527 174V165.232H200.559V168.992H200.415C200.415 168.096 200.527 167.349 200.751 166.752C200.986 166.155 201.338 165.707 201.807 165.408C202.277 165.109 202.847 164.96 203.519 164.96H203.631C204.655 164.96 205.434 165.296 205.967 165.968C206.511 166.629 206.783 167.637 206.783 168.992V174H204.223V168.848C204.223 168.379 204.085 167.995 203.807 167.696C203.53 167.397 203.157 167.248 202.687 167.248C202.207 167.248 201.818 167.403 201.519 167.712C201.231 168.011 201.087 168.405 201.087 168.896V174H198.527Z" fill="#9875FF"/>
</g>
<g opacity="0.5">
<rect x="98" y="44" width="56" height="56" rx="28" fill="url(#paint5_linear_614_248)"/>
<rect x="98" y="44" width="56" height="56" rx="28" stroke="#ECECEC" stroke-width="8"/>
</g>
<path fill-rule="evenodd" clip-rule="evenodd" d="M123.401 61.3984C123.163 61.3985 122.931 61.4689 122.734 61.6008C122.537 61.7326 122.383 61.92 122.292 62.1393C122.201 62.3585 122.178 62.5997 122.224 62.8325C122.27 63.0652 122.385 63.279 122.552 63.4468L123.401 64.2952V68.8048C123.401 69.1231 123.274 69.4282 123.049 69.6532L118.249 74.4532C115.981 76.7212 117.588 80.5984 120.794 80.5984H133.206C136.414 80.5984 138.02 76.7212 135.752 74.4532L130.952 69.6532C130.727 69.4282 130.601 69.1231 130.601 68.8048V64.2952L131.449 63.4468C131.617 63.279 131.731 63.0652 131.777 62.8325C131.824 62.5997 131.8 62.3585 131.709 62.1393C131.618 61.92 131.465 61.7326 131.267 61.6008C131.07 61.4689 130.838 61.3985 130.601 61.3984H123.401ZM125.801 68.8048V63.7984H128.201V68.8048C128.201 69.7591 128.581 70.6742 129.256 71.3488L130.488 72.5824C129.625 72.382 128.723 72.4244 127.883 72.7048L127.319 72.892C126.333 73.2205 125.268 73.2205 124.283 72.892L123.607 72.6676C123.562 72.6523 123.516 72.6383 123.47 72.6256L124.746 71.35C125.421 70.6751 125.8 69.7595 125.801 68.8048Z" fill="#363D5B"/>
</g>
</g>
<defs>
<linearGradient id="paint0_linear_614_248" x1="393.5" y1="37" x2="419" y2="1098" gradientUnits="userSpaceOnUse">
<stop stop-color="#D9DBE9"/>
<stop offset="0.278431" stop-color="#363D5B" stop-opacity="0.6"/>
</linearGradient>
<linearGradient id="paint1_linear_614_248" x1="393.5" y1="57" x2="393.5" y2="781" gradientUnits="userSpaceOnUse">
<stop offset="0.0260417" stop-color="#EEF4FF"/>
<stop offset="0.677083" stop-color="#EEF4FF" stop-opacity="0.494792"/>
<stop offset="1" stop-color="#EEF4FF" stop-opacity="0"/>
</linearGradient>
<linearGradient id="paint2_linear_614_248" x1="393.5" y1="57" x2="393.5" y2="781" gradientUnits="userSpaceOnUse">
<stop stop-color="white"/>
<stop offset="1" stop-color="white" stop-opacity="0"/>
</linearGradient>
<linearGradient id="paint3_linear_614_248" x1="138" y1="167.458" x2="138" y2="232" gradientUnits="userSpaceOnUse">
<stop stop-color="white"/>
<stop offset="1" stop-color="#F2F2F2" stop-opacity="0.99"/>
</linearGradient>
<linearGradient id="paint4_linear_614_248" x1="124" y1="154.458" x2="124" y2="219" gradientUnits="userSpaceOnUse">
<stop stop-color="white"/>
<stop offset="1" stop-color="#F2F2F2" stop-opacity="0.99"/>
</linearGradient>
<linearGradient id="paint5_linear_614_248" x1="126" y1="48" x2="126" y2="96" gradientUnits="userSpaceOnUse">
<stop stop-color="#B79DFF"/>
<stop offset="1" stop-color="#DACDFF" stop-opacity="0"/>
</linearGradient>
<clipPath id="clip0_614_248">
<rect width="379" height="420" rx="20" fill="white"/>
</clipPath>
<clipPath id="clip1_614_248">
<rect width="797" height="837" fill="white" transform="translate(-18 -32)"/>
</clipPath>
<clipPath id="clip2_614_248">
<rect width="386" height="542" fill="white" transform="translate(303.367 68.8789) rotate(16.2176)"/>
</clipPath>
</defs>
</svg>
