<svg width="379" height="450" viewBox="0 0 379 450" fill="none" xmlns="http://www.w3.org/2000/svg">
<rect width="379" height="450" rx="20" fill="url(#paint0_linear_635_286)"/>
<mask id="mask0_635_286" style="mask-type:alpha" maskUnits="userSpaceOnUse" x="0" y="0" width="379" height="450">
<rect width="379" height="450" rx="20" fill="#D9D9D9"/>
</mask>
<g mask="url(#mask0_635_286)">
<g opacity="0.1">
<path d="M644.892 145.102L734.851 376.695C738.233 385.4 740 402.811 740 402.811C740 402.811 736.953 421.288 732.932 430.526L648.091 625.443C640.699 642.425 633.729 649.624 633.729 649.624C633.729 649.624 621.002 658.714 613.466 661.547L385.114 747.385C373.545 751.734 365.91 752 365.91 752C365.91 752 359.9 751.159 350.913 747.385C332.51 739.655 298.454 725.407 260.249 709.421C211.438 688.998 155.853 665.741 117.478 649.624C112.734 647.632 103.245 638.763 103.245 638.763C103.245 638.763 98.5947 631.917 96.2694 626.053L6.48583 399.613C3.65862 392.482 3 378.222 3 378.222C3 378.222 5.39158 361.299 9.08527 352.837L96.9682 151.517C103.153 137.35 109.218 130.913 109.218 130.913C109.218 130.913 116.215 125.144 131.51 119.276L357.696 32.5057C365.854 29.3759 382.171 28 382.171 28C382.171 28 397.348 29.6173 404.936 32.8679L627.618 128.256C635.793 131.758 638.979 134.87 638.979 134.87C638.979 134.87 642.085 137.874 644.892 145.102Z" fill="url(#paint1_linear_635_286)"/>
<path d="M644.892 145.102L734.851 376.695C738.233 385.4 740 402.811 740 402.811C740 402.811 736.953 421.288 732.932 430.526L648.091 625.443C640.699 642.425 633.729 649.624 633.729 649.624C633.729 649.624 621.002 658.714 613.466 661.547L385.114 747.385C373.545 751.734 365.91 752 365.91 752C365.91 752 359.9 751.159 350.913 747.385C332.51 739.655 298.454 725.407 260.249 709.421C211.438 688.998 155.853 665.741 117.478 649.624C112.734 647.632 103.245 638.763 103.245 638.763C103.245 638.763 98.5947 631.917 96.2694 626.053L6.48583 399.613C3.65862 392.482 3 378.222 3 378.222C3 378.222 5.39158 361.299 9.08527 352.837L96.9682 151.517C103.153 137.35 109.218 130.913 109.218 130.913C109.218 130.913 116.215 125.144 131.51 119.276L357.696 32.5057C365.854 29.3759 382.171 28 382.171 28C382.171 28 397.348 29.6173 404.936 32.8679L627.618 128.256C635.793 131.758 638.979 134.87 638.979 134.87C638.979 134.87 642.085 137.874 644.892 145.102Z" stroke="url(#paint2_linear_635_286)"/>
</g>
<g clip-path="url(#clip0_635_286)">
<path d="M209.904 216.669L208.524 232.553L194.079 238.904L209.98 240.783L216.771 255.464L218.151 239.579L232.596 233.229L216.695 231.35L209.904 216.669Z" fill="#FFF7F2"/>
<path d="M261.961 146.93C259.87 147.647 258.759 149.923 259.476 152.012C260.193 154.101 262.468 155.214 264.558 154.497L284.621 147.609C286.711 146.892 287.823 144.617 287.106 142.528L281.518 126.247L297.799 120.658C299.888 119.941 301.001 117.665 300.283 115.576L294.694 99.2955L310.975 93.707C313.064 92.99 314.177 90.7141 313.46 88.6247C312.743 86.5354 310.467 85.4228 308.378 86.1399L288.314 93.0277C286.224 93.7451 285.112 96.0197 285.829 98.1091L291.418 114.39L275.137 119.978C273.047 120.695 271.935 122.971 272.652 125.061L278.24 141.341L261.961 146.93Z" fill="#9875FF"/>
</g>
<g opacity="0.9">
<path opacity="0.9" d="M30.2353 199.282L31.1908 210.455L21.9458 216.595L33.1908 215.983L39.6633 225.338L38.7078 214.165L47.9528 208.026L36.7078 208.638L30.2353 199.282Z" fill="#E8DEFA"/>
<path opacity="0.9" d="M63.3955 187.567L64.351 198.74L55.106 204.88L66.351 204.268L72.8234 213.623L71.8679 202.45L81.1129 196.311L69.8679 196.923L63.3955 187.567Z" fill="#E8DEFA"/>
<path opacity="0.9" d="M95.4951 176.235L96.4506 187.408L87.2056 193.548L98.4506 192.936L104.923 202.291L103.968 191.118L113.213 184.979L101.968 185.591L95.4951 176.235Z" fill="#E8DEFA"/>
<path opacity="0.9" d="M41.9521 232.442L42.9076 243.615L33.6626 249.755L44.9076 249.143L51.3801 258.498L50.4246 247.325L59.6696 241.186L48.4246 241.798L41.9521 232.442Z" fill="#E8DEFA"/>
<path opacity="0.9" d="M75.1084 220.723L76.0639 231.897L66.8189 238.036L78.0639 237.424L84.5363 246.78L83.5808 235.606L92.8258 229.467L81.5808 230.079L75.1084 220.723Z" fill="#E8DEFA"/>
<path opacity="0.9" d="M106.62 209.595L107.576 220.768L98.3306 226.907L109.576 226.295L116.048 235.651L115.093 224.478L124.338 218.338L113.093 218.95L106.62 209.595Z" fill="#E8DEFA"/>
<path opacity="0.9" d="M53.665 265.598L54.6205 276.772L45.3755 282.911L56.6205 282.299L63.0929 291.655L62.1374 280.481L71.3825 274.342L60.1375 274.954L53.665 265.598Z" fill="#E8DEFA"/>
<path opacity="0.9" d="M86.8193 253.884L87.7748 265.057L78.5298 271.196L89.7748 270.584L96.2472 279.94L95.2917 268.767L104.537 262.627L93.2918 263.239L86.8193 253.884Z" fill="#E8DEFA"/>
<path opacity="0.9" d="M119.505 242.341L120.46 253.514L111.215 259.653L122.46 259.041L128.933 268.397L127.977 257.224L137.222 251.084L125.977 251.696L119.505 242.341Z" fill="#E8DEFA"/>
</g>
<g opacity="0.99">
<rect opacity="0.99" x="22" y="23.7148" width="213" height="140" rx="16" fill="white"/>
<path d="M58.1293 54.5732C61.2973 54.5732 63.8639 55.2625 65.8293 56.6412C67.8239 57.9905 69.2759 59.8385 70.1853 62.1852C71.0946 64.5025 71.5493 67.0692 71.5493 69.8852V71.7332C71.5493 77.0719 70.1853 81.1052 67.4573 83.8332C64.7293 86.5319 60.7106 87.8812 55.4013 87.8812C54.3159 87.8812 53.2453 87.8519 52.1893 87.7932C51.1333 87.7345 50.1066 87.6465 49.1093 87.5292V81.5012C50.0773 81.5892 51.1186 81.6772 52.2333 81.7652C53.3479 81.8239 54.4919 81.8532 55.6653 81.8532C58.9506 81.8532 61.2679 81.1052 62.6173 79.6092C63.9666 78.1132 64.7146 75.8985 64.8613 72.9652C63.9813 74.2852 62.8079 75.2825 61.3413 75.9572C59.8746 76.6319 58.1879 76.9692 56.2813 76.9692C54.0226 76.9692 52.0719 76.5292 50.4293 75.6492C48.7866 74.7399 47.5253 73.4785 46.6453 71.8652C45.7653 70.2225 45.3253 68.3159 45.3253 66.1452C45.3253 63.8279 45.8533 61.8039 46.9093 60.0732C47.9653 58.3132 49.4466 56.9639 51.3533 56.0252C53.2893 55.0572 55.5479 54.5732 58.1293 54.5732ZM58.3493 60.5572C56.4133 60.5572 54.9173 61.0559 53.8613 62.0532C52.8053 63.0505 52.2773 64.3705 52.2773 66.0132C52.2773 67.6559 52.7906 68.9759 53.8173 69.9732C54.8733 70.9705 56.3253 71.4692 58.1733 71.4692C59.8746 71.4692 61.3413 71.0145 62.5733 70.1052C63.8053 69.1959 64.4213 67.8319 64.4213 66.0132C64.4213 64.4292 63.9079 63.1239 62.8813 62.0972C61.8546 61.0705 60.3439 60.5572 58.3493 60.5572ZM88.2483 88.4532C85.6963 88.4532 83.4963 87.9692 81.6483 87.0012C79.8003 86.0039 78.3776 84.6692 77.3803 82.9972C76.4123 81.3252 75.9283 79.4772 75.9283 77.4532H82.8803C82.8803 78.9785 83.379 80.1959 84.3763 81.1052C85.403 82.0145 86.7083 82.4692 88.2923 82.4692C90.023 82.4692 91.3723 81.9559 92.3403 80.9292C93.3083 79.8732 93.7923 78.5385 93.7923 76.9252C93.7923 75.3412 93.3083 74.0065 92.3403 72.9212C91.4016 71.8359 90.0816 71.2932 88.3803 71.2932C87.3243 71.2932 86.371 71.5132 85.5203 71.9532C84.6696 72.3932 84.039 72.9505 83.6283 73.6252H76.8523L78.4803 55.4972H97.9723V61.6572H83.9363L83.3643 67.9492C84.127 67.3919 85.007 66.9372 86.0043 66.5852C87.0016 66.2332 88.1896 66.0572 89.5683 66.0572C91.8856 66.0572 93.8803 66.5412 95.5523 67.5092C97.2243 68.4479 98.5003 69.7239 99.3803 71.3372C100.29 72.9212 100.744 74.6959 100.744 76.6612V77.2332C100.744 79.1985 100.26 81.0465 99.2923 82.7772C98.3243 84.4785 96.9016 85.8572 95.0243 86.9132C93.1763 87.9399 90.9176 88.4532 88.2483 88.4532ZM109.313 75.7732C107.873 75.7732 106.685 75.4612 105.749 74.8372C104.813 74.1892 104.105 73.3372 103.625 72.2812C103.169 71.2252 102.941 70.0372 102.941 68.7172V67.7812C102.941 65.7412 103.481 64.0612 104.561 62.7412C105.641 61.4212 107.225 60.7612 109.313 60.7612C111.401 60.7612 112.985 61.4212 114.065 62.7412C115.145 64.0612 115.685 65.7412 115.685 67.7812V68.7172C115.685 70.0372 115.445 71.2252 114.965 72.2812C114.509 73.3372 113.813 74.1892 112.877 74.8372C111.941 75.4612 110.753 75.7732 109.313 75.7732ZM111.113 87.6172L120.689 61.3372H125.513L115.973 87.6172H111.113ZM109.313 71.9212C110.057 71.9212 110.597 71.6572 110.933 71.1292C111.293 70.5772 111.473 69.6292 111.473 68.2852C111.473 66.8692 111.293 65.8972 110.933 65.3692C110.573 64.8412 110.033 64.5772 109.313 64.5772C108.593 64.5772 108.053 64.8412 107.693 65.3692C107.333 65.8972 107.153 66.8572 107.153 68.2492C107.153 69.6172 107.321 70.5772 107.657 71.1292C108.017 71.6572 108.569 71.9212 109.313 71.9212ZM127.205 88.2292C125.765 88.2292 124.565 87.9172 123.605 87.2932C122.669 86.6692 121.973 85.8292 121.517 84.7732C121.061 83.6932 120.833 82.5052 120.833 81.2092V80.2732C120.833 78.2092 121.373 76.5172 122.453 75.1972C123.533 73.8772 125.117 73.2172 127.205 73.2172C129.269 73.2172 130.841 73.8772 131.921 75.1972C133.001 76.5172 133.541 78.2092 133.541 80.2732V81.2092C133.541 82.5052 133.313 83.6932 132.857 84.7732C132.401 85.8292 131.693 86.6692 130.733 87.2932C129.797 87.9172 128.621 88.2292 127.205 88.2292ZM127.205 84.4132C127.925 84.4132 128.465 84.1372 128.825 83.5852C129.185 83.0332 129.365 82.0972 129.365 80.7772C129.365 79.3612 129.173 78.3892 128.789 77.8612C128.429 77.3332 127.901 77.0692 127.205 77.0692C126.485 77.0692 125.933 77.3332 125.549 77.8612C125.189 78.3652 125.009 79.3252 125.009 80.7412C125.009 82.0852 125.189 83.0332 125.549 83.5852C125.909 84.1372 126.461 84.4132 127.205 84.4132Z" fill="black"/>
<path d="M48.9839 116V104.224H53.2559C54.7385 104.224 55.9012 104.592 56.7439 105.328C57.5865 106.053 58.0079 107.051 58.0079 108.32V108.576C58.0079 109.835 57.5865 110.832 56.7439 111.568C55.9012 112.293 54.7385 112.656 53.2559 112.656H51.6079V116H48.9839ZM53.3839 106.496H51.6079V110.384H53.3839C53.9919 110.384 54.4719 110.208 54.8239 109.856C55.1759 109.504 55.3519 109.035 55.3519 108.448C55.3519 107.851 55.1759 107.376 54.8239 107.024C54.4719 106.672 53.9919 106.496 53.3839 106.496ZM59.5899 116V107.232H61.6219V110.208C61.7179 109.216 62.0219 108.453 62.5339 107.92C63.0565 107.387 63.7659 107.12 64.6619 107.12H64.9979V109.328H64.3579C63.6432 109.328 63.0939 109.52 62.7099 109.904C62.3365 110.288 62.1499 110.832 62.1499 111.536V116H59.5899ZM70.5494 116.304C69.5254 116.304 68.6507 116.096 67.9254 115.68C67.2107 115.264 66.6667 114.72 66.2934 114.048C65.92 113.365 65.7334 112.624 65.7334 111.824V111.456C65.7334 110.635 65.9254 109.883 66.3094 109.2C66.704 108.507 67.2587 107.957 67.9734 107.552C68.6987 107.136 69.5574 106.928 70.5494 106.928C71.5414 106.928 72.4 107.136 73.1254 107.552C73.8507 107.957 74.4054 108.507 74.7894 109.2C75.184 109.883 75.3814 110.635 75.3814 111.456V111.824C75.3814 112.624 75.1894 113.365 74.8054 114.048C74.432 114.72 73.888 115.264 73.1734 115.68C72.4587 116.096 71.584 116.304 70.5494 116.304ZM70.5494 114.144C71.2854 114.144 71.8454 113.909 72.2294 113.44C72.624 112.96 72.8214 112.363 72.8214 111.648C72.8214 110.912 72.6187 110.304 72.2134 109.824C71.8187 109.333 71.264 109.088 70.5494 109.088C69.8347 109.088 69.28 109.333 68.8854 109.824C68.4907 110.304 68.2934 110.912 68.2934 111.648C68.2934 112.363 68.4854 112.96 68.8694 113.44C69.2534 113.909 69.8134 114.144 70.5494 114.144ZM78.736 106.336C78.256 106.336 77.8987 106.213 77.664 105.968C77.44 105.712 77.328 105.392 77.328 105.008C77.328 104.613 77.44 104.293 77.664 104.048C77.8987 103.792 78.256 103.664 78.736 103.664C79.216 103.664 79.568 103.792 79.792 104.048C80.0267 104.293 80.144 104.613 80.144 105.008C80.144 105.392 80.0267 105.712 79.792 105.968C79.568 106.213 79.216 106.336 78.736 106.336ZM76.064 119.28V117.12H76.624C77.424 117.12 77.824 116.72 77.824 115.92V109.12H76.608V107.232H80.304V115.84C80.304 117.099 80.0053 117.984 79.408 118.496C78.8107 119.019 77.8507 119.28 76.528 119.28H76.064ZM86.6059 116.304C85.8592 116.304 85.1979 116.176 84.6219 115.92C84.0565 115.664 83.5819 115.323 83.1979 114.896C82.8139 114.459 82.5259 113.973 82.3339 113.44C82.1419 112.896 82.0459 112.341 82.0459 111.776V111.456C82.0459 110.88 82.1419 110.32 82.3339 109.776C82.5259 109.232 82.8139 108.747 83.1979 108.32C83.5819 107.893 84.0459 107.557 84.5899 107.312C85.1445 107.056 85.7845 106.928 86.5099 106.928C87.4485 106.928 88.2379 107.141 88.8779 107.568C89.5285 107.984 90.0245 108.533 90.3659 109.216C90.7072 109.899 90.8779 110.635 90.8779 111.424V112.288H84.4619C84.5472 112.885 84.7605 113.36 85.1019 113.712C85.4539 114.053 85.9552 114.224 86.6059 114.224C87.0645 114.224 87.4432 114.139 87.7419 113.968C88.0512 113.787 88.2592 113.557 88.3659 113.28H90.7179C90.5259 114.176 90.0619 114.907 89.3259 115.472C88.6005 116.027 87.6939 116.304 86.6059 116.304ZM86.5099 109.008C85.9552 109.008 85.5019 109.168 85.1499 109.488C84.8085 109.797 84.5899 110.245 84.4939 110.832H88.4299C88.3445 110.245 88.1365 109.797 87.8059 109.488C87.4859 109.168 87.0539 109.008 86.5099 109.008ZM96.5103 116.304C95.7529 116.304 95.0916 116.181 94.5263 115.936C93.9716 115.68 93.5076 115.339 93.1343 114.912C92.7609 114.485 92.4836 114.005 92.3023 113.472C92.1209 112.928 92.0303 112.368 92.0303 111.792V111.488C92.0303 110.688 92.1956 109.941 92.5263 109.248C92.8676 108.555 93.3689 107.995 94.0303 107.568C94.7023 107.141 95.5236 106.928 96.4943 106.928C97.2836 106.928 97.9823 107.083 98.5903 107.392C99.1983 107.691 99.6836 108.112 100.046 108.656C100.409 109.2 100.612 109.824 100.654 110.528H98.1423C98.0996 110.133 97.9396 109.803 97.6623 109.536C97.3849 109.259 96.9956 109.12 96.4943 109.12C95.8436 109.12 95.3636 109.355 95.0543 109.824C94.7449 110.283 94.5903 110.891 94.5903 111.648C94.5903 112.363 94.7343 112.955 95.0223 113.424C95.3209 113.883 95.8169 114.112 96.5103 114.112C97.0223 114.112 97.4223 113.979 97.7103 113.712C97.9983 113.445 98.1689 113.093 98.2223 112.656H100.718C100.676 113.381 100.468 114.021 100.094 114.576C99.7316 115.12 99.2356 115.547 98.6063 115.856C97.9876 116.155 97.2889 116.304 96.5103 116.304ZM106.34 116.112C105.454 116.112 104.74 116.005 104.196 115.792C103.652 115.568 103.252 115.2 102.996 114.688C102.75 114.165 102.628 113.461 102.628 112.576V109.104H101.3V107.232H102.628V104.864H105.012V107.232H107.572V109.104H105.012V112.672C105.012 113.088 105.118 113.408 105.332 113.632C105.556 113.845 105.87 113.952 106.276 113.952H107.572V116.112H106.34ZM116.588 116.304C115.831 116.304 115.17 116.181 114.604 115.936C114.05 115.68 113.586 115.339 113.212 114.912C112.839 114.485 112.562 114.005 112.38 113.472C112.199 112.928 112.108 112.368 112.108 111.792V111.488C112.108 110.688 112.274 109.941 112.604 109.248C112.946 108.555 113.447 107.995 114.108 107.568C114.78 107.141 115.602 106.928 116.572 106.928C117.362 106.928 118.06 107.083 118.668 107.392C119.276 107.691 119.762 108.112 120.124 108.656C120.487 109.2 120.69 109.824 120.732 110.528H118.22C118.178 110.133 118.018 109.803 117.74 109.536C117.463 109.259 117.074 109.12 116.572 109.12C115.922 109.12 115.442 109.355 115.132 109.824C114.823 110.283 114.668 110.891 114.668 111.648C114.668 112.363 114.812 112.955 115.1 113.424C115.399 113.883 115.895 114.112 116.588 114.112C117.1 114.112 117.5 113.979 117.788 113.712C118.076 113.445 118.247 113.093 118.3 112.656H120.796C120.754 113.381 120.546 114.021 120.172 114.576C119.81 115.12 119.314 115.547 118.684 115.856C118.066 116.155 117.367 116.304 116.588 116.304ZM126.706 116.304C125.682 116.304 124.807 116.096 124.082 115.68C123.367 115.264 122.823 114.72 122.45 114.048C122.076 113.365 121.89 112.624 121.89 111.824V111.456C121.89 110.635 122.082 109.883 122.466 109.2C122.86 108.507 123.415 107.957 124.13 107.552C124.855 107.136 125.714 106.928 126.706 106.928C127.698 106.928 128.556 107.136 129.282 107.552C130.007 107.957 130.562 108.507 130.946 109.2C131.34 109.883 131.538 110.635 131.538 111.456V111.824C131.538 112.624 131.346 113.365 130.962 114.048C130.588 114.72 130.044 115.264 129.33 115.68C128.615 116.096 127.74 116.304 126.706 116.304ZM126.706 114.144C127.442 114.144 128.002 113.909 128.386 113.44C128.78 112.96 128.978 112.363 128.978 111.648C128.978 110.912 128.775 110.304 128.37 109.824C127.975 109.333 127.42 109.088 126.706 109.088C125.991 109.088 125.436 109.333 125.042 109.824C124.647 110.304 124.45 110.912 124.45 111.648C124.45 112.363 124.642 112.96 125.026 113.44C125.41 113.909 125.97 114.144 126.706 114.144ZM133.324 116V107.232H135.356V109.456C135.698 107.792 136.647 106.96 138.204 106.96H138.316C139.671 106.96 140.567 107.595 141.004 108.864C141.452 107.595 142.354 106.96 143.708 106.96H143.82C144.812 106.96 145.57 107.301 146.092 107.984C146.615 108.667 146.876 109.675 146.876 111.008V116H144.316V110.864C144.316 110.384 144.188 109.995 143.932 109.696C143.687 109.397 143.335 109.248 142.876 109.248C142.418 109.248 142.055 109.403 141.788 109.712C141.522 110.021 141.388 110.421 141.388 110.912V116H138.812V110.864C138.812 110.384 138.684 109.995 138.428 109.696C138.183 109.397 137.836 109.248 137.388 109.248C136.919 109.248 136.551 109.403 136.284 109.712C136.018 110.021 135.884 110.421 135.884 110.912V116H133.324ZM149.059 119.2V107.232H151.091V109.456C151.347 108.645 151.773 108.032 152.371 107.616C152.979 107.189 153.688 106.976 154.499 106.976C155.309 106.976 156.013 107.173 156.611 107.568C157.219 107.952 157.688 108.48 158.019 109.152C158.36 109.824 158.531 110.581 158.531 111.424V111.792C158.531 112.635 158.371 113.397 158.051 114.08C157.731 114.763 157.272 115.301 156.675 115.696C156.077 116.091 155.352 116.288 154.499 116.288C153.901 116.288 153.352 116.176 152.851 115.952C152.349 115.728 151.939 115.387 151.619 114.928V119.2H149.059ZM153.779 114.144C154.429 114.144 154.952 113.909 155.347 113.44C155.752 112.971 155.955 112.357 155.955 111.6C155.955 110.853 155.752 110.251 155.347 109.792C154.952 109.333 154.429 109.104 153.779 109.104C153.384 109.104 153.016 109.195 152.675 109.376C152.344 109.557 152.072 109.819 151.859 110.16C151.656 110.501 151.555 110.907 151.555 111.376V111.968C151.555 112.427 151.661 112.821 151.875 113.152C152.099 113.472 152.381 113.717 152.723 113.888C153.064 114.059 153.416 114.144 153.779 114.144ZM160.421 116V106.208H159.381V104.32H162.997V116H160.421ZM169.372 116.304C168.625 116.304 167.964 116.176 167.388 115.92C166.822 115.664 166.348 115.323 165.964 114.896C165.58 114.459 165.292 113.973 165.1 113.44C164.908 112.896 164.812 112.341 164.812 111.776V111.456C164.812 110.88 164.908 110.32 165.1 109.776C165.292 109.232 165.58 108.747 165.964 108.32C166.348 107.893 166.812 107.557 167.356 107.312C167.91 107.056 168.55 106.928 169.276 106.928C170.214 106.928 171.004 107.141 171.644 107.568C172.294 107.984 172.79 108.533 173.132 109.216C173.473 109.899 173.644 110.635 173.644 111.424V112.288H167.228C167.313 112.885 167.526 113.36 167.868 113.712C168.22 114.053 168.721 114.224 169.372 114.224C169.83 114.224 170.209 114.139 170.508 113.968C170.817 113.787 171.025 113.557 171.132 113.28H173.484C173.292 114.176 172.828 114.907 172.092 115.472C171.366 116.027 170.46 116.304 169.372 116.304ZM169.276 109.008C168.721 109.008 168.268 109.168 167.916 109.488C167.574 109.797 167.356 110.245 167.26 110.832H171.196C171.11 110.245 170.902 109.797 170.572 109.488C170.252 109.168 169.82 109.008 169.276 109.008ZM179.324 116.112C178.439 116.112 177.724 116.005 177.18 115.792C176.636 115.568 176.236 115.2 175.98 114.688C175.735 114.165 175.612 113.461 175.612 112.576V109.104H174.284V107.232H175.612V104.864H177.996V107.232H180.556V109.104H177.996V112.672C177.996 113.088 178.103 113.408 178.316 113.632C178.54 113.845 178.855 113.952 179.26 113.952H180.556V116.112H179.324ZM183.685 106.368C183.205 106.368 182.848 106.245 182.613 106C182.389 105.744 182.277 105.424 182.277 105.04C182.277 104.645 182.389 104.325 182.613 104.08C182.848 103.824 183.205 103.696 183.685 103.696C184.165 103.696 184.517 103.824 184.741 104.08C184.976 104.325 185.093 104.645 185.093 105.04C185.093 105.424 184.976 105.744 184.741 106C184.517 106.245 184.165 106.368 183.685 106.368ZM182.693 116V109.12H181.525V107.232H185.253V116H182.693ZM191.893 116.304C190.869 116.304 189.994 116.096 189.269 115.68C188.554 115.264 188.01 114.72 187.637 114.048C187.264 113.365 187.077 112.624 187.077 111.824V111.456C187.077 110.635 187.269 109.883 187.653 109.2C188.048 108.507 188.602 107.957 189.317 107.552C190.042 107.136 190.901 106.928 191.893 106.928C192.885 106.928 193.744 107.136 194.469 107.552C195.194 107.957 195.749 108.507 196.133 109.2C196.528 109.883 196.725 110.635 196.725 111.456V111.824C196.725 112.624 196.533 113.365 196.149 114.048C195.776 114.72 195.232 115.264 194.517 115.68C193.802 116.096 192.928 116.304 191.893 116.304ZM191.893 114.144C192.629 114.144 193.189 113.909 193.573 113.44C193.968 112.96 194.165 112.363 194.165 111.648C194.165 110.912 193.962 110.304 193.557 109.824C193.162 109.333 192.608 109.088 191.893 109.088C191.178 109.088 190.624 109.333 190.229 109.824C189.834 110.304 189.637 110.912 189.637 111.648C189.637 112.363 189.829 112.96 190.213 113.44C190.597 113.909 191.157 114.144 191.893 114.144ZM198.512 116V107.232H200.544V109.472C200.896 107.797 201.882 106.96 203.504 106.96H203.616C204.629 106.96 205.408 107.296 205.952 107.968C206.496 108.629 206.768 109.637 206.768 110.992V116H204.208V110.848C204.208 110.379 204.069 109.995 203.792 109.696C203.514 109.397 203.141 109.248 202.672 109.248C202.192 109.248 201.802 109.403 201.504 109.712C201.216 110.011 201.072 110.405 201.072 110.896V116H198.512ZM52.3599 136.336C51.4959 136.336 50.7385 136.171 50.0879 135.84C49.4479 135.499 48.9465 135.04 48.5839 134.464C48.2212 133.877 48.0399 133.227 48.0399 132.512V132.288C48.0399 131.573 48.2265 130.933 48.5999 130.368C48.9732 129.792 49.4639 129.333 50.0719 128.992C49.8479 128.512 49.7359 127.984 49.7359 127.408C49.7359 126.427 50.0612 125.643 50.7119 125.056C51.3625 124.459 52.4079 124.16 53.8479 124.16C54.2425 124.16 54.6425 124.181 55.0479 124.224C55.4532 124.267 55.8159 124.309 56.1359 124.352V126.464C55.9225 126.432 55.6612 126.405 55.3519 126.384C55.0425 126.352 54.7332 126.325 54.4239 126.304C54.1252 126.283 53.8799 126.272 53.6879 126.272C53.0585 126.272 52.6372 126.384 52.4239 126.608C52.2105 126.832 52.1039 127.141 52.1039 127.536C52.1039 127.899 52.1892 128.251 52.3599 128.592C52.5412 128.923 52.8345 129.307 53.2399 129.744L55.4479 132.144C55.5865 131.824 55.6932 131.461 55.7679 131.056C55.8532 130.651 55.9065 130.197 55.9279 129.696H54.4239V127.824H58.9679V129.696H58.1679C58.1359 130.539 58.0185 131.307 57.8159 132C57.6132 132.683 57.3412 133.285 56.9999 133.808L59.0159 136H56.1839L55.5599 135.328C54.6212 136 53.5545 136.336 52.3599 136.336ZM50.4079 132.256C50.4079 132.832 50.5785 133.307 50.9199 133.68C51.2719 134.043 51.7999 134.224 52.5039 134.224C53.1119 134.224 53.6559 134.08 54.1359 133.792L51.7199 131.184C51.4745 130.917 51.2612 130.677 51.0799 130.464C50.8879 130.677 50.7279 130.933 50.5999 131.232C50.4719 131.531 50.4079 131.872 50.4079 132.256ZM63.9024 136V124.32H66.4624V128.672C66.9317 127.531 67.7957 126.96 69.0544 126.96H69.1664C70.137 126.96 70.8784 127.307 71.3904 128C71.9024 128.683 72.1584 129.685 72.1584 131.008V136H69.5984V130.848C69.5984 130.368 69.4544 129.984 69.1664 129.696C68.889 129.397 68.521 129.248 68.0624 129.248C67.5824 129.248 67.193 129.408 66.8944 129.728C66.6064 130.037 66.4624 130.443 66.4624 130.944V136H63.9024ZM76.8359 136.224C75.8865 136.224 75.1185 135.979 74.5319 135.488C73.9559 134.997 73.6679 134.304 73.6679 133.408C73.6679 132.768 73.8332 132.245 74.1639 131.84C74.4945 131.424 74.9585 131.12 75.5559 130.928C76.1532 130.725 76.8412 130.624 77.6199 130.624H79.2039V130.592C79.2039 129.696 78.7559 129.248 77.8599 129.248C77.6252 129.248 77.3159 129.259 76.9319 129.28C76.5479 129.291 76.1479 129.307 75.7319 129.328C75.3265 129.339 74.9639 129.355 74.6439 129.376V127.216C75.0172 127.184 75.4759 127.157 76.0199 127.136C76.5639 127.104 77.0652 127.088 77.5239 127.088C78.8679 127.088 79.8919 127.376 80.5959 127.952C81.3105 128.517 81.6679 129.408 81.6679 130.624V136H79.6359V134.352C79.4439 134.96 79.1132 135.424 78.6439 135.744C78.1745 136.064 77.5719 136.224 76.8359 136.224ZM77.6039 134.448C78.0199 134.448 78.3825 134.331 78.6919 134.096C79.0012 133.861 79.1719 133.413 79.2039 132.752V132.048H77.6039C77.1559 132.048 76.8092 132.16 76.5639 132.384C76.3292 132.608 76.2119 132.901 76.2119 133.264C76.2119 133.616 76.3292 133.904 76.5639 134.128C76.8092 134.341 77.1559 134.448 77.6039 134.448ZM83.8399 139.2V127.232H85.8719V129.456C86.1279 128.645 86.5545 128.032 87.1519 127.616C87.7599 127.189 88.4692 126.976 89.2799 126.976C90.0905 126.976 90.7945 127.173 91.3919 127.568C91.9999 127.952 92.4692 128.48 92.7999 129.152C93.1412 129.824 93.3119 130.581 93.3119 131.424V131.792C93.3119 132.635 93.1519 133.397 92.8319 134.08C92.5119 134.763 92.0532 135.301 91.4559 135.696C90.8585 136.091 90.1332 136.288 89.2799 136.288C88.6825 136.288 88.1332 136.176 87.6319 135.952C87.1305 135.728 86.7199 135.387 86.3999 134.928V139.2H83.8399ZM88.5599 134.144C89.2105 134.144 89.7332 133.909 90.1279 133.44C90.5332 132.971 90.7359 132.357 90.7359 131.6C90.7359 130.853 90.5332 130.251 90.1279 129.792C89.7332 129.333 89.2105 129.104 88.5599 129.104C88.1652 129.104 87.7972 129.195 87.4559 129.376C87.1252 129.557 86.8532 129.819 86.6399 130.16C86.4372 130.501 86.3359 130.907 86.3359 131.376V131.968C86.3359 132.427 86.4425 132.821 86.6559 133.152C86.8799 133.472 87.1625 133.717 87.5039 133.888C87.8452 134.059 88.1972 134.144 88.5599 134.144ZM95.0899 139.2V127.232H97.1219V129.456C97.3779 128.645 97.8045 128.032 98.4019 127.616C99.0099 127.189 99.7192 126.976 100.53 126.976C101.341 126.976 102.045 127.173 102.642 127.568C103.25 127.952 103.719 128.48 104.05 129.152C104.391 129.824 104.562 130.581 104.562 131.424V131.792C104.562 132.635 104.402 133.397 104.082 134.08C103.762 134.763 103.303 135.301 102.706 135.696C102.109 136.091 101.383 136.288 100.53 136.288C99.9325 136.288 99.3832 136.176 98.8819 135.952C98.3805 135.728 97.9699 135.387 97.6499 134.928V139.2H95.0899ZM99.8099 134.144C100.461 134.144 100.983 133.909 101.378 133.44C101.783 132.971 101.986 132.357 101.986 131.6C101.986 130.853 101.783 130.251 101.378 129.792C100.983 129.333 100.461 129.104 99.8099 129.104C99.4152 129.104 99.0472 129.195 98.7059 129.376C98.3752 129.557 98.1032 129.819 97.8899 130.16C97.6872 130.501 97.5859 130.907 97.5859 131.376V131.968C97.5859 132.427 97.6925 132.821 97.9059 133.152C98.1299 133.472 98.4125 133.717 98.7539 133.888C99.0952 134.059 99.4472 134.144 99.8099 134.144ZM107.737 135.808L105.049 127.232H107.625L109.561 133.808H109.881L111.481 127.232H113.913L111.465 136.704C111.283 137.387 111.038 137.931 110.729 138.336C110.43 138.741 110.025 139.029 109.513 139.2C109.011 139.381 108.377 139.472 107.609 139.472H106.041V137.296H107.865C108.27 137.296 108.585 137.216 108.809 137.056C109.043 136.896 109.214 136.608 109.321 136.192L109.401 135.808H107.737ZM122.557 136.304C121.8 136.304 121.138 136.181 120.573 135.936C120.018 135.68 119.554 135.339 119.181 134.912C118.808 134.485 118.53 134.005 118.349 133.472C118.168 132.928 118.077 132.368 118.077 131.792V131.488C118.077 130.688 118.242 129.941 118.573 129.248C118.914 128.555 119.416 127.995 120.077 127.568C120.749 127.141 121.57 126.928 122.541 126.928C123.33 126.928 124.029 127.083 124.637 127.392C125.245 127.691 125.73 128.112 126.093 128.656C126.456 129.2 126.658 129.824 126.701 130.528H124.189C124.146 130.133 123.986 129.803 123.709 129.536C123.432 129.259 123.042 129.12 122.541 129.12C121.89 129.12 121.41 129.355 121.101 129.824C120.792 130.283 120.637 130.891 120.637 131.648C120.637 132.363 120.781 132.955 121.069 133.424C121.368 133.883 121.864 134.112 122.557 134.112C123.069 134.112 123.469 133.979 123.757 133.712C124.045 133.445 124.216 133.093 124.269 132.656H126.765C126.722 133.381 126.514 134.021 126.141 134.576C125.778 135.12 125.282 135.547 124.653 135.856C124.034 136.155 123.336 136.304 122.557 136.304ZM131.362 136.272C130.349 136.272 129.57 135.947 129.026 135.296C128.482 134.645 128.21 133.653 128.21 132.32V127.232H130.77V132.448C130.77 132.917 130.904 133.291 131.17 133.568C131.437 133.845 131.794 133.984 132.242 133.984C132.701 133.984 133.074 133.84 133.362 133.552C133.65 133.264 133.794 132.875 133.794 132.384V127.232H136.354V136H134.322V133.952C133.96 135.499 133.01 136.272 131.474 136.272H131.362ZM142.043 136.272C140.795 136.272 139.819 136.016 139.115 135.504C138.411 134.992 138.038 134.272 137.995 133.344H140.267C140.299 133.621 140.464 133.872 140.763 134.096C141.062 134.309 141.504 134.416 142.091 134.416C142.528 134.416 142.896 134.341 143.195 134.192C143.494 134.043 143.643 133.819 143.643 133.52C143.643 133.264 143.531 133.061 143.307 132.912C143.083 132.752 142.683 132.64 142.107 132.576L141.419 132.512C140.363 132.395 139.568 132.101 139.035 131.632C138.512 131.163 138.251 130.549 138.251 129.792C138.251 129.173 138.406 128.656 138.715 128.24C139.035 127.824 139.467 127.509 140.011 127.296C140.555 127.083 141.179 126.976 141.883 126.976C143.014 126.976 143.92 127.227 144.603 127.728C145.296 128.219 145.664 128.933 145.707 129.872H143.435C143.392 129.595 143.238 129.355 142.971 129.152C142.715 128.949 142.342 128.848 141.851 128.848C141.456 128.848 141.142 128.923 140.907 129.072C140.672 129.221 140.555 129.424 140.555 129.68C140.555 129.925 140.656 130.112 140.859 130.24C141.062 130.368 141.392 130.459 141.851 130.512L142.539 130.576C143.606 130.693 144.438 130.997 145.035 131.488C145.643 131.968 145.947 132.608 145.947 133.408C145.947 134.293 145.595 134.992 144.891 135.504C144.187 136.016 143.238 136.272 142.043 136.272ZM151.59 136.112C150.704 136.112 149.99 136.005 149.446 135.792C148.902 135.568 148.502 135.2 148.246 134.688C148 134.165 147.878 133.461 147.878 132.576V129.104H146.55V127.232H147.878V124.864H150.262V127.232H152.822V129.104H150.262V132.672C150.262 133.088 150.368 133.408 150.582 133.632C150.806 133.845 151.12 133.952 151.526 133.952H152.822V136.112H151.59ZM158.784 136.304C157.76 136.304 156.885 136.096 156.16 135.68C155.445 135.264 154.901 134.72 154.528 134.048C154.154 133.365 153.968 132.624 153.968 131.824V131.456C153.968 130.635 154.16 129.883 154.544 129.2C154.938 128.507 155.493 127.957 156.208 127.552C156.933 127.136 157.792 126.928 158.784 126.928C159.776 126.928 160.634 127.136 161.36 127.552C162.085 127.957 162.64 128.507 163.024 129.2C163.418 129.883 163.616 130.635 163.616 131.456V131.824C163.616 132.624 163.424 133.365 163.04 134.048C162.666 134.72 162.122 135.264 161.408 135.68C160.693 136.096 159.818 136.304 158.784 136.304ZM158.784 134.144C159.52 134.144 160.08 133.909 160.464 133.44C160.858 132.96 161.056 132.363 161.056 131.648C161.056 130.912 160.853 130.304 160.448 129.824C160.053 129.333 159.498 129.088 158.784 129.088C158.069 129.088 157.514 129.333 157.12 129.824C156.725 130.304 156.528 130.912 156.528 131.648C156.528 132.363 156.72 132.96 157.104 133.44C157.488 133.909 158.048 134.144 158.784 134.144ZM165.402 136V127.232H167.434V129.456C167.776 127.792 168.725 126.96 170.282 126.96H170.394C171.749 126.96 172.645 127.595 173.082 128.864C173.53 127.595 174.432 126.96 175.786 126.96H175.898C176.89 126.96 177.648 127.301 178.17 127.984C178.693 128.667 178.954 129.675 178.954 131.008V136H176.394V130.864C176.394 130.384 176.266 129.995 176.01 129.696C175.765 129.397 175.413 129.248 174.954 129.248C174.496 129.248 174.133 129.403 173.866 129.712C173.6 130.021 173.466 130.421 173.466 130.912V136H170.89V130.864C170.89 130.384 170.762 129.995 170.506 129.696C170.261 129.397 169.914 129.248 169.466 129.248C168.997 129.248 168.629 129.403 168.362 129.712C168.096 130.021 167.962 130.421 167.962 130.912V136H165.402ZM185.153 136.304C184.406 136.304 183.745 136.176 183.169 135.92C182.603 135.664 182.129 135.323 181.745 134.896C181.361 134.459 181.073 133.973 180.881 133.44C180.689 132.896 180.593 132.341 180.593 131.776V131.456C180.593 130.88 180.689 130.32 180.881 129.776C181.073 129.232 181.361 128.747 181.745 128.32C182.129 127.893 182.593 127.557 183.137 127.312C183.691 127.056 184.331 126.928 185.057 126.928C185.995 126.928 186.785 127.141 187.425 127.568C188.075 127.984 188.571 128.533 188.913 129.216C189.254 129.899 189.425 130.635 189.425 131.424V132.288H183.009C183.094 132.885 183.307 133.36 183.649 133.712C184.001 134.053 184.502 134.224 185.153 134.224C185.611 134.224 185.99 134.139 186.289 133.968C186.598 133.787 186.806 133.557 186.913 133.28H189.265C189.073 134.176 188.609 134.907 187.873 135.472C187.147 136.027 186.241 136.304 185.153 136.304ZM185.057 129.008C184.502 129.008 184.049 129.168 183.697 129.488C183.355 129.797 183.137 130.245 183.041 130.832H186.977C186.891 130.245 186.683 129.797 186.353 129.488C186.033 129.168 185.601 129.008 185.057 129.008ZM191.121 136V127.232H193.153V130.208C193.249 129.216 193.553 128.453 194.065 127.92C194.588 127.387 195.297 127.12 196.193 127.12H196.529V129.328H195.889C195.174 129.328 194.625 129.52 194.241 129.904C193.868 130.288 193.681 130.832 193.681 131.536V136H191.121ZM201.184 136.272C199.936 136.272 198.96 136.016 198.256 135.504C197.552 134.992 197.178 134.272 197.136 133.344H199.408C199.44 133.621 199.605 133.872 199.904 134.096C200.202 134.309 200.645 134.416 201.232 134.416C201.669 134.416 202.037 134.341 202.336 134.192C202.634 134.043 202.784 133.819 202.784 133.52C202.784 133.264 202.672 133.061 202.448 132.912C202.224 132.752 201.824 132.64 201.248 132.576L200.56 132.512C199.504 132.395 198.709 132.101 198.176 131.632C197.653 131.163 197.392 130.549 197.392 129.792C197.392 129.173 197.546 128.656 197.856 128.24C198.176 127.824 198.608 127.509 199.152 127.296C199.696 127.083 200.32 126.976 201.024 126.976C202.154 126.976 203.061 127.227 203.744 127.728C204.437 128.219 204.805 128.933 204.848 129.872H202.576C202.533 129.595 202.378 129.355 202.112 129.152C201.856 128.949 201.482 128.848 200.992 128.848C200.597 128.848 200.282 128.923 200.048 129.072C199.813 129.221 199.696 129.424 199.696 129.68C199.696 129.925 199.797 130.112 200 130.24C200.202 130.368 200.533 130.459 200.992 130.512L201.68 130.576C202.746 130.693 203.578 130.997 204.176 131.488C204.784 131.968 205.088 132.608 205.088 133.408C205.088 134.293 204.736 134.992 204.032 135.504C203.328 136.016 202.378 136.272 201.184 136.272Z" fill="#6E718F"/>
</g>
<path d="M94.6349 286.925C99.8557 248.619 135.141 221.799 173.447 227.019L242.805 236.472L214.717 442.567L75.9991 423.661L94.6349 286.925Z" fill="#E5D8FB"/>
<path d="M254.755 211.287L317.547 229.324L262.178 422.079L133.068 384.992L169.387 258.555C179.908 221.929 218.129 200.766 254.755 211.287Z" stroke="black" stroke-width="2"/>
</g>
<defs>
<linearGradient id="paint0_linear_635_286" x1="189.5" y1="0" x2="189.5" y2="450" gradientUnits="userSpaceOnUse">
<stop stop-color="#FFF2ED"/>
<stop offset="1" stop-color="#F3F5F9"/>
</linearGradient>
<linearGradient id="paint1_linear_635_286" x1="371.5" y1="28" x2="371.5" y2="752" gradientUnits="userSpaceOnUse">
<stop offset="0.0424238" stop-color="#EEF4FF"/>
<stop offset="0.307617" stop-color="#EEF4FF" stop-opacity="0.8"/>
<stop offset="0.484413" stop-color="#EEF4FF" stop-opacity="0"/>
</linearGradient>
<linearGradient id="paint2_linear_635_286" x1="371.5" y1="28" x2="371.5" y2="752" gradientUnits="userSpaceOnUse">
<stop stop-color="white"/>
<stop offset="1" stop-color="white" stop-opacity="0"/>
</linearGradient>
<clipPath id="clip0_635_286">
<rect width="386" height="542" fill="white" transform="translate(212.518 59.6875) rotate(6.61684)"/>
</clipPath>
</defs>
</svg>
