<svg width="130" height="128" viewBox="0 0 130 128" fill="none" xmlns="http://www.w3.org/2000/svg">
<path opacity="0.34" d="M120.549 12.3813L22.8641 12.3813C17.9935 12.3813 14.0452 16.235 14.0452 20.9886L14.0452 119.097C14.0452 123.851 17.9935 127.704 22.8641 127.704H120.549C125.42 127.704 129.368 123.851 129.368 119.097V20.9886C129.368 16.235 125.42 12.3813 120.549 12.3813Z" fill="#E8E7FB"/>
<g filter="url(#filter0_d_847_1068)">
<path d="M103.932 1L13.5724 1C8.83799 1 5 4.7111 5 9.28897L5 100.216C5 104.793 8.83799 108.505 13.5724 108.505H103.932C108.667 108.505 112.505 104.793 112.505 100.216V9.28897C112.505 4.7111 108.667 1 103.932 1Z" fill="white"/>
</g>
<g opacity="0.7" filter="url(#filter1_d_847_1068)">
<rect x="10" y="6" width="25" height="25" rx="12.5" fill="url(#paint0_linear_847_1068)"/>
</g>
<path opacity="0.99" fill-rule="evenodd" clip-rule="evenodd" d="M29.8212 11.8242C30.2183 12.8649 31.5221 16.2815 32.2303 18.1376C32.3209 18.3749 32.3682 18.8495 32.3682 18.8495C32.3682 18.8495 32.2866 19.3532 32.1789 19.6051C31.5457 21.086 30.4486 23.6516 29.9069 24.9186C29.7089 25.3816 29.5223 25.5778 29.5223 25.5778C29.5223 25.5778 29.1815 25.8256 28.9796 25.9029C27.2257 26.574 24.0753 27.7795 22.8644 28.2429C22.5545 28.3614 22.3501 28.3687 22.3501 28.3687C22.3501 28.3687 22.1891 28.3458 21.9485 28.2429C20.826 27.763 17.5291 26.3611 15.6971 25.5778C15.57 25.5235 15.3159 25.2817 15.3159 25.2817C15.3159 25.2817 15.1914 25.0951 15.1291 24.9353C14.3276 22.8776 13.5262 20.82 12.7247 18.7623C12.649 18.5679 12.6313 18.1792 12.6313 18.1792C12.6313 18.1792 12.6954 17.7179 12.7943 17.4872C13.4576 15.9403 14.6248 13.2187 15.1478 11.999C15.3134 11.6128 15.4759 11.4373 15.4759 11.4373C15.4759 11.4373 15.6632 11.2801 16.0728 11.1201C17.4008 10.6015 20.4192 9.42278 22.1301 8.75467C22.3486 8.66934 22.7855 8.63184 22.7855 8.63184C22.7855 8.63184 23.192 8.67592 23.3952 8.76454C25.1343 9.52286 28.3116 10.9083 29.3586 11.3649C29.5775 11.4604 29.6628 11.5452 29.6628 11.5452C29.6628 11.5452 29.746 11.6271 29.8212 11.8242ZM22.6151 12.0892C22.5706 12.0892 22.5261 12.0905 22.4817 12.0931L22.4331 12.0919L22.3938 12.0926C21.2111 12.1744 20.3366 13.147 20.3552 14.3516C20.3734 15.5286 20.9495 16.7432 22.037 17.9219L21.7078 18.4208C21.6553 18.5086 21.6052 18.593 21.556 18.6765C20.6789 18.0939 19.7447 17.6415 19.0115 17.451C18.7478 17.3832 18.4758 17.5367 18.4043 17.7989C18.3324 18.0639 18.4927 18.3336 18.7583 18.4024C19.3782 18.5628 20.252 18.9919 21.0638 19.5384C20.2391 21.0373 20.015 21.7546 20.0083 22.567C20.0045 23.0955 20.2283 23.5931 20.6352 23.9649C21.0392 24.3343 21.5769 24.5407 22.1317 24.5407C22.1827 24.5407 22.2344 24.5389 22.2859 24.5352L22.4144 24.5265C23.5539 24.4473 24.4225 23.4791 24.3904 22.3231C24.3651 21.4134 23.7587 20.3805 22.3616 19.2632C22.4219 19.16 22.4863 19.0513 22.5558 18.9355L22.7572 18.6298C22.9378 18.7919 23.1267 18.9521 23.3234 19.1098C24.4967 20.0496 26.0177 20.928 26.6791 21.1683C26.9346 21.2611 27.2198 21.1342 27.3165 20.8806C27.3367 20.8267 27.3472 20.7714 27.3488 20.7024C27.3462 20.4973 27.2174 20.316 27.0226 20.2453C26.4662 20.043 25.0401 19.2184 23.9508 18.3461C23.7283 18.1681 23.5133 17.9838 23.309 17.7944L23.4942 17.5118C24.2713 16.2413 24.8592 14.9398 24.7959 14.0761C24.7547 13.5054 24.4868 12.9838 24.0436 12.6097C23.6433 12.2717 23.1414 12.0892 22.6151 12.0892ZM22.6438 17.0025L22.6006 17.068C21.8123 16.1615 21.3646 15.2425 21.3504 14.3365C21.3402 13.6643 21.8078 13.1265 22.4423 13.0751L22.4793 13.0769L22.5263 13.0759C22.8468 13.0539 23.1552 13.1539 23.397 13.3579C23.6372 13.5602 23.7811 13.8405 23.8033 14.1475C23.8414 14.6692 23.3405 15.8612 22.6438 17.0025ZM21.3111 23.2434C21.1096 23.0589 21.0017 22.8224 21.0038 22.5741C21.0089 21.9599 21.1613 21.4405 21.8682 20.138C22.8113 20.919 23.3774 21.7095 23.395 22.3505C23.4128 22.9912 22.9623 23.5027 22.3447 23.5452L22.2156 23.5543C22.1849 23.5563 22.1586 23.5573 22.1337 23.5573C21.8309 23.5573 21.5278 23.4416 21.3111 23.2434Z" fill="#DCDCDC"/>
<path d="M79.0542 48.3549L67.256 36.5567C67.2391 36.5398 67.2208 36.525 67.2033 36.5089C67.1805 36.488 67.1584 36.4664 67.1345 36.4467C67.1186 36.4337 67.1016 36.4224 67.0853 36.4099C67.0577 36.3888 67.0304 36.3674 67.0016 36.3479C66.9885 36.3391 66.9746 36.3318 66.9614 36.3235C66.928 36.3024 66.8945 36.2814 66.8595 36.2625C66.85 36.2575 66.8401 36.2536 66.8306 36.2487C66.7911 36.2283 66.7511 36.2088 66.7098 36.1916C66.7034 36.1889 66.6966 36.1869 66.6901 36.1843C66.6457 36.1665 66.6007 36.1498 66.5546 36.1358C66.5479 36.1338 66.541 36.1325 66.5343 36.1306C66.4886 36.1173 66.4423 36.105 66.3949 36.0956C66.3799 36.0926 66.3644 36.0912 66.3492 36.0887C66.3101 36.0819 66.2711 36.075 66.2313 36.071C66.1753 36.0654 66.119 36.0625 66.0627 36.0625H45.811C44.9162 36.0635 44.0584 36.4194 43.4257 37.0521C42.793 37.6849 42.4371 38.5427 42.436 39.4375V76.5625C42.4371 77.4573 42.793 78.3151 43.4257 78.9479C44.0584 79.5806 44.9162 79.9365 45.811 79.9375H76.1877C77.0825 79.9365 77.9403 79.5806 78.573 78.9479C79.2057 78.3151 79.5617 77.4573 79.5627 76.5625V49.5952C79.5629 49.5841 79.5643 49.5735 79.5643 49.5625C79.5645 49.3373 79.5194 49.1144 79.4318 48.9069C79.3442 48.6995 79.2158 48.5117 79.0542 48.3549ZM68.8997 70.9634C68.5832 71.2798 68.154 71.4576 67.7065 71.4576C67.259 71.4576 66.8298 71.2798 66.5133 70.9634L64.1961 68.6462C62.617 69.6371 60.7282 70.0115 58.8905 69.6981C57.0528 69.3847 55.395 68.4054 54.2335 66.9471C53.0721 65.4889 52.4885 63.6539 52.5942 61.7927C52.6999 59.9315 53.4874 58.1744 54.8064 56.857C56.1255 55.5396 57.8835 54.7542 59.7449 54.6508C61.6063 54.5474 63.4405 55.1333 64.8973 56.2965C66.3541 57.4597 67.3314 59.1188 67.6426 60.9569C67.9537 62.795 67.5769 64.6833 66.5841 66.2611L68.8997 68.5767C69.0564 68.7335 69.1808 68.9195 69.2656 69.1242C69.3504 69.329 69.394 69.5484 69.394 69.7701C69.394 69.9917 69.3504 70.2111 69.2656 70.4159C69.1808 70.6206 69.0564 70.8067 68.8997 70.9634ZM66.0627 49.5625V40.1364L75.4885 49.5625H66.0627Z" fill="url(#paint1_linear_847_1068)"/>
<path d="M60.155 58.002C59.1798 58.0027 58.2351 58.3416 57.4817 58.9608C56.7283 59.58 56.2129 60.4412 56.0233 61.3978C55.8337 62.3544 55.9816 63.3471 56.4419 64.2068C56.9021 65.0666 57.6461 65.7402 58.5473 66.1129C59.4485 66.4855 60.451 66.5343 61.384 66.2507C62.3171 65.9672 63.1229 65.3689 63.6644 64.5578C64.2058 63.7467 64.4493 62.773 64.3533 61.8026C64.2573 60.8321 63.8279 59.925 63.1381 59.2357C62.7466 58.8437 62.2816 58.5329 61.7697 58.3212C61.2577 58.1094 60.709 58.001 60.155 58.002Z" fill="url(#paint2_linear_847_1068)"/>
<defs>
<filter id="filter0_d_847_1068" x="1" y="1" width="115.505" height="115.504" filterUnits="userSpaceOnUse" color-interpolation-filters="sRGB">
<feFlood flood-opacity="0" result="BackgroundImageFix"/>
<feColorMatrix in="SourceAlpha" type="matrix" values="0 0 0 0 0 0 0 0 0 0 0 0 0 0 0 0 0 0 127 0" result="hardAlpha"/>
<feOffset dy="4"/>
<feGaussianBlur stdDeviation="2"/>
<feColorMatrix type="matrix" values="0 0 0 0 0 0 0 0 0 0 0 0 0 0 0 0 0 0 0.05 0"/>
<feBlend mode="normal" in2="BackgroundImageFix" result="effect1_dropShadow_847_1068"/>
<feBlend mode="normal" in="SourceGraphic" in2="effect1_dropShadow_847_1068" result="shape"/>
</filter>
<filter id="filter1_d_847_1068" x="0" y="0" width="45" height="45" filterUnits="userSpaceOnUse" color-interpolation-filters="sRGB">
<feFlood flood-opacity="0" result="BackgroundImageFix"/>
<feColorMatrix in="SourceAlpha" type="matrix" values="0 0 0 0 0 0 0 0 0 0 0 0 0 0 0 0 0 0 127 0" result="hardAlpha"/>
<feOffset dy="4"/>
<feGaussianBlur stdDeviation="5"/>
<feComposite in2="hardAlpha" operator="out"/>
<feColorMatrix type="matrix" values="0 0 0 0 0 0 0 0 0 0 0 0 0 0 0 0 0 0 0.02 0"/>
<feBlend mode="normal" in2="BackgroundImageFix" result="effect1_dropShadow_847_1068"/>
<feBlend mode="normal" in="SourceGraphic" in2="effect1_dropShadow_847_1068" result="shape"/>
</filter>
<linearGradient id="paint0_linear_847_1068" x1="22.5" y1="6" x2="22.5" y2="31" gradientUnits="userSpaceOnUse">
<stop stop-color="#F5E5EA"/>
<stop offset="1" stop-color="white"/>
</linearGradient>
<linearGradient id="paint1_linear_847_1068" x1="59.954" y1="35.2489" x2="59.954" y2="83.9989" gradientUnits="userSpaceOnUse">
<stop stop-color="#FFADB0"/>
<stop offset="0.54" stop-color="#D19CCD"/>
<stop offset="1" stop-color="#9183F6"/>
</linearGradient>
<linearGradient id="paint2_linear_847_1068" x1="59.9208" y1="57.8456" x2="59.9208" y2="67.2133" gradientUnits="userSpaceOnUse">
<stop stop-color="#FFADB0"/>
<stop offset="0.54" stop-color="#D19CCD"/>
<stop offset="1" stop-color="#9183F6"/>
</linearGradient>
</defs>
</svg>
