<svg width="130" height="128" viewBox="0 0 130 128" fill="none" xmlns="http://www.w3.org/2000/svg">
<path opacity="0.34" d="M120.549 12.3813L22.8641 12.3813C17.9935 12.3813 14.0452 16.235 14.0452 20.9886L14.0452 119.097C14.0452 123.851 17.9935 127.704 22.8641 127.704H120.549C125.42 127.704 129.368 123.851 129.368 119.097V20.9886C129.368 16.235 125.42 12.3813 120.549 12.3813Z" fill="#E8E7FB"/>
<g filter="url(#filter0_d_852_1310)">
<path d="M103.932 1L13.5724 1C8.83799 1 5 4.7111 5 9.28897L5 100.216C5 104.793 8.83799 108.505 13.5724 108.505H103.932C108.667 108.505 112.505 104.793 112.505 100.216V9.28897C112.505 4.7111 108.667 1 103.932 1Z" fill="white"/>
</g>
<g opacity="0.7" filter="url(#filter1_d_852_1310)">
<rect x="10" y="6" width="25" height="25" rx="12.5" fill="url(#paint0_linear_852_1310)"/>
</g>
<path opacity="0.99" fill-rule="evenodd" clip-rule="evenodd" d="M29.8212 11.8242C30.2183 12.8649 31.5221 16.2815 32.2303 18.1376C32.3209 18.3749 32.3682 18.8495 32.3682 18.8495C32.3682 18.8495 32.2866 19.3532 32.1789 19.6051C31.5457 21.086 30.4486 23.6516 29.9069 24.9186C29.7089 25.3816 29.5223 25.5778 29.5223 25.5778C29.5223 25.5778 29.1815 25.8256 28.9796 25.9029C27.2257 26.574 24.0753 27.7795 22.8644 28.2429C22.5545 28.3614 22.3501 28.3687 22.3501 28.3687C22.3501 28.3687 22.1891 28.3458 21.9485 28.2429C20.826 27.763 17.5291 26.3611 15.6971 25.5778C15.57 25.5235 15.3159 25.2817 15.3159 25.2817C15.3159 25.2817 15.1914 25.0951 15.1291 24.9353C14.3276 22.8776 13.5262 20.82 12.7247 18.7623C12.649 18.5679 12.6313 18.1792 12.6313 18.1792C12.6313 18.1792 12.6954 17.7179 12.7943 17.4872C13.4576 15.9403 14.6248 13.2187 15.1478 11.999C15.3134 11.6128 15.4759 11.4373 15.4759 11.4373C15.4759 11.4373 15.6632 11.2801 16.0728 11.1201C17.4008 10.6015 20.4192 9.42278 22.1301 8.75467C22.3486 8.66934 22.7855 8.63184 22.7855 8.63184C22.7855 8.63184 23.192 8.67592 23.3952 8.76454C25.1343 9.52286 28.3116 10.9083 29.3586 11.3649C29.5775 11.4604 29.6628 11.5452 29.6628 11.5452C29.6628 11.5452 29.746 11.6271 29.8212 11.8242ZM22.6151 12.0892C22.5706 12.0892 22.5261 12.0905 22.4817 12.0931L22.4331 12.0919L22.3938 12.0926C21.2111 12.1744 20.3366 13.147 20.3552 14.3516C20.3734 15.5286 20.9495 16.7432 22.037 17.9219L21.7078 18.4208C21.6553 18.5086 21.6052 18.593 21.556 18.6765C20.6789 18.0939 19.7447 17.6415 19.0115 17.451C18.7478 17.3832 18.4758 17.5367 18.4043 17.7989C18.3324 18.0639 18.4927 18.3336 18.7583 18.4024C19.3782 18.5628 20.252 18.9919 21.0638 19.5384C20.2391 21.0373 20.015 21.7546 20.0083 22.567C20.0045 23.0955 20.2283 23.5931 20.6352 23.9649C21.0392 24.3343 21.5769 24.5407 22.1317 24.5407C22.1827 24.5407 22.2344 24.5389 22.2859 24.5352L22.4144 24.5265C23.5539 24.4473 24.4225 23.4791 24.3904 22.3231C24.3651 21.4134 23.7587 20.3805 22.3616 19.2632C22.4219 19.16 22.4863 19.0513 22.5558 18.9355L22.7572 18.6298C22.9378 18.7919 23.1267 18.9521 23.3234 19.1098C24.4967 20.0496 26.0177 20.928 26.6791 21.1683C26.9346 21.2611 27.2198 21.1342 27.3165 20.8806C27.3367 20.8267 27.3472 20.7714 27.3488 20.7024C27.3462 20.4973 27.2174 20.316 27.0226 20.2453C26.4662 20.043 25.0401 19.2184 23.9508 18.3461C23.7283 18.1681 23.5133 17.9838 23.309 17.7944L23.4942 17.5118C24.2713 16.2413 24.8592 14.9398 24.7959 14.0761C24.7547 13.5054 24.4868 12.9838 24.0436 12.6097C23.6433 12.2717 23.1414 12.0892 22.6151 12.0892ZM22.6438 17.0025L22.6006 17.068C21.8123 16.1615 21.3646 15.2425 21.3504 14.3365C21.3402 13.6643 21.8078 13.1265 22.4423 13.0751L22.4793 13.0769L22.5263 13.0759C22.8468 13.0539 23.1552 13.1539 23.397 13.3579C23.6372 13.5602 23.7811 13.8405 23.8033 14.1475C23.8414 14.6692 23.3405 15.8612 22.6438 17.0025ZM21.3111 23.2434C21.1096 23.0589 21.0017 22.8224 21.0038 22.5741C21.0089 21.9599 21.1613 21.4405 21.8682 20.138C22.8113 20.919 23.3774 21.7095 23.395 22.3505C23.4128 22.9912 22.9623 23.5027 22.3447 23.5452L22.2156 23.5543C22.1849 23.5563 22.1586 23.5573 22.1337 23.5573C21.8309 23.5573 21.5278 23.4416 21.3111 23.2434Z" fill="#DCDCDC"/>
<path d="M70.4001 45.7999C70.4001 48.0277 69.5151 50.1643 67.9397 51.7396C66.3644 53.3149 64.2279 54.1999 62 54.1999C59.7722 54.1999 57.6357 53.3149 56.0604 51.7396C54.485 50.1643 53.6001 48.0277 53.6001 45.7999C53.6001 43.5721 54.485 41.4355 56.0604 39.8602C57.6357 38.2849 59.7722 37.3999 62 37.3999C64.2279 37.3999 66.3644 38.2849 67.9397 39.8602C69.5151 41.4355 70.4001 43.5721 70.4001 45.7999ZM84.4001 51.3999C84.4001 52.8851 83.8101 54.3095 82.7598 55.3597C81.7096 56.4099 80.2853 56.9999 78.8001 56.9999C77.3148 56.9999 75.8905 56.4099 74.8403 55.3597C73.7901 54.3095 73.2001 52.8851 73.2001 51.3999C73.2001 49.9147 73.7901 48.4903 74.8403 47.4401C75.8905 46.3899 77.3148 45.7999 78.8001 45.7999C80.2853 45.7999 81.7096 46.3899 82.7598 47.4401C83.8101 48.4903 84.4001 49.9147 84.4001 51.3999ZM73.2001 70.9999C73.2001 68.0295 72.0201 65.1807 69.9196 63.0803C67.8192 60.9799 64.9705 59.7999 62 59.7999C59.0296 59.7999 56.1809 60.9799 54.0805 63.0803C51.98 65.1807 50.8001 68.0295 50.8001 70.9999V79.3999H73.2001V70.9999ZM50.8001 51.3999C50.8001 52.8851 50.2101 54.3095 49.1598 55.3597C48.1096 56.4099 46.6853 56.9999 45.2001 56.9999C43.7148 56.9999 42.2905 56.4099 41.2403 55.3597C40.19 54.3095 39.6 52.8851 39.6 51.3999C39.6 49.9147 40.19 48.4903 41.2403 47.4401C42.2905 46.3899 43.7148 45.7999 45.2001 45.7999C46.6853 45.7999 48.1096 46.3899 49.1598 47.4401C50.2101 48.4903 50.8001 49.9147 50.8001 51.3999ZM78.8001 79.3999V70.9999C78.8041 68.1531 78.0813 65.3524 76.7001 62.8631C77.9414 62.5454 79.239 62.5155 80.4937 62.7755C81.7484 63.0356 82.9271 63.5788 83.94 64.3637C84.9528 65.1485 85.773 66.1544 86.338 67.3045C86.903 68.4546 87.1978 69.7185 87.2001 70.9999V79.3999H78.8001ZM47.3 62.8631C45.9189 65.3524 45.1961 68.1531 45.2001 70.9999V79.3999H36.8V70.9999C36.7995 69.7176 37.0925 68.4522 37.6567 67.3007C38.2209 66.1492 39.0412 65.1421 40.0547 64.3567C41.0683 63.5712 42.2482 63.0282 43.5041 62.7694C44.76 62.5105 46.0585 62.5425 47.3 62.8631Z" fill="url(#paint1_linear_852_1310)"/>
<defs>
<filter id="filter0_d_852_1310" x="1" y="1" width="115.505" height="115.504" filterUnits="userSpaceOnUse" color-interpolation-filters="sRGB">
<feFlood flood-opacity="0" result="BackgroundImageFix"/>
<feColorMatrix in="SourceAlpha" type="matrix" values="0 0 0 0 0 0 0 0 0 0 0 0 0 0 0 0 0 0 127 0" result="hardAlpha"/>
<feOffset dy="4"/>
<feGaussianBlur stdDeviation="2"/>
<feColorMatrix type="matrix" values="0 0 0 0 0 0 0 0 0 0 0 0 0 0 0 0 0 0 0.05 0"/>
<feBlend mode="normal" in2="BackgroundImageFix" result="effect1_dropShadow_852_1310"/>
<feBlend mode="normal" in="SourceGraphic" in2="effect1_dropShadow_852_1310" result="shape"/>
</filter>
<filter id="filter1_d_852_1310" x="0" y="0" width="45" height="45" filterUnits="userSpaceOnUse" color-interpolation-filters="sRGB">
<feFlood flood-opacity="0" result="BackgroundImageFix"/>
<feColorMatrix in="SourceAlpha" type="matrix" values="0 0 0 0 0 0 0 0 0 0 0 0 0 0 0 0 0 0 127 0" result="hardAlpha"/>
<feOffset dy="4"/>
<feGaussianBlur stdDeviation="5"/>
<feComposite in2="hardAlpha" operator="out"/>
<feColorMatrix type="matrix" values="0 0 0 0 0 0 0 0 0 0 0 0 0 0 0 0 0 0 0.02 0"/>
<feBlend mode="normal" in2="BackgroundImageFix" result="effect1_dropShadow_852_1310"/>
<feBlend mode="normal" in="SourceGraphic" in2="effect1_dropShadow_852_1310" result="shape"/>
</filter>
<linearGradient id="paint0_linear_852_1310" x1="22.5" y1="6" x2="22.5" y2="31" gradientUnits="userSpaceOnUse">
<stop stop-color="#F5E5EA"/>
<stop offset="1" stop-color="white"/>
</linearGradient>
<linearGradient id="paint1_linear_852_1310" x1="60.5799" y1="36.6211" x2="60.5799" y2="83.2878" gradientUnits="userSpaceOnUse">
<stop stop-color="#FFADB0"/>
<stop offset="0.54" stop-color="#D19CCD"/>
<stop offset="1" stop-color="#9183F6"/>
</linearGradient>
</defs>
</svg>
