<svg width="130" height="128" viewBox="0 0 130 128" fill="none" xmlns="http://www.w3.org/2000/svg">
<path opacity="0.34" d="M120.549 12.3813L22.8638 12.3813C17.9933 12.3813 14.0449 16.235 14.0449 20.9886L14.0449 119.097C14.0449 123.851 17.9933 127.704 22.8638 127.704H120.549C125.42 127.704 129.368 123.851 129.368 119.097V20.9886C129.368 16.235 125.42 12.3813 120.549 12.3813Z" fill="#E8E7FB"/>
<g filter="url(#filter0_d_847_940)">
<path d="M103.932 1L13.5724 1C8.83799 1 5 4.7111 5 9.28897L5 100.216C5 104.793 8.83799 108.505 13.5724 108.505H103.932C108.667 108.505 112.505 104.793 112.505 100.216V9.28897C112.505 4.7111 108.667 1 103.932 1Z" fill="white"/>
</g>
<g opacity="0.7" filter="url(#filter1_d_847_940)">
<g clip-path="url(#clip0_847_940)">
<rect x="10" y="6" width="25" height="25" rx="12.5" fill="url(#paint0_linear_847_940)"/>
<circle opacity="0.1" cx="48.5" cy="-64.5" r="102.5" fill="white"/>
</g>
</g>
<path opacity="0.99" fill-rule="evenodd" clip-rule="evenodd" d="M29.8212 11.8242C30.2183 12.8649 31.5221 16.2815 32.2303 18.1376C32.3209 18.3749 32.3682 18.8495 32.3682 18.8495C32.3682 18.8495 32.2866 19.3532 32.1789 19.6051C31.5457 21.086 30.4486 23.6516 29.9069 24.9186C29.7089 25.3816 29.5223 25.5778 29.5223 25.5778C29.5223 25.5778 29.1815 25.8256 28.9796 25.9029C27.2257 26.574 24.0753 27.7795 22.8644 28.2429C22.5545 28.3614 22.3501 28.3687 22.3501 28.3687C22.3501 28.3687 22.1891 28.3458 21.9485 28.2429C20.826 27.763 17.5291 26.3611 15.6971 25.5778C15.57 25.5235 15.3159 25.2817 15.3159 25.2817C15.3159 25.2817 15.1914 25.0951 15.1291 24.9353C14.3276 22.8776 13.5262 20.82 12.7247 18.7623C12.649 18.5679 12.6313 18.1792 12.6313 18.1792C12.6313 18.1792 12.6954 17.7179 12.7943 17.4872C13.4576 15.9403 14.6248 13.2187 15.1478 11.999C15.3134 11.6128 15.4759 11.4373 15.4759 11.4373C15.4759 11.4373 15.6632 11.2801 16.0728 11.1201C17.4008 10.6015 20.4192 9.42278 22.1301 8.75467C22.3486 8.66934 22.7855 8.63184 22.7855 8.63184C22.7855 8.63184 23.192 8.67592 23.3952 8.76454C25.1343 9.52286 28.3116 10.9083 29.3586 11.3649C29.5775 11.4604 29.6628 11.5452 29.6628 11.5452C29.6628 11.5452 29.746 11.6271 29.8212 11.8242ZM22.6151 12.0892C22.5706 12.0892 22.5261 12.0905 22.4817 12.0931L22.4331 12.0919L22.3938 12.0926C21.2111 12.1744 20.3366 13.147 20.3552 14.3516C20.3734 15.5286 20.9495 16.7432 22.037 17.9219L21.7078 18.4208C21.6553 18.5086 21.6052 18.593 21.556 18.6765C20.6789 18.0939 19.7447 17.6415 19.0115 17.451C18.7478 17.3832 18.4758 17.5367 18.4043 17.7989C18.3324 18.0639 18.4927 18.3336 18.7583 18.4024C19.3782 18.5628 20.252 18.9919 21.0638 19.5384C20.2391 21.0373 20.015 21.7546 20.0083 22.567C20.0045 23.0955 20.2283 23.5931 20.6352 23.9649C21.0392 24.3343 21.5769 24.5407 22.1317 24.5407C22.1827 24.5407 22.2344 24.5389 22.2859 24.5352L22.4144 24.5265C23.5539 24.4473 24.4225 23.4791 24.3904 22.3231C24.3651 21.4134 23.7587 20.3805 22.3616 19.2632C22.4219 19.16 22.4863 19.0513 22.5558 18.9355L22.7572 18.6298C22.9378 18.7919 23.1267 18.9521 23.3234 19.1098C24.4967 20.0496 26.0177 20.928 26.6791 21.1683C26.9346 21.2611 27.2198 21.1342 27.3165 20.8806C27.3367 20.8267 27.3472 20.7714 27.3488 20.7024C27.3462 20.4973 27.2174 20.316 27.0226 20.2453C26.4662 20.043 25.0401 19.2184 23.9508 18.3461C23.7283 18.1681 23.5133 17.9838 23.309 17.7944L23.4942 17.5118C24.2713 16.2413 24.8592 14.9398 24.7959 14.0761C24.7547 13.5054 24.4868 12.9838 24.0436 12.6097C23.6433 12.2717 23.1414 12.0892 22.6151 12.0892ZM22.6438 17.0025L22.6006 17.068C21.8123 16.1615 21.3646 15.2425 21.3504 14.3365C21.3402 13.6643 21.8078 13.1265 22.4423 13.0751L22.4793 13.0769L22.5263 13.0759C22.8468 13.0539 23.1552 13.1539 23.397 13.3579C23.6372 13.5602 23.7811 13.8405 23.8033 14.1475C23.8414 14.6692 23.3405 15.8612 22.6438 17.0025ZM21.3111 23.2434C21.1096 23.0589 21.0017 22.8224 21.0038 22.5741C21.0089 21.9599 21.1613 21.4405 21.8682 20.138C22.8113 20.919 23.3774 21.7095 23.395 22.3505C23.4128 22.9912 22.9623 23.5027 22.3447 23.5452L22.2156 23.5543C22.1849 23.5563 22.1586 23.5573 22.1337 23.5573C21.8309 23.5573 21.5278 23.4416 21.3111 23.2434Z" fill="#DCDCDC"/>
<path d="M79.5625 39.4375H62.6875V36.0625C62.6875 35.6149 62.5097 35.1857 62.1932 34.8693C61.8768 34.5528 61.4476 34.375 61 34.375C60.5524 34.375 60.1232 34.5528 59.8068 34.8693C59.4903 35.1857 59.3125 35.6149 59.3125 36.0625V39.4375H42.4375C41.5427 39.4385 40.6849 39.7944 40.0521 40.4271C39.4194 41.0599 39.0635 41.9177 39.0625 42.8125V68.125C39.0635 69.0198 39.4194 69.8776 40.0521 70.5104C40.6849 71.1431 41.5427 71.499 42.4375 71.5H50.739L46.1823 77.1959C46.0436 77.369 45.9404 77.5676 45.8786 77.7805C45.8167 77.9935 45.7975 78.2165 45.8219 78.4369C45.8463 78.6572 45.9139 78.8706 46.0208 79.0649C46.1277 79.2591 46.2719 79.4304 46.445 79.5689C46.6182 79.7074 46.8169 79.8104 47.0299 79.872C47.2429 79.9337 47.4659 79.9528 47.6863 79.9282C47.9066 79.9036 48.12 79.8358 48.3141 79.7287C48.5083 79.6216 48.6794 79.4773 48.8177 79.3041L55.061 71.5H66.939L73.1823 79.3041C73.462 79.6531 73.8688 79.8768 74.3134 79.9261C74.7579 79.9753 75.2039 79.846 75.5532 79.5666C75.9024 79.2872 76.1265 78.8806 76.1761 78.436C76.2257 77.9915 76.0968 77.5455 75.8177 77.1959L71.261 71.5H79.5625C80.4573 71.499 81.3151 71.1431 81.9479 70.5104C82.5806 69.8776 82.9365 69.0198 82.9375 68.125V42.8125C82.9365 41.9177 82.5806 41.0599 81.9479 40.4271C81.3151 39.7944 80.4573 39.4385 79.5625 39.4375ZM55.9375 61.375C55.9375 61.8226 55.7597 62.2518 55.4432 62.5682C55.1268 62.8847 54.6976 63.0625 54.25 63.0625C53.8024 63.0625 53.3732 62.8847 53.0568 62.5682C52.7403 62.2518 52.5625 61.8226 52.5625 61.375V56.3125C52.5625 55.8649 52.7403 55.4357 53.0568 55.1193C53.3732 54.8028 53.8024 54.625 54.25 54.625C54.6976 54.625 55.1268 54.8028 55.4432 55.1193C55.7597 55.4357 55.9375 55.8649 55.9375 56.3125V61.375ZM62.6875 61.375C62.6875 61.8226 62.5097 62.2518 62.1932 62.5682C61.8768 62.8847 61.4476 63.0625 61 63.0625C60.5524 63.0625 60.1232 62.8847 59.8068 62.5682C59.4903 62.2518 59.3125 61.8226 59.3125 61.375V52.9375C59.3125 52.4899 59.4903 52.0607 59.8068 51.7443C60.1232 51.4278 60.5524 51.25 61 51.25C61.4476 51.25 61.8768 51.4278 62.1932 51.7443C62.5097 52.0607 62.6875 52.4899 62.6875 52.9375V61.375ZM69.4375 61.375C69.4375 61.8226 69.2597 62.2518 68.9432 62.5682C68.6268 62.8847 68.1976 63.0625 67.75 63.0625C67.3024 63.0625 66.8732 62.8847 66.5568 62.5682C66.2403 62.2518 66.0625 61.8226 66.0625 61.375V49.5625C66.0625 49.1149 66.2403 48.6857 66.5568 48.3693C66.8732 48.0528 67.3024 47.875 67.75 47.875C68.1976 47.875 68.6268 48.0528 68.9432 48.3693C69.2597 48.6857 69.4375 49.1149 69.4375 49.5625V61.375Z" fill="url(#paint1_linear_847_940)"/>
<defs>
<filter id="filter0_d_847_940" x="1" y="1" width="115.505" height="115.504" filterUnits="userSpaceOnUse" color-interpolation-filters="sRGB">
<feFlood flood-opacity="0" result="BackgroundImageFix"/>
<feColorMatrix in="SourceAlpha" type="matrix" values="0 0 0 0 0 0 0 0 0 0 0 0 0 0 0 0 0 0 127 0" result="hardAlpha"/>
<feOffset dy="4"/>
<feGaussianBlur stdDeviation="2"/>
<feColorMatrix type="matrix" values="0 0 0 0 0 0 0 0 0 0 0 0 0 0 0 0 0 0 0.05 0"/>
<feBlend mode="normal" in2="BackgroundImageFix" result="effect1_dropShadow_847_940"/>
<feBlend mode="normal" in="SourceGraphic" in2="effect1_dropShadow_847_940" result="shape"/>
</filter>
<filter id="filter1_d_847_940" x="0" y="0" width="45" height="45" filterUnits="userSpaceOnUse" color-interpolation-filters="sRGB">
<feFlood flood-opacity="0" result="BackgroundImageFix"/>
<feColorMatrix in="SourceAlpha" type="matrix" values="0 0 0 0 0 0 0 0 0 0 0 0 0 0 0 0 0 0 127 0" result="hardAlpha"/>
<feOffset dy="4"/>
<feGaussianBlur stdDeviation="5"/>
<feComposite in2="hardAlpha" operator="out"/>
<feColorMatrix type="matrix" values="0 0 0 0 0 0 0 0 0 0 0 0 0 0 0 0 0 0 0.02 0"/>
<feBlend mode="normal" in2="BackgroundImageFix" result="effect1_dropShadow_847_940"/>
<feBlend mode="normal" in="SourceGraphic" in2="effect1_dropShadow_847_940" result="shape"/>
</filter>
<linearGradient id="paint0_linear_847_940" x1="22.5" y1="6" x2="22.5" y2="31" gradientUnits="userSpaceOnUse">
<stop stop-color="#F5E5EA"/>
<stop offset="1" stop-color="white"/>
</linearGradient>
<linearGradient id="paint1_linear_847_940" x1="59.7637" y1="33.5301" x2="59.7637" y2="84.1563" gradientUnits="userSpaceOnUse">
<stop stop-color="#FFADB0"/>
<stop offset="0.54" stop-color="#D19CCD"/>
<stop offset="1" stop-color="#9183F6"/>
</linearGradient>
<clipPath id="clip0_847_940">
<rect x="10" y="6" width="25" height="25" rx="12.5" fill="white"/>
</clipPath>
</defs>
</svg>
