<svg width="719" height="312" viewBox="0 0 719 312" fill="none" xmlns="http://www.w3.org/2000/svg">
<g clip-path="url(#clip0_879_1946)">
<path d="M576.315 97.6823C579.369 96.996 589.112 90.7567 588.632 84.3143C591.246 87.4312 597.05 94.3594 590.271 99.6332" fill="#7396BA"/>
<path d="M590.584 100.999C590.337 101.182 590.031 101.259 589.734 101.212C589.437 101.166 589.172 101 588.995 100.75C588.817 100.501 588.742 100.188 588.786 99.8774C588.828 99.5669 588.987 99.2839 589.226 99.0886C590.815 97.7939 591.675 96.3779 591.855 94.7635C592.134 92.2517 590.706 89.6324 589.273 87.6007C587.4 93.6333 579.571 98.6935 576.752 99.3838C576.453 99.4566 576.14 99.4043 575.883 99.2371C575.625 99.0698 575.444 98.8027 575.379 98.4929C575.314 98.183 575.371 97.8578 575.536 97.587C575.703 97.3163 575.963 97.1236 576.263 97.05C579.084 96.3602 587.698 90.2789 587.361 84.7578C587.346 84.5052 587.409 84.2519 587.539 84.0351C587.67 83.8186 587.864 83.6493 588.091 83.5529C588.319 83.4554 588.568 83.4347 588.805 83.4945C589.042 83.5541 589.252 83.6899 589.407 83.8835C591.241 86.1734 594.656 90.4365 594.148 94.9944C593.896 97.2581 592.713 99.2661 590.631 100.964C590.615 100.976 590.6 100.989 590.584 100.999Z" fill="#7396BA"/>
<path d="M522.369 185.361C516.07 186.176 511.936 182.573 509.444 185.407C506.845 188.359 502.879 191.334 502.879 191.334C496.585 194.492 508.638 205.442 514.338 203.145C515.693 202.599 516.621 201.72 517.073 200.69L521.578 199.665C523.497 199.355 524.377 197.161 524.377 197.161L522.369 185.361Z" fill="white"/>
<path d="M520.537 201.295C520.216 201.217 519.933 201.02 519.738 200.738C519.543 200.455 519.446 200.104 519.465 199.743C519.483 199.383 519.615 199.035 519.839 198.759C520.063 198.482 520.365 198.293 520.694 198.225C521.802 197.991 522.506 196.283 522.513 196.266C522.664 195.879 522.948 195.567 523.303 195.398C523.658 195.228 524.053 195.214 524.405 195.36C524.756 195.505 525.034 195.798 525.178 196.175C525.323 196.55 525.322 196.98 525.175 197.368C525.044 197.712 523.817 200.737 521.127 201.302C520.93 201.344 520.729 201.342 520.537 201.295Z" fill="black"/>
<path d="M511.781 192.255L507.224 195.02L502.053 196.772L510.006 203.03L515.593 203.104L516.995 199.136L511.781 192.255Z" fill="white"/>
<path d="M511.146 191.237C515.279 194.671 516.684 197.236 516.842 197.96C517.288 200.006 516.212 202.013 513.913 203.014C508.33 205.445 496.737 194.382 502.91 191.062L511.146 191.237Z" fill="white"/>
<path d="M510.213 204.805C506.066 203.79 501.662 200.091 500.097 196.89C498.699 194.032 499.38 191.559 501.918 190.275C502.132 190.167 502.371 190.114 502.612 190.122L511.076 190.39C511.39 190.401 511.694 190.512 511.939 190.708C516.467 194.323 518.106 197.084 518.359 198.146C519.008 200.857 517.492 203.472 514.588 204.654C513.274 205.189 511.761 205.184 510.213 204.805ZM502.951 192.902C502.425 193.234 501.785 193.942 502.656 195.724C504.39 199.271 510.491 203.306 513.467 202.096C515.114 201.426 515.93 200.14 515.596 198.742C515.474 198.333 514.25 196.185 510.531 193.143L502.951 192.902Z" fill="black"/>
<path d="M522.106 185.297C515.773 186.178 511.645 182.493 509.122 185.43C506.491 188.49 502.487 191.582 502.487 191.582C502.487 191.582 501.524 193.765 503.925 194.626C506.909 195.697 510.992 191.858 510.992 191.858L516.2 192.119" fill="white"/>
<path d="M504.539 195.656C504.389 195.62 504.241 195.575 504.096 195.524C502.725 195.032 502.113 194.184 501.841 193.56C501.239 192.174 501.802 190.82 501.869 190.67C501.962 190.459 502.107 190.274 502.29 190.133C502.329 190.103 506.146 187.154 508.602 184.302C510.517 182.078 513.12 182.641 515.639 183.183C517.544 183.594 519.703 184.059 522.228 183.71C522.411 183.683 522.597 183.692 522.778 183.737C522.957 183.782 523.126 183.862 523.275 183.971C523.423 184.082 523.548 184.22 523.644 184.377C523.739 184.535 523.801 184.711 523.827 184.892C523.853 185.074 523.843 185.259 523.797 185.437C523.751 185.614 523.669 185.78 523.558 185.927C523.446 186.072 523.306 186.195 523.147 186.287C522.986 186.379 522.81 186.438 522.626 186.462C519.608 186.878 517.083 186.335 515.056 185.898C512.471 185.341 511.499 185.226 510.735 186.112C508.525 188.677 505.43 191.209 504.377 192.046C504.352 192.19 504.366 192.338 504.416 192.475C504.564 192.69 504.785 192.844 505.038 192.911C506.63 193.481 509.438 191.53 510.547 190.496C510.684 190.369 510.846 190.269 511.023 190.205C511.2 190.141 511.388 190.112 511.577 190.122L516.694 190.381C516.879 190.389 517.061 190.432 517.229 190.51C517.397 190.588 517.548 190.697 517.673 190.833C517.799 190.969 517.896 191.128 517.959 191.3C518.022 191.473 518.051 191.657 518.041 191.84C518.033 192.024 517.988 192.203 517.908 192.369C517.83 192.534 517.718 192.682 517.58 192.804C517.443 192.927 517.282 193.021 517.107 193.081C516.933 193.141 516.748 193.166 516.563 193.155L512.018 192.924C510.789 193.961 507.519 196.385 504.539 195.656Z" fill="black"/>
<path d="M665.059 271.783C664.271 264.987 655.288 226.631 651.143 209.118C650.8 210.322 650.079 211.382 649.088 212.14C642.231 217.385 622.946 229.102 593.25 223.402C592.16 223.193 591.236 222.881 590.682 222.056C590.3 223.375 589.843 224.671 589.315 225.938C583.959 238.931 581.725 274.565 581.725 274.565C581.725 274.565 570.479 281.334 553.501 295.809C547.651 300.796 541.06 308.669 541.06 308.669L550.498 320.472C550.498 320.472 592.321 294.97 599.904 287.567C606.761 280.874 608.216 277.745 626.439 248.853L642.826 283.161C637.518 297.845 633.88 314.073 631.894 340.64L646.797 344.288C655.244 319.3 655.261 319.423 661.105 302.012C667.372 283.342 665.957 279.536 665.059 271.783Z" fill="#C4D0DF"/>
<path d="M627.298 254.154C627.105 254.107 626.928 254.009 626.78 253.869C626.631 253.729 626.515 253.55 626.44 253.347C626.366 253.143 626.335 252.92 626.351 252.693C626.367 252.468 626.427 252.246 626.53 252.045L631.385 242.487C631.561 242.14 631.849 241.877 632.183 241.757C632.517 241.637 632.872 241.669 633.169 241.847C633.466 242.025 633.681 242.333 633.766 242.704C633.852 243.075 633.8 243.479 633.624 243.826L628.768 253.384C628.622 253.672 628.399 253.903 628.133 254.043C627.867 254.181 627.574 254.22 627.298 254.154Z" fill="black"/>
<path d="M544.615 314.106C544.36 314.044 544.128 313.911 543.946 313.723C543.763 313.533 543.637 313.298 543.582 313.04C543.528 312.784 543.546 312.516 543.637 312.27C543.728 312.023 543.885 311.807 544.092 311.646C554.845 303.301 565.067 296.91 573.278 291.775C582.184 286.206 589.217 281.808 591.608 278.141C593.509 275.226 593.664 271.615 593.899 266.149C594.237 258.307 594.701 247.569 600.485 230.791C600.606 230.441 600.861 230.153 601.194 229.991C601.527 229.828 601.911 229.804 602.261 229.926C602.612 230.046 602.899 230.301 603.061 230.634C603.224 230.967 603.247 231.351 603.126 231.702C597.473 248.095 597.021 258.599 596.691 266.269C596.445 271.983 596.267 276.111 593.949 279.667C591.221 283.85 584.316 288.168 574.759 294.144C566.6 299.247 556.446 305.596 545.805 313.854C545.638 313.984 545.445 314.073 545.239 314.117C545.033 314.161 544.82 314.157 544.615 314.106Z" fill="black"/>
<path d="M598.325 242.752C598.011 242.675 597.733 242.492 597.537 242.233C597.339 241.975 597.235 241.655 597.242 241.326C597.247 240.999 597.363 240.681 597.569 240.427C597.775 240.172 598.06 239.996 598.376 239.926C610.729 237.202 614.41 229.306 614.561 228.971C614.719 228.623 615.005 228.351 615.358 228.214C615.711 228.077 616.101 228.087 616.445 228.241C616.788 228.396 617.056 228.682 617.191 229.037C617.327 229.394 617.317 229.791 617.165 230.142C616.994 230.53 612.816 239.704 598.962 242.759C598.751 242.806 598.534 242.803 598.325 242.752Z" fill="black"/>
<path d="M641.314 285.175C641.083 285.119 640.873 284.997 640.704 284.821C640.536 284.646 640.416 284.423 640.356 284.175C640.296 283.928 640.298 283.665 640.363 283.413C640.428 283.162 640.552 282.931 640.724 282.744L645.562 277.464C645.82 277.184 646.165 277.02 646.523 277.011C646.7 277.006 646.875 277.04 647.037 277.108C647.2 277.177 647.348 277.28 647.471 277.412C647.594 277.545 647.691 277.703 647.756 277.878C647.821 278.054 647.853 278.243 647.85 278.434C647.847 278.626 647.81 278.817 647.739 278.996C647.669 279.175 647.567 279.338 647.44 279.477L645.433 281.667L648.515 281.163C648.871 281.105 649.228 281.201 649.508 281.43C649.786 281.66 649.966 282.005 650.005 282.388C650.043 282.771 649.94 283.16 649.716 283.472C649.492 283.784 649.167 283.992 648.811 284.05L641.809 285.193C641.643 285.221 641.475 285.214 641.314 285.175Z" fill="black"/>
<path d="M585.107 278.317C584.964 278.282 584.828 278.221 584.704 278.138L580.39 275.24C580.167 275.09 579.991 274.871 579.884 274.609C579.778 274.347 579.744 274.053 579.788 273.764C579.832 273.474 579.951 273.201 580.131 272.976C580.311 272.752 580.544 272.587 580.804 272.5L587.109 270.391C587.464 270.273 587.841 270.31 588.158 270.497C588.475 270.685 588.705 271.004 588.798 271.386C588.891 271.769 588.839 272.183 588.654 272.537C588.469 272.892 588.165 273.158 587.81 273.277L584.504 274.383L586.233 275.544C586.507 275.729 586.708 276.016 586.8 276.357C586.892 276.697 586.868 277.068 586.732 277.401C586.597 277.735 586.359 278.011 586.061 278.179C585.763 278.346 585.425 278.395 585.107 278.318L585.107 278.317Z" fill="black"/>
<path d="M540.619 307.955C540.619 307.955 532.179 313.15 526.941 318.037C526.712 318.25 526.494 318.455 526.286 318.653L522.176 322.416L537.053 344.158L554.571 348.446C554.963 347.136 555.252 345.797 555.437 344.443C555.805 341.618 556.616 338.319 550.895 333.77C542.363 326.983 550.609 320.417 550.609 320.417L540.619 307.955Z" fill="white"/>
<path d="M554.438 350.138L536.665 345.788C536.331 345.706 536.039 345.504 535.844 345.22L520.753 323.158C520.561 322.878 520.476 322.537 520.516 322.198C520.555 321.859 520.715 321.546 520.966 321.316L525.127 317.505C525.338 317.305 525.56 317.098 525.791 316.882C531.147 311.884 539.536 306.7 539.889 306.481C540.181 306.302 540.526 306.235 540.861 306.293C541.197 306.352 541.5 306.531 541.713 306.797L551.849 319.44C551.965 319.585 552.051 319.752 552.103 319.931C552.155 320.109 552.171 320.297 552.15 320.482C552.129 320.666 552.072 320.845 551.982 321.008C551.892 321.171 551.771 321.315 551.625 321.431C551.598 321.453 548.52 323.972 548.525 327.17C548.527 329.097 549.669 330.981 551.917 332.769C558.038 337.639 557.498 341.566 557.104 344.433C557.082 344.586 557.062 344.737 557.043 344.886C556.844 346.342 556.532 347.782 556.109 349.189C556.002 349.531 555.77 349.818 555.46 349.995C555.149 350.171 554.784 350.223 554.438 350.138ZM537.855 343.176L553.779 347.073C553.985 346.234 554.146 345.384 554.262 344.528C554.282 344.371 554.304 344.214 554.325 344.054C554.693 341.38 555.04 338.854 550.173 334.982C547.214 332.629 545.717 329.996 545.719 327.159C545.724 324.014 547.616 321.503 548.851 320.199L540.308 309.543C537.883 311.097 531.767 315.147 527.696 318.945C527.467 319.159 527.248 319.365 527.04 319.563C527.034 319.568 527.028 319.574 527.022 319.579L523.758 322.568L537.855 343.176Z" fill="black"/>
<path d="M531.319 328.959C531.088 328.902 530.876 328.784 530.704 328.615C530.532 328.446 530.406 328.232 530.338 327.993C530.269 327.756 530.261 327.502 530.314 327.258C530.367 327.012 530.479 326.785 530.64 326.596C536.408 319.806 531.978 313.912 531.787 313.665C531.556 313.371 531.449 312.991 531.489 312.607C531.528 312.223 531.711 311.868 531.998 311.62C532.284 311.372 532.652 311.251 533.018 311.283C533.383 311.316 533.718 311.5 533.949 311.793C535.028 313.288 535.773 315.019 536.133 316.866C536.685 319.676 536.535 323.974 532.695 328.495C532.526 328.695 532.307 328.844 532.065 328.926C531.822 329.008 531.564 329.019 531.319 328.959Z" fill="black"/>
<path d="M652.785 112.087C653.187 110.444 651.638 108.128 651.659 105.678C651.689 102.117 652.237 95.5125 659.867 98.4043C666.812 101.036 668.888 102.238 668.218 106.073C667.506 110.147 665.217 111.11 664.461 114.198" fill="white"/>
<path d="M651.652 206.356L649.938 199.338C649.793 201.024 649.334 202.466 648.455 203.537C636.862 217.675 597.046 219.366 589.982 214.503L589.975 214.499L589.974 214.501L589.943 219.491C589.884 222.357 591.26 222.997 593.113 223.354C623.156 229.145 642.612 217.533 649.525 212.327C650.426 211.647 651.107 210.72 651.485 209.66C651.863 208.599 651.92 207.451 651.652 206.356Z" fill="black"/>
<path d="M591.965 224.813C590.07 224.349 588.125 223.249 588.197 219.689L588.226 214.755C588.228 214.5 588.299 214.25 588.434 214.033C588.57 213.816 588.762 213.64 588.991 213.525C589.22 213.409 589.477 213.358 589.734 213.376C589.991 213.396 590.239 213.484 590.448 213.633C593.396 215.616 604.036 216.671 616.848 215.032C631.052 213.214 641.935 208.84 646.707 203.033C647.353 202.246 647.744 201.099 647.87 199.624C647.899 199.295 648.045 198.986 648.281 198.754C648.519 198.522 648.831 198.381 649.164 198.358C649.497 198.333 649.828 198.428 650.099 198.623C650.369 198.819 650.561 199.104 650.639 199.425L652.347 206.393C652.679 207.744 652.608 209.16 652.142 210.468C651.675 211.776 650.833 212.919 649.72 213.757C642.646 219.07 622.909 230.794 592.495 224.929C592.321 224.895 592.143 224.857 591.965 224.813ZM591.027 216.966L591.011 219.737C590.972 221.627 591.5 221.896 593.022 222.189C622.322 227.841 641.241 216.617 648.015 211.53C648.693 211.018 649.206 210.32 649.49 209.524C649.773 208.726 649.816 207.863 649.613 207.04L649.024 204.633C648.98 204.689 648.936 204.745 648.891 204.799C641.478 213.823 624.274 216.896 617.22 217.799C606.511 219.171 596.232 218.79 591.027 216.966Z" fill="black"/>
<path d="M642.404 174.722C638.635 166.655 636.241 159.653 630.674 152.131C643.322 150.764 655.793 150.983 659.618 145.187C663.443 139.391 664.571 114.109 664.571 114.109L652.992 112.011C652.992 112.011 648.119 124.541 645.89 133.648C645.89 133.648 637.051 132.817 629.461 131.861C616.684 130.252 611.472 131.763 611.472 131.763L609.679 130.939C604.893 128.764 599.69 130.825 599.69 130.825C598.909 131.076 598.165 131.426 597.476 131.869L597.475 131.87C593.743 131.17 589.909 131.22 586.2 132.015C579.367 133.423 575.117 136.472 575.117 136.472C573.115 137.989 571.976 139.424 571.409 140.735L571.405 140.734C571.405 140.734 567.276 148.887 571.307 153.312C563.957 160.214 553.007 181.081 553.007 181.081L522.225 184.816L524.074 196.678C524.074 196.678 540.424 199.301 549.935 198.879C561.346 198.372 568.764 200.536 579.387 182.506L579.441 182.461C585.075 189.082 589.394 197.1 588.922 201.922C587.854 212.85 590.132 214.365 590.132 214.365C597.137 219.194 636.631 217.494 648.138 203.438C652.612 197.971 646.197 182.837 642.404 174.722Z" fill="white"/>
<path d="M593.278 217.374C591.578 216.958 590.222 216.43 589.305 215.798C588.425 215.212 586.446 212.669 587.49 202.004C587.859 198.234 584.638 191.418 579.536 185.001C570.168 200.082 562.798 200.218 553.552 200.389C552.345 200.412 551.098 200.435 549.806 200.492C540.221 200.92 524.226 198.377 523.549 198.268C523.254 198.222 522.982 198.083 522.772 197.872C522.561 197.662 522.423 197.39 522.378 197.096L520.522 185.177C520.493 184.991 520.502 184.801 520.548 184.62C520.594 184.437 520.676 184.266 520.79 184.117C520.903 183.966 521.047 183.842 521.209 183.748C521.373 183.654 521.553 183.594 521.741 183.571L551.926 179.904C553.887 176.229 563.427 158.686 570.241 152.283C570.513 152.028 570.876 151.891 571.249 151.902C571.623 151.913 571.977 152.072 572.234 152.343C572.491 152.614 572.628 152.975 572.619 153.347C572.608 153.719 572.449 154.072 572.178 154.327C565.05 161.023 554.186 181.651 554.078 181.859C553.971 182.061 553.818 182.233 553.631 182.363C553.444 182.491 553.228 182.573 553.001 182.6L523.529 186.183L525.004 195.652C528.711 196.208 541.727 198.042 549.675 197.688C551.002 197.627 552.269 197.605 553.493 197.583C569.051 197.294 572.653 191.179 578.104 181.923C578.186 181.787 578.289 181.664 578.411 181.562L578.465 181.517C578.749 181.278 579.118 181.16 579.49 181.192C579.863 181.223 580.207 181.401 580.449 181.685C585.356 187.455 590.88 196.312 590.295 202.282C589.447 210.953 590.784 213.246 591.001 213.553C594.063 215.507 604.638 216.523 617.351 214.874C631.578 213.029 642.482 208.616 647.266 202.768C648.899 200.774 648.889 196.565 647.237 190.599C646.07 186.386 644.138 181.413 641.327 175.395C640.429 173.472 639.606 171.603 638.81 169.796C636.272 164.033 633.875 158.59 629.694 152.94C629.548 152.741 629.456 152.507 629.428 152.263C629.401 152.018 629.439 151.77 629.538 151.544C629.637 151.318 629.794 151.123 629.993 150.977C630.193 150.831 630.427 150.741 630.673 150.714C633.09 150.453 635.499 150.248 637.83 150.05C647.162 149.258 655.977 148.51 658.718 144.355C661.534 140.086 662.993 122.804 663.406 115.062L654.147 113.385C652.925 116.619 649.296 126.456 647.481 133.871C647.401 134.198 647.206 134.484 646.931 134.68C646.656 134.874 646.319 134.964 645.983 134.933C645.894 134.924 636.997 134.086 629.44 133.135C617.167 131.591 611.99 132.981 611.938 132.997C611.582 133.091 611.203 133.043 610.881 132.862C610.56 132.682 610.321 132.383 610.219 132.03C610.116 131.677 610.155 131.298 610.33 130.974C610.505 130.651 610.8 130.409 611.151 130.3C611.377 130.235 616.816 128.719 629.787 130.352C635.663 131.091 642.36 131.763 645.041 132.024C647.385 123.02 651.884 111.409 651.931 111.288C652.049 110.984 652.27 110.731 652.555 110.572C652.841 110.413 653.173 110.358 653.495 110.416L665.123 112.522C665.458 112.584 665.76 112.764 665.972 113.03C666.186 113.295 666.295 113.629 666.281 113.968C666.163 116.607 665.014 139.928 661.073 145.9C657.583 151.192 648.543 151.959 638.075 152.847C636.533 152.978 634.954 153.112 633.369 153.263C636.884 158.443 639.08 163.429 641.39 168.673C642.18 170.467 642.996 172.321 643.882 174.216C651.311 190.125 653.133 200.045 649.452 204.545C642.018 213.63 624.785 216.742 617.721 217.658C608.11 218.905 598.848 218.737 593.278 217.374ZM590.887 213.479L590.913 213.496C590.904 213.491 590.896 213.484 590.887 213.479Z" fill="black"/>
<path d="M578.87 183.669C578.591 183.601 578.34 183.445 578.155 183.225C576.952 181.798 575.675 180.436 574.327 179.147C574.065 178.897 573.913 178.553 573.904 178.192C573.896 177.829 574.03 177.479 574.279 177.216C574.53 176.954 574.873 176.801 575.234 176.792C575.595 176.783 575.945 176.918 576.208 177.167C577.626 178.525 578.971 179.958 580.237 181.459C580.423 181.68 580.535 181.953 580.555 182.241C580.577 182.528 580.507 182.815 580.355 183.061C580.203 183.306 579.978 183.497 579.711 183.607C579.444 183.715 579.15 183.737 578.87 183.669Z" fill="black"/>
<path d="M575.774 150.143C574.932 149.961 574.127 149.636 573.395 149.182C573.034 148.941 569.871 146.723 569.76 143.071C569.678 140.404 571.248 137.817 574.425 135.384C574.435 135.376 574.444 135.368 574.454 135.361C574.634 135.23 578.961 132.134 585.892 130.678C596.265 128.499 602.963 132.257 603.244 132.418C604.425 133.081 605.327 134.151 605.782 135.432C606.237 136.712 606.216 138.116 605.721 139.384C605.079 140.967 603.853 142.472 602.08 143.861C594.559 149.748 581.932 151.651 575.774 150.143ZM576.077 137.601C573.663 139.454 572.466 141.264 572.517 142.98C572.588 145.283 574.904 146.857 574.927 146.873C576.256 147.762 580.381 148.242 585.691 147.441C591.461 146.571 596.818 144.469 600.388 141.675C601.774 140.59 602.709 139.469 603.167 138.342C603.41 137.697 603.413 136.986 603.174 136.339C602.937 135.693 602.474 135.156 601.871 134.827C601.813 134.793 595.742 131.44 586.452 133.392C580.26 134.693 576.32 137.427 576.077 137.601Z" fill="black"/>
<path d="M630.342 153.155C630.039 153.081 629.771 152.9 629.588 152.643C628.635 151.324 627.594 150.007 626.491 148.729C626.376 148.596 626.288 148.44 626.231 148.271C626.176 148.102 626.153 147.924 626.165 147.745C626.189 147.385 626.353 147.047 626.621 146.809C626.888 146.569 627.236 146.446 627.59 146.467C627.944 146.489 628.273 146.652 628.506 146.922C629.66 148.258 630.751 149.638 631.748 151.02C631.909 151.244 631.999 151.514 632.004 151.794C632.008 152.073 631.929 152.348 631.776 152.581C631.622 152.814 631.403 152.994 631.147 153.096C630.89 153.199 630.61 153.219 630.344 153.154L630.342 153.155Z" fill="black"/>
<path d="M554.419 188.894C554.157 188.831 553.918 188.702 553.725 188.522C553.533 188.341 553.397 188.117 553.332 187.875L551.631 181.578C551.564 181.329 551.574 181.071 551.66 180.833C551.747 180.595 551.906 180.387 552.118 180.234C552.331 180.081 552.589 179.989 552.861 179.969C553.134 179.95 553.411 180.002 553.659 180.121L559.459 182.912C559.632 182.993 559.787 183.105 559.915 183.241C560.043 183.376 560.142 183.533 560.206 183.701C560.269 183.87 560.297 184.048 560.287 184.223C560.277 184.399 560.229 184.57 560.147 184.726C560.064 184.882 559.948 185.02 559.806 185.132C559.664 185.244 559.497 185.329 559.317 185.38C559.137 185.431 558.946 185.448 558.756 185.43C558.565 185.413 558.378 185.36 558.207 185.276L555.191 183.826L556.137 187.324C556.197 187.548 556.195 187.78 556.131 187.998C556.067 188.217 555.943 188.414 555.771 188.571C555.598 188.729 555.384 188.84 555.147 188.897C554.91 188.954 554.659 188.952 554.418 188.893L554.419 188.894Z" fill="black"/>
<path d="M571.828 185.395C571.501 185.315 571.213 185.12 571.017 184.845C570.82 184.57 570.728 184.231 570.755 183.891C570.782 183.551 570.929 183.232 571.167 182.99C571.406 182.748 571.721 182.6 572.058 182.571L578.763 181.995C578.949 181.979 579.136 182 579.313 182.057C579.49 182.114 579.655 182.206 579.796 182.328C579.938 182.448 580.054 182.598 580.139 182.764C580.223 182.932 580.275 183.115 580.29 183.303C580.304 183.49 580.283 183.68 580.225 183.859C580.168 184.038 580.076 184.205 579.955 184.349C579.834 184.494 579.686 184.612 579.52 184.699C579.354 184.785 579.174 184.838 578.988 184.855L572.281 185.43C572.13 185.443 571.976 185.431 571.828 185.395Z" fill="black"/>
<path d="M585.612 161.176C584.715 160.97 583.868 160.588 583.122 160.052C582.489 159.604 581.967 159.02 581.595 158.344C581.223 157.669 581.01 156.92 580.973 156.154L583.798 156.17L583.798 156.144C583.835 156.487 583.949 156.818 584.132 157.115C584.313 157.412 584.558 157.665 584.848 157.858C585.829 158.55 588.407 159.432 594.655 157.584C603.461 154.977 611.584 148.784 613.97 142.857C614.963 140.392 614.909 138.174 613.81 136.265C609.414 128.628 600.805 131.838 600.44 131.979C600.407 131.992 600.369 132.005 600.335 132.015C599.685 132.223 599.066 132.51 598.491 132.872C598.338 132.974 598.165 133.045 597.984 133.083C597.802 133.12 597.616 133.12 597.433 133.086C597.251 133.051 597.077 132.982 596.922 132.881C596.766 132.781 596.633 132.651 596.528 132.499C596.422 132.347 596.348 132.178 596.31 131.998C596.272 131.819 596.27 131.634 596.303 131.455C596.337 131.275 596.406 131.104 596.507 130.951C596.608 130.798 596.738 130.667 596.891 130.564C597.685 130.054 598.543 129.65 599.445 129.365C601.423 128.677 603.516 128.36 605.617 128.43C608.846 128.555 613.315 129.78 616.263 134.902C617.785 137.547 617.901 140.66 616.594 143.902C613.876 150.654 605.194 157.377 595.483 160.252C591.372 161.469 588.067 161.777 585.612 161.176Z" fill="black"/>
<path d="M576.03 157.107C574.562 156.754 573.156 156.181 571.865 155.411C571.207 155.018 570.607 154.541 570.083 153.992C565.37 149.024 569.639 140.636 569.823 140.281C569.904 140.124 570.019 139.984 570.158 139.869C570.298 139.755 570.46 139.668 570.636 139.615C570.812 139.561 570.997 139.542 571.182 139.557C571.367 139.573 571.549 139.622 571.715 139.705C571.882 139.787 572.031 139.899 572.154 140.035C572.277 140.171 572.371 140.328 572.43 140.497C572.491 140.668 572.515 140.846 572.503 141.023C572.491 141.2 572.443 141.372 572.361 141.53C572.326 141.599 568.764 148.622 572.157 152.197C572.501 152.556 572.895 152.869 573.328 153.126C578.546 156.26 585.757 154.67 590.887 152.783C594.506 151.428 597.961 149.716 601.196 147.672C601.502 147.475 601.879 147.401 602.246 147.469C602.614 147.538 602.942 147.742 603.159 148.036C603.375 148.332 603.463 148.694 603.404 149.045C603.344 149.396 603.142 149.706 602.841 149.91C602.149 150.369 587.53 159.922 576.03 157.107Z" fill="black"/>
<path d="M649.63 137.182C649.506 137.151 649.387 137.105 649.275 137.043L645.087 134.756C644.751 134.565 644.502 134.248 644.396 133.874C644.29 133.5 644.335 133.099 644.52 132.756C644.706 132.414 645.018 132.159 645.388 132.046C645.76 131.932 646.159 131.969 646.501 132.15L650.688 134.437C650.974 134.593 651.201 134.84 651.331 135.139C651.462 135.438 651.492 135.773 651.414 136.091C651.384 136.215 651.337 136.335 651.276 136.448C651.12 136.735 650.874 136.963 650.576 137.096C650.278 137.228 649.946 137.259 649.63 137.182Z" fill="black"/>
<path d="M647.451 139.235C647.233 139.182 647.032 139.081 646.862 138.939C646.691 138.797 646.556 138.619 646.469 138.418L644.482 133.891C644.333 133.551 644.328 133.168 644.468 132.828C644.608 132.486 644.882 132.217 645.23 132.075C645.577 131.934 645.97 131.935 646.322 132.076C646.673 132.217 646.955 132.488 647.104 132.828L649.09 137.355C649.194 137.593 649.229 137.854 649.19 138.108C649.152 138.362 649.042 138.6 648.872 138.795C648.702 138.99 648.479 139.134 648.228 139.212C647.976 139.29 647.708 139.297 647.451 139.235Z" fill="black"/>
<path d="M556.59 124.146C554.143 119.801 553.361 114.704 554.388 109.812C555.417 104.921 558.185 100.571 562.173 97.5799C566.163 94.5895 571.097 93.1623 576.052 93.5682C581.006 93.9733 585.64 96.1832 589.083 99.7822C590.237 100.989 587.098 134.282 574.72 134.528C571.045 134.601 567.419 133.676 564.229 131.848C561.037 130.021 558.398 127.359 556.59 124.146Z" fill="#7396BA"/>
<path d="M576.743 122.62C573.516 121.561 570.037 116.344 571.781 113.212C573.525 110.081 578.245 112.891 579.253 114.097C577.932 109.916 582.901 101.59 588.926 99.9198C595.718 101.258 596.982 107.438 598.201 109.641C599.729 112.403 604.874 115.239 604.874 115.239C604.35 117.736 603.408 118.192 601.992 118.742C607.847 134.675 588.611 137.835 583.155 137.295" fill="white"/>
<path d="M599.241 134.679C594.189 138.318 592.13 138.087 588.601 137.749C588.411 137.732 588.228 137.677 588.061 137.587C587.893 137.497 587.745 137.375 587.624 137.227C587.504 137.079 587.413 136.909 587.359 136.726C587.304 136.542 587.285 136.35 587.304 136.159C587.322 135.968 587.378 135.783 587.468 135.613C587.557 135.444 587.679 135.293 587.826 135.172C587.973 135.049 588.142 134.957 588.323 134.901C588.505 134.844 588.695 134.825 588.885 134.843C592.536 135.192 596.116 135.022 599.957 130.037C602.118 127.231 602.43 123.604 600.884 119.256C600.757 118.899 600.773 118.506 600.928 118.16C601.083 117.814 601.366 117.542 601.716 117.401C602.623 117.038 603.087 116.852 603.432 115.902C601.767 114.867 598.543 112.65 597.27 110.287C596.998 109.75 596.754 109.2 596.536 108.639C595.45 105.981 593.971 102.366 589.477 101.324C586.884 102.208 584.156 104.76 582.448 107.928C581.236 110.176 580.737 112.408 581.147 113.753C581.246 114.076 581.23 114.424 581.102 114.736C580.975 115.05 580.744 115.309 580.449 115.47C580.153 115.631 579.813 115.685 579.484 115.62C579.156 115.556 578.86 115.378 578.647 115.118C578.163 114.525 576.106 113.207 574.669 113.344C574.451 113.354 574.241 113.424 574.059 113.546C573.877 113.668 573.732 113.838 573.639 114.037C573.077 115.059 573.457 116.412 573.734 117.127C574.489 119.079 576.19 120.925 577.691 121.42C578.148 121.571 578.231 124.53 576.588 124.128C574.342 123.296 572.08 120.891 571.038 118.199C570.242 116.141 570.267 114.163 571.11 112.629C571.43 112.01 571.902 111.485 572.479 111.101C573.056 110.719 573.72 110.489 574.408 110.437C575.684 110.316 577.054 110.725 578.226 111.308C578.512 109.635 579.082 108.022 579.909 106.541C581.608 103.391 584.894 99.6012 589.023 98.4142C589.241 98.3511 589.471 98.3412 589.695 98.3847C595.98 99.6154 598.082 104.754 599.21 107.515C599.439 108.075 599.638 108.56 599.813 108.885C600.873 110.855 604.51 113.192 605.821 113.927C606.09 114.079 606.304 114.313 606.432 114.596C606.56 114.88 606.595 115.197 606.53 115.503C606.037 117.844 605.15 118.874 604.018 119.531C605.421 124.336 604.824 128.467 602.237 131.822C601.38 132.916 600.371 133.878 599.241 134.679Z" fill="black"/>
<path d="M594.057 111.951C593.775 110.284 592.503 109.058 591.214 109.212C589.925 109.367 589.109 110.844 589.389 112.512C589.671 114.179 590.943 115.405 592.232 115.25C593.521 115.095 594.338 113.618 594.057 111.951Z" fill="black"/>
<path d="M593.039 114.947C592.8 115.108 592.522 115.21 592.228 115.247C590.933 115.404 589.654 114.183 589.378 112.524C589.238 111.771 589.351 111.003 589.701 110.328C589.83 110.034 590.038 109.778 590.305 109.586C590.572 109.393 590.888 109.271 591.224 109.23C591.561 109.189 591.905 109.231 592.224 109.352C592.543 109.473 592.827 109.669 593.046 109.921C593.592 110.493 593.949 111.2 594.075 111.953C594.2 112.705 594.088 113.47 593.752 114.149C593.584 114.465 593.34 114.738 593.039 114.947ZM589.62 112.495C589.875 114.026 591.029 115.158 592.19 115.016C592.483 114.969 592.759 114.855 592.993 114.684C593.226 114.514 593.411 114.292 593.533 114.036C593.846 113.401 593.949 112.686 593.832 111.982C593.715 111.278 593.381 110.617 592.873 110.081C592.681 109.856 592.432 109.68 592.149 109.572C591.867 109.463 591.561 109.425 591.263 109.461C590.965 109.497 590.684 109.607 590.449 109.778C590.213 109.95 590.031 110.178 589.919 110.441C589.594 111.072 589.489 111.791 589.62 112.495Z" fill="black"/>
<path d="M594.284 93.2274C594.076 93.3765 593.832 93.4686 593.579 93.4934C593.325 93.519 593.069 93.4773 592.837 93.3723C592.604 93.267 592.403 93.102 592.253 92.8943C592.104 92.6866 592.012 92.443 591.984 92.1881C591.712 89.5858 590.192 87.017 588.647 84.9211C586.408 92.2752 576.537 98.4363 572.933 99.279C572.555 99.3673 572.158 99.3017 571.83 99.095C571.501 98.8891 571.267 98.5591 571.181 98.1791C571.094 97.7991 571.161 97.3995 571.367 97.0682C571.572 96.7369 571.901 96.5014 572.278 96.413C573.715 96.0769 577.42 94.155 580.809 91.0954C582.963 89.1511 586.521 85.3072 586.151 81.4107C586.122 81.0985 586.192 80.7844 586.352 80.5147C586.513 80.245 586.754 80.0338 587.042 79.9118C587.33 79.7897 587.648 79.7633 587.952 79.8366C588.254 79.9096 588.526 80.0784 588.727 80.3183C590.706 82.6851 594.388 87.092 594.892 91.8714C594.919 92.1307 594.877 92.3934 594.771 92.6314C594.664 92.8702 594.496 93.0756 594.284 93.2274Z" fill="black"/>
<path d="M655.601 98.1175L659.773 99.1385L668.642 102.644L667.415 109.465L663.679 113.89L652.832 111.236L651.889 109.67L651.145 105.483L652.481 100.024L655.601 98.1175Z" fill="white"/>
<path d="M661.56 105.203L653.838 111.482L651.878 106.01L653.884 102.871L658.552 104.013L661.56 105.203Z" fill="white"/>
<path d="M653.075 113.02C652.716 112.932 652.407 112.706 652.215 112.39C652.023 112.076 651.965 111.698 652.052 111.34C652.167 110.872 651.889 109.971 651.62 109.098C651.279 107.99 650.892 106.731 650.902 105.36C650.924 102.657 651.256 98.8557 653.886 97.0608C655.618 95.8778 657.964 95.8333 660.859 96.93C667.443 99.4241 670.838 100.961 669.956 106.007C669.518 108.513 668.537 109.967 667.672 111.251C667.052 112.171 666.516 112.964 666.243 114.08C666.156 114.438 665.929 114.746 665.613 114.937C665.299 115.128 664.92 115.186 664.561 115.098C664.203 115.01 663.894 114.784 663.701 114.469C663.51 114.154 663.452 113.776 663.54 113.418C663.93 111.822 664.658 110.742 665.363 109.698C666.141 108.541 666.878 107.45 667.214 105.527C667.641 103.08 667.017 102.233 659.874 99.5274C657.882 98.7732 656.396 98.7147 655.459 99.3545C653.724 100.538 653.695 104.186 653.686 105.385C653.679 106.326 653.985 107.322 654.281 108.284C654.679 109.573 655.053 110.791 654.757 112.001C654.714 112.179 654.636 112.345 654.527 112.493C654.42 112.639 654.283 112.764 654.127 112.858C653.971 112.953 653.798 113.016 653.617 113.044C653.437 113.071 653.252 113.063 653.075 113.02Z" fill="black"/>
<path d="M650.437 107.2C650.261 106.588 650.225 105.951 650.331 105.331C650.436 104.71 650.681 104.122 651.048 103.607C652.096 102.159 654.065 101.36 656.898 101.232C658.122 101.177 659.465 101.666 661.022 102.233C661.743 102.496 662.489 102.767 663.223 102.979C663.54 103.07 663.818 103.263 664.01 103.523C664.203 103.784 664.298 104.098 664.28 104.414C664.27 104.62 664.126 106.459 662.559 107.584C661.619 108.259 660.432 108.503 659.023 108.314L658.693 108.563C658.545 108.675 658.375 108.758 658.192 108.806C658.01 108.853 657.818 108.867 657.629 108.844C657.44 108.821 657.256 108.762 657.089 108.671C656.922 108.58 656.774 108.459 656.654 108.315C656.534 108.17 656.445 108.006 656.391 107.829C656.337 107.652 656.32 107.469 656.34 107.287C656.36 107.105 656.417 106.931 656.508 106.772C656.598 106.614 656.721 106.475 656.87 106.362L657.704 105.732C657.87 105.607 658.066 105.518 658.276 105.474C658.485 105.429 658.702 105.431 658.913 105.478C659.502 105.608 660.305 105.691 660.791 105.341C660.86 105.291 660.924 105.233 660.98 105.169C660.663 105.058 660.351 104.944 660.044 104.833C658.899 104.416 657.714 103.985 657.095 104.012C655.269 104.095 653.977 104.518 653.458 105.204C653.33 105.384 653.241 105.587 653.199 105.802C653.157 106.018 653.162 106.24 653.213 106.456L653.207 106.431L650.437 107.2Z" fill="black"/>
<path d="M656.951 21.4673L661.724 40.3303L647.657 53.401L666.695 49.2385L680.38 63.4628L675.608 44.5992L689.675 31.5284L670.638 35.6909L656.951 21.4673Z" fill="#B7C2F6"/>
<path d="M153.989 56.9324C150.117 56.0621 137.762 48.1505 138.371 39.9815C135.056 43.9338 127.696 52.7189 136.292 59.4061" fill="#F7AAB6"/>
<path d="M135.895 61.1389C136.209 61.3709 136.596 61.468 136.973 61.4089C137.349 61.3497 137.686 61.1395 137.911 60.8231C138.136 60.5067 138.231 60.1096 138.176 59.7161C138.122 59.3225 137.921 58.9636 137.617 58.716C135.602 57.0742 134.512 55.2788 134.284 53.2318C133.93 50.0467 135.741 46.7254 137.557 44.1492C139.933 51.7986 149.86 58.215 153.434 59.0903C153.814 59.1826 154.211 59.1163 154.537 58.9043C154.863 58.6921 155.093 58.3535 155.176 57.9606C155.258 57.5677 155.186 57.1553 154.976 56.8119C154.765 56.4687 154.435 56.2243 154.055 56.131C150.478 55.2563 139.555 47.5451 139.982 40.5443C140.002 40.2241 139.922 39.9028 139.756 39.628C139.59 39.3533 139.345 39.1387 139.056 39.0164C138.768 38.8929 138.452 38.8666 138.151 38.9424C137.851 39.018 137.585 39.1902 137.388 39.4357C135.062 42.3393 130.732 47.745 131.376 53.5245C131.696 56.3949 133.196 58.9411 135.836 61.0937C135.856 61.1098 135.875 61.1251 135.895 61.1389Z" fill="#F7AAB6"/>
<path d="M222.393 168.111C230.38 169.144 235.622 164.575 238.783 168.168C242.078 171.912 247.107 175.685 247.107 175.685C255.088 179.688 239.805 193.574 232.576 190.66C230.859 189.968 229.681 188.854 229.108 187.549L223.396 186.248C220.963 185.855 219.848 183.073 219.848 183.073L222.393 168.111Z" fill="white"/>
<path d="M224.717 188.316C225.124 188.216 225.482 187.967 225.729 187.609C225.977 187.251 226.099 186.805 226.076 186.348C226.053 185.891 225.885 185.449 225.602 185.099C225.317 184.749 224.934 184.509 224.517 184.422C223.112 184.127 222.22 181.96 222.211 181.938C222.019 181.448 221.659 181.053 221.209 180.838C220.759 180.622 220.258 180.605 219.812 180.79C219.367 180.974 219.015 181.345 218.831 181.823C218.648 182.299 218.649 182.843 218.835 183.336C219.002 183.772 220.558 187.608 223.968 188.325C224.218 188.378 224.472 188.375 224.717 188.316Z" fill="black"/>
<path d="M235.819 176.852L241.597 180.358L248.154 182.58L238.069 190.515L230.986 190.608L229.207 185.577L235.819 176.852Z" fill="white"/>
<path d="M236.623 175.562C231.384 179.915 229.602 183.168 229.401 184.086C228.835 186.68 230.2 189.226 233.115 190.495C240.194 193.577 254.895 179.549 247.068 175.34L236.623 175.562Z" fill="white"/>
<path d="M237.807 192.766C243.066 191.479 248.651 186.788 250.635 182.729C252.408 179.105 251.543 175.969 248.325 174.341C248.055 174.204 247.752 174.137 247.445 174.147L236.713 174.488C236.314 174.501 235.93 174.643 235.619 174.89C229.878 179.475 227.8 182.976 227.478 184.322C226.655 187.759 228.577 191.076 232.26 192.575C233.926 193.252 235.844 193.246 237.807 192.766ZM247.016 177.672C247.683 178.094 248.494 178.992 247.389 181.251C245.191 185.749 237.455 190.865 233.681 189.331C231.593 188.481 230.558 186.851 230.982 185.078C231.136 184.559 232.689 181.835 237.404 177.978L247.016 177.672Z" fill="black"/>
<path d="M222.726 168.03C230.756 169.146 235.991 164.474 239.19 168.198C242.526 172.078 247.603 175.998 247.603 175.998C247.603 175.998 248.824 178.767 245.78 179.859C241.996 181.217 236.819 176.349 236.819 176.349L230.215 176.679" fill="white"/>
<path d="M245.001 181.165C245.192 181.119 245.379 181.062 245.564 180.998C247.302 180.374 248.078 179.299 248.423 178.507C249.186 176.75 248.472 175.032 248.388 174.843C248.269 174.575 248.086 174.341 247.853 174.161C247.805 174.124 242.965 170.384 239.85 166.767C237.422 163.948 234.12 164.661 230.926 165.349C228.511 165.87 225.773 166.459 222.572 166.017C222.339 165.983 222.103 165.994 221.875 166.051C221.648 166.108 221.434 166.21 221.244 166.349C221.056 166.488 220.898 166.664 220.777 166.863C220.656 167.064 220.578 167.286 220.545 167.516C220.511 167.747 220.524 167.981 220.583 168.207C220.641 168.431 220.744 168.643 220.886 168.828C221.028 169.013 221.204 169.168 221.407 169.285C221.61 169.401 221.834 169.476 222.067 169.506C225.894 170.035 229.095 169.346 231.666 168.792C234.943 168.086 236.177 167.939 237.145 169.063C239.948 172.315 243.871 175.526 245.207 176.587C245.239 176.77 245.222 176.957 245.157 177.131C244.97 177.404 244.69 177.6 244.369 177.684C242.35 178.407 238.79 175.933 237.383 174.622C237.21 174.46 237.004 174.334 236.78 174.253C236.556 174.171 236.317 174.135 236.078 174.148L229.589 174.477C229.355 174.486 229.124 174.541 228.911 174.639C228.698 174.738 228.506 174.877 228.348 175.05C228.188 175.222 228.065 175.423 227.985 175.642C227.905 175.861 227.869 176.093 227.881 176.326C227.891 176.559 227.948 176.786 228.049 176.997C228.149 177.207 228.291 177.394 228.465 177.549C228.64 177.705 228.843 177.824 229.065 177.9C229.286 177.976 229.521 178.008 229.755 177.994L235.519 177.701C237.076 179.015 241.223 182.089 245.001 181.165Z" fill="black"/>
<path d="M41.4605 277.695C42.459 269.078 53.8494 220.441 59.1057 198.235C59.5408 199.761 60.4552 201.105 61.711 202.067C70.4063 208.718 94.8602 223.575 132.515 216.348C133.898 216.082 135.069 215.687 135.771 214.641C136.255 216.313 136.834 217.957 137.504 219.563C144.296 236.038 147.129 281.223 147.129 281.223C147.129 281.223 161.388 289.805 182.918 308.161C190.336 314.484 198.693 324.467 198.693 324.467L186.725 339.433C186.725 339.433 133.693 307.097 124.078 297.71C115.382 289.223 113.538 285.255 90.4314 248.619L69.6519 292.123C76.3825 310.742 80.996 331.32 83.5134 365.008L64.6172 369.632C53.9057 337.948 53.8845 338.104 46.4744 316.026C38.5273 292.352 40.3218 287.526 41.4605 277.695Z" fill="#CED6FF"/>
<path d="M89.3426 255.341C89.5866 255.281 89.8108 255.158 89.9995 254.98C90.1883 254.802 90.3356 254.576 90.4296 254.318C90.5234 254.059 90.5626 253.776 90.5431 253.489C90.5228 253.203 90.4459 252.922 90.3165 252.667L84.1597 240.547C83.9363 240.107 83.5719 239.774 83.1475 239.622C82.724 239.47 82.2736 239.51 81.897 239.736C81.521 239.961 81.2487 240.352 81.1408 240.822C81.0319 241.293 81.0973 241.805 81.3208 242.245L87.4776 254.365C87.6632 254.73 87.9459 255.023 88.2832 255.2C88.6202 255.376 88.9923 255.425 89.3426 255.341Z" fill="black"/>
<path d="M194.185 331.362C194.508 331.282 194.802 331.114 195.034 330.875C195.266 330.635 195.425 330.336 195.494 330.01C195.564 329.684 195.54 329.346 195.425 329.033C195.31 328.72 195.111 328.446 194.848 328.241C181.213 317.66 168.252 309.556 157.839 303.045C146.547 295.983 137.629 290.406 134.597 285.757C132.187 282.06 131.99 277.482 131.692 270.551C131.264 260.607 130.676 246.991 123.341 225.717C123.188 225.273 122.865 224.908 122.442 224.702C122.02 224.495 121.533 224.465 121.089 224.619C120.644 224.772 120.28 225.095 120.074 225.518C119.868 225.94 119.838 226.427 119.992 226.871C127.16 247.658 127.733 260.977 128.152 270.703C128.463 277.948 128.69 283.183 131.629 287.692C135.088 292.996 143.844 298.472 155.962 306.049C166.307 312.519 179.183 320.571 192.677 331.042C192.888 331.206 193.133 331.319 193.394 331.375C193.655 331.431 193.925 331.426 194.185 331.362Z" fill="black"/>
<path d="M126.08 240.883C126.478 240.786 126.83 240.554 127.08 240.226C127.33 239.898 127.462 239.492 127.454 239.076C127.446 238.661 127.3 238.258 127.039 237.935C126.777 237.612 126.416 237.388 126.015 237.3C110.351 233.846 105.684 223.833 105.492 223.408C105.293 222.967 104.929 222.622 104.482 222.449C104.035 222.275 103.539 222.288 103.104 222.483C102.669 222.68 102.328 223.042 102.157 223.493C101.985 223.945 101.998 224.448 102.191 224.893C102.408 225.386 107.706 237.018 125.272 240.893C125.54 240.951 125.815 240.948 126.08 240.883Z" fill="black"/>
<path d="M55.4333 223.187C65.3715 220.754 69.4335 215.579 69.6125 215.347C69.9049 214.968 70.0339 214.49 69.9711 214.017C69.9075 213.546 69.6582 213.12 69.2767 212.832C68.8952 212.545 68.413 212.419 67.9368 212.484C67.4606 212.548 67.0287 212.798 66.7362 213.177C66.7077 213.212 65.7023 214.465 63.5008 215.929C61.4471 217.294 57.9021 219.129 52.669 220.116C52.1965 220.205 51.7777 220.476 51.5055 220.869C51.2333 221.262 51.1294 221.746 51.2171 222.215C51.3045 222.682 51.5764 223.095 51.9721 223.363C52.3688 223.63 52.8562 223.731 53.3286 223.642C54.0566 223.505 54.7585 223.353 55.4333 223.187Z" fill="black"/>
<path d="M142.84 285.98C143.022 285.935 143.195 285.859 143.352 285.753L148.822 282.078C149.105 281.888 149.327 281.611 149.463 281.278C149.598 280.946 149.64 280.574 149.585 280.207C149.53 279.839 149.379 279.493 149.15 279.208C148.922 278.924 148.626 278.715 148.297 278.604L140.303 275.929C139.852 275.78 139.373 275.828 138.971 276.064C138.57 276.302 138.279 276.707 138.16 277.192C138.042 277.677 138.108 278.202 138.343 278.651C138.578 279.101 138.963 279.438 139.413 279.589L143.605 280.992L141.413 282.465C141.065 282.699 140.81 283.063 140.694 283.495C140.578 283.926 140.608 284.396 140.78 284.819C140.952 285.242 141.253 285.592 141.631 285.805C142.009 286.018 142.437 286.08 142.84 285.981L142.84 285.98Z" fill="black"/>
<path d="M57.0232 75.1976C56.5136 73.1154 58.4777 70.1779 58.451 67.0717C58.4138 62.5558 57.718 54.1814 48.0435 57.8482C39.2376 61.1856 36.604 62.7089 37.4542 67.5723C38.3572 72.7377 41.2591 73.9591 42.2175 77.8753" fill="white"/>
<path d="M58.4608 194.733L60.6333 185.834C60.8175 187.972 61.3996 189.801 62.5143 191.158C77.2147 209.085 127.701 211.229 136.66 205.064L136.668 205.058L136.669 205.061L136.708 211.389C136.784 215.023 135.038 215.834 132.689 216.287C94.5941 223.63 69.9234 208.905 61.1574 202.304C60.0149 201.442 59.1515 200.267 58.6722 198.922C58.1931 197.578 58.1203 196.122 58.4608 194.733Z" fill="black"/>
<path d="M134.144 218.136C136.547 217.548 139.013 216.153 138.922 211.639L138.885 205.383C138.883 205.059 138.792 204.742 138.621 204.467C138.45 204.192 138.206 203.969 137.915 203.822C137.625 203.675 137.299 203.611 136.973 203.634C136.648 203.659 136.333 203.771 136.068 203.96C132.33 206.475 118.839 207.812 102.592 205.734C84.5818 203.428 70.7821 197.883 64.7312 190.518C63.9121 189.521 63.4158 188.067 63.2556 186.197C63.2196 185.779 63.0342 185.387 62.7343 185.093C62.4334 184.798 62.0372 184.621 61.6151 184.59C61.1927 184.559 60.7732 184.679 60.4303 184.927C60.0874 185.175 59.844 185.536 59.7446 185.944L57.5789 194.779C57.1579 196.493 57.2479 198.288 57.8396 199.947C58.4312 201.605 59.4991 203.054 60.9103 204.116C69.8797 210.854 94.9065 225.72 133.472 218.283C133.693 218.24 133.919 218.191 134.144 218.136ZM135.334 208.186L135.355 211.7C135.403 214.096 134.734 214.438 132.805 214.809C95.6509 221.976 71.6616 207.743 63.0721 201.292C62.2122 200.643 61.5623 199.759 61.2023 198.749C60.8431 197.738 60.7886 196.643 61.0462 195.599L61.7933 192.548C61.8483 192.619 61.9042 192.689 61.961 192.759C71.3608 204.201 93.1766 208.097 102.121 209.242C115.7 210.981 128.734 210.499 135.334 208.186Z" fill="black"/>
<path d="M70.1875 154.619C74.9666 144.391 78.0014 135.512 85.061 125.975C69.023 124.24 53.2095 124.518 48.3594 117.169C43.5093 109.819 42.0793 77.7612 42.0793 77.7612L56.762 75.1019C56.762 75.1019 62.9402 90.99 65.7662 102.537C65.7662 102.537 76.9746 101.483 86.5986 100.271C102.801 98.2312 109.409 100.147 109.409 100.147L111.682 99.1021C117.752 96.3448 124.349 98.9578 124.349 98.9578C125.34 99.2756 126.283 99.7201 127.157 100.281L127.157 100.283C131.89 99.3949 136.751 99.4582 141.454 100.467C150.118 102.252 155.509 106.118 155.509 106.118C158.046 108.042 159.49 109.861 160.21 111.524L160.215 111.523C160.215 111.523 165.45 121.861 160.339 127.472C169.66 136.223 183.544 162.683 183.544 162.683L222.576 167.419L220.231 182.461C220.231 182.461 199.499 185.786 187.439 185.251C172.97 184.609 163.563 187.353 150.093 164.49L150.025 164.433C142.881 172.828 137.405 182.995 138.003 189.11C139.358 202.966 136.469 204.888 136.469 204.888C127.586 211.011 77.5071 208.855 62.9167 191.032C57.2428 184.1 65.3781 164.909 70.1875 154.619Z" fill="white"/>
<path d="M132.479 208.704C134.635 208.176 136.355 207.507 137.518 206.705C138.633 205.963 141.142 202.738 139.818 189.215C139.35 184.435 143.436 175.791 149.904 167.654C161.784 186.778 171.128 186.95 182.853 187.167C184.383 187.196 185.965 187.225 187.602 187.298C199.756 187.84 220.039 184.616 220.896 184.478C221.27 184.419 221.616 184.243 221.882 183.975C222.149 183.709 222.325 183.364 222.382 182.991L224.735 167.878C224.772 167.642 224.761 167.401 224.702 167.171C224.644 166.94 224.539 166.723 224.395 166.533C224.251 166.343 224.07 166.185 223.863 166.065C223.656 165.946 223.427 165.87 223.189 165.842L184.915 161.191C182.428 156.532 170.331 134.287 161.69 126.167C161.345 125.844 160.885 125.67 160.412 125.685C159.938 125.698 159.489 125.9 159.164 126.244C158.838 126.587 158.663 127.045 158.676 127.517C158.69 127.989 158.891 128.436 159.235 128.759C168.273 137.25 182.048 163.407 182.186 163.671C182.321 163.927 182.515 164.145 182.752 164.309C182.99 164.472 183.263 164.576 183.551 164.61L220.922 169.153L219.051 181.161C214.352 181.865 197.847 184.19 187.769 183.742C186.085 183.665 184.48 183.637 182.927 183.608C163.199 183.242 158.632 175.489 151.72 163.752C151.617 163.579 151.486 163.424 151.331 163.294L151.263 163.237C150.902 162.933 150.434 162.785 149.962 162.825C149.49 162.865 149.054 163.089 148.747 163.45C142.524 170.766 135.52 181.997 136.261 189.567C137.337 200.562 135.642 203.469 135.366 203.858C131.484 206.337 118.075 207.624 101.954 205.534C83.9142 203.194 70.0883 197.599 64.0214 190.184C61.951 187.654 61.9636 182.319 64.0587 174.753C65.5376 169.411 67.9885 163.105 71.5521 155.474C72.6911 153.035 73.7341 150.666 74.7442 148.374C77.9619 141.067 81.002 134.165 86.3027 127.001C86.4888 126.748 86.6056 126.452 86.6404 126.142C86.6751 125.831 86.627 125.517 86.5015 125.231C86.376 124.944 86.176 124.697 85.9237 124.512C85.6704 124.327 85.3733 124.212 85.0617 124.178C81.997 123.847 78.9423 123.587 75.9869 123.336C64.1538 122.332 52.9764 121.384 49.5005 116.115C45.9293 110.701 44.0799 88.7881 43.556 78.971L55.2961 76.8446C56.8455 80.9456 61.4481 93.4185 63.7491 102.82C63.8506 103.235 64.0979 103.599 64.4463 103.846C64.7957 104.093 65.2221 104.207 65.6486 104.168C65.7611 104.157 77.0431 103.094 86.625 101.888C102.188 99.93 108.752 101.692 108.818 101.712C109.269 101.832 109.75 101.772 110.158 101.542C110.566 101.313 110.868 100.934 110.998 100.486C111.129 100.039 111.079 99.5585 110.857 99.1478C110.635 98.7383 110.261 98.4311 109.816 98.2934C109.53 98.2103 102.633 96.2882 86.1851 98.3584C78.7339 99.2963 70.242 100.147 66.8426 100.479C63.8711 89.0613 58.1656 74.339 58.1058 74.1851C57.9562 73.7998 57.6763 73.4794 57.3146 73.2771C56.9531 73.0759 56.532 73.006 56.1237 73.0795L41.3782 75.7498C40.9535 75.8284 40.5712 76.0574 40.3017 76.3944C40.0308 76.7306 39.8929 77.1532 39.9108 77.5839C40.0601 80.9304 41.5174 110.501 46.5138 118.075C50.9391 124.784 62.4027 125.757 75.676 126.883C77.6318 127.049 79.6329 127.219 81.6438 127.411C77.1858 133.979 74.4011 140.301 71.4721 146.951C70.4711 149.225 69.4357 151.576 68.3123 153.979C58.8921 174.152 56.5828 186.731 61.2504 192.436C70.6757 203.957 92.5281 207.903 101.485 209.064C113.672 210.645 125.417 210.432 132.479 208.704ZM135.512 203.765L135.478 203.787C135.49 203.78 135.5 203.772 135.512 203.765Z" fill="black"/>
<path d="M150.749 165.965C151.103 165.879 151.421 165.681 151.655 165.403C153.181 163.593 154.8 161.867 156.509 160.231C156.842 159.915 157.034 159.479 157.046 159.02C157.057 158.561 156.886 158.116 156.57 157.784C156.253 157.451 155.818 157.257 155.36 157.246C154.902 157.234 154.458 157.405 154.125 157.721C152.327 159.443 150.621 161.26 149.016 163.163C148.78 163.443 148.638 163.79 148.612 164.154C148.584 164.519 148.674 164.883 148.866 165.194C149.059 165.505 149.344 165.747 149.683 165.887C150.022 166.024 150.395 166.052 150.749 165.965Z" fill="black"/>
<path d="M154.676 123.454C155.743 123.223 156.764 122.811 157.692 122.236C158.15 121.93 162.161 119.117 162.302 114.486C162.405 111.104 160.414 107.824 156.386 104.738C156.374 104.729 156.361 104.719 156.35 104.71C156.12 104.544 150.634 100.618 141.845 98.7716C128.693 96.0084 120.199 100.773 119.844 100.978C118.346 101.818 117.202 103.176 116.625 104.799C116.047 106.423 116.075 108.203 116.702 109.811C117.516 111.818 119.07 113.726 121.319 115.488C130.855 122.952 146.867 125.365 154.676 123.454ZM154.291 107.55C157.352 109.899 158.87 112.194 158.805 114.371C158.716 117.291 155.779 119.287 155.749 119.307C154.065 120.434 148.834 121.043 142.101 120.028C134.784 118.924 127.991 116.259 123.464 112.716C121.707 111.34 120.521 109.918 119.941 108.49C119.633 107.672 119.629 106.77 119.931 105.95C120.232 105.13 120.82 104.45 121.584 104.032C121.658 103.99 129.356 99.7377 141.136 102.213C148.987 103.863 153.983 107.33 154.291 107.55Z" fill="black"/>
<path d="M85.4812 127.272C85.8661 127.178 86.2053 126.949 86.4382 126.623C87.6459 124.95 88.9667 123.281 90.3646 121.661C90.5108 121.491 90.6229 121.294 90.6942 121.08C90.7646 120.866 90.7931 120.639 90.7786 120.413C90.7476 119.956 90.54 119.528 90.2005 119.225C89.8618 118.921 89.4201 118.766 88.9714 118.792C88.523 118.82 88.1049 119.027 87.8102 119.37C86.3464 121.063 84.9633 122.813 83.6987 124.566C83.4945 124.85 83.3811 125.192 83.3745 125.547C83.369 125.901 83.47 126.249 83.6638 126.544C83.8588 126.84 84.137 127.068 84.4614 127.198C84.7869 127.328 85.1423 127.353 85.4797 127.271L85.4812 127.272Z" fill="black"/>
<path d="M181.753 172.591C182.085 172.51 182.389 172.346 182.633 172.118C182.876 171.889 183.049 171.605 183.131 171.298L185.288 163.313C185.373 162.998 185.36 162.67 185.251 162.369C185.142 162.066 184.94 161.803 184.67 161.61C184.401 161.415 184.074 161.299 183.728 161.274C183.382 161.248 183.032 161.314 182.717 161.466L175.362 165.005C175.143 165.107 174.947 165.249 174.785 165.422C174.622 165.593 174.496 165.793 174.415 166.006C174.335 166.22 174.3 166.445 174.312 166.668C174.326 166.89 174.385 167.107 174.49 167.305C174.595 167.503 174.742 167.678 174.922 167.82C175.103 167.962 175.314 168.07 175.542 168.134C175.771 168.199 176.013 168.22 176.254 168.198C176.495 168.176 176.733 168.109 176.95 168.003L180.774 166.163L179.575 170.6C179.499 170.884 179.501 171.178 179.582 171.454C179.664 171.731 179.821 171.981 180.039 172.181C180.258 172.381 180.53 172.522 180.831 172.594C181.13 172.666 181.448 172.664 181.754 172.589L181.753 172.591Z" fill="black"/>
<path d="M159.678 168.153C160.093 168.052 160.458 167.805 160.706 167.455C160.956 167.107 161.073 166.678 161.039 166.247C161.004 165.816 160.818 165.411 160.516 165.104C160.214 164.797 159.813 164.609 159.387 164.572L150.884 163.842C150.648 163.822 150.411 163.848 150.187 163.921C149.962 163.993 149.754 164.11 149.574 164.264C149.395 164.417 149.248 164.607 149.14 164.818C149.033 165.03 148.967 165.262 148.949 165.5C148.93 165.738 148.958 165.978 149.031 166.206C149.103 166.433 149.22 166.645 149.373 166.827C149.526 167.01 149.713 167.161 149.924 167.27C150.134 167.38 150.363 167.447 150.599 167.468L159.103 168.197C159.295 168.214 159.49 168.199 159.678 168.153Z" fill="black"/>
<path d="M142.2 137.443C143.337 137.183 144.411 136.698 145.357 136.019C146.16 135.45 146.822 134.71 147.294 133.854C147.765 132.997 148.036 132.047 148.082 131.076L144.501 131.096L144.5 131.064C144.453 131.498 144.308 131.919 144.077 132.294C143.847 132.671 143.536 132.992 143.168 133.237C141.925 134.114 138.655 135.233 130.733 132.889C119.567 129.583 109.267 121.731 106.242 114.216C104.983 111.09 105.05 108.278 106.444 105.857C112.018 96.1728 122.935 100.244 123.398 100.422C123.439 100.438 123.488 100.455 123.531 100.468C124.355 100.731 125.14 101.095 125.87 101.554C126.063 101.683 126.282 101.774 126.512 101.822C126.742 101.868 126.979 101.869 127.21 101.826C127.441 101.781 127.661 101.693 127.859 101.565C128.056 101.438 128.226 101.273 128.358 101.081C128.492 100.889 128.586 100.674 128.635 100.446C128.683 100.219 128.686 99.9846 128.643 99.7568C128.601 99.5289 128.512 99.3123 128.385 99.1183C128.257 98.9246 128.092 98.7584 127.898 98.6277C126.892 97.981 125.803 97.4692 124.659 97.1076C122.151 96.235 119.497 95.8331 116.834 95.9221C112.739 96.0805 107.072 97.6335 103.334 104.128C101.403 107.483 101.257 111.429 102.914 115.541C106.361 124.102 117.369 132.627 129.683 136.273C134.896 137.816 139.087 138.206 142.2 137.443Z" fill="black"/>
<path d="M154.35 132.284C156.212 131.837 157.995 131.11 159.632 130.133C160.466 129.635 161.227 129.031 161.891 128.335C167.868 122.035 162.455 111.399 162.221 110.949C162.118 110.75 161.973 110.572 161.796 110.427C161.619 110.282 161.414 110.172 161.19 110.104C160.968 110.036 160.732 110.011 160.497 110.03C160.263 110.051 160.032 110.113 159.821 110.218C159.61 110.322 159.421 110.464 159.266 110.637C159.11 110.81 158.99 111.009 158.915 111.223C158.838 111.439 158.807 111.665 158.823 111.889C158.838 112.114 158.899 112.333 159.003 112.533C159.047 112.621 163.563 121.525 159.261 126.059C158.825 126.514 158.325 126.911 157.777 127.237C151.16 131.21 142.017 129.194 135.512 126.801C130.923 125.083 126.542 122.912 122.439 120.321C122.052 120.07 121.574 119.977 121.108 120.064C120.641 120.15 120.226 120.409 119.951 120.783C119.676 121.157 119.564 121.616 119.64 122.062C119.716 122.506 119.972 122.9 120.354 123.159C121.231 123.74 139.768 135.853 154.35 132.284Z" fill="black"/>
<path d="M61.024 107.018C61.1813 106.98 61.3324 106.921 61.4743 106.843L66.7845 103.943C67.2116 103.701 67.5266 103.299 67.6607 102.825C67.7958 102.35 67.7384 101.841 67.5036 101.407C67.2678 100.973 66.8725 100.65 66.4031 100.506C65.9323 100.362 65.4262 100.409 64.9915 100.638L59.6824 103.538C59.3198 103.736 59.033 104.05 58.8674 104.428C58.7009 104.808 58.6637 105.233 58.7624 105.636C58.8008 105.793 58.8601 105.945 58.9368 106.089C59.1347 106.452 59.4474 106.742 59.8245 106.91C60.2024 107.077 60.6241 107.116 61.024 107.018Z" fill="black"/>
<path d="M63.788 109.622C64.0634 109.555 64.3194 109.427 64.5345 109.246C64.751 109.067 64.9224 108.841 65.0329 108.586L67.5518 102.846C67.7412 102.414 67.7471 101.929 67.5696 101.498C67.3919 101.065 67.0444 100.723 66.6032 100.543C66.1632 100.365 65.6651 100.365 65.2196 100.544C64.774 100.723 64.4169 101.066 64.2275 101.498L61.7097 107.238C61.577 107.54 61.5334 107.871 61.582 108.193C61.6307 108.516 61.7706 108.817 61.9859 109.064C62.2015 109.312 62.4841 109.494 62.8023 109.593C63.1215 109.691 63.4616 109.701 63.788 109.622Z" fill="black"/>
<path d="M179 90.489C182.103 84.979 183.096 78.5161 181.792 72.3135C180.488 66.1112 176.978 60.5951 171.921 56.8029C166.862 53.0111 160.605 51.2014 154.323 51.7161C148.04 52.2298 142.165 55.0319 137.799 59.5955C136.336 61.1261 140.316 103.342 156.012 103.654C160.672 103.747 165.269 102.573 169.315 100.255C173.362 97.9383 176.708 94.5639 179 90.489Z" fill="#F7AAB6"/>
<path d="M153.446 88.5541C157.537 87.2112 161.949 80.5959 159.737 76.6247C157.526 72.6543 151.541 76.2171 150.263 77.747C151.938 72.4447 145.638 61.8874 137.997 59.7698C129.385 61.467 127.782 69.3029 126.237 72.0969C124.299 75.5991 117.775 79.1946 117.775 79.1946C118.439 82.3613 119.635 82.9399 121.43 83.6368C114.005 103.84 138.397 107.847 145.316 107.162" fill="white"/>
<path d="M124.918 103.845C131.324 108.46 133.934 108.166 138.41 107.739C138.65 107.716 138.882 107.646 139.095 107.532C139.307 107.419 139.495 107.263 139.648 107.076C139.8 106.888 139.916 106.673 139.984 106.44C140.054 106.208 140.079 105.964 140.055 105.722C140.031 105.48 139.961 105.245 139.847 105.03C139.733 104.815 139.579 104.624 139.393 104.47C139.206 104.315 138.992 104.198 138.762 104.127C138.531 104.055 138.29 104.03 138.05 104.054C133.419 104.496 128.88 104.28 124.01 97.9587C121.269 94.4013 120.874 89.8021 122.835 84.2882C122.996 83.8359 122.976 83.3375 122.779 82.8988C122.582 82.4602 122.223 82.1153 121.78 81.9368C120.629 81.4766 120.041 81.2407 119.603 80.0353C121.714 78.7238 125.803 75.9127 127.417 72.9158C127.762 72.2353 128.072 71.538 128.347 70.8258C129.725 67.4561 131.601 62.8718 137.298 61.5501C140.587 62.6715 144.045 65.9075 146.212 69.9243C147.749 72.775 148.381 75.6052 147.861 77.311C147.736 77.7202 147.757 78.1612 147.918 78.5577C148.08 78.9553 148.373 79.2844 148.747 79.4886C149.121 79.6928 149.553 79.7605 149.97 79.6783C150.386 79.5974 150.762 79.372 151.032 79.0421C151.645 78.2892 154.254 76.6185 156.075 76.7921C156.351 76.8051 156.619 76.8931 156.849 77.0486C157.079 77.2032 157.263 77.4187 157.382 77.6712C158.094 78.9672 157.612 80.6826 157.261 81.5887C156.303 84.0641 154.147 86.4045 152.244 87.0324C151.664 87.2241 151.559 90.9767 153.642 90.4668C156.49 89.4121 159.359 86.3619 160.679 82.9489C161.689 80.3382 161.657 77.8304 160.588 75.8851C160.183 75.1013 159.585 74.4352 158.853 73.9487C158.121 73.4632 157.279 73.1724 156.407 73.1067C154.789 72.9528 153.051 73.471 151.566 74.2109C151.203 72.0886 150.48 70.0432 149.431 68.1662C147.277 64.1715 143.11 59.3662 137.875 57.8611C137.598 57.781 137.306 57.7685 137.022 57.8236C129.053 59.3842 126.388 65.9005 124.957 69.4013C124.667 70.1116 124.415 70.7263 124.192 71.1384C122.848 73.6366 118.237 76.5998 116.575 77.5321C116.233 77.724 115.961 78.0211 115.799 78.3799C115.637 78.7397 115.593 79.1423 115.675 79.5296C116.3 82.4985 117.426 83.8038 118.861 84.637C117.082 90.73 117.839 95.9684 121.119 100.223C122.205 101.609 123.485 102.829 124.918 103.845Z" fill="black"/>
<path d="M131.492 75.0257C131.849 72.912 133.462 71.3572 135.096 71.5532C136.731 71.7499 137.767 73.6226 137.411 75.7371C137.054 77.8508 135.44 79.4056 133.805 79.2099C132.171 79.0129 131.135 77.1405 131.492 75.0257Z" fill="black"/>
<path d="M132.783 78.8245C133.086 79.0287 133.438 79.1588 133.811 79.2052C135.453 79.405 137.074 77.8561 137.425 75.753C137.602 74.7982 137.458 73.8241 137.015 72.9685C136.851 72.5959 136.587 72.2709 136.249 72.027C135.911 71.7832 135.51 71.6273 135.083 71.5762C134.657 71.5241 134.221 71.5774 133.815 71.7311C133.411 71.8846 133.052 72.1323 132.773 72.4525C132.082 73.1772 131.628 74.0738 131.469 75.0284C131.31 75.982 131.453 76.9521 131.879 77.8129C132.091 78.2136 132.401 78.56 132.783 78.8245ZM137.117 75.7159C136.794 77.6569 135.332 79.0923 133.859 78.913C133.488 78.8527 133.138 78.7082 132.841 78.492C132.546 78.2756 132.31 77.994 132.156 77.6705C131.76 76.8644 131.629 75.9577 131.777 75.0655C131.925 74.1733 132.348 73.3346 132.993 72.655C133.236 72.3697 133.553 72.1462 133.911 72.009C134.269 71.8711 134.656 71.8225 135.034 71.8686C135.412 71.9147 135.768 72.0534 136.066 72.2713C136.366 72.489 136.596 72.778 136.738 73.1109C137.151 73.9119 137.284 74.8235 137.117 75.7159Z" fill="black"/>
<path d="M131.203 51.2842C131.467 51.4732 131.776 51.59 132.098 51.6215C132.42 51.654 132.745 51.6011 133.039 51.4679C133.335 51.3344 133.589 51.1251 133.779 50.8618C133.969 50.5984 134.085 50.2896 134.12 49.9662C134.466 46.6666 136.393 43.4093 138.352 40.7516C141.191 50.0768 153.707 57.8891 158.277 58.9577C158.756 59.0696 159.26 58.9865 159.676 58.7244C160.093 58.4633 160.389 58.0448 160.499 57.5629C160.609 57.0811 160.524 56.5744 160.264 56.1543C160.003 55.7342 159.586 55.4357 159.108 55.3236C157.286 54.8974 152.588 52.4604 148.29 48.5808C145.559 46.1154 141.047 41.2412 141.516 36.3004C141.553 35.9045 141.464 35.5062 141.261 35.1643C141.058 34.8223 140.752 34.5544 140.387 34.3998C140.022 34.245 139.618 34.2115 139.234 34.3044C138.85 34.397 138.505 34.611 138.251 34.9152C135.741 37.9164 131.072 43.5044 130.433 49.5647C130.399 49.8935 130.452 50.2266 130.586 50.5285C130.722 50.8312 130.935 51.0917 131.203 51.2842Z" fill="black"/>
<path d="M53.4535 57.4843L48.1635 58.779L36.9165 63.2245L38.4723 71.8726L43.2099 77.4847L56.9639 74.1185L58.1599 72.1329L59.1032 66.8233L57.4093 59.902L53.4535 57.4843Z" fill="white"/>
<path d="M45.8967 66.4694L55.6887 74.4308L58.1738 67.4928L55.6308 63.5116L49.7106 64.9606L45.8967 66.4694Z" fill="white"/>
<path d="M56.6568 76.3803C57.1118 76.269 57.5031 75.9823 57.7464 75.5825C57.99 75.1836 58.064 74.7042 57.953 74.2503C57.8079 73.6576 58.1602 72.5145 58.5007 71.4081C58.9343 70.0029 59.4248 68.406 59.4118 66.6685C59.3843 63.2406 58.9624 58.4204 55.6278 56.1443C53.4312 54.6443 50.4572 54.5879 46.7865 55.9785C38.4373 59.1411 34.1321 61.0894 35.2509 67.4881C35.8066 70.6656 37.0497 72.5101 38.1467 74.1372C38.9333 75.3048 39.6124 76.31 39.9587 77.725C40.0697 78.1788 40.3568 78.5699 40.7573 78.8122C41.1565 79.0537 41.637 79.127 42.092 79.0157C42.5459 78.9046 42.9383 78.6177 43.1818 78.2188C43.4241 77.8192 43.4982 77.3398 43.3871 76.8859C42.8917 74.8618 41.9692 73.4918 41.0755 72.1683C40.0879 70.702 39.1544 69.3184 38.728 66.8792C38.1863 63.7767 38.9777 62.7029 48.0355 59.2721C50.5604 58.3157 52.4449 58.2415 53.6331 59.0528C55.8333 60.554 55.8696 65.1795 55.882 66.7001C55.8908 67.8934 55.5021 69.1556 55.127 70.3752C54.6228 72.0103 54.1477 73.5543 54.5232 75.0886C54.5784 75.314 54.6772 75.5254 54.8147 75.7121C54.951 75.898 55.1242 76.0563 55.3219 76.1759C55.5198 76.2965 55.7393 76.3758 55.9689 76.4112C56.1972 76.4459 56.4319 76.4354 56.6568 76.3803Z" fill="black"/>
<path d="M60.0013 69.0019C60.2237 68.226 60.2691 67.4181 60.1359 66.6312C60.0016 65.8444 59.6912 65.0986 59.2264 64.4451C57.8967 62.6092 55.4005 61.5962 51.8086 61.4345C50.2567 61.3641 48.5532 61.9849 46.579 62.7035C45.6647 63.0362 44.7189 63.38 43.788 63.6492C43.3858 63.7651 43.0334 64.0094 42.7899 64.3393C42.5455 64.6704 42.4248 65.0684 42.4473 65.4683C42.4611 65.7298 42.6437 68.0622 44.6302 69.4887C45.8217 70.3448 47.3271 70.6543 49.1136 70.4143L49.5323 70.7304C49.72 70.8719 49.9353 70.9772 50.1671 71.0382C50.3988 71.0981 50.6415 71.115 50.881 71.0858C51.1216 71.0564 51.3546 70.9819 51.5662 70.8669C51.7779 70.7519 51.9652 70.5981 52.1178 70.4147C52.2694 70.2316 52.3828 70.0229 52.4513 69.7991C52.5198 69.5752 52.5416 69.3421 52.516 69.1118C52.4905 68.8816 52.4182 68.6606 52.3026 68.4589C52.1883 68.258 52.0321 68.0815 51.8442 67.939L50.7867 67.1406C50.5752 66.9809 50.3273 66.8683 50.0612 66.8124C49.7963 66.7563 49.5205 66.7584 49.2529 66.8174C48.5066 66.9826 47.4887 67.0878 46.8721 66.6447C46.7846 66.5811 46.7037 66.5072 46.6326 66.4265C47.0343 66.2857 47.4294 66.141 47.8196 65.9998C49.2706 65.4714 50.7731 64.9249 51.558 64.9595C53.8742 65.064 55.5126 65.6003 56.1709 66.4703C56.333 66.6987 56.4452 66.9568 56.4982 67.2294C56.5515 67.503 56.5451 67.7846 56.4806 68.0576L56.4889 68.0262L60.0013 69.0019Z" fill="black"/>
<path d="M231.5 193.5C217.898 268.327 254.439 287.14 278.61 313.155C334.839 373.676 350.12 256.015 404.688 238.237C451.269 223.061 474.397 260.992 507.5 206" stroke="black" stroke-width="4" stroke-linecap="round"/>
<path opacity="0.34" d="M385.238 80.4475L291.741 108.744C287.079 110.155 284.416 114.987 285.793 119.537L314.212 213.439C315.589 217.989 320.485 220.534 325.147 219.123L418.644 190.826C423.305 189.415 425.968 184.583 424.591 180.033L396.172 86.1312C394.795 81.5813 389.899 79.0366 385.238 80.4475Z" fill="#E8E7FB"/>
<g filter="url(#filter0_d_879_1946)">
<path d="M366.036 74.3679L279.551 100.543C275.019 101.914 272.421 106.578 273.747 110.959L300.086 197.988C301.412 202.369 306.16 204.81 310.692 203.438L397.177 177.263C401.709 175.892 404.307 171.228 402.981 166.847L376.642 79.8183C375.316 75.4367 370.568 72.9965 366.036 74.3679Z" fill="white"/>
</g>
<path fill-rule="evenodd" clip-rule="evenodd" d="M320.081 129.918C317.327 135.062 316.729 141.089 318.419 146.674C320.109 152.258 323.949 156.942 329.093 159.697C334.237 162.45 340.264 163.048 345.849 161.357C351.433 159.667 356.118 155.828 358.872 150.684C361.626 145.54 362.223 139.512 360.533 133.928L339.476 140.301L333.104 119.244C327.518 120.934 322.835 124.773 320.081 129.918ZM349.86 120.905C346.394 119.05 342.496 118.156 338.568 118.314L343.147 133.444L358.276 128.865C356.231 125.508 353.324 122.76 349.86 120.905Z" fill="url(#paint0_linear_879_1946)"/>
<g opacity="0.7" filter="url(#filter1_d_879_1946)">
<rect x="277.58" y="106.363" width="25" height="25" rx="12.5" transform="rotate(-16.8384 277.58 106.363)" fill="url(#paint1_linear_879_1946)"/>
</g>
<path opacity="0.99" fill-rule="evenodd" clip-rule="evenodd" d="M298.238 106.196C298.92 107.077 301.157 109.969 302.373 111.541C302.528 111.741 302.711 112.182 302.711 112.182C302.711 112.182 302.779 112.688 302.748 112.96C302.571 114.561 302.265 117.334 302.113 118.704C302.058 119.204 301.936 119.446 301.936 119.446C301.936 119.446 301.681 119.782 301.511 119.915C300.026 121.065 297.36 123.131 296.335 123.926C296.073 124.129 295.88 124.195 295.88 124.195C295.88 124.195 295.719 124.22 295.459 124.191C294.245 124.057 290.684 123.67 288.703 123.451C288.566 123.436 288.253 123.278 288.253 123.278C288.253 123.278 288.08 123.136 287.974 123.001C286.611 121.263 285.247 119.526 283.884 117.789C283.755 117.625 283.626 117.258 283.626 117.258C283.626 117.258 283.554 116.798 283.581 116.548C283.768 114.875 284.097 111.932 284.244 110.613C284.291 110.196 284.396 109.981 284.396 109.981C284.396 109.981 284.529 109.776 284.875 109.504C285.996 108.623 288.543 106.621 289.987 105.486C290.172 105.341 290.579 105.178 290.579 105.178C290.579 105.178 290.981 105.103 291.201 105.129C293.085 105.351 296.528 105.756 297.662 105.89C297.899 105.918 298.006 105.975 298.006 105.975C298.006 105.975 298.109 106.029 298.238 106.196ZM291.418 108.537C291.375 108.55 291.333 108.564 291.291 108.579L291.244 108.592L291.207 108.604C290.098 109.025 289.543 110.209 289.91 111.357C290.268 112.478 291.171 113.474 292.554 114.287L292.383 114.86C292.358 114.959 292.335 115.054 292.312 115.148C291.304 114.845 290.279 114.682 289.522 114.713C289.25 114.724 289.034 114.95 289.041 115.221C289.049 115.496 289.281 115.708 289.555 115.696C290.195 115.67 291.155 115.828 292.091 116.116C291.735 117.789 291.729 118.541 291.958 119.32C292.107 119.827 292.465 120.239 292.963 120.477C293.456 120.713 294.031 120.755 294.562 120.594C294.611 120.58 294.659 120.563 294.708 120.545L294.828 120.499C295.896 120.093 296.447 118.915 296.081 117.818C295.793 116.954 294.914 116.141 293.253 115.477C293.281 115.36 293.311 115.238 293.344 115.107L293.448 114.756C293.668 114.859 293.895 114.957 294.129 115.051C295.524 115.611 297.235 116.011 297.937 116.049C298.209 116.064 298.445 115.86 298.464 115.589C298.468 115.532 298.462 115.476 298.443 115.409C298.381 115.214 298.206 115.078 297.999 115.066C297.408 115.034 295.804 114.658 294.508 114.139C294.244 114.033 293.985 113.918 293.734 113.796L293.83 113.472C294.206 112.031 294.391 110.615 294.08 109.807C293.876 109.272 293.468 108.851 292.936 108.621C292.455 108.414 291.921 108.384 291.418 108.537ZM292.868 113.231L292.846 113.306C291.829 112.667 291.134 111.917 290.858 111.054C290.654 110.414 290.945 109.763 291.538 109.53L291.574 109.521L291.618 109.507C291.919 109.393 292.243 109.399 292.533 109.525C292.822 109.649 293.041 109.875 293.151 110.163C293.339 110.651 293.204 111.937 292.868 113.231ZM293.401 119.59C293.154 119.472 292.982 119.277 292.913 119.039C292.739 118.449 292.735 117.908 293.034 116.457C294.163 116.931 294.934 117.524 295.136 118.132C295.339 118.74 295.056 119.36 294.477 119.58L294.356 119.626C294.328 119.637 294.303 119.645 294.279 119.653C293.989 119.74 293.665 119.717 293.401 119.59Z" fill="#DCDCDC"/>
<g clip-path="url(#clip1_879_1946)">
<path d="M475.502 141C472.769 141 470.533 138.773 470.533 136.05C470.533 133.328 472.769 131.1 475.502 131.1C476.082 131.1 476.645 131.216 477.158 131.397V117.9L460.596 122.025V139.35C460.596 142.073 458.36 144.3 455.627 144.3C452.894 144.3 450.658 142.073 450.658 139.35C450.658 136.628 452.894 134.4 455.627 134.4C456.207 134.4 456.77 134.516 457.283 134.697V122.025C457.283 120.507 458.31 119.187 459.801 118.824L476.363 114.699C477.357 114.452 478.4 114.666 479.195 115.293C480.007 115.92 480.471 116.877 480.471 117.9V136.05C480.471 138.773 478.235 141 475.502 141ZM490.408 147.6V127.8L494.383 130.77C495.112 131.315 496.155 131.166 496.702 130.44C497.249 129.714 497.099 128.675 496.371 128.13L492.396 125.16C491.385 124.401 490.06 124.286 488.934 124.847C487.808 125.408 487.096 126.546 487.096 127.8V143.228C486.334 142.865 485.506 142.65 484.611 142.65C481.415 142.65 478.814 145.241 478.814 148.425C478.814 151.61 481.415 154.2 484.611 154.2C487.808 154.2 490.408 151.61 490.408 148.425V147.6Z" fill="black"/>
</g>
<g clip-path="url(#clip2_879_1946)">
<path d="M249.502 61C246.769 61 244.533 58.7725 244.533 56.05C244.533 53.3275 246.769 51.1 249.502 51.1C250.082 51.1 250.645 51.2155 251.158 51.397V37.9L234.596 42.025V59.35C234.596 62.0725 232.36 64.3 229.627 64.3C226.894 64.3 224.658 62.0725 224.658 59.35C224.658 56.6275 226.894 54.4 229.627 54.4C230.207 54.4 230.77 54.5155 231.283 54.697V42.025C231.283 40.507 232.31 39.187 233.801 38.824L250.363 34.699C251.357 34.4515 252.4 34.666 253.195 35.293C254.007 35.92 254.471 36.877 254.471 37.9V56.05C254.471 58.7725 252.235 61 249.502 61ZM264.408 67.6V47.8L268.383 50.77C269.112 51.3145 270.155 51.166 270.702 50.44C271.249 49.714 271.099 48.6745 270.371 48.13L266.396 45.16C265.385 44.401 264.06 44.2855 262.934 44.8465C261.808 45.4075 261.096 46.546 261.096 47.8V63.2275C260.334 62.8645 259.506 62.65 258.611 62.65C255.415 62.65 252.814 65.2405 252.814 68.425C252.814 71.6095 255.415 74.2 258.611 74.2C261.808 74.2 264.408 71.6095 264.408 68.425V67.6Z" fill="black"/>
</g>
</g>
<defs>
<filter id="filter0_d_879_1946" x="269.4" y="73.9863" width="137.927" height="137.833" filterUnits="userSpaceOnUse" color-interpolation-filters="sRGB">
<feFlood flood-opacity="0" result="BackgroundImageFix"/>
<feColorMatrix in="SourceAlpha" type="matrix" values="0 0 0 0 0 0 0 0 0 0 0 0 0 0 0 0 0 0 127 0" result="hardAlpha"/>
<feOffset dy="4"/>
<feGaussianBlur stdDeviation="2"/>
<feColorMatrix type="matrix" values="0 0 0 0 0 0 0 0 0 0 0 0 0 0 0 0 0 0 0.05 0"/>
<feBlend mode="normal" in2="BackgroundImageFix" result="effect1_dropShadow_879_1946"/>
<feBlend mode="normal" in="SourceGraphic" in2="effect1_dropShadow_879_1946" result="shape"/>
</filter>
<filter id="filter1_d_879_1946" x="267.58" y="93.1216" width="51.1699" height="51.1699" filterUnits="userSpaceOnUse" color-interpolation-filters="sRGB">
<feFlood flood-opacity="0" result="BackgroundImageFix"/>
<feColorMatrix in="SourceAlpha" type="matrix" values="0 0 0 0 0 0 0 0 0 0 0 0 0 0 0 0 0 0 127 0" result="hardAlpha"/>
<feOffset dy="4"/>
<feGaussianBlur stdDeviation="5"/>
<feComposite in2="hardAlpha" operator="out"/>
<feColorMatrix type="matrix" values="0 0 0 0 0 0 0 0 0 0 0 0 0 0 0 0 0 0 0.02 0"/>
<feBlend mode="normal" in2="BackgroundImageFix" result="effect1_dropShadow_879_1946"/>
<feBlend mode="normal" in="SourceGraphic" in2="effect1_dropShadow_879_1946" result="shape"/>
</filter>
<linearGradient id="paint0_linear_879_1946" x1="331.68" y1="118.822" x2="345.842" y2="165.615" gradientUnits="userSpaceOnUse">
<stop stop-color="#FFADB0"/>
<stop offset="0.54" stop-color="#D19CCD"/>
<stop offset="1" stop-color="#9183F6"/>
</linearGradient>
<linearGradient id="paint1_linear_879_1946" x1="290.08" y1="106.363" x2="290.08" y2="131.363" gradientUnits="userSpaceOnUse">
<stop stop-color="#F5E5EA"/>
<stop offset="1" stop-color="white"/>
</linearGradient>
<clipPath id="clip0_879_1946">
<rect width="719" height="312" fill="white"/>
</clipPath>
<clipPath id="clip1_879_1946">
<rect width="53" height="66" fill="white" transform="translate(447.346 108)"/>
</clipPath>
<clipPath id="clip2_879_1946">
<rect width="53" height="66" fill="white" transform="translate(221.346 28)"/>
</clipPath>
</defs>
</svg>
