<svg width="219" height="61" viewBox="0 0 219 61" fill="none" xmlns="http://www.w3.org/2000/svg">
<path fill-rule="evenodd" clip-rule="evenodd" d="M45.6964 10.5076C46.7521 13.2239 50.2178 22.1411 52.1006 26.9853C52.3413 27.6047 52.4671 28.8435 52.4671 28.8435C52.4671 28.8435 52.2502 30.1581 51.964 30.8154C50.2806 34.6806 47.3643 41.3766 45.9241 44.6836C45.3979 45.8919 44.9017 46.4041 44.9017 46.4041C44.9017 46.4041 43.9957 47.0509 43.4591 47.2524C38.7967 49.004 30.4218 52.1504 27.2028 53.3597C26.3791 53.6692 25.8356 53.6881 25.8356 53.6881C25.8356 53.6881 25.4078 53.6283 24.768 53.3597C21.784 52.1072 13.0199 48.4483 8.1497 46.4041C7.81196 46.2623 7.13648 45.6313 7.13648 45.6313C7.13648 45.6313 6.8054 45.1443 6.63986 44.727C4.50929 39.3566 2.37872 33.9863 0.248156 28.6159C0.046887 28.1086 0 27.0939 0 27.0939C0 27.0939 0.170257 25.8899 0.433212 25.2878C2.19658 21.2506 5.29924 14.1472 6.68961 10.9639C7.12987 9.95598 7.56168 9.49799 7.56168 9.49799C7.56168 9.49799 8.05979 9.08752 9.14864 8.67005C12.6789 7.31654 20.7028 4.2401 25.2508 2.49636C25.8316 2.27367 26.9932 2.17578 26.9932 2.17578C26.9932 2.17578 28.0737 2.29085 28.6139 2.52213C33.2369 4.50131 41.6833 8.11736 44.4666 9.30895C45.0486 9.55813 45.2754 9.77955 45.2754 9.77955C45.2754 9.77955 45.4965 9.99329 45.6964 10.5076ZM26.5401 11.1993C26.4219 11.1993 26.3036 11.2027 26.1854 11.2095L26.0564 11.2064L25.9518 11.2081C22.8079 11.4218 20.4832 13.9602 20.5327 17.1041C20.581 20.1761 22.1123 23.3462 25.0034 26.4225L24.1282 27.7246C23.9887 27.9537 23.8556 28.174 23.7248 28.3919C21.393 26.8713 18.9096 25.6906 16.9606 25.1934C16.2595 25.0164 15.5366 25.4171 15.3465 26.1014C15.1554 26.7931 15.5815 27.4969 16.2876 27.6765C17.9354 28.0952 20.2581 29.2151 22.4163 30.6414C20.2239 34.5534 19.6283 36.4256 19.6103 38.546C19.6002 39.9252 20.1951 41.2241 21.277 42.1945C22.3508 43.1586 23.7803 43.6972 25.255 43.6972C25.3907 43.6972 25.528 43.6925 25.665 43.683L26.0067 43.6602C29.0358 43.4534 31.3449 40.9264 31.2595 37.9095C31.1921 35.535 29.5803 32.8394 25.8663 29.9232C26.0265 29.6539 26.1977 29.3702 26.3825 29.0678L26.9178 28.2701C27.398 28.6932 27.9002 29.1111 28.4231 29.5227C31.542 31.9757 35.5853 34.2682 37.3435 34.8955C38.0229 35.1376 38.7809 34.8063 39.0381 34.1446C39.0916 34.0039 39.1196 33.8594 39.1239 33.6795C39.1169 33.1441 38.7747 32.671 38.2567 32.4864C36.7776 31.9583 32.9865 29.8062 30.0909 27.5297C29.4993 27.0651 28.9279 26.584 28.3848 26.0897L28.8772 25.3522C30.9429 22.0362 32.5056 18.6394 32.3374 16.3852C32.228 14.8955 31.5158 13.5343 30.3375 12.5578C29.2735 11.6757 27.9391 11.1993 26.5401 11.1993ZM26.6165 24.0228L26.5015 24.1937C24.4059 21.8279 23.2158 19.4293 23.1782 17.0648C23.1511 15.3104 24.394 13.9066 26.0809 13.7724L26.1791 13.7771L26.3042 13.7745C27.1561 13.7172 27.9759 13.9781 28.6186 14.5105C29.2571 15.0386 29.6397 15.7701 29.6987 16.5715C29.8001 17.9331 28.4684 21.044 26.6165 24.0228ZM23.0738 40.3113C22.5381 39.8299 22.2513 39.2125 22.2567 38.5644C22.2703 36.9614 22.6754 35.6059 24.5545 32.2064C27.0617 34.2447 28.5666 36.3078 28.6133 37.9809C28.6606 39.653 27.4632 40.9881 25.8212 41.0991L25.478 41.1229C25.3966 41.1281 25.3267 41.1307 25.2605 41.1307C24.4556 41.1307 23.6498 40.8286 23.0738 40.3113Z" fill="#F30000"/>
<path d="M72.5944 30.2273C72.5944 31.8134 72.2937 33.1629 71.6924 34.2756C71.0958 35.3883 70.2814 36.2382 69.2492 36.8253C68.2217 37.4077 67.0664 37.6989 65.7833 37.6989C64.4907 37.6989 63.3306 37.4053 62.3032 36.8182C61.2757 36.2311 60.4637 35.3812 59.8671 34.2685C59.2705 33.1558 58.9722 31.8087 58.9722 30.2273C58.9722 28.6411 59.2705 27.2917 59.8671 26.179C60.4637 25.0663 61.2757 24.2187 62.3032 23.6364C63.3306 23.0492 64.4907 22.7557 65.7833 22.7557C67.0664 22.7557 68.2217 23.0492 69.2492 23.6364C70.2814 24.2187 71.0958 25.0663 71.6924 26.179C72.2937 27.2917 72.5944 28.6411 72.5944 30.2273ZM69.4765 30.2273C69.4765 29.1998 69.3226 28.3333 69.0148 27.6278C68.7118 26.9223 68.2833 26.3873 67.7293 26.0227C67.1753 25.6581 66.5266 25.4759 65.7833 25.4759C65.0399 25.4759 64.3912 25.6581 63.8373 26.0227C63.2833 26.3873 62.8524 26.9223 62.5446 27.6278C62.2416 28.3333 62.0901 29.1998 62.0901 30.2273C62.0901 31.2547 62.2416 32.1212 62.5446 32.8267C62.8524 33.5322 63.2833 34.0672 63.8373 34.4318C64.3912 34.7964 65.0399 34.9787 65.7833 34.9787C66.5266 34.9787 67.1753 34.7964 67.7293 34.4318C68.2833 34.0672 68.7118 33.5322 69.0148 32.8267C69.3226 32.1212 69.4765 31.2547 69.4765 30.2273ZM77.7071 34.3608L77.7142 30.7315H78.1545L81.6488 26.5909H85.1218L80.4272 32.0739H79.7099L77.7071 34.3608ZM74.9656 37.5V22.9545H77.9912V37.5H74.9656ZM81.7838 37.5L78.5735 32.7486L80.5906 30.6108L85.3278 37.5H81.7838ZM92.5588 26.5909V28.8636H85.9892V26.5909H92.5588ZM87.4806 23.9773H90.5062V34.1477C90.5062 34.4271 90.5488 34.6449 90.6341 34.8011C90.7193 34.9527 90.8377 35.0592 90.9892 35.1207C91.1454 35.1823 91.3253 35.2131 91.5289 35.2131C91.671 35.2131 91.813 35.2012 91.9551 35.1776C92.0971 35.1491 92.206 35.1278 92.2818 35.1136L92.7576 37.3651C92.6061 37.4124 92.3931 37.4669 92.1184 37.5284C91.8438 37.5947 91.51 37.6349 91.117 37.6491C90.3878 37.6776 89.7486 37.5805 89.1994 37.358C88.6549 37.1354 88.2311 36.7898 87.9281 36.321C87.6251 35.8523 87.4759 35.2604 87.4806 34.5455V23.9773ZM99.4914 37.7131C98.3882 37.7131 97.4342 37.4787 96.6292 37.0099C95.829 36.5365 95.2111 35.8783 94.7755 35.0355C94.3399 34.188 94.1221 33.2055 94.1221 32.0881C94.1221 30.9612 94.3399 29.9763 94.7755 29.1335C95.2111 28.286 95.829 27.6278 96.6292 27.1591C97.4342 26.6856 98.3882 26.4489 99.4914 26.4489C100.595 26.4489 101.546 26.6856 102.347 27.1591C103.151 27.6278 103.772 28.286 104.207 29.1335C104.643 29.9763 104.861 30.9612 104.861 32.0881C104.861 33.2055 104.643 34.188 104.207 35.0355C103.772 35.8783 103.151 36.5365 102.347 37.0099C101.546 37.4787 100.595 37.7131 99.4914 37.7131ZM99.5056 35.3693C100.008 35.3693 100.427 35.2273 100.763 34.9432C101.099 34.6544 101.352 34.2614 101.523 33.7642C101.698 33.267 101.785 32.7012 101.785 32.0668C101.785 31.4323 101.698 30.8665 101.523 30.3693C101.352 29.8722 101.099 29.4792 100.763 29.1903C100.427 28.9015 100.008 28.7571 99.5056 28.7571C98.999 28.7571 98.5729 28.9015 98.2272 29.1903C97.8863 29.4792 97.6283 29.8722 97.4531 30.3693C97.2826 30.8665 97.1974 31.4323 97.1974 32.0668C97.1974 32.7012 97.2826 33.267 97.4531 33.7642C97.6283 34.2614 97.8863 34.6544 98.2272 34.9432C98.5729 35.2273 98.999 35.3693 99.5056 35.3693ZM107.035 37.5V22.9545H112.774C113.877 22.9545 114.817 23.1652 115.593 23.5866C116.37 24.0033 116.962 24.5833 117.369 25.3267C117.781 26.0653 117.987 26.9176 117.987 27.8835C117.987 28.8494 117.778 29.7017 117.362 30.4403C116.945 31.179 116.341 31.7543 115.551 32.1662C114.765 32.5781 113.813 32.7841 112.695 32.7841H109.038V30.3196H112.198C112.79 30.3196 113.278 30.2178 113.661 30.0142C114.05 29.8059 114.338 29.5194 114.528 29.1548C114.722 28.7855 114.819 28.3617 114.819 27.8835C114.819 27.4006 114.722 26.9792 114.528 26.6193C114.338 26.2547 114.05 25.973 113.661 25.7741C113.273 25.5705 112.781 25.4688 112.184 25.4688H110.11V37.5H107.035ZM124.873 37.7131C123.751 37.7131 122.785 37.4858 121.975 37.0312C121.17 36.572 120.55 35.9233 120.115 35.0852C119.679 34.2424 119.461 33.2457 119.461 32.0952C119.461 30.973 119.679 29.9882 120.115 29.1406C120.55 28.2931 121.163 27.6326 121.954 27.1591C122.75 26.6856 123.682 26.4489 124.752 26.4489C125.472 26.4489 126.142 26.5649 126.762 26.7969C127.387 27.0241 127.932 27.3674 128.396 27.8267C128.865 28.286 129.229 28.8636 129.49 29.5597C129.75 30.2509 129.88 31.0606 129.88 31.9886V32.8196H120.669V30.9446H127.032C127.032 30.509 126.938 30.1231 126.748 29.7869C126.559 29.4508 126.296 29.188 125.96 28.9986C125.628 28.8045 125.242 28.7074 124.802 28.7074C124.343 28.7074 123.936 28.8139 123.581 29.027C123.23 29.2353 122.956 29.517 122.757 29.8722C122.558 30.2225 122.456 30.6132 122.451 31.044V32.8267C122.451 33.3665 122.551 33.8329 122.75 34.2259C122.953 34.6188 123.24 34.9219 123.609 35.1349C123.978 35.348 124.416 35.4545 124.923 35.4545C125.259 35.4545 125.567 35.4072 125.846 35.3125C126.125 35.2178 126.365 35.0758 126.563 34.8864C126.762 34.697 126.914 34.465 127.018 34.1903L129.816 34.375C129.674 35.0473 129.383 35.6345 128.943 36.1364C128.507 36.6335 127.944 37.0218 127.252 37.3011C126.566 37.5758 125.773 37.7131 124.873 37.7131ZM136.934 37.7131C135.83 37.7131 134.876 37.4787 134.071 37.0099C133.271 36.5365 132.653 35.8783 132.218 35.0355C131.782 34.188 131.564 33.2055 131.564 32.0881C131.564 30.9612 131.782 29.9763 132.218 29.1335C132.653 28.286 133.271 27.6278 134.071 27.1591C134.876 26.6856 135.83 26.4489 136.934 26.4489C138.037 26.4489 138.989 26.6856 139.789 27.1591C140.594 27.6278 141.214 28.286 141.65 29.1335C142.085 29.9763 142.303 30.9612 142.303 32.0881C142.303 33.2055 142.085 34.188 141.65 35.0355C141.214 35.8783 140.594 36.5365 139.789 37.0099C138.989 37.4787 138.037 37.7131 136.934 37.7131ZM136.948 35.3693C137.45 35.3693 137.869 35.2273 138.205 34.9432C138.541 34.6544 138.794 34.2614 138.965 33.7642C139.14 33.267 139.228 32.7012 139.228 32.0668C139.228 31.4323 139.14 30.8665 138.965 30.3693C138.794 29.8722 138.541 29.4792 138.205 29.1903C137.869 28.9015 137.45 28.7571 136.948 28.7571C136.441 28.7571 136.015 28.9015 135.669 29.1903C135.329 29.4792 135.07 29.8722 134.895 30.3693C134.725 30.8665 134.64 31.4323 134.64 32.0668C134.64 32.7012 134.725 33.267 134.895 33.7642C135.07 34.2614 135.329 34.6544 135.669 34.9432C136.015 35.2273 136.441 35.3693 136.948 35.3693ZM144.42 41.5909V26.5909H147.403V28.4233H147.538C147.671 28.1297 147.863 27.8314 148.113 27.5284C148.369 27.2206 148.701 26.965 149.108 26.7614C149.52 26.553 150.031 26.4489 150.642 26.4489C151.437 26.4489 152.171 26.6572 152.844 27.0739C153.516 27.4858 154.053 28.1084 154.456 28.9418C154.858 29.7704 155.059 30.8097 155.059 32.0597C155.059 33.2765 154.863 34.304 154.47 35.142C154.082 35.9754 153.551 36.6075 152.879 37.0384C152.211 37.4645 151.463 37.6776 150.635 37.6776C150.048 37.6776 149.548 37.5805 149.136 37.3864C148.729 37.1922 148.395 36.9484 148.135 36.6548C147.874 36.3565 147.675 36.0559 147.538 35.7528H147.446V41.5909H144.42ZM147.382 32.0455C147.382 32.6941 147.472 33.2599 147.652 33.7429C147.832 34.2259 148.092 34.6023 148.433 34.8722C148.774 35.1373 149.188 35.2699 149.676 35.2699C150.168 35.2699 150.585 35.1349 150.926 34.8651C151.267 34.5904 151.525 34.2116 151.7 33.7287C151.88 33.241 151.97 32.6799 151.97 32.0455C151.97 31.4157 151.882 30.8617 151.707 30.3835C151.532 29.9053 151.274 29.5312 150.933 29.2614C150.592 28.9915 150.173 28.8565 149.676 28.8565C149.184 28.8565 148.767 28.9867 148.426 29.2472C148.09 29.5076 147.832 29.8769 147.652 30.3551C147.472 30.8333 147.382 31.3968 147.382 32.0455ZM160.252 22.9545V37.5H157.227V22.9545H160.252ZM167.797 37.7131C166.675 37.7131 165.709 37.4858 164.9 37.0312C164.095 36.572 163.474 35.9233 163.039 35.0852C162.603 34.2424 162.385 33.2457 162.385 32.0952C162.385 30.973 162.603 29.9882 163.039 29.1406C163.474 28.2931 164.088 27.6326 164.878 27.1591C165.674 26.6856 166.607 26.4489 167.677 26.4489C168.396 26.4489 169.066 26.5649 169.687 26.7969C170.312 27.0241 170.856 27.3674 171.32 27.8267C171.789 28.286 172.153 28.8636 172.414 29.5597C172.674 30.2509 172.804 31.0606 172.804 31.9886V32.8196H163.593V30.9446H169.956C169.956 30.509 169.862 30.1231 169.672 29.7869C169.483 29.4508 169.22 29.188 168.884 28.9986C168.553 28.8045 168.167 28.7074 167.726 28.7074C167.267 28.7074 166.86 28.8139 166.505 29.027C166.154 29.2353 165.88 29.517 165.681 29.8722C165.482 30.2225 165.38 30.6132 165.375 31.044V32.8267C165.375 33.3665 165.475 33.8329 165.674 34.2259C165.877 34.6188 166.164 34.9219 166.533 35.1349C166.902 35.348 167.34 35.4545 167.847 35.4545C168.183 35.4545 168.491 35.4072 168.77 35.3125C169.05 35.2178 169.289 35.0758 169.488 34.8864C169.687 34.697 169.838 34.465 169.942 34.1903L172.741 34.375C172.598 35.0473 172.307 35.6345 171.867 36.1364C171.431 36.6335 170.868 37.0218 170.177 37.3011C169.49 37.5758 168.697 37.7131 167.797 37.7131Z" fill="#FF1313"/>
</svg>
