<svg width="379" height="450" viewBox="0 0 379 450" fill="none" xmlns="http://www.w3.org/2000/svg">
<mask id="mask0_635_286" style="mask-type:alpha" maskUnits="userSpaceOnUse" x="0" y="0" width="379" height="450">
<rect width="379" height="450" rx="20" fill="#D9D9D9"/>
</mask>
<g mask="url(#mask0_635_286)">
<g clip-path="url(#clip0_635_286)">
<rect x="-18" y="-37.7148" width="461" height="500" rx="4" fill="#363D5B"/>
<rect y="-5" width="382" height="514" fill="url(#paint0_linear_635_286)"/>
<g opacity="0.1">
<path d="M666.892 168.388L756.851 399.98C760.233 408.686 762 426.096 762 426.096C762 426.096 758.953 444.573 754.932 453.811L670.091 648.728C662.699 665.71 655.729 672.909 655.729 672.909C655.729 672.909 643.002 682 635.466 684.832L407.114 770.67C395.545 775.019 387.91 775.285 387.91 775.285C387.91 775.285 381.9 774.444 372.913 770.67C354.51 762.941 320.454 748.692 282.249 732.706C233.438 712.283 177.853 689.026 139.478 672.909C134.734 670.917 125.245 662.048 125.245 662.048C125.245 662.048 120.595 655.202 118.269 649.338L28.4858 422.898C25.6586 415.767 25 401.507 25 401.507C25 401.507 27.3916 384.584 31.0853 376.122L118.968 174.802C125.153 160.635 131.218 154.198 131.218 154.198C131.218 154.198 138.215 148.429 153.51 142.561L379.696 55.7908C387.854 52.661 404.171 51.2852 404.171 51.2852C404.171 51.2852 419.348 52.9025 426.936 56.153L649.618 151.541C657.793 155.043 660.979 158.155 660.979 158.155C660.979 158.155 664.085 161.159 666.892 168.388Z" fill="url(#paint1_linear_635_286)"/>
<path d="M666.892 168.388L756.851 399.98C760.233 408.686 762 426.096 762 426.096C762 426.096 758.953 444.573 754.932 453.811L670.091 648.728C662.699 665.71 655.729 672.909 655.729 672.909C655.729 672.909 643.002 682 635.466 684.832L407.114 770.67C395.545 775.019 387.91 775.285 387.91 775.285C387.91 775.285 381.9 774.444 372.913 770.67C354.51 762.941 320.454 748.692 282.249 732.706C233.438 712.283 177.853 689.026 139.478 672.909C134.734 670.917 125.245 662.048 125.245 662.048C125.245 662.048 120.595 655.202 118.269 649.338L28.4858 422.898C25.6586 415.767 25 401.507 25 401.507C25 401.507 27.3916 384.584 31.0853 376.122L118.968 174.802C125.153 160.635 131.218 154.198 131.218 154.198C131.218 154.198 138.215 148.429 153.51 142.561L379.696 55.7908C387.854 52.661 404.171 51.2852 404.171 51.2852C404.171 51.2852 419.348 52.9025 426.936 56.153L649.618 151.541C657.793 155.043 660.979 158.155 660.979 158.155C660.979 158.155 664.085 161.159 666.892 168.388Z" stroke="url(#paint2_linear_635_286)"/>
</g>
<g clip-path="url(#clip1_635_286)">
<path opacity="0.4" d="M531.87 130.612C413.919 96.048 289.378 166.679 253.721 288.412C218.064 410.146 284.81 536.831 402.761 571.396C520.713 605.96 645.255 535.329 680.911 413.595C716.567 291.863 649.821 165.176 531.87 130.612Z" stroke="#D5DAE1"/>
<path d="M274.609 217.511L270.599 232.943L255.297 236.795L270.662 241.3L274.909 256.908L278.919 241.476L294.221 237.624L278.856 233.119L274.609 217.511Z" fill="#FFF7F2"/>
</g>
</g>
<g opacity="0.99">
<path opacity="0.1" d="M34 48.2852C34 39.4486 41.1634 32.2852 50 32.2852H226C234.837 32.2852 242 39.4486 242 48.2852V216.285C242 225.122 234.837 232.285 226 232.285H50C41.1634 232.285 34 225.122 34 216.285V48.2852Z" fill="url(#paint3_linear_635_286)"/>
<rect opacity="0.99" x="20" y="19.2852" width="208" height="200" rx="16" fill="url(#paint4_linear_635_286)"/>
<path d="M46.916 145.285L54.364 124.845H58.116L50.696 145.285H46.916ZM45.516 136.073C44.4147 136.073 43.4907 135.83 42.744 135.345C42.016 134.841 41.4653 134.178 41.092 133.357C40.7373 132.517 40.56 131.593 40.56 130.585V129.857C40.56 128.793 40.7467 127.85 41.12 127.029C41.4933 126.208 42.0533 125.564 42.8 125.097C43.5467 124.63 44.452 124.397 45.516 124.397C46.5987 124.397 47.504 124.63 48.232 125.097C48.9787 125.564 49.5387 126.208 49.912 127.029C50.2853 127.85 50.472 128.793 50.472 129.857V130.585C50.472 131.593 50.2853 132.517 49.912 133.357C49.5573 134.178 49.016 134.841 48.288 135.345C47.56 135.83 46.636 136.073 45.516 136.073ZM45.516 133.077C46.0947 133.077 46.5147 132.872 46.776 132.461C47.056 132.032 47.196 131.294 47.196 130.249C47.196 129.148 47.056 128.392 46.776 127.981C46.496 127.57 46.076 127.365 45.516 127.365C44.956 127.365 44.536 127.57 44.256 127.981C43.976 128.392 43.836 129.138 43.836 130.221C43.836 131.266 43.976 132.004 44.256 132.433C44.536 132.862 44.956 133.077 45.516 133.077ZM59.432 145.761C58.312 145.761 57.388 145.518 56.66 145.033C55.932 144.548 55.3813 143.894 55.008 143.073C54.6533 142.233 54.476 141.309 54.476 140.301V139.573C54.476 138.49 54.6627 137.538 55.036 136.717C55.4093 135.896 55.96 135.252 56.688 134.785C57.4347 134.318 58.3493 134.085 59.432 134.085C60.5147 134.085 61.42 134.318 62.148 134.785C62.876 135.252 63.4267 135.896 63.8 136.717C64.1733 137.538 64.36 138.49 64.36 139.573V140.301C64.36 141.309 64.1733 142.233 63.8 143.073C63.4453 143.894 62.904 144.548 62.176 145.033C61.4667 145.518 60.552 145.761 59.432 145.761ZM59.432 142.793C60.0107 142.793 60.4307 142.588 60.692 142.177C60.972 141.748 61.112 141.01 61.112 139.965C61.112 138.845 60.972 138.089 60.692 137.697C60.412 137.286 59.992 137.081 59.432 137.081C58.872 137.081 58.4427 137.286 58.144 137.697C57.864 138.089 57.724 138.836 57.724 139.937C57.724 140.982 57.864 141.72 58.144 142.149C58.424 142.578 58.8533 142.793 59.432 142.793ZM74.1215 124.257C75.6335 124.257 76.9308 124.509 78.0135 125.013C79.0962 125.498 79.9735 126.198 80.6455 127.113C81.3362 128.009 81.8402 129.045 82.1575 130.221C82.4935 131.397 82.6615 132.657 82.6615 134.001V135.177C82.6615 138.574 81.7935 141.141 80.0575 142.877C78.3215 144.594 75.7642 145.453 72.3855 145.453C71.6948 145.453 71.0135 145.434 70.3415 145.397C69.6695 145.36 69.0162 145.304 68.3815 145.229V141.393C68.9975 141.449 69.6602 141.505 70.3695 141.561C71.0788 141.598 71.8068 141.617 72.5535 141.617C74.0468 141.617 75.2228 141.374 76.0815 140.889C76.9402 140.385 77.5468 139.638 77.9015 138.649C78.2562 137.66 78.4335 136.437 78.4335 134.981V132.853L79.4415 132.181C79.4228 133.581 79.1335 134.757 78.5735 135.709C78.0322 136.642 77.2762 137.342 76.3055 137.809C75.3348 138.276 74.2148 138.509 72.9455 138.509C71.5082 138.509 70.2668 138.229 69.2215 137.669C68.1762 137.09 67.3735 136.288 66.8135 135.261C66.2535 134.234 65.9735 133.021 65.9735 131.621C65.9735 130.146 66.3095 128.858 66.9815 127.757C67.6535 126.637 68.5962 125.778 69.8095 125.181C71.0415 124.565 72.4788 124.257 74.1215 124.257ZM74.2615 128.065C73.4402 128.065 72.7402 128.214 72.1615 128.513C71.6015 128.812 71.1628 129.222 70.8455 129.745C70.5468 130.249 70.3975 130.846 70.3975 131.537C70.3975 132.246 70.5468 132.862 70.8455 133.385C71.1442 133.889 71.5642 134.29 72.1055 134.589C72.6655 134.869 73.3468 135.009 74.1495 135.009C74.8775 135.009 75.5402 134.888 76.1375 134.645C76.7535 134.384 77.2388 134.001 77.5935 133.497C77.9482 132.974 78.1255 132.321 78.1255 131.537C78.1255 130.865 77.9762 130.268 77.6775 129.745C77.3975 129.222 76.9682 128.812 76.3895 128.513C75.8108 128.214 75.1015 128.065 74.2615 128.065ZM93.2882 145.817C91.6642 145.817 90.2642 145.509 89.0882 144.893C87.9122 144.258 87.0068 143.409 86.3722 142.345C85.7562 141.281 85.4482 140.105 85.4482 138.817H89.8722C89.8722 139.452 90.0122 140.012 90.2922 140.497C90.5908 140.964 91.0015 141.337 91.5242 141.617C92.0468 141.878 92.6442 142.009 93.3162 142.009C94.0628 142.009 94.6882 141.86 95.1922 141.561C95.7148 141.244 96.1162 140.824 96.3962 140.301C96.6762 139.76 96.8162 139.153 96.8162 138.481C96.8162 137.79 96.6762 137.184 96.3962 136.661C96.1348 136.12 95.7428 135.69 95.2202 135.373C94.7162 135.056 94.1002 134.897 93.3722 134.897C92.7002 134.897 92.0935 135.037 91.5522 135.317C91.0108 135.597 90.6095 135.952 90.3482 136.381H86.0362L87.0722 124.845H99.4762V128.765H88.8922L90.6562 127.589L90.0402 134.225L88.9762 133.945C89.5362 133.273 90.2082 132.713 90.9922 132.265C91.7948 131.798 92.8402 131.565 94.1282 131.565C95.6215 131.565 96.8908 131.873 97.9362 132.489C99.0002 133.086 99.8122 133.898 100.372 134.925C100.951 135.933 101.24 137.062 101.24 138.313V138.677C101.24 139.928 100.932 141.094 100.316 142.177C99.7002 143.26 98.7948 144.137 97.6002 144.809C96.4242 145.481 94.9868 145.817 93.2882 145.817Z" fill="black"/>
<path d="M44.595 174.045C44.235 174.045 43.91 173.98 43.62 173.85C43.33 173.72 43.065 173.57 42.825 173.4C42.585 173.23 42.355 173.08 42.135 172.95C41.925 172.82 41.72 172.755 41.52 172.755C41.32 172.755 41.145 172.83 40.995 172.98C40.855 173.13 40.755 173.38 40.695 173.73L39.3 173.745C39.33 173.075 39.455 172.53 39.675 172.11C39.905 171.69 40.185 171.38 40.515 171.18C40.855 170.98 41.2 170.88 41.55 170.88C41.91 170.88 42.235 170.95 42.525 171.09C42.815 171.22 43.08 171.37 43.32 171.54C43.56 171.71 43.785 171.86 43.995 171.99C44.215 172.12 44.43 172.185 44.64 172.185C44.84 172.185 45.01 172.11 45.15 171.96C45.3 171.8 45.4 171.55 45.45 171.21H46.845C46.825 171.88 46.7 172.425 46.47 172.845C46.25 173.265 45.97 173.57 45.63 173.76C45.3 173.95 44.955 174.045 44.595 174.045ZM50.5345 174.15V172.02H52.4995C52.8795 172.02 53.2045 171.945 53.4745 171.795C53.7545 171.645 53.9695 171.435 54.1195 171.165C54.2695 170.885 54.3445 170.565 54.3445 170.205C54.3445 169.825 54.2695 169.5 54.1195 169.23C53.9695 168.95 53.7545 168.74 53.4745 168.6C53.2045 168.45 52.8795 168.375 52.4995 168.375H50.5345V166.245H52.3795C53.3095 166.245 54.1045 166.4 54.7645 166.71C55.4345 167.02 55.9445 167.46 56.2945 168.03C56.6545 168.6 56.8345 169.285 56.8345 170.085V170.325C56.8345 171.105 56.6545 171.785 56.2945 172.365C55.9445 172.935 55.4345 173.375 54.7645 173.685C54.1045 173.995 53.3095 174.15 52.3795 174.15H50.5345ZM48.3745 177.285V166.245H50.8345V177.285H48.3745ZM58.3177 177.285V169.065H60.2227V172.59H60.1777C60.1777 171.43 60.4227 170.535 60.9127 169.905C61.4127 169.275 62.1327 168.96 63.0727 168.96H63.3877V171.03H62.7877C62.1277 171.03 61.6177 171.21 61.2577 171.57C60.8977 171.92 60.7177 172.43 60.7177 173.1V177.285H58.3177ZM68.5922 177.57C67.8722 177.57 67.2322 177.46 66.6722 177.24C66.1122 177.01 65.6372 176.7 65.2472 176.31C64.8672 175.92 64.5772 175.475 64.3772 174.975C64.1772 174.465 64.0772 173.93 64.0772 173.37V173.025C64.0772 172.455 64.1772 171.915 64.3772 171.405C64.5872 170.885 64.8872 170.43 65.2772 170.04C65.6772 169.65 66.1572 169.345 66.7172 169.125C67.2772 168.895 67.9022 168.78 68.5922 168.78C69.3022 168.78 69.9322 168.895 70.4822 169.125C71.0422 169.345 71.5172 169.65 71.9072 170.04C72.2972 170.43 72.5972 170.885 72.8072 171.405C73.0172 171.915 73.1222 172.455 73.1222 173.025V173.37C73.1222 173.93 73.0222 174.465 72.8222 174.975C72.6222 175.475 72.3272 175.92 71.9372 176.31C71.5572 176.7 71.0872 177.01 70.5272 177.24C69.9672 177.46 69.3222 177.57 68.5922 177.57ZM68.5922 175.545C69.0622 175.545 69.4522 175.445 69.7622 175.245C70.0722 175.045 70.3072 174.765 70.4672 174.405C70.6372 174.045 70.7222 173.645 70.7222 173.205C70.7222 172.735 70.6372 172.325 70.4672 171.975C70.2972 171.615 70.0522 171.33 69.7322 171.12C69.4222 170.91 69.0422 170.805 68.5922 170.805C68.1522 170.805 67.7722 170.91 67.4522 171.12C67.1322 171.33 66.8872 171.615 66.7172 171.975C66.5572 172.325 66.4772 172.735 66.4772 173.205C66.4772 173.645 66.5572 174.045 66.7172 174.405C66.8772 174.765 67.1172 175.045 67.4372 175.245C67.7572 175.445 68.1422 175.545 68.5922 175.545ZM73.7621 180.36V178.335H74.2871C74.6571 178.335 74.9371 178.235 75.1271 178.035C75.3171 177.845 75.4121 177.57 75.4121 177.21V169.065H77.7371V177.135C77.7371 177.925 77.6121 178.555 77.3621 179.025C77.1221 179.495 76.7371 179.835 76.2071 180.045C75.6871 180.255 75.0171 180.36 74.1971 180.36H73.7621ZM74.2721 170.835V169.065H77.7371V170.835H74.2721ZM76.2671 168.225C75.8171 168.225 75.4821 168.11 75.2621 167.88C75.0521 167.64 74.9471 167.34 74.9471 166.98C74.9471 166.61 75.0521 166.31 75.2621 166.08C75.4821 165.84 75.8171 165.72 76.2671 165.72C76.7271 165.72 77.0621 165.84 77.2721 166.08C77.4821 166.31 77.5871 166.61 77.5871 166.98C77.5871 167.34 77.4821 167.64 77.2721 167.88C77.0621 168.11 76.7271 168.225 76.2671 168.225ZM83.6452 177.57C82.9452 177.57 82.3252 177.45 81.7852 177.21C81.2552 176.97 80.8102 176.65 80.4502 176.25C80.1002 175.84 79.8302 175.385 79.6402 174.885C79.4602 174.375 79.3702 173.855 79.3702 173.325V173.025C79.3702 172.475 79.4602 171.95 79.6402 171.45C79.8302 170.94 80.1002 170.485 80.4502 170.085C80.8002 169.685 81.2352 169.37 81.7552 169.14C82.2852 168.9 82.8852 168.78 83.5552 168.78C84.4352 168.78 85.1752 168.98 85.7752 169.38C86.3852 169.77 86.8502 170.285 87.1702 170.925C87.4902 171.555 87.6502 172.245 87.6502 172.995V173.805H80.3752V172.44H86.1952L85.4152 173.07C85.4152 172.58 85.3452 172.16 85.2052 171.81C85.0652 171.46 84.8552 171.195 84.5752 171.015C84.3052 170.825 83.9652 170.73 83.5552 170.73C83.1352 170.73 82.7802 170.825 82.4902 171.015C82.2002 171.205 81.9802 171.485 81.8302 171.855C81.6802 172.215 81.6052 172.66 81.6052 173.19C81.6052 173.68 81.6752 174.11 81.8152 174.48C81.9552 174.84 82.1752 175.12 82.4752 175.32C82.7752 175.52 83.1652 175.62 83.6452 175.62C84.0852 175.62 84.4452 175.535 84.7252 175.365C85.0052 175.195 85.1952 174.985 85.2952 174.735H87.5002C87.3802 175.285 87.1452 175.775 86.7952 176.205C86.4452 176.635 86.0052 176.97 85.4752 177.21C84.9452 177.45 84.3352 177.57 83.6452 177.57ZM92.9305 177.57C92.2205 177.57 91.6005 177.455 91.0705 177.225C90.5505 176.985 90.1155 176.665 89.7655 176.265C89.4155 175.865 89.1555 175.415 88.9855 174.915C88.8155 174.405 88.7305 173.88 88.7305 173.34V173.055C88.7305 172.495 88.8205 171.96 89.0005 171.45C89.1805 170.93 89.4455 170.47 89.7955 170.07C90.1455 169.67 90.5805 169.355 91.1005 169.125C91.6305 168.895 92.2355 168.78 92.9155 168.78C93.6555 168.78 94.3105 168.925 94.8805 169.215C95.4505 169.495 95.9055 169.89 96.2455 170.4C96.5855 170.91 96.7755 171.495 96.8155 172.155H94.4605C94.4205 171.785 94.2705 171.475 94.0105 171.225C93.7605 170.965 93.3955 170.835 92.9155 170.835C92.5155 170.835 92.1805 170.935 91.9105 171.135C91.6505 171.335 91.4555 171.61 91.3255 171.96C91.1955 172.31 91.1305 172.725 91.1305 173.205C91.1305 173.645 91.1905 174.045 91.3105 174.405C91.4305 174.755 91.6205 175.03 91.8805 175.23C92.1505 175.42 92.5005 175.515 92.9305 175.515C93.2505 175.515 93.5205 175.46 93.7405 175.35C93.9705 175.23 94.1505 175.07 94.2805 174.87C94.4205 174.66 94.5055 174.42 94.5355 174.15H96.8755C96.8455 174.83 96.6555 175.43 96.3055 175.95C95.9555 176.46 95.4905 176.86 94.9105 177.15C94.3305 177.43 93.6705 177.57 92.9305 177.57ZM102.145 177.39C101.315 177.39 100.645 177.29 100.135 177.09C99.6254 176.88 99.2504 176.535 99.0104 176.055C98.7804 175.565 98.6654 174.905 98.6654 174.075V166.845H100.9V174.165C100.9 174.555 101 174.855 101.2 175.065C101.41 175.265 101.705 175.365 102.085 175.365H103.3V177.39H102.145ZM97.4204 170.82V169.065H103.3V170.82H97.4204ZM111.754 177.57C111.044 177.57 110.424 177.455 109.894 177.225C109.374 176.985 108.939 176.665 108.589 176.265C108.239 175.865 107.979 175.415 107.809 174.915C107.639 174.405 107.554 173.88 107.554 173.34V173.055C107.554 172.495 107.644 171.96 107.824 171.45C108.004 170.93 108.269 170.47 108.619 170.07C108.969 169.67 109.404 169.355 109.924 169.125C110.454 168.895 111.059 168.78 111.739 168.78C112.479 168.78 113.134 168.925 113.704 169.215C114.274 169.495 114.729 169.89 115.069 170.4C115.409 170.91 115.599 171.495 115.639 172.155H113.284C113.244 171.785 113.094 171.475 112.834 171.225C112.584 170.965 112.219 170.835 111.739 170.835C111.339 170.835 111.004 170.935 110.734 171.135C110.474 171.335 110.279 171.61 110.149 171.96C110.019 172.31 109.954 172.725 109.954 173.205C109.954 173.645 110.014 174.045 110.134 174.405C110.254 174.755 110.444 175.03 110.704 175.23C110.974 175.42 111.324 175.515 111.754 175.515C112.074 175.515 112.344 175.46 112.564 175.35C112.794 175.23 112.974 175.07 113.104 174.87C113.244 174.66 113.329 174.42 113.359 174.15H115.699C115.669 174.83 115.479 175.43 115.129 175.95C114.779 176.46 114.314 176.86 113.734 177.15C113.154 177.43 112.494 177.57 111.754 177.57ZM121.239 177.57C120.519 177.57 119.879 177.46 119.319 177.24C118.759 177.01 118.284 176.7 117.894 176.31C117.514 175.92 117.224 175.475 117.024 174.975C116.824 174.465 116.724 173.93 116.724 173.37V173.025C116.724 172.455 116.824 171.915 117.024 171.405C117.234 170.885 117.534 170.43 117.924 170.04C118.324 169.65 118.804 169.345 119.364 169.125C119.924 168.895 120.549 168.78 121.239 168.78C121.949 168.78 122.579 168.895 123.129 169.125C123.689 169.345 124.164 169.65 124.554 170.04C124.944 170.43 125.244 170.885 125.454 171.405C125.664 171.915 125.769 172.455 125.769 173.025V173.37C125.769 173.93 125.669 174.465 125.469 174.975C125.269 175.475 124.974 175.92 124.584 176.31C124.204 176.7 123.734 177.01 123.174 177.24C122.614 177.46 121.969 177.57 121.239 177.57ZM121.239 175.545C121.709 175.545 122.099 175.445 122.409 175.245C122.719 175.045 122.954 174.765 123.114 174.405C123.284 174.045 123.369 173.645 123.369 173.205C123.369 172.735 123.284 172.325 123.114 171.975C122.944 171.615 122.699 171.33 122.379 171.12C122.069 170.91 121.689 170.805 121.239 170.805C120.799 170.805 120.419 170.91 120.099 171.12C119.779 171.33 119.534 171.615 119.364 171.975C119.204 172.325 119.124 172.735 119.124 173.205C119.124 173.645 119.204 174.045 119.364 174.405C119.524 174.765 119.764 175.045 120.084 175.245C120.404 175.445 120.789 175.545 121.239 175.545ZM127.444 177.285V169.065H129.349V172.605H129.214C129.214 171.765 129.319 171.065 129.529 170.505C129.739 169.945 130.054 169.525 130.474 169.245C130.894 168.955 131.409 168.81 132.019 168.81H132.124C132.744 168.81 133.259 168.955 133.669 169.245C134.089 169.525 134.404 169.945 134.614 170.505C134.834 171.065 134.944 171.765 134.944 172.605H134.359C134.359 171.765 134.464 171.065 134.674 170.505C134.894 169.945 135.214 169.525 135.634 169.245C136.054 168.955 136.569 168.81 137.179 168.81H137.284C137.904 168.81 138.424 168.955 138.844 169.245C139.274 169.525 139.599 169.945 139.819 170.505C140.039 171.065 140.149 171.765 140.149 172.605V177.285H137.749V172.47C137.749 172.02 137.629 171.655 137.389 171.375C137.159 171.095 136.829 170.955 136.399 170.955C135.969 170.955 135.629 171.1 135.379 171.39C135.129 171.67 135.004 172.045 135.004 172.515V177.285H132.589V172.47C132.589 172.02 132.469 171.655 132.229 171.375C131.999 171.095 131.674 170.955 131.254 170.955C130.814 170.955 130.469 171.1 130.219 171.39C129.969 171.67 129.844 172.045 129.844 172.515V177.285H127.444ZM142.195 180.285V169.065H144.1V172.62L143.845 172.605C143.885 171.785 144.055 171.095 144.355 170.535C144.655 169.965 145.06 169.54 145.57 169.26C146.08 168.97 146.655 168.825 147.295 168.825C147.865 168.825 148.38 168.93 148.84 169.14C149.31 169.35 149.71 169.645 150.04 170.025C150.38 170.395 150.635 170.835 150.805 171.345C150.985 171.845 151.075 172.395 151.075 172.995V173.34C151.075 173.93 150.99 174.485 150.82 175.005C150.65 175.515 150.4 175.96 150.07 176.34C149.75 176.72 149.355 177.02 148.885 177.24C148.425 177.45 147.895 177.555 147.295 177.555C146.675 177.555 146.115 177.43 145.615 177.18C145.125 176.92 144.73 176.53 144.43 176.01C144.13 175.48 143.965 174.81 143.935 174L144.595 174.9V180.285H142.195ZM146.62 175.545C147.03 175.545 147.385 175.445 147.685 175.245C147.995 175.045 148.235 174.765 148.405 174.405C148.575 174.045 148.66 173.63 148.66 173.16C148.66 172.69 148.575 172.28 148.405 171.93C148.235 171.58 148 171.31 147.7 171.12C147.4 170.92 147.04 170.82 146.62 170.82C146.26 170.82 145.92 170.905 145.6 171.075C145.28 171.245 145.02 171.49 144.82 171.81C144.63 172.12 144.535 172.5 144.535 172.95V173.505C144.535 173.935 144.635 174.305 144.835 174.615C145.045 174.915 145.31 175.145 145.63 175.305C145.95 175.465 146.28 175.545 146.62 175.545ZM152.846 177.285V166.335H155.261V177.285H152.846ZM151.871 168.105V166.335H155.261V168.105H151.871ZM161.238 177.57C160.538 177.57 159.918 177.45 159.378 177.21C158.848 176.97 158.403 176.65 158.043 176.25C157.693 175.84 157.423 175.385 157.233 174.885C157.053 174.375 156.963 173.855 156.963 173.325V173.025C156.963 172.475 157.053 171.95 157.233 171.45C157.423 170.94 157.693 170.485 158.043 170.085C158.393 169.685 158.828 169.37 159.348 169.14C159.878 168.9 160.478 168.78 161.148 168.78C162.028 168.78 162.768 168.98 163.368 169.38C163.978 169.77 164.443 170.285 164.763 170.925C165.083 171.555 165.243 172.245 165.243 172.995V173.805H157.968V172.44H163.788L163.008 173.07C163.008 172.58 162.938 172.16 162.798 171.81C162.658 171.46 162.448 171.195 162.168 171.015C161.898 170.825 161.558 170.73 161.148 170.73C160.728 170.73 160.373 170.825 160.083 171.015C159.793 171.205 159.573 171.485 159.423 171.855C159.273 172.215 159.198 172.66 159.198 173.19C159.198 173.68 159.268 174.11 159.408 174.48C159.548 174.84 159.768 175.12 160.068 175.32C160.368 175.52 160.758 175.62 161.238 175.62C161.678 175.62 162.038 175.535 162.318 175.365C162.598 175.195 162.788 174.985 162.888 174.735H165.093C164.973 175.285 164.738 175.775 164.388 176.205C164.038 176.635 163.598 176.97 163.068 177.21C162.538 177.45 161.928 177.57 161.238 177.57ZM170.568 177.39C169.738 177.39 169.068 177.29 168.558 177.09C168.048 176.88 167.673 176.535 167.433 176.055C167.203 175.565 167.088 174.905 167.088 174.075V166.845H169.323V174.165C169.323 174.555 169.423 174.855 169.623 175.065C169.833 175.265 170.128 175.365 170.508 175.365H171.723V177.39H170.568ZM165.843 170.82V169.065H171.723V170.82H165.843ZM173.727 177.285V169.065H176.127V177.285H173.727ZM172.632 170.835V169.065H176.127V170.835H172.632ZM174.657 168.255C174.207 168.255 173.872 168.14 173.652 167.91C173.442 167.67 173.337 167.37 173.337 167.01C173.337 166.64 173.442 166.34 173.652 166.11C173.872 165.87 174.207 165.75 174.657 165.75C175.107 165.75 175.437 165.87 175.647 166.11C175.867 166.34 175.977 166.64 175.977 167.01C175.977 167.37 175.867 167.67 175.647 167.91C175.437 168.14 175.107 168.255 174.657 168.255ZM182.352 177.57C181.632 177.57 180.992 177.46 180.432 177.24C179.872 177.01 179.397 176.7 179.007 176.31C178.627 175.92 178.337 175.475 178.137 174.975C177.937 174.465 177.837 173.93 177.837 173.37V173.025C177.837 172.455 177.937 171.915 178.137 171.405C178.347 170.885 178.647 170.43 179.037 170.04C179.437 169.65 179.917 169.345 180.477 169.125C181.037 168.895 181.662 168.78 182.352 168.78C183.062 168.78 183.692 168.895 184.242 169.125C184.802 169.345 185.277 169.65 185.667 170.04C186.057 170.43 186.357 170.885 186.567 171.405C186.777 171.915 186.882 172.455 186.882 173.025V173.37C186.882 173.93 186.782 174.465 186.582 174.975C186.382 175.475 186.087 175.92 185.697 176.31C185.317 176.7 184.847 177.01 184.287 177.24C183.727 177.46 183.082 177.57 182.352 177.57ZM182.352 175.545C182.822 175.545 183.212 175.445 183.522 175.245C183.832 175.045 184.067 174.765 184.227 174.405C184.397 174.045 184.482 173.645 184.482 173.205C184.482 172.735 184.397 172.325 184.227 171.975C184.057 171.615 183.812 171.33 183.492 171.12C183.182 170.91 182.802 170.805 182.352 170.805C181.912 170.805 181.532 170.91 181.212 171.12C180.892 171.33 180.647 171.615 180.477 171.975C180.317 172.325 180.237 172.735 180.237 173.205C180.237 173.645 180.317 174.045 180.477 174.405C180.637 174.765 180.877 175.045 181.197 175.245C181.517 175.445 181.902 175.545 182.352 175.545ZM188.557 177.285V169.065H190.462V172.59H190.327C190.327 171.75 190.432 171.05 190.642 170.49C190.862 169.93 191.192 169.51 191.632 169.23C192.072 168.95 192.607 168.81 193.237 168.81H193.342C194.302 168.81 195.032 169.125 195.532 169.755C196.042 170.375 196.297 171.32 196.297 172.59V177.285H193.897V172.455C193.897 172.015 193.767 171.655 193.507 171.375C193.247 171.095 192.897 170.955 192.457 170.955C192.007 170.955 191.642 171.1 191.362 171.39C191.092 171.67 190.957 172.04 190.957 172.5V177.285H188.557Z" fill="#888CAE"/>
</g>
<rect x="102" y="49.2852" width="52" height="52" rx="26" fill="#FFE4E5"/>
<path fill-rule="evenodd" clip-rule="evenodd" d="M124.401 63.6836C124.163 63.6836 123.931 63.7541 123.734 63.8859C123.537 64.0178 123.383 64.2052 123.292 64.4244C123.201 64.6436 123.178 64.8849 123.224 65.1176C123.27 65.3504 123.385 65.5642 123.552 65.732L124.401 66.5804V71.09C124.401 71.4082 124.274 71.7134 124.049 71.9384L119.249 76.7384C116.981 79.0064 118.588 82.8836 121.794 82.8836H134.206C137.414 82.8836 139.02 79.0064 136.752 76.7384L131.952 71.9384C131.727 71.7134 131.601 71.4082 131.601 71.09V66.5804L132.449 65.732C132.617 65.5642 132.731 65.3504 132.777 65.1176C132.824 64.8849 132.8 64.6436 132.709 64.4244C132.618 64.2052 132.465 64.0178 132.267 63.8859C132.07 63.7541 131.838 63.6836 131.601 63.6836H124.401ZM126.801 71.09V66.0836H129.201V71.09C129.201 72.0443 129.581 72.9593 130.256 73.634L131.488 74.8676C130.625 74.6672 129.723 74.7095 128.883 74.99L128.319 75.1772C127.333 75.5057 126.268 75.5057 125.283 75.1772L124.607 74.9528C124.562 74.9374 124.516 74.9234 124.47 74.9108L125.746 73.6352C126.421 72.9602 126.8 72.0447 126.801 71.09Z" fill="#363D5B"/>
</g>
<defs>
<linearGradient id="paint0_linear_635_286" x1="169" y1="56" x2="191" y2="509" gradientUnits="userSpaceOnUse">
<stop offset="0.0253193" stop-color="#F2B0B0"/>
<stop offset="0.262646" stop-color="#9C7883" stop-opacity="0.830631"/>
<stop offset="0.542802" stop-color="#272D46" stop-opacity="0.5"/>
</linearGradient>
<linearGradient id="paint1_linear_635_286" x1="393.5" y1="51.2852" x2="393.5" y2="775.285" gradientUnits="userSpaceOnUse">
<stop offset="0.0424238" stop-color="#EEF4FF"/>
<stop offset="0.307617" stop-color="#EEF4FF" stop-opacity="0.8"/>
<stop offset="0.484413" stop-color="#EEF4FF" stop-opacity="0"/>
</linearGradient>
<linearGradient id="paint2_linear_635_286" x1="393.5" y1="51.2852" x2="393.5" y2="775.285" gradientUnits="userSpaceOnUse">
<stop stop-color="white"/>
<stop offset="1" stop-color="white" stop-opacity="0"/>
</linearGradient>
<linearGradient id="paint3_linear_635_286" x1="138" y1="167.743" x2="138" y2="232.285" gradientUnits="userSpaceOnUse">
<stop stop-color="white"/>
<stop offset="1" stop-color="#F2F2F2" stop-opacity="0.99"/>
</linearGradient>
<linearGradient id="paint4_linear_635_286" x1="124" y1="154.743" x2="124" y2="219.285" gradientUnits="userSpaceOnUse">
<stop stop-color="white"/>
<stop offset="1" stop-color="#F2F2F2" stop-opacity="0.99"/>
</linearGradient>
<clipPath id="clip0_635_286">
<rect width="797" height="837" fill="white" transform="translate(-18 -37.7148)"/>
</clipPath>
<clipPath id="clip1_635_286">
<rect width="386" height="542" fill="white" transform="translate(303.367 63.1641) rotate(16.2176)"/>
</clipPath>
</defs>
</svg>
