<svg width="130" height="128" viewBox="0 0 130 128" fill="none" xmlns="http://www.w3.org/2000/svg">
<path opacity="0.34" d="M120.549 12.3813L22.8638 12.3813C17.9933 12.3813 14.0449 16.235 14.0449 20.9886L14.0449 119.097C14.0449 123.851 17.9933 127.704 22.8638 127.704H120.549C125.42 127.704 129.368 123.851 129.368 119.097V20.9886C129.368 16.235 125.42 12.3813 120.549 12.3813Z" fill="#E8E7FB"/>
<g filter="url(#filter0_d_847_898)">
<path d="M103.932 1L13.5724 1C8.83799 1 5 4.7111 5 9.28897L5 100.216C5 104.793 8.83799 108.505 13.5724 108.505H103.932C108.667 108.505 112.505 104.793 112.505 100.216V9.28897C112.505 4.7111 108.667 1 103.932 1Z" fill="white"/>
</g>
<path d="M88 73.0312C88 74.5976 87.3777 76.0999 86.2701 77.2075C85.1625 78.3152 83.6602 78.9374 82.0937 78.9374C80.5273 78.9374 79.025 78.3152 77.9174 77.2075C76.8098 76.0999 76.1875 74.5976 76.1875 73.0312C76.1875 68.1708 80.7078 63.5931 80.9004 63.4006C81.0571 63.2438 81.2432 63.1195 81.4479 63.0347C81.6527 62.9499 81.8721 62.9062 82.0937 62.9062C82.3154 62.9062 82.5348 62.9499 82.7396 63.0347C82.9443 63.1195 83.1304 63.2438 83.2871 63.4006C83.4797 63.5931 88 68.1708 88 73.0312ZM61.9461 56.2598C62.3001 55.9058 62.5412 55.4548 62.6388 54.9637C62.7365 54.4727 62.6864 53.9638 62.4948 53.5012C62.3032 53.0387 61.9787 52.6434 61.5624 52.3653C61.1462 52.0871 60.6568 51.9387 60.1561 51.9387C59.6555 51.9387 59.1661 52.0872 58.7498 52.3653C58.3336 52.6435 58.0091 53.0388 57.8176 53.5014C57.626 53.9639 57.5759 54.4729 57.6736 54.9639C57.7713 55.4549 58.0124 55.9059 58.3664 56.2599C58.8415 56.7339 59.4852 57 60.1563 57C60.8274 57 61.471 56.7338 61.9461 56.2598ZM82.7191 56.0474C82.7192 55.5999 82.5414 55.1707 82.225 54.8542L59.5525 32.1817C59.236 31.8653 58.8067 31.6875 58.3592 31.6875C57.9116 31.6875 57.4823 31.8653 57.1658 32.1817L48.7101 40.6374L57.3478 49.275C58.5958 48.6004 60.0449 48.3974 61.4302 48.7033C62.8155 49.0093 64.0444 49.8036 64.8921 50.9411C65.7399 52.0786 66.1499 53.4832 66.0472 54.8981C65.9445 56.3131 65.3359 57.6438 64.3328 58.6469C63.3296 59.65 61.9989 60.2586 60.5839 60.3612C59.169 60.4639 57.7644 60.0538 56.6269 59.2059C55.4895 58.3581 54.6952 57.1292 54.3893 55.7439C54.0835 54.3586 54.2865 52.9095 54.9612 51.6615L46.3236 43.0239L36.8806 52.4669C35.9327 53.417 35.4004 54.7044 35.4004 56.0466C35.4004 57.3887 35.9327 58.6761 36.8806 59.6263L54.7802 77.5258C55.2503 77.9959 55.8084 78.3688 56.4226 78.6232C57.0368 78.8777 57.6952 79.0086 58.36 79.0086C59.0248 79.0086 59.6831 78.8777 60.2973 78.6232C60.9116 78.3688 61.4696 77.9959 61.9397 77.5258L82.225 57.2407C82.5414 56.9242 82.7192 56.495 82.7191 56.0474ZM43.1789 35.1061C43.0222 34.9494 42.8361 34.8251 42.6314 34.7403C42.4267 34.6555 42.2072 34.6118 41.9856 34.6118C41.764 34.6118 41.5446 34.6554 41.3398 34.7402C41.1351 34.825 40.949 34.9493 40.7923 35.106C40.6356 35.2627 40.5113 35.4487 40.4265 35.6535C40.3417 35.8582 40.298 36.0777 40.298 36.2993C40.298 36.7468 40.4758 37.1761 40.7922 37.4926L46.3236 43.0239L48.7101 40.6373L43.1789 35.1061Z" fill="url(#paint0_linear_847_898)"/>
<g opacity="0.7" filter="url(#filter1_d_847_898)">
<g clip-path="url(#clip0_847_898)">
<rect x="10" y="6" width="25" height="25" rx="12.5" fill="url(#paint1_linear_847_898)"/>
<circle opacity="0.1" cx="48.5" cy="-64.5" r="102.5" fill="white"/>
</g>
</g>
<path opacity="0.99" fill-rule="evenodd" clip-rule="evenodd" d="M29.8212 11.8242C30.2183 12.8649 31.5221 16.2815 32.2303 18.1376C32.3209 18.3749 32.3682 18.8495 32.3682 18.8495C32.3682 18.8495 32.2866 19.3532 32.1789 19.6051C31.5457 21.086 30.4486 23.6516 29.9069 24.9186C29.7089 25.3816 29.5223 25.5778 29.5223 25.5778C29.5223 25.5778 29.1815 25.8256 28.9796 25.9029C27.2257 26.574 24.0753 27.7795 22.8644 28.2429C22.5545 28.3614 22.3501 28.3687 22.3501 28.3687C22.3501 28.3687 22.1891 28.3458 21.9485 28.2429C20.826 27.763 17.5291 26.3611 15.6971 25.5778C15.57 25.5235 15.3159 25.2817 15.3159 25.2817C15.3159 25.2817 15.1914 25.0951 15.1291 24.9353C14.3276 22.8776 13.5262 20.82 12.7247 18.7623C12.649 18.5679 12.6313 18.1792 12.6313 18.1792C12.6313 18.1792 12.6954 17.7179 12.7943 17.4872C13.4576 15.9403 14.6248 13.2187 15.1478 11.999C15.3134 11.6128 15.4759 11.4373 15.4759 11.4373C15.4759 11.4373 15.6632 11.2801 16.0728 11.1201C17.4008 10.6015 20.4192 9.42278 22.1301 8.75467C22.3486 8.66934 22.7855 8.63184 22.7855 8.63184C22.7855 8.63184 23.192 8.67592 23.3952 8.76454C25.1343 9.52286 28.3116 10.9083 29.3586 11.3649C29.5775 11.4604 29.6628 11.5452 29.6628 11.5452C29.6628 11.5452 29.746 11.6271 29.8212 11.8242ZM22.6151 12.0892C22.5706 12.0892 22.5261 12.0905 22.4817 12.0931L22.4331 12.0919L22.3938 12.0926C21.2111 12.1744 20.3366 13.147 20.3552 14.3516C20.3734 15.5286 20.9495 16.7432 22.037 17.9219L21.7078 18.4208C21.6553 18.5086 21.6052 18.593 21.556 18.6765C20.6789 18.0939 19.7447 17.6415 19.0115 17.451C18.7478 17.3832 18.4758 17.5367 18.4043 17.7989C18.3324 18.0639 18.4927 18.3336 18.7583 18.4024C19.3782 18.5628 20.252 18.9919 21.0638 19.5384C20.2391 21.0373 20.015 21.7546 20.0083 22.567C20.0045 23.0955 20.2283 23.5931 20.6352 23.9649C21.0392 24.3343 21.5769 24.5407 22.1317 24.5407C22.1827 24.5407 22.2344 24.5389 22.2859 24.5352L22.4144 24.5265C23.5539 24.4473 24.4225 23.4791 24.3904 22.3231C24.3651 21.4134 23.7587 20.3805 22.3616 19.2632C22.4219 19.16 22.4863 19.0513 22.5558 18.9355L22.7572 18.6298C22.9378 18.7919 23.1267 18.9521 23.3234 19.1098C24.4967 20.0496 26.0177 20.928 26.6791 21.1683C26.9346 21.2611 27.2198 21.1342 27.3165 20.8806C27.3367 20.8267 27.3472 20.7714 27.3488 20.7024C27.3462 20.4973 27.2174 20.316 27.0226 20.2453C26.4662 20.043 25.0401 19.2184 23.9508 18.3461C23.7283 18.1681 23.5133 17.9838 23.309 17.7944L23.4942 17.5118C24.2713 16.2413 24.8592 14.9398 24.7959 14.0761C24.7547 13.5054 24.4868 12.9838 24.0436 12.6097C23.6433 12.2717 23.1414 12.0892 22.6151 12.0892ZM22.6438 17.0025L22.6006 17.068C21.8123 16.1615 21.3646 15.2425 21.3504 14.3365C21.3402 13.6643 21.8078 13.1265 22.4423 13.0751L22.4793 13.0769L22.5263 13.0759C22.8468 13.0539 23.1552 13.1539 23.397 13.3579C23.6372 13.5602 23.7811 13.8405 23.8033 14.1475C23.8414 14.6692 23.3405 15.8612 22.6438 17.0025ZM21.3111 23.2434C21.1096 23.0589 21.0017 22.8224 21.0038 22.5741C21.0089 21.9599 21.1613 21.4405 21.8682 20.138C22.8113 20.919 23.3774 21.7095 23.395 22.3505C23.4128 22.9912 22.9623 23.5027 22.3447 23.5452L22.2156 23.5543C22.1849 23.5563 22.1586 23.5573 22.1337 23.5573C21.8309 23.5573 21.5278 23.4416 21.3111 23.2434Z" fill="#DCDCDC"/>
<defs>
<filter id="filter0_d_847_898" x="1" y="1" width="115.504" height="115.504" filterUnits="userSpaceOnUse" color-interpolation-filters="sRGB">
<feFlood flood-opacity="0" result="BackgroundImageFix"/>
<feColorMatrix in="SourceAlpha" type="matrix" values="0 0 0 0 0 0 0 0 0 0 0 0 0 0 0 0 0 0 127 0" result="hardAlpha"/>
<feOffset dy="4"/>
<feGaussianBlur stdDeviation="2"/>
<feColorMatrix type="matrix" values="0 0 0 0 0 0 0 0 0 0 0 0 0 0 0 0 0 0 0.05 0"/>
<feBlend mode="normal" in2="BackgroundImageFix" result="effect1_dropShadow_847_898"/>
<feBlend mode="normal" in="SourceGraphic" in2="effect1_dropShadow_847_898" result="shape"/>
</filter>
<filter id="filter1_d_847_898" x="0" y="0" width="45" height="45" filterUnits="userSpaceOnUse" color-interpolation-filters="sRGB">
<feFlood flood-opacity="0" result="BackgroundImageFix"/>
<feColorMatrix in="SourceAlpha" type="matrix" values="0 0 0 0 0 0 0 0 0 0 0 0 0 0 0 0 0 0 127 0" result="hardAlpha"/>
<feOffset dy="4"/>
<feGaussianBlur stdDeviation="5"/>
<feComposite in2="hardAlpha" operator="out"/>
<feColorMatrix type="matrix" values="0 0 0 0 0 0 0 0 0 0 0 0 0 0 0 0 0 0 0.02 0"/>
<feBlend mode="normal" in2="BackgroundImageFix" result="effect1_dropShadow_847_898"/>
<feBlend mode="normal" in="SourceGraphic" in2="effect1_dropShadow_847_898" result="shape"/>
</filter>
<linearGradient id="paint0_linear_847_898" x1="60.2181" y1="30.81" x2="60.2181" y2="83.3891" gradientUnits="userSpaceOnUse">
<stop stop-color="#FFADB0"/>
<stop offset="0.54" stop-color="#D19CCD"/>
<stop offset="1" stop-color="#9183F6"/>
</linearGradient>
<linearGradient id="paint1_linear_847_898" x1="22.5" y1="6" x2="22.5" y2="31" gradientUnits="userSpaceOnUse">
<stop stop-color="#F5E5EA"/>
<stop offset="1" stop-color="white"/>
</linearGradient>
<clipPath id="clip0_847_898">
<rect x="10" y="6" width="25" height="25" rx="12.5" fill="white"/>
</clipPath>
</defs>
</svg>
