<svg width="777" height="778" viewBox="0 0 777 778" fill="none" xmlns="http://www.w3.org/2000/svg">
<g clip-path="url(#clip0_623_263)">
<g filter="url(#filter0_d_623_263)">
<path fill-rule="evenodd" clip-rule="evenodd" d="M657.892 134.102C672.722 172.28 721.405 297.61 747.851 365.695C751.233 374.4 753 391.811 753 391.811C753 391.811 749.953 410.288 745.932 419.526C722.286 473.851 681.322 567.963 661.091 614.443C653.699 631.425 646.729 638.624 646.729 638.624C646.729 638.624 634.002 647.714 626.466 650.547C560.974 675.166 443.332 719.387 398.114 736.385C386.545 740.734 378.91 741 378.91 741C378.91 741 372.9 740.159 363.913 736.385C321.997 718.781 198.889 667.356 130.478 638.624C125.734 636.632 116.245 627.763 116.245 627.763C116.245 627.763 111.595 620.917 109.269 615.053C79.3415 539.573 49.4137 464.093 19.4858 388.613C16.6586 381.482 16 367.222 16 367.222C16 367.222 18.3916 350.299 22.0853 341.837C46.8552 285.095 90.4379 185.256 109.968 140.517C116.153 126.35 122.218 119.913 122.218 119.913C122.218 119.913 129.215 114.144 144.51 108.276C194.099 89.2528 306.81 46.0138 370.696 21.5057C378.854 18.3759 395.171 17 395.171 17C395.171 17 410.348 18.6173 417.936 21.8679C482.875 49.685 601.521 100.508 640.618 117.256C648.793 120.758 651.979 123.87 651.979 123.87C651.979 123.87 655.085 126.874 657.892 134.102Z" fill="url(#paint0_linear_623_263)"/>
</g>
<path opacity="0.71" d="M388 769C600.077 769 772 597.077 772 385C772 172.923 600.077 1 388 1C175.923 1 4 172.923 4 385C4 597.077 175.923 769 388 769Z" stroke="url(#paint1_linear_623_263)" stroke-width="2"/>
<path d="M160.175 55.6748L156.165 71.1069L140.863 74.9595L156.229 79.4642L160.475 95.0723L164.486 79.6403L179.788 75.7876L164.422 71.2829L160.175 55.6748Z" fill="#FC7F39"/>
<path d="M760.175 462.675L756.165 478.107L740.863 481.96L756.229 486.464L760.475 502.072L764.486 486.64L779.788 482.788L764.422 478.283L760.175 462.675Z" fill="#FC7F39"/>
<path opacity="0.5" d="M89 356.001H88V358.001H89V356.001ZM242.774 357.001L237 351.227L231.226 357.001L237 362.775L242.774 357.001ZM89 358.001H237V356.001H89V358.001Z" fill="#363F59"/>
<path opacity="0.5" d="M386.774 691.773L392.547 685.999L386.774 680.225L381 685.999L386.774 691.773ZM385.774 565.999L385.774 685.999L387.774 685.999L387.774 565.999L385.774 565.999Z" fill="#363F59"/>
<path fill-rule="evenodd" clip-rule="evenodd" d="M398.812 208C397.636 208 396.46 208.034 395.284 208.102L394.001 208.071L392.96 208.088C361.683 210.212 338.557 235.441 339.049 266.689C339.529 297.222 354.764 328.73 383.525 359.305L374.818 372.247C373.43 374.524 372.107 376.713 370.805 378.879C347.608 363.766 322.902 352.031 303.512 347.089C296.538 345.329 289.346 349.312 287.455 356.114C285.554 362.989 289.793 369.984 296.818 371.769C313.21 375.93 336.317 387.061 357.788 401.237C335.977 440.119 330.051 458.727 329.872 479.801C329.772 493.51 335.69 506.42 346.454 516.064C357.136 525.647 371.357 531 386.028 531C387.378 531 388.744 530.953 390.107 530.859L393.506 530.632C423.641 528.577 446.612 503.461 445.763 473.476C445.092 449.875 429.058 423.083 392.11 394.099C393.703 391.422 395.406 388.603 397.244 385.597L402.57 377.669C407.347 381.873 412.343 386.028 417.545 390.118C448.573 414.498 488.797 437.284 506.288 443.519C513.047 445.925 520.588 442.632 523.146 436.056C523.679 434.657 523.958 433.221 524 431.433C523.93 426.111 520.526 421.41 515.373 419.575C500.658 414.326 462.943 392.936 434.137 370.31C428.251 365.692 422.567 360.911 417.164 355.998L422.063 348.667C442.613 315.709 458.159 281.948 456.486 259.544C455.398 244.738 448.312 231.208 436.59 221.503C426.006 212.735 412.731 208 398.812 208ZM399.573 335.455L398.428 337.153C377.581 313.639 365.742 289.799 365.367 266.298C365.098 248.861 377.462 234.908 394.244 233.575L395.222 233.621L396.466 233.596C404.941 233.026 413.097 235.619 419.49 240.91C425.842 246.159 429.649 253.43 430.235 261.396C431.244 274.928 417.996 305.848 399.573 335.455ZM364.328 497.347C358.999 492.563 356.146 486.426 356.2 479.984C356.335 464.052 360.365 450.58 379.059 416.792C404.001 437.051 418.973 457.556 419.438 474.185C419.908 490.805 407.996 504.074 391.661 505.177L388.247 505.414C387.436 505.465 386.741 505.491 386.083 505.491C378.076 505.491 370.059 502.489 364.328 497.347Z" fill="#F30000"/>
<path d="M238.993 199.759C238.86 197.553 236.964 195.874 234.759 196.007C232.554 196.14 230.874 198.035 231.007 200.241L232.286 221.415C232.419 223.62 234.314 225.3 236.519 225.167L253.701 224.13L254.738 241.312C254.871 243.517 256.767 245.197 258.972 245.063L276.154 244.026L277.191 261.208C277.324 263.413 279.22 265.093 281.425 264.96C283.63 264.827 285.31 262.931 285.177 260.726L283.898 239.552C283.765 237.346 281.87 235.667 279.665 235.8L262.483 236.837L261.446 219.655C261.313 217.45 259.417 215.77 257.212 215.903L240.03 216.94L238.993 199.759Z" fill="#9875FF"/>
</g>
<defs>
<filter id="filter0_d_623_263" x="0" y="14" width="777" height="764" filterUnits="userSpaceOnUse" color-interpolation-filters="sRGB">
<feFlood flood-opacity="0" result="BackgroundImageFix"/>
<feColorMatrix in="SourceAlpha" type="matrix" values="0 0 0 0 0 0 0 0 0 0 0 0 0 0 0 0 0 0 127 0" result="hardAlpha"/>
<feOffset dx="4" dy="17"/>
<feGaussianBlur stdDeviation="10"/>
<feComposite in2="hardAlpha" operator="out"/>
<feColorMatrix type="matrix" values="0 0 0 0 0 0 0 0 0 0 0 0 0 0 0 0 0 0 0.05 0"/>
<feBlend mode="normal" in2="BackgroundImageFix" result="effect1_dropShadow_623_263"/>
<feBlend mode="normal" in="SourceGraphic" in2="effect1_dropShadow_623_263" result="shape"/>
</filter>
<linearGradient id="paint0_linear_623_263" x1="305" y1="85" x2="384.5" y2="741" gradientUnits="userSpaceOnUse">
<stop offset="0.110329" stop-color="#FFF2ED"/>
<stop offset="0.451272" stop-color="#F6F3F7" stop-opacity="0.726149"/>
<stop offset="0.727233" stop-color="#EEF4FF" stop-opacity="0.494792"/>
<stop offset="1" stop-color="#EEF4FF" stop-opacity="0"/>
<stop offset="1" stop-color="#C4AFFF"/>
</linearGradient>
<linearGradient id="paint1_linear_623_263" x1="388" y1="2.98799e-08" x2="388" y2="770" gradientUnits="userSpaceOnUse">
<stop stop-color="#363F59"/>
<stop offset="1" stop-color="#D9DBE9" stop-opacity="0"/>
</linearGradient>
<clipPath id="clip0_623_263">
<rect width="777" height="778" fill="white"/>
</clipPath>
</defs>
</svg>
