<svg width="719" height="312" viewBox="0 0 719 312" fill="none" xmlns="http://www.w3.org/2000/svg">
<g clip-path="url(#clip0_878_1785)">
<mask id="mask0_878_1785" style="mask-type:luminance" maskUnits="userSpaceOnUse" x="499" y="56" width="128" height="278">
<path d="M612.592 56.7401L499.731 62.3545L513.196 333.02L626.056 327.405L612.592 56.7401Z" fill="white"/>
</mask>
<g mask="url(#mask0_878_1785)">
<path d="M559.944 212.821C561.374 221.04 562.665 238.639 562.424 253.809C562.007 280.086 560.9 299.475 560.665 301.107C555.329 301.494 547.029 301.92 546.334 301.346C545.566 300.713 536.189 274.207 536.172 259.739C536.155 244.772 522.255 227.824 529.463 195.138C540.361 188.042 551.422 186.467 561.284 186.915" fill="#F7AAB6"/>
<path d="M554.695 302.743C546.538 303.149 545.903 302.625 545.531 302.319C545.26 302.095 544.922 301.817 543.235 297.032C542.566 295.136 541.225 291.19 539.759 286.08C537.552 278.387 534.92 267.573 534.911 259.742C534.906 254.848 533.337 249.658 531.519 243.649C527.902 231.679 523.398 216.784 528.231 194.867C528.303 194.544 528.498 194.263 528.775 194.083C538.343 187.852 548.994 185.096 561.341 185.657C561.675 185.672 561.988 185.82 562.214 186.066C562.439 186.313 562.558 186.639 562.542 186.974C562.527 187.307 562.379 187.621 562.133 187.847C561.886 188.072 561.56 188.19 561.227 188.174C549.612 187.648 539.582 190.18 530.583 195.916C526.071 216.917 530.427 231.323 533.932 242.918C535.806 249.119 537.425 254.474 537.432 259.738C537.448 273.025 545.57 296.903 547.171 300.284C548.461 300.451 552.903 300.381 559.509 299.927C559.852 295.413 560.791 277.353 561.165 253.791C561.406 238.536 560.103 221.091 558.702 213.039C558.673 212.875 558.676 212.707 558.712 212.545C558.748 212.383 558.816 212.23 558.91 212.094C559.005 211.958 559.127 211.843 559.267 211.754C559.407 211.665 559.564 211.604 559.727 211.576C559.89 211.548 560.058 211.551 560.22 211.588C560.382 211.624 560.535 211.693 560.67 211.788C560.806 211.884 560.921 212.006 561.009 212.146C561.098 212.287 561.157 212.443 561.185 212.607C562.606 220.774 563.929 238.427 563.685 253.83C563.26 280.636 562.14 299.717 561.911 301.289C561.87 301.573 561.733 301.836 561.523 302.031C561.313 302.227 561.042 302.345 560.755 302.366C558.374 302.537 556.375 302.66 554.695 302.743Z" fill="#9E5555"/>
<path d="M561.284 186.915C572.953 187.446 580.363 188.517 584.441 202.689C591.249 233.431 583.137 258.637 580.12 267.423C576.888 276.837 540.61 295.933 537.579 300.188C535.522 298.387 530.732 291.376 528.521 287.762C536.066 279.592 543.014 266.663 556.034 259.776C555.45 249.896 556.538 236.363 556.892 225.58" fill="#F7AAB6"/>
<path d="M537.641 301.447C537.313 301.463 536.993 301.352 536.747 301.136C534.463 299.135 529.482 291.748 527.445 288.42C527.302 288.186 527.239 287.911 527.266 287.639C527.292 287.366 527.408 287.109 527.594 286.907C529.707 284.62 531.783 281.938 533.982 279.098C539.424 272.068 545.576 264.123 554.731 259.048C554.386 252.074 554.802 243.56 555.204 235.315C555.372 231.87 555.53 228.618 555.631 225.539C555.636 225.372 555.673 225.209 555.741 225.057C555.809 224.905 555.905 224.768 556.027 224.655C556.147 224.541 556.29 224.452 556.445 224.393C556.601 224.334 556.767 224.307 556.933 224.311C557.098 224.317 557.262 224.355 557.413 224.425C557.565 224.493 557.701 224.592 557.814 224.713C557.927 224.835 558.015 224.977 558.073 225.133C558.131 225.289 558.157 225.455 558.151 225.621C558.048 228.721 557.889 231.983 557.721 235.437C557.306 243.935 556.877 252.721 557.291 259.701C557.305 259.943 557.25 260.183 557.131 260.394C557.012 260.604 556.836 260.776 556.622 260.89C547.552 265.688 541.401 273.632 535.975 280.641C533.963 283.24 532.051 285.709 530.091 287.905C532.224 291.296 535.59 296.149 537.57 298.383C539.533 296.637 543.663 293.965 549.981 289.921C560.74 283.035 577 272.627 578.928 267.014C586.372 245.332 587.815 223.794 583.219 202.999C579.362 189.64 572.687 188.695 561.226 188.174C560.892 188.159 560.578 188.012 560.352 187.765C560.127 187.518 560.009 187.193 560.024 186.859C560.039 186.524 560.186 186.211 560.433 185.985C560.68 185.76 561.006 185.641 561.34 185.657C573.641 186.215 581.415 187.617 585.652 202.34C585.659 202.366 585.665 202.391 585.671 202.417C590.38 223.682 588.914 245.692 581.312 267.833C579.1 274.277 563.708 284.128 551.341 292.044C545.279 295.924 539.554 299.589 538.605 300.92C538.503 301.064 538.371 301.184 538.22 301.273C538.068 301.363 537.9 301.42 537.724 301.44C537.697 301.443 537.669 301.446 537.641 301.447Z" fill="#F7AAB6"/>
<path d="M537.578 300.189C532.854 295.862 528.521 287.763 528.521 287.763C522.198 291.916 517.545 299.658 513.732 305.656C513.732 305.656 515.342 317.017 517.505 323.262C518.813 327.036 528.465 330.992 528.465 330.992C528.465 330.992 531.882 329.797 533.19 327.631C534.039 326.222 535.688 323.749 533.511 316.303C532.883 311.634 537.578 300.189 537.578 300.189Z" fill="white"/>
<path d="M528.529 332.25C528.344 332.259 528.159 332.227 527.989 332.158C526.946 331.731 517.767 327.865 516.315 323.674C514.136 317.387 512.552 306.301 512.485 305.833C512.444 305.536 512.509 305.234 512.669 304.98C512.908 304.605 513.149 304.225 513.394 303.837C517.084 298.007 521.676 290.752 527.829 286.71C527.975 286.613 528.14 286.548 528.312 286.519C528.485 286.491 528.662 286.498 528.832 286.54C529.001 286.584 529.161 286.661 529.298 286.77C529.436 286.878 529.549 287.013 529.632 287.167C529.675 287.246 533.923 295.131 538.43 299.259C538.621 299.433 538.752 299.662 538.809 299.913C538.865 300.166 538.842 300.428 538.745 300.667C537.485 303.739 534.335 312.438 534.75 316.046C536.993 323.788 535.26 326.649 534.326 328.189L534.27 328.282C533.613 329.37 532.498 330.359 530.954 331.223C530.289 331.597 529.597 331.917 528.882 332.18C528.769 332.221 528.65 332.244 528.529 332.25ZM515.048 305.936C515.373 308.108 516.84 317.492 518.697 322.849C519.479 325.107 524.925 328.112 528.483 329.632C529.515 329.197 531.36 328.223 532.111 326.98L532.17 326.883C532.958 325.582 534.277 323.406 532.302 316.655C532.285 316.595 532.271 316.533 532.262 316.47C531.686 312.183 534.968 303.364 536.091 300.511C532.59 297.053 529.452 291.935 528.103 289.595C522.933 293.475 518.849 299.93 515.524 305.184C515.364 305.438 515.206 305.688 515.048 305.936Z" fill="black"/>
<path d="M533.155 315.963C532.902 315.975 532.651 315.912 532.436 315.778C529.582 314.03 527.383 314.7 527.292 314.73C526.976 314.834 526.631 314.81 526.332 314.661C526.034 314.513 525.806 314.253 525.7 313.938C525.594 313.622 525.615 313.277 525.763 312.977C525.909 312.679 526.169 312.45 526.484 312.342C526.619 312.295 529.837 311.229 533.753 313.629C533.982 313.77 534.161 313.981 534.263 314.231C534.363 314.48 534.382 314.755 534.316 315.017C534.248 315.278 534.1 315.51 533.891 315.681C533.682 315.851 533.425 315.95 533.155 315.963Z" fill="black"/>
<path d="M534.226 309.812C531.869 308.313 527.784 307.657 527.784 307.657L534.226 309.812Z" fill="white"/>
<path d="M534.288 311.07C534.028 311.083 533.77 311.015 533.55 310.876C531.445 309.537 527.622 308.909 527.585 308.903C527.257 308.846 526.966 308.663 526.773 308.393C526.581 308.123 526.502 307.788 526.555 307.46C526.607 307.133 526.787 306.84 527.055 306.643C527.322 306.448 527.657 306.365 527.984 306.414C528.162 306.442 532.355 307.13 534.903 308.748C535.129 308.892 535.304 309.103 535.402 309.353C535.499 309.602 535.515 309.876 535.446 310.135C535.377 310.393 535.229 310.624 535.021 310.793C534.812 310.96 534.556 311.058 534.289 311.071L534.288 311.07Z" fill="black"/>
<path d="M535.509 305.877C532.859 304.192 529.369 303.215 529.369 303.215L535.509 305.877Z" fill="white"/>
<path d="M535.57 307.135C535.31 307.148 535.052 307.081 534.832 306.941C532.378 305.381 529.063 304.439 529.029 304.43C528.87 304.385 528.721 304.309 528.59 304.207C528.46 304.105 528.352 303.978 528.27 303.834C528.189 303.69 528.137 303.531 528.118 303.367C528.098 303.202 528.111 303.036 528.156 302.876C528.2 302.717 528.276 302.568 528.378 302.438C528.48 302.308 528.607 302.199 528.752 302.118C529.043 301.954 529.387 301.912 529.709 302.003C529.859 302.045 533.41 303.049 536.184 304.814C536.41 304.958 536.585 305.169 536.683 305.419C536.78 305.667 536.796 305.942 536.728 306.201C536.659 306.459 536.51 306.69 536.302 306.858C536.094 307.026 535.837 307.124 535.57 307.137L535.57 307.135Z" fill="black"/>
<path d="M533.19 327.63C533.19 327.63 521.13 324.166 520.557 317.266C520.389 315.23 517.199 300.792 517.199 300.792" fill="white"/>
<path d="M533.252 328.89C533.115 328.897 532.976 328.881 532.843 328.842C532.315 328.69 519.938 325.049 519.302 317.372C519.169 315.77 516.851 305.057 515.969 301.064C515.933 300.903 515.928 300.735 515.956 300.571C515.985 300.408 516.045 300.251 516.135 300.112C516.223 299.971 516.339 299.85 516.475 299.754C516.611 299.66 516.764 299.592 516.927 299.556C517.088 299.521 517.256 299.517 517.42 299.546C517.583 299.575 517.739 299.636 517.879 299.727C518.018 299.816 518.139 299.933 518.234 300.069C518.329 300.206 518.395 300.36 518.43 300.521C518.758 302.008 521.643 315.103 521.814 317.165C522.224 322.1 530.417 325.52 533.539 326.421C533.826 326.502 534.074 326.684 534.24 326.932C534.406 327.18 534.478 327.48 534.444 327.776C534.409 328.073 534.271 328.348 534.053 328.552C533.835 328.756 533.551 328.875 533.252 328.89Z" fill="black"/>
<path d="M519.093 310.416C518.851 310.428 518.612 310.369 518.403 310.25C518.193 310.129 518.023 309.951 517.912 309.736C517.8 309.523 517.753 309.281 517.776 309.04C517.798 308.8 517.889 308.571 518.038 308.38C523.147 301.844 519.316 297.313 519.277 297.268C519.168 297.144 519.084 296.999 519.032 296.842C518.979 296.685 518.957 296.52 518.968 296.354C518.979 296.19 519.023 296.028 519.097 295.879C519.171 295.732 519.272 295.599 519.397 295.49C519.522 295.382 519.667 295.298 519.823 295.246C519.98 295.193 520.146 295.17 520.311 295.182C520.475 295.193 520.637 295.237 520.786 295.31C520.933 295.384 521.066 295.486 521.175 295.611C522.131 296.825 522.772 298.255 523.045 299.776C523.484 302.084 523.316 305.721 520.023 309.933C519.912 310.075 519.772 310.193 519.611 310.276C519.45 310.359 519.274 310.407 519.093 310.416Z" fill="black"/>
<path d="M537.768 278.271C537.531 278.282 537.296 278.226 537.089 278.11C536.882 277.995 536.712 277.822 536.599 277.613C536.486 277.405 536.434 277.169 536.449 276.933C536.464 276.696 536.545 276.467 536.684 276.275C542.015 268.872 546.326 264.12 554.755 259.067C554.544 249.374 554.824 238.682 555.633 225.502C555.641 225.336 555.682 225.171 555.753 225.021C555.825 224.87 555.926 224.735 556.05 224.623C556.175 224.512 556.32 224.426 556.477 224.371C556.635 224.316 556.803 224.293 556.969 224.303C557.136 224.313 557.298 224.357 557.448 224.431C557.598 224.504 557.732 224.607 557.842 224.732C557.951 224.859 558.036 225.005 558.087 225.164C558.14 225.322 558.161 225.49 558.148 225.656C557.324 239.098 557.052 249.93 557.293 259.744C557.298 259.969 557.243 260.192 557.133 260.388C557.024 260.584 556.864 260.748 556.67 260.862C548.205 265.831 543.986 270.447 538.729 277.747C538.619 277.902 538.475 278.028 538.308 278.119C538.142 278.209 537.958 278.261 537.768 278.271Z" fill="black"/>
<path d="M543.353 297.078C543.079 297.093 542.808 297.016 542.581 296.862C542.354 296.707 542.183 296.483 542.095 296.223C542.007 295.963 542.006 295.681 542.093 295.421C542.181 295.161 542.35 294.935 542.576 294.78C544.897 293.188 547.573 291.532 550.406 289.778C553.615 287.791 557.252 285.538 560.886 283.052C561.023 282.958 561.176 282.891 561.339 282.856C561.501 282.821 561.668 282.818 561.832 282.849C561.995 282.879 562.151 282.942 562.29 283.032C562.429 283.122 562.55 283.24 562.643 283.377C562.737 283.514 562.803 283.668 562.836 283.831C562.87 283.993 562.872 284.161 562.841 284.324C562.81 284.488 562.746 284.643 562.655 284.782C562.564 284.921 562.447 285.039 562.308 285.132C558.628 287.649 554.965 289.918 551.733 291.919C548.926 293.658 546.275 295.3 544.002 296.857C543.81 296.99 543.586 297.066 543.353 297.078Z" fill="black"/>
<path d="M546.333 301.346C546.333 301.346 546.59 308.826 546.174 313.174C545.756 317.522 544.737 321.2 545.018 324.002C545.3 326.804 545.914 330.084 545.914 330.084L562.011 329.329C562.011 329.329 561.722 324.788 561.535 323.066C561.348 321.343 560.665 301.107 560.665 301.107L546.333 301.346Z" fill="white"/>
<path d="M562.073 330.588L562.07 330.588L545.972 331.344C545.668 331.358 545.369 331.263 545.131 331.074C544.892 330.885 544.73 330.616 544.675 330.317C544.649 330.18 544.048 326.951 543.764 324.129C543.573 322.225 543.909 320.09 544.299 317.617C544.528 316.164 544.765 314.662 544.919 313.054C545.323 308.837 545.076 301.464 545.075 301.39C545.068 301.223 545.096 301.056 545.156 300.899C545.215 300.743 545.305 300.6 545.421 300.478C545.654 300.234 545.976 300.093 546.314 300.086L560.644 299.847C560.975 299.842 561.294 299.967 561.534 300.194C561.772 300.422 561.913 300.735 561.924 301.065C562.114 306.681 562.638 321.555 562.788 322.93C562.976 324.661 563.256 329.063 563.268 329.25C563.279 329.417 563.256 329.583 563.202 329.741C563.148 329.899 563.062 330.044 562.951 330.169C562.84 330.294 562.705 330.395 562.554 330.467C562.403 330.539 562.239 330.58 562.073 330.588ZM546.962 328.775L560.669 328.131C560.569 326.662 560.403 324.313 560.281 323.202C560.117 321.686 559.6 306.854 559.447 302.389L547.628 302.585C547.682 304.932 547.747 309.959 547.428 313.294C547.266 314.979 547.012 316.589 546.789 318.009C546.426 320.31 546.114 322.297 546.273 323.877C546.448 325.627 546.76 327.591 546.962 328.775Z" fill="black"/>
<path d="M556.8 315.254C556.648 315.261 556.495 315.24 556.349 315.193C554.539 314.607 552.601 314.537 550.753 314.991C550.429 315.07 550.086 315.018 549.8 314.845C549.514 314.672 549.308 314.393 549.229 314.068C549.148 313.743 549.201 313.4 549.374 313.114C549.547 312.828 549.827 312.623 550.151 312.543C552.455 311.977 554.87 312.064 557.126 312.796C557.407 312.886 557.648 313.072 557.805 313.322C557.963 313.571 558.028 313.868 557.989 314.161C557.951 314.453 557.81 314.722 557.593 314.922C557.375 315.122 557.096 315.239 556.8 315.254Z" fill="black"/>
<path d="M556.628 310.811C556.609 310.812 556.589 310.813 556.57 310.812L550.893 310.835C550.559 310.837 550.238 310.706 550 310.47C549.763 310.235 549.629 309.915 549.627 309.581C549.626 309.246 549.758 308.925 549.993 308.687C550.228 308.45 550.549 308.316 550.883 308.315L556.56 308.292C556.89 308.288 557.208 308.416 557.446 308.645C557.683 308.874 557.822 309.187 557.831 309.517C557.84 309.848 557.719 310.168 557.494 310.41C557.269 310.652 556.959 310.796 556.628 310.811Z" fill="black"/>
<path d="M556.787 306.798C556.765 306.799 556.743 306.8 556.72 306.8L550.824 306.784C550.489 306.783 550.169 306.649 549.933 306.412C549.698 306.176 549.566 305.854 549.566 305.52C549.568 305.186 549.701 304.866 549.938 304.63C550.175 304.394 550.496 304.262 550.83 304.263L556.727 304.278C557.056 304.278 557.373 304.406 557.608 304.637C557.844 304.866 557.981 305.18 557.988 305.509C557.997 305.838 557.875 306.157 557.651 306.398C557.426 306.639 557.116 306.783 556.787 306.798Z" fill="black"/>
<path d="M601.617 123.519C592.078 112.708 578.44 117.726 576.179 109.642C576.179 109.642 566.673 105.685 557.344 107.483C556.008 107.823 553.379 109.26 553.221 110.625C551.581 110.514 548.858 113.407 548.283 116.209C548.283 116.209 544.564 118.512 543.553 118.65C541.176 119.086 537.534 120.522 534.236 123.221C525.055 130.734 508.284 151.245 506.436 163.13C504.137 177.911 518.79 193.919 523.899 197.648L530.406 187.464C527.059 180.778 523.51 173.231 522.392 167.349C525.407 163.54 532.764 156.994 536.466 150.291C536.462 150.331 536.458 150.374 536.454 150.411C534.674 167.146 529.636 178.62 531.739 186.171C531.486 187.225 531.286 190.551 530.64 192.169C544.012 198.67 582.787 204.112 584.441 202.689C584.441 202.689 584.506 199.269 584.682 197.123C590.702 187.063 591.425 178.203 592.108 163.757C596.35 166.797 608.511 172.474 612.262 167.144C622.98 151.914 607.607 130.308 601.617 123.519Z" fill="white"/>
<path d="M523.962 198.907C523.674 198.921 523.39 198.836 523.157 198.666C517.742 194.715 502.808 178.248 505.19 162.936C506.343 155.528 512.816 145.88 516.572 140.788C521.931 133.523 528.551 126.244 533.437 122.245C536.945 119.373 540.845 117.864 543.325 117.409C543.654 117.349 543.993 117.422 544.269 117.612C544.543 117.801 544.732 118.093 544.793 118.422C544.853 118.751 544.78 119.09 544.59 119.365C544.4 119.64 544.109 119.829 543.779 119.889C541.608 120.287 538.171 121.628 535.033 124.196C530.296 128.073 523.846 135.174 518.601 142.285C512.352 150.756 508.474 158.228 507.681 163.324C506.498 170.929 510.166 178.689 513.452 183.858C516.924 189.319 521.051 193.642 523.589 195.794L528.959 187.388C525.525 180.496 522.253 173.374 521.154 167.584C521.12 167.406 521.124 167.224 521.167 167.049C521.211 166.873 521.291 166.709 521.403 166.567C522.548 165.121 524.105 163.393 525.752 161.565C529.033 157.921 532.752 153.791 535.402 149.616C535.582 149.336 535.866 149.138 536.191 149.066C536.515 148.994 536.856 149.054 537.137 149.233C537.418 149.411 537.617 149.694 537.692 150.019C537.765 150.343 537.707 150.684 537.53 150.966C534.766 155.32 530.972 159.534 527.625 163.251C526.178 164.859 524.802 166.385 523.744 167.679C524.94 173.289 528.339 180.521 531.533 186.9C531.63 187.094 531.676 187.311 531.664 187.529C531.653 187.747 531.585 187.959 531.468 188.143L524.961 198.327C524.853 198.496 524.706 198.637 524.532 198.738C524.358 198.839 524.163 198.897 523.962 198.907Z" fill="black"/>
<path d="M583.399 204.158C582.261 204.215 580.365 204.144 577.09 203.813C572.768 203.377 567.309 202.606 561.72 201.642C554.976 200.479 538.392 197.339 530.09 193.303C529.804 193.163 529.58 192.92 529.465 192.624C529.35 192.327 529.352 191.998 529.47 191.702C529.836 190.784 530.063 189.017 530.228 187.726C530.307 187.116 530.372 186.603 530.445 186.207C529.256 181.503 530.516 175.605 532.104 168.177C533.217 162.975 534.477 157.076 535.2 150.278C535.691 145.656 537.445 139.368 539.668 134.257C539.802 133.951 540.051 133.71 540.363 133.587C540.516 133.527 540.681 133.497 540.846 133.5C541.011 133.503 541.175 133.538 541.327 133.604C541.478 133.67 541.616 133.766 541.731 133.885C541.845 134.004 541.936 134.144 541.997 134.298C542.058 134.452 542.087 134.617 542.084 134.782C542.081 134.948 542.045 135.111 541.98 135.263C539.85 140.158 538.173 146.157 537.707 150.544C536.969 157.474 535.694 163.44 534.569 168.705C533.019 175.954 531.795 181.677 532.953 185.832C533.011 186.038 533.014 186.257 532.965 186.464C532.894 186.758 532.813 187.384 532.728 188.046C532.599 189.202 532.411 190.35 532.162 191.486C537.915 194.029 548.391 196.742 561.23 198.999C572.117 200.912 580.624 201.758 583.206 201.657C583.238 200.469 583.307 198.475 583.426 197.019C583.443 196.827 583.503 196.641 583.602 196.476C585.664 193.028 586.914 190.508 588.022 186.304C588.107 185.98 588.317 185.704 588.605 185.536C588.894 185.367 589.238 185.32 589.562 185.406C589.885 185.491 590.161 185.701 590.329 185.99C590.497 186.279 590.545 186.622 590.46 186.945C589.302 191.337 588.011 193.993 585.917 197.516C585.762 199.603 585.702 202.679 585.702 202.712C585.699 202.89 585.657 203.064 585.582 203.225C585.507 203.386 585.398 203.528 585.265 203.644C585.027 203.847 584.742 204.092 583.399 204.158Z" fill="black"/>
<path d="M554.531 99.2595C555.276 100.362 557.42 102.117 558.514 102.874C558.444 106.044 558.151 106.614 557.984 107.66C564.753 111.687 571.19 111.31 576.178 109.641C575.583 108.165 575.783 106.436 575.841 102.013C578.764 99.0195 579.24 94.5517 579.24 94.5517C579.24 94.5517 582.562 93.4551 583.37 89.8586C583.904 87.4802 582.164 85.5619 579.988 85.5904C577.908 85.6176 575.976 88.482 575.976 88.482C575.88 75.2375 559.097 74.7011 559.097 74.7011C554.468 75.8086 548.352 90.2107 554.531 99.2595Z" fill="white"/>
<path d="M555.768 71.1411C556.58 72.5754 557.721 73.7955 559.097 74.7002C559.097 74.7002 575.881 75.2362 575.975 88.4797C575.975 88.4797 577.906 85.6167 579.987 85.5883C582.162 85.5597 583.903 87.4777 583.369 89.8574C582.561 93.4551 579.239 94.5504 579.239 94.5504C579.239 94.5504 578.763 99.0178 575.84 102.012C578.847 101.36 584.585 99.1214 588.163 91.4302C592.103 82.9649 586.908 74.4971 580.994 70.4919C574.309 65.9647 567.382 67.8302 564.124 68.737L563.756 68.5711C557.052 65.4596 557.787 60.7279 557.787 60.7279C552.633 66.3534 555.768 71.1411 555.768 71.1411Z" fill="#7396BA"/>
<path d="M575.902 103.271C575.65 103.284 575.399 103.22 575.182 103.087C574.967 102.955 574.796 102.761 574.691 102.53C574.588 102.299 574.555 102.042 574.599 101.793C574.643 101.543 574.762 101.313 574.939 101.132C577.507 98.5 577.982 94.4551 577.987 94.4143C578.013 94.1739 578.108 93.9463 578.261 93.7583C578.413 93.5703 578.616 93.4299 578.845 93.3539C578.946 93.3188 581.506 92.4071 582.139 89.5814C582.226 89.2488 582.234 88.9007 582.164 88.5641C582.095 88.2275 581.949 87.9115 581.737 87.6408C581.527 87.3858 581.262 87.1822 580.962 87.0451C580.661 86.9079 580.334 86.8411 580.004 86.8496C578.933 86.8566 577.533 88.4304 577.019 89.1867C576.868 89.4095 576.65 89.5781 576.396 89.6681C576.143 89.7579 575.867 89.7644 575.61 89.6864C575.353 89.6085 575.127 89.4503 574.966 89.2348C574.805 89.0194 574.717 88.7581 574.715 88.4892C574.68 83.5655 572.107 79.9722 567.067 77.809C564.516 76.758 561.81 76.1334 559.057 75.9599C558.825 75.9522 558.6 75.8808 558.406 75.7536C556.874 74.7448 555.601 73.3887 554.691 71.7955C553.429 69.8305 552.285 64.8668 556.858 59.8769C557.04 59.6775 557.283 59.5421 557.548 59.4909C557.813 59.4396 558.088 59.4752 558.333 59.5923C558.577 59.7095 558.777 59.902 558.903 60.1414C559.028 60.3808 559.073 60.6544 559.033 60.9217C559.015 61.0626 558.611 64.7672 564.228 67.401C567.634 66.4658 574.784 64.7637 581.7 69.4485C585.11 71.7735 587.791 75.0159 589.435 78.8008C591.297 83.2298 591.252 87.78 589.306 91.9629C585.514 100.111 579.409 102.529 576.106 103.245C576.04 103.259 575.971 103.268 575.902 103.271ZM580.377 95.4285C580.11 96.8545 579.659 98.2401 579.035 99.5507C581.694 98.2181 584.792 95.6907 587.021 90.899C589.091 86.4508 588.213 82.3958 587.112 79.7773C585.66 76.4415 583.295 73.5845 580.288 71.5364C574.019 67.292 567.565 69.0885 564.462 69.9525C564.178 70.0313 563.876 70.0085 563.608 69.8875L563.239 69.7216C559.468 67.9719 557.788 65.7154 557.053 63.8759C555.06 67.5662 556.743 70.3226 556.829 70.46C556.844 70.4833 556.853 70.4982 556.866 70.5214C557.524 71.6832 558.429 72.6867 559.517 73.4612C562.431 73.6758 565.292 74.3519 567.994 75.4643C572.986 77.5872 576.036 81.0547 576.947 85.587C577.787 84.9132 578.832 84.3437 579.97 84.3293C580.681 84.3147 581.386 84.4625 582.031 84.7611C582.677 85.0598 583.246 85.5016 583.695 86.053C584.145 86.6198 584.461 87.2818 584.618 87.9888C584.774 88.6959 584.768 89.4293 584.598 90.1335C583.89 93.2888 581.583 94.8255 580.377 95.4285Z" fill="#7396BA"/>
<path d="M576.24 110.9C575.959 110.914 575.681 110.833 575.452 110.671C575.221 110.509 575.053 110.274 574.972 110.004C574.424 108.183 574.411 105.865 574.583 101.957C574.596 101.648 574.723 101.354 574.939 101.132C577.527 98.4816 577.983 94.4581 577.987 94.4174C578.013 94.1765 578.108 93.9481 578.26 93.7596C578.413 93.5711 578.616 93.4305 578.846 93.3546C578.947 93.3195 581.507 92.4075 582.14 89.5821C582.227 89.2494 582.236 88.9013 582.166 88.5647C582.096 88.2282 581.95 87.9122 581.738 87.6414C581.528 87.3865 581.263 87.1829 580.963 87.0457C580.663 86.9085 580.335 86.8416 580.005 86.8501C579.991 86.8507 579.977 86.8514 579.964 86.8521C578.905 86.9048 577.528 88.4414 577.02 89.188C576.869 89.4106 576.651 89.5791 576.397 89.6691C576.145 89.7589 575.869 89.7654 575.611 89.6874C575.354 89.6095 575.128 89.4514 574.967 89.236C574.806 89.0207 574.718 88.7595 574.716 88.4907C574.681 83.5668 572.107 79.9733 567.068 77.8091C564.574 76.7825 561.931 76.1614 559.242 75.9691C557.98 76.4025 556.061 78.609 554.691 82.1611C552.89 86.8241 552.176 93.5776 555.57 98.5476C559.432 104.204 566.446 102.668 566.743 102.6C567.069 102.524 567.411 102.581 567.695 102.757C567.979 102.933 568.181 103.215 568.257 103.541C568.333 103.866 568.277 104.209 568.101 104.492C567.924 104.776 567.642 104.979 567.317 105.055C566.951 105.14 558.336 107.07 553.488 99.9689C549.544 94.1924 550.309 86.5139 552.339 81.2534C553.973 77.0186 556.451 74.0377 558.805 73.4739C558.914 73.4479 559.025 73.4364 559.138 73.44C562.182 73.6159 565.176 74.2999 567.994 75.4635C572.987 77.5865 576.037 81.0539 576.948 85.5868C577.788 84.914 578.829 84.342 579.972 84.3289C580.682 84.3145 581.387 84.4622 582.033 84.7609C582.677 85.0597 583.246 85.5015 583.695 86.0528C584.147 86.6196 584.462 87.2816 584.618 87.9888C584.775 88.6957 584.769 89.4291 584.6 90.1333C583.892 93.2889 581.584 94.8259 580.379 95.4281C580.113 96.8543 579.304 100.035 577.08 102.53C576.945 105.804 576.963 107.875 577.385 109.278C577.44 109.461 577.453 109.654 577.422 109.843C577.391 110.032 577.318 110.211 577.208 110.368C577.097 110.524 576.953 110.653 576.785 110.745C576.617 110.837 576.431 110.891 576.24 110.9Z" fill="black"/>
<path d="M555.838 72.4024C555.617 72.4135 555.398 72.3665 555.2 72.2664C555.003 72.1662 554.835 72.0161 554.714 71.8311C553.443 69.8919 552.257 64.8977 556.858 59.8765C557.04 59.677 557.283 59.5416 557.548 59.4903C557.813 59.4391 558.089 59.4747 558.332 59.5919C558.577 59.7091 558.776 59.9017 558.902 60.1412C559.028 60.3807 559.074 60.6543 559.032 60.9217C559.003 61.1545 558.391 67.0051 570.099 69.1845C570.261 69.2147 570.417 69.2768 570.555 69.3671C570.695 69.4574 570.814 69.5741 570.908 69.7106C571.002 69.8472 571.067 70.0009 571.101 70.1628C571.135 70.3248 571.138 70.4919 571.108 70.6546C571.077 70.8174 571.016 70.9725 570.924 71.1113C570.834 71.2501 570.718 71.3697 570.581 71.4634C570.445 71.557 570.291 71.6228 570.129 71.6571C569.967 71.6914 569.8 71.6934 569.637 71.6632C561.144 70.0823 558.104 66.5542 557.045 63.8893C555.064 67.5721 556.742 70.3212 556.828 70.4585C556.949 70.6438 557.019 70.8577 557.031 71.0786C557.041 71.2994 556.995 71.5195 556.895 71.7165C556.795 71.9136 556.644 72.0808 556.459 72.2012C556.272 72.3216 556.059 72.391 555.838 72.4024Z" fill="black"/>
<path d="M556.406 84.0391C556.719 82.6232 556.137 81.2909 555.107 81.0634C554.078 80.8359 552.989 81.7993 552.676 83.2152C552.364 84.6311 552.945 85.9634 553.975 86.1909C555.004 86.4184 556.093 85.455 556.406 84.0391Z" fill="black"/>
<path d="M567.46 86.4815C567.773 85.0656 567.192 83.7333 566.162 83.5058C565.132 83.2783 564.043 84.2417 563.731 85.6576C563.418 87.0735 563.999 88.4058 565.029 88.6333C566.059 88.8608 567.148 87.8973 567.46 86.4815Z" fill="black"/>
<path d="M531.739 186.171C536.787 188.226 579.58 199.215 584.682 197.123L531.739 186.171Z" fill="white"/>
<path d="M583.288 198.634C581.786 198.709 579.267 198.547 574.768 197.828C570.37 197.125 564.54 195.951 557.908 194.431C545.829 191.662 533.878 188.403 531.263 187.338C531.108 187.277 530.967 187.186 530.847 187.07C530.727 186.953 530.632 186.815 530.566 186.661C530.501 186.508 530.467 186.344 530.464 186.176C530.463 186.009 530.495 185.845 530.557 185.69C530.621 185.536 530.714 185.395 530.831 185.277C530.948 185.158 531.088 185.065 531.242 185.001C531.396 184.938 531.561 184.904 531.729 184.905C531.895 184.906 532.06 184.939 532.213 185.003C534.688 186.011 546.697 189.276 558.471 191.974C575.235 195.816 582.756 196.551 584.205 195.958C584.514 195.83 584.86 195.832 585.169 195.961C585.478 196.089 585.722 196.336 585.849 196.645C585.976 196.954 585.975 197.301 585.846 197.609C585.717 197.918 585.471 198.162 585.162 198.29C584.562 198.512 583.928 198.629 583.288 198.634Z" fill="black"/>
<path d="M556.773 119.904C554.456 120.019 551.228 119.706 549.459 118.733C548.431 118.168 547.758 117.294 547.564 116.273C547.424 115.531 547.478 114.38 548.535 113.108C548.641 112.981 548.771 112.876 548.918 112.798C549.065 112.721 549.225 112.674 549.389 112.658C549.555 112.643 549.721 112.661 549.878 112.71C550.037 112.759 550.184 112.838 550.312 112.944C550.439 113.05 550.543 113.18 550.621 113.326C550.698 113.473 550.745 113.633 550.76 113.798C550.776 113.963 550.759 114.129 550.71 114.287C550.661 114.445 550.581 114.592 550.475 114.72C550.14 115.123 549.986 115.508 550.042 115.804C550.09 115.963 550.172 116.109 550.281 116.233C550.39 116.358 550.524 116.457 550.676 116.526C551.791 117.139 554.465 117.512 556.769 117.38L556.78 117.38C557.113 117.362 557.44 117.477 557.689 117.701C557.938 117.924 558.088 118.237 558.106 118.57C558.124 118.904 558.008 119.231 557.785 119.48C557.562 119.729 557.249 119.879 556.915 119.897C556.868 119.899 556.821 119.901 556.773 119.904Z" fill="black"/>
<path d="M590.255 183.263C590.057 183.273 589.857 183.235 589.676 183.154C589.494 183.072 589.334 182.948 589.209 182.792C589.085 182.636 588.999 182.453 588.958 182.258C588.918 182.063 588.924 181.861 588.978 181.668C590.463 176.277 590.755 171.781 590.848 163.743C590.852 163.513 590.918 163.287 591.039 163.092C591.161 162.896 591.334 162.738 591.54 162.634C591.745 162.529 591.975 162.484 592.205 162.501C592.435 162.519 592.656 162.599 592.844 162.733C597.052 165.749 607.159 169.581 611.48 166.157C612.695 165.193 614.081 161.703 609.7 149.156C606.825 140.927 602.564 131.986 600.274 127.182C599.869 126.332 599.521 125.6 599.247 125.016C596.131 118.348 590.204 117.153 584.974 116.098C580.451 115.186 576.179 114.325 574.964 109.98C574.915 109.82 574.899 109.651 574.917 109.484C574.933 109.317 574.984 109.155 575.065 109.008C575.146 108.86 575.255 108.731 575.387 108.626C575.518 108.522 575.669 108.445 575.831 108.399C575.993 108.354 576.161 108.342 576.329 108.363C576.495 108.384 576.656 108.438 576.801 108.522C576.947 108.606 577.073 108.718 577.175 108.852C577.276 108.986 577.35 109.139 577.392 109.302C578.152 112.021 580.957 112.717 585.472 113.627C590.999 114.742 597.876 116.129 601.53 123.949C601.802 124.53 602.148 125.254 602.549 126.098C611.164 144.169 619.147 163.295 613.046 168.132C610.484 170.163 606.511 170.578 601.554 169.331C598.681 168.593 595.918 167.48 593.334 166.022C593.204 172.923 592.819 177.213 591.407 182.339C591.336 182.594 591.188 182.821 590.98 182.987C590.775 183.153 590.52 183.249 590.255 183.263Z" fill="black"/>
<path d="M612.263 167.146C614.543 164.95 616.357 157.847 616.253 155.683C615.396 137.997 602.534 125.005 597.237 118.101C594.086 109.716 583.762 106.456 583.259 106.469C579.047 106.572 573.149 116.982 575.985 120.028C577.135 121.263 587.542 123.423 588.705 126.88C590.064 132.77 592.527 145.044 598.432 153.435" fill="white"/>
<path d="M612.326 168.404C612.069 168.417 611.814 168.352 611.596 168.216C611.378 168.081 611.207 167.881 611.105 167.646C611.004 167.411 610.976 167.15 611.026 166.898C611.077 166.646 611.203 166.416 611.388 166.237C613.262 164.433 615.09 157.745 614.993 155.745C614.276 140.946 605.006 129.632 598.872 122.146C597.903 120.964 596.989 119.848 596.236 118.868C596.161 118.769 596.1 118.66 596.056 118.544C593.186 110.906 584.024 107.982 583.176 107.735C581.451 107.902 578.76 110.905 577.341 114.278C576.422 116.465 576.241 118.414 576.888 119.148C577.247 119.423 578.827 119.991 580.1 120.449C584.936 122.187 589.012 123.84 589.9 126.477C589.913 126.516 589.925 126.556 589.933 126.596C590.032 127.029 590.139 127.496 590.251 127.993C591.608 133.984 594.132 145.136 599.462 152.709C599.559 152.844 599.627 152.997 599.665 153.159C599.703 153.321 599.708 153.489 599.68 153.653C599.652 153.817 599.592 153.974 599.504 154.115C599.415 154.256 599.299 154.378 599.162 154.474C599.027 154.569 598.873 154.637 598.711 154.673C598.548 154.709 598.38 154.713 598.216 154.684C598.052 154.654 597.896 154.593 597.756 154.503C597.615 154.413 597.495 154.296 597.4 154.159C591.784 146.179 589.188 134.711 587.792 128.55C587.687 128.083 587.588 127.643 587.493 127.234C586.846 125.552 581.911 123.778 579.248 122.821C576.828 121.951 575.638 121.505 575.062 120.887C573.625 119.344 573.61 116.65 575.019 113.301C576.668 109.379 579.972 105.369 583.129 105.212C583.162 105.21 583.194 105.209 583.227 105.209C583.89 105.192 586.851 106.185 589.913 108.061C592.778 109.817 596.549 112.869 598.347 117.478C599.051 118.389 599.875 119.394 600.821 120.549C606.78 127.821 616.753 139.992 617.511 155.623C617.621 157.9 615.833 165.456 613.136 168.054C612.917 168.265 612.629 168.389 612.326 168.404Z" fill="black"/>
<path d="M588.768 128.137C588.515 128.15 588.265 128.086 588.048 127.954C587.832 127.822 587.661 127.628 587.557 127.398C587.452 127.167 587.42 126.911 587.464 126.661C587.508 126.412 587.625 126.181 587.802 126L596.333 117.221C596.565 116.982 596.884 116.844 597.218 116.84C597.552 116.835 597.875 116.963 598.115 117.196C598.355 117.429 598.492 117.748 598.496 118.082C598.502 118.416 598.373 118.738 598.14 118.978L589.609 127.757C589.387 127.986 589.087 128.122 588.768 128.137Z" fill="black"/>
<path d="M592.17 165.016C591.911 165.03 591.652 164.962 591.433 164.822C589.019 163.286 583.461 158.575 582.029 156.462C581.846 156.186 581.778 155.848 581.843 155.522C581.907 155.196 582.098 154.909 582.372 154.723C582.647 154.536 582.985 154.466 583.311 154.527C583.638 154.588 583.926 154.776 584.115 155.049C585.267 156.748 590.419 161.189 592.786 162.696C593.012 162.839 593.187 163.05 593.284 163.3C593.382 163.549 593.398 163.824 593.329 164.082C593.26 164.341 593.111 164.571 592.903 164.739C592.695 164.908 592.438 165.006 592.17 165.018L592.17 165.016Z" fill="black"/>
<path d="M586.723 217.653C586.687 217.655 586.65 217.655 586.613 217.653C580.297 217.425 574.309 211.207 573.54 204.075C573.52 203.91 573.533 203.742 573.578 203.582C573.623 203.42 573.701 203.271 573.805 203.14C573.908 203.009 574.037 202.901 574.183 202.821C574.33 202.74 574.49 202.689 574.656 202.671C574.822 202.654 574.99 202.668 575.149 202.716C575.31 202.764 575.458 202.842 575.587 202.948C575.717 203.053 575.824 203.184 575.903 203.331C575.981 203.477 576.03 203.639 576.046 203.805C576.688 209.761 581.57 214.95 586.704 215.135C587.029 215.147 587.336 215.283 587.563 215.516C587.788 215.749 587.916 216.06 587.919 216.385C587.921 216.71 587.798 217.023 587.575 217.259C587.353 217.495 587.046 217.637 586.723 217.653Z" fill="black"/>
<path d="M527.618 212.502C527.284 212.519 526.957 212.402 526.71 212.178C526.461 211.954 526.314 211.64 526.297 211.307C526.28 210.973 526.396 210.646 526.621 210.398C526.845 210.15 527.159 210.002 527.493 209.985C531.085 209.807 533.95 208.669 536.253 203.7C536.393 203.397 536.649 203.162 536.963 203.046C537.276 202.932 537.624 202.946 537.927 203.087C538.23 203.227 538.465 203.482 538.58 203.796C538.695 204.11 538.681 204.457 538.541 204.76C535.531 211.254 531.33 212.318 527.618 212.502Z" fill="black"/>
<path d="M563.765 114.235C561.146 114.379 558.52 114.256 555.926 113.868C553.368 113.466 552.401 111.971 552.349 110.706C552.272 108.867 553.913 107.269 556.527 106.635C556.688 106.594 556.856 106.586 557.021 106.61C557.185 106.634 557.344 106.691 557.487 106.777C557.629 106.863 557.754 106.976 557.853 107.111C557.952 107.245 558.022 107.397 558.062 107.559C558.102 107.721 558.108 107.889 558.082 108.054C558.055 108.219 557.997 108.377 557.91 108.518C557.822 108.66 557.707 108.783 557.571 108.88C557.436 108.978 557.283 109.047 557.121 109.085C555.405 109.501 554.855 110.301 554.867 110.602C554.875 110.816 555.278 111.214 556.317 111.378C560.729 112.07 565.926 111.84 570.95 110.732C571.112 110.695 571.279 110.691 571.443 110.719C571.607 110.747 571.764 110.808 571.903 110.897C572.044 110.986 572.165 111.102 572.261 111.238C572.356 111.374 572.423 111.527 572.458 111.689C572.495 111.851 572.498 112.019 572.469 112.182C572.44 112.346 572.379 112.502 572.289 112.642C572.199 112.781 572.082 112.902 571.946 112.997C571.809 113.091 571.655 113.158 571.493 113.193C568.951 113.754 566.366 114.103 563.765 114.235Z" fill="black"/>
<path d="M530.406 187.464C532.895 186.321 537.25 186.009 539.338 186.997C542.7 188.586 544.503 195.366 543.31 195.141C541.862 194.869 543.701 197.894 541.807 197.697C540.433 197.553 540.654 199.582 538.94 199.343C537.142 199.092 537.525 200.934 536.149 200.725C534.773 200.516 532.786 199.071 531.459 198.882C530.062 198.682 528.895 199.34 527.26 199.679C525.627 200.019 524.272 198.236 523.9 197.65L530.406 187.464Z" fill="white"/>
<path d="M536.486 201.998C536.31 202.006 536.134 201.996 535.96 201.969C535.078 201.834 534.136 201.371 533.225 200.922C532.531 200.58 531.745 200.193 531.281 200.127C530.622 200.034 529.959 200.232 529.12 200.485C528.648 200.626 528.113 200.787 527.517 200.911C524.959 201.441 523.169 198.848 522.837 198.323C522.707 198.121 522.64 197.887 522.64 197.646C522.641 197.407 522.709 197.172 522.838 196.971L529.346 186.787C529.476 186.583 529.662 186.421 529.881 186.319C533.159 184.813 537.78 184.866 539.877 185.857C541.963 186.844 543.277 189.188 543.874 190.499C544.549 191.982 545.204 194.127 544.824 195.296C544.76 195.509 544.652 195.705 544.507 195.874C544.362 196.043 544.183 196.179 543.982 196.274C544.022 196.909 544.041 197.803 543.382 198.438C543.166 198.637 542.91 198.787 542.633 198.876C542.354 198.966 542.06 198.995 541.769 198.959C541.713 199.027 541.641 199.129 541.588 199.204C541.212 199.73 540.433 200.824 538.766 200.591C538.694 200.576 538.619 200.575 538.547 200.587C538.474 200.668 538.407 200.755 538.344 200.845C538.065 201.219 537.529 201.946 536.486 201.998ZM530.677 197.589C530.997 197.572 531.32 197.587 531.637 197.632C532.498 197.755 533.432 198.216 534.339 198.661C534.995 198.984 535.733 199.348 536.232 199.457C536.26 199.421 536.29 199.38 536.314 199.346C536.672 198.863 537.416 197.856 539.114 198.092C539.159 198.101 539.206 198.103 539.252 198.097C539.356 197.986 539.451 197.866 539.535 197.738C539.85 197.297 540.404 196.519 541.466 196.434C541.464 196.396 541.462 196.361 541.46 196.33C541.419 195.709 541.363 194.859 542.026 194.272C542.136 194.174 542.259 194.093 542.392 194.029C542.163 192.507 540.74 189.053 538.799 188.136C537.208 187.384 533.529 187.566 531.259 188.469L525.435 197.586C525.892 198.092 526.499 198.548 527.005 198.443C527.492 198.342 527.951 198.204 528.395 198.071C529.133 197.818 529.899 197.656 530.677 197.59L530.677 197.589Z" fill="black"/>
<path d="M528.091 179.59C528.091 179.59 523.395 185.831 518.327 184.581" stroke="black" stroke-width="3" stroke-linecap="round"/>
</g>
<path d="M637 206.159H616.951C616.368 206.159 615.896 206.631 615.896 207.213C615.896 207.796 616.368 208.268 616.951 208.268H637C637.582 208.268 638.054 207.796 638.054 207.213C638.054 206.631 637.582 206.159 637 206.159Z" fill="black"/>
<path d="M637 212.125H616.951C616.368 212.125 615.896 212.597 615.896 213.18C615.896 213.762 616.368 214.234 616.951 214.234H637C637.582 214.234 638.054 213.762 638.054 213.18C638.054 212.597 637.582 212.125 637 212.125Z" fill="black"/>
<path d="M654.467 215.511C651.902 216.996 648.696 216.368 646.854 214.174L657.12 208.248C658.099 210.941 657.032 214.033 654.467 215.511Z" fill="black"/>
<path d="M656.067 206.419L645.801 212.345C644.822 209.659 645.882 206.561 648.447 205.083C649.391 204.536 650.424 204.279 651.45 204.279C653.192 204.279 654.906 205.035 656.067 206.419Z" fill="black"/>
<path d="M658.416 186.204H620.658L663.316 170.038C663.863 169.836 664.139 169.228 663.93 168.681C663.721 168.135 663.113 167.865 662.567 168.067L614.32 186.345C611.849 186.926 610 189.14 610 191.786V216.415C610 219.493 612.504 221.997 615.582 221.997H658.416C661.493 221.997 663.998 219.493 663.998 216.415V191.786C663.998 188.708 661.493 186.204 658.416 186.204ZM661.892 216.415C661.892 217.367 661.5 218.238 660.872 218.865C660.245 219.493 659.374 219.885 658.416 219.885H615.582C613.672 219.885 612.113 218.325 612.113 216.415V191.786C612.113 189.869 613.672 188.31 615.582 188.31H658.416C660.333 188.31 661.892 189.869 661.892 191.786V216.415Z" fill="black"/>
<path d="M659.732 193.223V198.657C659.732 199.784 658.807 200.709 657.68 200.709H616.324C615.19 200.709 614.266 199.784 614.266 198.657V193.223C614.266 192.089 615.19 191.171 616.324 191.171H657.68C658.807 191.171 659.732 192.089 659.732 193.223Z" fill="black"/>
<path d="M648.605 45.4673L653.379 64.3303L639.312 77.401L658.349 73.2385L672.035 87.4628L667.262 68.5992L681.329 55.5284L662.292 59.6909L648.605 45.4673Z" fill="#B7C2F6"/>
<path d="M72.6648 239C88.2865 227.067 93.638 207.763 84.6178 195.883C75.5976 184.002 55.6216 184.045 40 195.977" fill="white"/>
<path d="M72.0933 241C71.5816 241 71.076 240.768 70.7424 240.328C70.1748 239.581 70.319 238.513 71.0645 237.944C78.265 232.44 83.4092 225.156 85.5496 217.431C87.6428 209.876 86.5943 202.814 82.597 197.548C78.5997 192.28 72.0896 189.376 64.2802 189.405C56.2902 189.422 47.9244 192.461 40.724 197.965C39.9784 198.534 38.9144 198.39 38.3469 197.641C37.7792 196.893 37.9234 195.826 38.6689 195.256C46.4546 189.306 55.5475 186.019 64.2731 186C64.2974 186 64.3235 186 64.3478 186C73.2165 186 80.6533 189.367 85.2963 195.484C89.9523 201.62 91.2033 209.738 88.8186 218.343C86.4809 226.779 80.9061 234.702 73.1201 240.652C72.8125 240.886 72.4512 241 72.0933 241Z" fill="black"/>
<path d="M24.7102 224C24.1947 224 23.6855 223.769 23.3494 223.329C22.7776 222.58 22.9228 221.511 23.6738 220.941L40.256 208.348C41.007 207.779 42.0789 207.923 42.6505 208.672C43.2225 209.421 43.0772 210.489 42.3262 211.06L25.744 223.652C25.4347 223.887 25.071 224 24.7102 224Z" fill="black"/>
<path d="M42.7101 248C42.1947 248 41.6855 247.768 41.3494 247.328C40.7776 246.58 40.9228 245.51 41.6738 244.941L58.256 232.349C59.0073 231.778 60.0787 231.923 60.6506 232.671C61.2224 233.42 61.0772 234.489 60.3262 235.059L43.744 247.651C43.4346 247.886 43.071 248 42.7101 248Z" fill="black"/>
<path d="M80 241.363L39.8968 188L30 195.637L70.1032 249L80 241.363Z" fill="white"/>
<path d="M70.2838 251C70.2078 251 70.1318 250.995 70.0555 250.985C69.6086 250.924 69.2038 250.685 68.9307 250.322L28.3476 196.468C28.0744 196.105 27.9548 195.648 28.0154 195.196C28.0758 194.745 28.3113 194.336 28.6704 194.059L38.6859 186.352C39.4333 185.776 40.4998 185.923 41.069 186.677L81.6522 240.532C82.2214 241.287 82.0768 242.365 81.3295 242.94L71.314 250.648C71.0164 250.878 70.6535 251 70.2838 251ZM32.0837 195.753L70.6062 246.873L77.9161 241.247L39.3933 190.128L32.0837 195.753Z" fill="black"/>
<path d="M123.474 205.222C85.7847 257.039 118.177 302.252 152.121 319.977C231.085 361.213 280.408 279.795 372.936 266.968C451.92 256.02 469.009 293.703 534.324 255.39" stroke="black" stroke-width="4" stroke-linecap="round"/>
<path d="M170 64C173.347 62.3372 182.876 52.3354 180.491 45C184.407 47.8728 193.105 54.2606 186.74 62.3011" fill="#F7AAB6"/>
<path d="M187.491 63.7967C187.256 64.0791 186.924 64.2546 186.566 64.2849C186.208 64.3151 185.854 64.1981 185.577 63.9591C185.3 63.7201 185.125 63.3781 185.087 63.006C185.048 62.6338 185.152 62.2606 185.374 61.9661C186.849 60.0135 187.444 58.1274 187.195 56.204C186.806 53.2115 184.406 50.5791 182.168 48.6295C181.708 56.1576 174.064 64.2486 170.991 65.8492C170.664 66.0186 170.286 66.0469 169.941 65.9259C169.595 65.8048 169.308 65.5466 169.145 65.2057C168.982 64.8648 168.956 64.4715 169.071 64.1104C169.187 63.7493 169.434 63.4518 169.761 63.2813C172.837 61.6807 181.1 52.1828 179.143 45.875C179.054 45.5866 179.055 45.2749 179.144 44.9864C179.235 44.698 179.411 44.4468 179.648 44.2703C179.884 44.0928 180.167 43.998 180.459 44C180.75 44.002 181.033 44.0999 181.268 44.2804C184.045 46.4156 189.215 50.3905 189.92 55.8208C190.27 58.5177 189.468 61.1824 187.535 63.7422C187.52 63.7614 187.507 63.7796 187.491 63.7967Z" fill="#F7AAB6"/>
<path d="M132.322 181C125.248 183.732 119.431 180.727 117.345 184.721C115.169 188.883 111.414 193.459 111.414 193.459C105.01 198.908 122.097 208.187 128.056 203.904C129.472 202.886 130.3 201.603 130.532 200.281L135.466 197.813C137.603 196.909 138 194.115 138 194.115L132.322 181Z" fill="white"/>
<path d="M134.72 200C134.326 200 133.942 199.852 133.636 199.58C133.329 199.308 133.118 198.927 133.037 198.504C132.955 198.081 133.01 197.64 133.191 197.256C133.373 196.871 133.669 196.567 134.031 196.394C135.25 195.809 135.581 193.627 135.584 193.606C135.65 193.115 135.891 192.672 136.255 192.375C136.618 192.077 137.072 191.949 137.522 192.018C137.97 192.087 138.375 192.348 138.65 192.744C138.924 193.138 139.045 193.636 138.985 194.129C138.93 194.564 138.366 198.422 135.407 199.84C135.19 199.945 134.957 199.999 134.72 200Z" fill="black"/>
<path d="M122 192L117.5 196.5L112 200L123 205L129.5 203.5L130 198.5L122 192Z" fill="white"/>
<path d="M120.975 191C126.742 193.809 129.1 196.385 129.488 197.18C130.587 199.426 129.909 202.06 127.526 203.873C121.742 208.277 105.156 198.737 111.373 193.135L120.975 191Z" fill="white"/>
<path d="M123.743 207C118.645 207 112.488 203.96 109.764 200.692C107.331 197.774 107.42 194.712 109.999 192.502C110.216 192.317 110.478 192.188 110.76 192.128L120.653 190.037C121.02 189.96 121.404 190.004 121.743 190.161C128.021 193.068 130.705 195.805 131.301 196.965C132.822 199.924 131.807 203.388 128.775 205.583C127.402 206.576 125.646 207 123.743 207ZM111.942 195.256C111.426 195.792 110.885 196.794 112.402 198.613C115.419 202.235 123.64 205.183 126.748 202.935C128.468 201.69 129.049 199.967 128.265 198.44C128.008 198 125.978 195.857 120.802 193.384L111.942 195.256Z" fill="black"/>
<path d="M132 181C124.905 183.819 119.072 180.717 116.979 184.839C114.797 189.135 111.03 193.857 111.03 193.857C111.03 193.857 110.533 196.663 113.562 196.98C117.327 197.375 120.973 191.764 120.973 191.764L127.087 190.588" fill="white"/>
<path d="M114.566 198C114.382 198.001 114.198 197.991 114.015 197.973C112.285 197.792 111.335 196.982 110.842 196.335C109.751 194.899 110.02 193.168 110.054 192.975C110.102 192.704 110.218 192.449 110.391 192.233C110.426 192.188 114.016 187.684 116.055 183.678C117.645 180.557 120.824 180.47 123.9 180.384C126.225 180.319 128.861 180.245 131.69 179.125C131.895 179.041 132.114 178.999 132.335 179C132.556 179.001 132.774 179.046 132.979 179.131C133.182 179.216 133.366 179.341 133.522 179.497C133.677 179.653 133.798 179.839 133.88 180.042C133.963 180.245 134.003 180.463 134 180.682C133.997 180.901 133.949 181.117 133.862 181.318C133.773 181.519 133.646 181.7 133.487 181.853C133.327 182.004 133.14 182.123 132.933 182.203C129.551 183.543 126.469 183.63 123.994 183.698C120.838 183.786 119.677 183.928 119.043 185.173C117.208 188.775 114.338 192.59 113.354 193.859C113.365 194.033 113.423 194.201 113.521 194.346C113.753 194.553 114.053 194.67 114.366 194.675C116.374 194.884 119.077 191.825 120.069 190.31C120.192 190.124 120.352 189.962 120.539 189.838C120.726 189.713 120.936 189.626 121.157 189.584L127.166 188.433C127.382 188.389 127.606 188.388 127.822 188.43C128.04 188.473 128.246 188.556 128.429 188.679C128.614 188.801 128.772 188.957 128.894 189.14C129.017 189.322 129.101 189.527 129.142 189.742C129.185 189.957 129.184 190.178 129.138 190.393C129.094 190.607 129.006 190.811 128.882 190.991C128.757 191.173 128.598 191.327 128.411 191.447C128.226 191.566 128.019 191.647 127.801 191.687L122.464 192.709C121.334 194.26 118.229 198 114.566 198Z" fill="black"/>
<path d="M322.34 240.727C319.498 233.069 298.193 191.134 288.414 172C288.358 173.494 287.822 174.928 286.889 176.088C280.425 184.118 261.384 203.181 225.326 205C224.002 205.066 222.843 204.967 221.966 204.167C221.897 205.805 221.735 207.438 221.482 209.058C218.959 225.646 226.482 267.608 226.482 267.608C226.482 267.608 215.361 278.65 199.778 300.257C194.409 307.702 189 318.703 189 318.703L203.297 329.712C203.297 329.712 244.563 288.266 251.256 277.528C257.309 267.819 258.108 263.777 271.041 225.096L299.785 260.235C297.797 278.77 298.184 298.625 303.422 330H321.74C324.445 298.623 324.499 298.761 326.335 276.909C328.304 253.477 325.582 249.464 322.34 240.727Z" fill="#C4D0DF"/>
<path d="M322.035 331H303.632C303.235 331 302.851 330.86 302.549 330.605C302.246 330.35 302.043 329.998 301.977 329.608C297.174 301.213 296.082 281.171 298.236 260.678L271.724 228.693C270.052 233.642 268.6 237.959 267.295 241.842C259.294 265.652 257.852 269.942 252.641 278.19C245.893 288.874 205.922 328.544 204.224 330.227C203.936 330.512 203.555 330.684 203.15 330.71C202.745 330.737 202.345 330.616 202.022 330.371L187.66 319.454C187.35 319.219 187.133 318.884 187.044 318.507C186.955 318.13 187.002 317.733 187.175 317.386C187.398 316.936 192.734 306.267 198.149 298.856C211.633 280.402 221.946 269.545 224.529 266.907C223.435 260.711 217.275 224.575 219.653 209.157C219.897 207.615 220.053 206.059 220.12 204.498C220.132 204.18 220.235 203.873 220.417 203.612C220.599 203.35 220.851 203.146 221.146 203.023C221.44 202.899 221.764 202.862 222.078 202.916C222.392 202.969 222.686 203.111 222.922 203.324C223.303 203.667 223.91 203.778 225.089 203.72C260.603 201.953 279.32 183.515 285.719 175.671C286.43 174.8 286.837 173.724 286.877 172.603C286.893 172.235 287.029 171.881 287.267 171.599C287.504 171.316 287.829 171.119 288.191 171.04C288.552 170.959 288.93 171.002 289.266 171.157C289.601 171.314 289.874 171.577 290.045 171.904C301.6 194.22 321.403 232.771 324.207 240.229C324.519 241.057 324.826 241.843 325.125 242.607C328.037 250.063 330.141 255.453 328.322 276.83C327.292 288.945 326.828 294.136 326.129 301.997C325.584 308.128 324.905 315.756 323.706 329.476C323.67 329.891 323.478 330.279 323.168 330.561C322.86 330.843 322.455 331 322.035 331ZM305.052 327.661H320.498C321.613 314.89 322.262 307.603 322.787 301.703C323.486 293.846 323.949 288.656 324.979 276.548C326.733 255.943 324.747 250.857 321.998 243.818C321.695 243.042 321.383 242.243 321.066 241.401C318.393 234.295 298.943 196.414 288.898 176.983C288.721 177.258 288.53 177.523 288.324 177.776C281.642 185.968 262.119 205.222 225.256 207.056C224.606 207.099 223.954 207.077 223.308 206.992C223.224 207.857 223.109 208.749 222.968 209.666C220.503 225.651 227.907 266.756 227.983 267.17C228.032 267.438 228.013 267.713 227.931 267.972C227.849 268.23 227.704 268.466 227.51 268.656C227.398 268.766 216.238 279.779 200.862 300.821C196.66 306.571 192.375 314.609 190.805 317.645L202.891 326.831C209.341 320.401 243.842 285.848 249.802 276.414C254.799 268.504 256.222 264.273 264.116 240.784C265.665 236.174 267.421 230.949 269.511 224.782C269.606 224.5 269.776 224.248 270.002 224.053C270.228 223.858 270.503 223.728 270.797 223.674C271.09 223.619 271.394 223.646 271.675 223.747C271.955 223.849 272.205 224.024 272.394 224.253L301.273 259.093C301.415 259.264 301.522 259.463 301.586 259.676C301.65 259.89 301.67 260.114 301.646 260.335C299.464 280.412 300.448 300.001 305.052 327.661Z" fill="#C4D0DF"/>
<path d="M273.542 231C273.305 231 273.072 230.937 272.86 230.817C272.648 230.697 272.462 230.523 272.319 230.308C272.175 230.092 272.076 229.842 272.029 229.575C271.984 229.309 271.991 229.035 272.052 228.772L274.971 216.309C275.076 215.856 275.335 215.47 275.689 215.236C276.043 215.002 276.464 214.939 276.859 215.061C277.253 215.182 277.589 215.479 277.793 215.885C277.998 216.291 278.053 216.774 277.947 217.227L275.029 229.69C274.941 230.065 274.748 230.397 274.479 230.634C274.21 230.87 273.881 230.999 273.542 231Z" fill="black"/>
<path d="M194.666 324C194.353 324 194.046 323.912 193.781 323.745C193.515 323.578 193.302 323.34 193.166 323.057C193.029 322.775 192.975 322.46 193.01 322.148C193.046 321.835 193.167 321.541 193.362 321.295C203.464 308.565 213.504 298.251 221.57 289.964C230.318 280.978 237.227 273.881 238.959 268.95C240.336 265.029 239.491 260.798 238.212 254.392C236.378 245.201 233.868 232.615 235.814 211.515C235.855 211.075 236.069 210.668 236.409 210.386C236.749 210.103 237.188 209.966 237.628 210.007C238.069 210.047 238.474 210.261 238.757 210.602C239.04 210.942 239.177 211.381 239.136 211.821C237.233 232.439 239.69 244.749 241.484 253.738C242.821 260.434 243.785 265.273 242.106 270.056C240.13 275.681 233.348 282.649 223.96 292.292C215.946 300.526 205.972 310.772 195.974 323.37C195.818 323.568 195.619 323.726 195.393 323.835C195.166 323.945 194.918 324.001 194.666 324Z" fill="black"/>
<path d="M236.704 226C236.318 226 235.944 225.867 235.643 225.623C235.34 225.379 235.129 225.037 235.043 224.655C234.957 224.273 235.001 223.872 235.167 223.519C235.334 223.164 235.614 222.879 235.962 222.708C249.515 216.042 251.543 205.84 251.623 205.409C251.707 204.96 251.962 204.563 252.332 204.305C252.702 204.045 253.158 203.946 253.6 204.028C254.042 204.11 254.435 204.365 254.692 204.739C254.95 205.115 255.052 205.577 254.975 206.028C254.887 206.527 252.645 218.352 237.445 225.828C237.213 225.942 236.961 226 236.704 226Z" fill="black"/>
<path d="M298.603 263C298.319 263 298.041 262.918 297.796 262.762C297.551 262.606 297.348 262.382 297.208 262.112C297.069 261.842 296.996 261.537 297 261.226C297.004 260.916 297.082 260.613 297.229 260.347L301.342 252.85C301.561 252.452 301.915 252.165 302.327 252.052C302.531 251.996 302.744 251.986 302.951 252.019C303.159 252.053 303.36 252.131 303.54 252.249C303.721 252.368 303.878 252.524 304.003 252.708C304.129 252.894 304.219 253.103 304.27 253.326C304.322 253.55 304.332 253.782 304.301 254.009C304.27 254.237 304.198 254.455 304.09 254.652L302.384 257.761L305.816 256.302C306.213 256.134 306.654 256.144 307.043 256.331C307.432 256.518 307.737 256.867 307.892 257.3C308.045 257.733 308.035 258.214 307.865 258.64C307.693 259.064 307.375 259.398 306.978 259.567L299.182 262.88C298.997 262.959 298.802 262.999 298.603 263Z" fill="black"/>
<path d="M297.359 194C287.724 194 282.851 190.176 282.635 190.003C282.283 189.722 282.058 189.314 282.009 188.868C281.962 188.423 282.095 187.977 282.379 187.628C282.664 187.28 283.077 187.057 283.527 187.01C283.977 186.962 284.428 187.094 284.78 187.375C284.814 187.401 286.014 188.321 288.355 189.167C290.539 189.957 294.192 190.842 299.2 190.572C299.652 190.548 300.095 190.702 300.432 191.001C300.769 191.3 300.973 191.719 300.997 192.167C301.022 192.614 300.866 193.053 300.564 193.386C300.261 193.72 299.838 193.921 299.386 193.945C298.689 193.983 298.013 194.001 297.359 194Z" fill="black"/>
<path d="M231.47 270.999C231.293 270.999 231.118 270.967 230.951 270.906L225.125 268.769C224.823 268.659 224.558 268.455 224.359 268.181C224.162 267.907 224.04 267.577 224.008 267.229C223.977 266.88 224.037 266.529 224.182 266.217C224.328 265.906 224.551 265.649 224.827 265.474L231.541 261.238C231.92 261.001 232.368 260.937 232.788 261.064C233.209 261.191 233.566 261.497 233.783 261.914C234 262.33 234.057 262.826 233.942 263.289C233.828 263.753 233.551 264.148 233.173 264.387L229.654 266.608L231.988 267.464C232.359 267.601 232.674 267.877 232.876 268.245C233.079 268.614 233.157 269.051 233.094 269.476C233.032 269.901 232.834 270.289 232.536 270.568C232.238 270.847 231.86 271 231.47 271V270.999Z" fill="black"/>
<path d="M262.777 59C262.777 56.9814 260.323 54.7344 259.652 51.8873C258.675 47.7487 257.437 39.9333 267.106 41.1215C275.908 42.2028 278.657 43.0066 278.969 47.6451C279.299 52.5717 276.918 54.3384 276.918 58.1349" fill="white"/>
<path d="M288.22 168.653L284.241 161C284.551 162.997 284.428 164.799 283.712 166.291C274.28 185.978 228.583 199.241 219.009 195.607L219 195.604V195.607L220.381 201.403C221.125 204.743 222.903 205.094 225.153 204.983C261.64 203.171 280.908 184.181 287.448 176.182C288.3 175.137 288.827 173.869 288.964 172.531C289.101 171.195 288.842 169.847 288.22 168.653Z" fill="black"/>
<path d="M224.236 207C221.907 207 219.339 206.276 218.412 202.127L217.045 196.396C216.975 196.1 216.987 195.79 217.082 195.5C217.177 195.21 217.35 194.951 217.583 194.752C217.816 194.553 218.099 194.421 218.403 194.37C218.706 194.319 219.019 194.352 219.304 194.465C223.286 195.928 235.924 194.131 250.319 188.594C266.276 182.453 277.656 174.292 281.542 166.202C282.068 165.106 282.196 163.665 281.924 161.919C281.863 161.528 281.945 161.129 282.154 160.792C282.363 160.456 282.686 160.204 283.065 160.082C283.444 159.959 283.855 159.975 284.224 160.125C284.593 160.275 284.897 160.551 285.079 160.901L289.037 168.498C289.806 169.971 290.125 171.633 289.956 173.282C289.786 174.932 289.133 176.496 288.08 177.784C281.385 185.954 261.822 205.153 224.884 206.984C224.672 206.994 224.455 207 224.236 207ZM220.921 198.166L221.689 201.384C222.18 203.586 222.869 203.749 224.717 203.657C260.303 201.895 279.059 183.508 285.471 175.685C286.112 174.899 286.509 173.944 286.612 172.94C286.714 171.935 286.519 170.921 286.049 170.024L284.683 167.4C284.649 167.477 284.613 167.555 284.577 167.631C278.541 180.2 259.46 188.648 251.535 191.697C239.505 196.327 227.475 198.804 220.921 198.166Z" fill="black"/>
<path d="M268.515 134.589C261.854 126.303 257.091 118.862 248.499 111.719C262.78 106.543 277.305 103.257 280.096 95.4492C282.887 87.6417 277.019 58 277.019 58L262.994 58.8544C262.994 58.8544 260.9 74.7692 260.9 85.9631C260.9 85.9631 250.413 87.5083 241.339 88.5542C226.063 90.3151 220.448 93.547 220.448 93.547L218.135 93.0997C211.966 91.9365 206.517 95.8032 206.517 95.8032C205.682 96.3156 204.919 96.9333 204.245 97.6423V97.6443C199.718 97.891 195.285 99.0371 191.21 101.013C183.685 104.584 179.62 109.327 179.62 109.327C177.73 111.655 176.816 113.642 176.53 115.324H176.526C176.526 115.324 174.051 125.951 179.982 129.939C173.416 140.03 166.64 167.339 166.64 167.339L132 180.408L137.512 193.641C137.512 193.641 157.219 192.041 168.13 188.853C181.22 185.026 190.438 185.43 197.64 161.504L197.689 161.437C206.103 167.516 213.388 175.589 214.209 181.316C216.072 194.293 219.144 195.404 219.144 195.404C228.639 199.016 273.961 185.833 283.316 166.265C286.954 158.655 275.217 142.924 268.515 134.589Z" fill="white"/>
<path d="M223.647 198C221.557 198 219.835 197.773 218.592 197.3C217.405 196.871 214.388 194.483 212.572 181.818C211.93 177.341 206.259 170.349 198.521 164.355C191.936 184.506 183.428 186.755 172.753 189.578C171.359 189.947 169.92 190.327 168.438 190.761C157.443 193.977 138.17 195.569 137.355 195.634C137 195.664 136.644 195.581 136.341 195.395C136.037 195.211 135.799 194.935 135.663 194.607L130.128 181.311C130.042 181.103 129.998 180.88 130 180.657C130.001 180.432 130.049 180.21 130.138 180.005C130.227 179.798 130.357 179.613 130.52 179.458C130.683 179.303 130.875 179.182 131.087 179.102L165.052 166.281C166.284 161.463 172.369 138.409 178.454 129.048C178.697 128.675 179.079 128.413 179.515 128.321C179.952 128.227 180.408 128.311 180.782 128.553C181.157 128.793 181.419 129.173 181.513 129.607C181.606 130.043 181.522 130.496 181.28 130.869C174.914 140.658 168.17 167.666 168.103 167.938C168.037 168.202 167.909 168.445 167.728 168.649C167.547 168.851 167.32 169.007 167.065 169.103L133.901 181.623L138.3 192.187C142.756 191.779 158.373 190.212 167.489 187.546C169.012 187.098 170.474 186.713 171.888 186.339C189.851 181.589 192.292 173.475 195.987 161.193C196.042 161.011 196.127 160.84 196.24 160.687L196.289 160.619C196.552 160.261 196.946 160.02 197.387 159.951C197.827 159.882 198.277 159.99 198.638 160.251C205.967 165.549 214.888 174.254 215.904 181.344C217.382 191.64 219.583 193.92 219.922 194.215C224.028 195.612 236.58 193.788 250.857 188.268C266.833 182.09 278.226 173.877 282.115 165.737C283.443 162.96 282.237 158.082 278.627 151.632C276.079 147.077 272.425 141.857 267.458 135.676C265.87 133.7 264.386 131.767 262.949 129.897C258.37 123.934 254.045 118.302 247.593 112.935C247.366 112.746 247.193 112.501 247.092 112.225C246.99 111.949 246.964 111.651 247.015 111.36C247.065 111.07 247.193 110.799 247.382 110.574C247.573 110.348 247.819 110.177 248.096 110.076C250.825 109.086 253.561 108.165 256.208 107.274C266.806 103.707 276.817 100.338 278.817 94.7406C280.871 88.9894 277.657 68.5328 275.939 59.4365L264.725 60.1197C264.226 64.2174 262.808 76.6558 262.808 85.7703C262.808 86.1723 262.664 86.5602 262.4 86.8645C262.136 87.1688 261.771 87.3683 261.373 87.4277C261.267 87.4428 250.71 88.9965 241.677 90.0383C227.004 91.731 221.394 94.8122 221.339 94.8454C220.953 95.056 220.499 95.1084 220.075 94.9895C219.651 94.8716 219.289 94.5925 219.07 94.2117C218.851 93.8318 218.789 93.3814 218.899 92.9562C219.011 92.5321 219.284 92.1673 219.661 91.9416C219.904 91.8016 225.782 88.4998 241.289 86.7113C248.314 85.9013 256.271 84.7788 259.455 84.3214C259.617 73.213 261.54 58.4703 261.56 58.3161C261.61 57.9302 261.795 57.5745 262.08 57.3086C262.366 57.0436 262.735 56.8854 263.125 56.8612L277.21 56.0027C277.616 55.9796 278.017 56.1035 278.339 56.3514C278.662 56.5982 278.882 56.9539 278.962 57.3519C279.575 60.4461 284.862 87.8187 281.987 95.8641C279.441 102.992 269.174 106.448 257.286 110.449C255.534 111.038 253.742 111.642 251.946 112.267C257.493 117.277 261.456 122.436 265.623 127.862C267.048 129.718 268.521 131.637 270.086 133.583C283.218 149.925 288.146 160.914 285.154 167.177C279.112 179.824 260.009 188.324 252.076 191.391C241.284 195.566 230.494 198 223.647 198ZM219.768 194.161L219.804 194.174C219.791 194.17 219.78 194.165 219.768 194.161Z" fill="black"/>
<path d="M197.371 163C197.028 163 196.693 162.89 196.416 162.688C194.616 161.374 192.748 160.158 190.819 159.045C190.443 158.83 190.17 158.474 190.057 158.057C189.944 157.64 190.001 157.194 190.215 156.82C190.431 156.444 190.785 156.169 191.201 156.057C191.618 155.944 192.062 156.001 192.437 156.216C194.468 157.387 196.434 158.667 198.328 160.049C198.607 160.252 198.814 160.537 198.92 160.865C199.027 161.193 199.027 161.546 198.92 161.873C198.813 162.201 198.607 162.486 198.328 162.689C198.049 162.891 197.714 163 197.371 163Z" fill="black"/>
<path d="M184.263 124.997C183.235 125.025 182.21 124.876 181.231 124.557C180.745 124.38 176.446 122.705 175.281 118.501C174.43 115.431 175.516 111.985 178.51 108.261C178.519 108.25 178.528 108.239 178.537 108.228C178.709 108.024 182.848 103.205 190.473 99.5492C201.885 94.0776 210.72 96.5346 211.091 96.6421C212.649 97.0753 213.999 98.0613 214.89 99.4167C215.782 100.772 216.155 102.406 215.941 104.018C215.646 106.036 214.652 108.129 212.99 110.243C205.938 119.205 191.833 124.997 184.263 124.997ZM181.055 110.364C178.781 113.198 177.906 115.637 178.453 117.613C179.189 120.264 182.322 121.432 182.353 121.444C184.146 122.098 189.067 121.484 194.997 119.048C201.443 116.401 207.059 112.442 210.407 108.189C211.706 106.536 212.472 104.971 212.683 103.535C212.782 102.717 212.583 101.892 212.123 101.209C211.665 100.527 210.975 100.036 210.183 99.8251C210.106 99.8031 202.112 97.637 191.892 102.538C185.081 105.805 181.288 110.094 181.055 110.364Z" fill="black"/>
<path d="M248.405 113C248.032 113 247.671 112.866 247.385 112.62C245.906 111.361 244.324 110.129 242.683 108.96C242.511 108.838 242.364 108.683 242.251 108.503C242.139 108.323 242.062 108.122 242.025 107.912C241.951 107.487 242.045 107.049 242.287 106.696C242.529 106.342 242.898 106.101 243.315 106.025C243.731 105.95 244.16 106.046 244.506 106.293C246.224 107.515 247.881 108.805 249.43 110.125C249.68 110.34 249.86 110.627 249.946 110.95C250.03 111.273 250.016 111.614 249.905 111.927C249.792 112.241 249.589 112.512 249.321 112.704C249.053 112.895 248.733 112.998 248.406 112.998L248.405 113Z" fill="black"/>
<path d="M170.496 176C170.174 176.001 169.86 175.919 169.585 175.765C169.312 175.61 169.09 175.389 168.946 175.126L165.186 168.306C165.038 168.036 164.976 167.734 165.008 167.434C165.041 167.133 165.166 166.847 165.37 166.609C165.572 166.371 165.846 166.192 166.156 166.091C166.467 165.991 166.802 165.973 167.124 166.04L174.643 167.631C174.867 167.676 175.078 167.762 175.265 167.883C175.452 168.004 175.611 168.158 175.734 168.335C175.855 168.513 175.937 168.711 175.976 168.917C176.014 169.124 176.007 169.335 175.956 169.54C175.904 169.744 175.809 169.938 175.676 170.108C175.543 170.278 175.373 170.423 175.179 170.533C174.985 170.644 174.768 170.718 174.542 170.751C174.317 170.785 174.085 170.777 173.862 170.729L169.953 169.902L172.042 173.691C172.176 173.934 172.24 174.204 172.227 174.475C172.215 174.746 172.127 175.01 171.972 175.242C171.817 175.473 171.6 175.663 171.341 175.796C171.083 175.929 170.791 175.999 170.495 175.999L170.496 176Z" fill="black"/>
<path d="M189.694 167C189.291 167 188.902 166.856 188.597 166.592C188.29 166.329 188.087 165.963 188.022 165.561C187.958 165.159 188.037 164.747 188.245 164.399C188.452 164.05 188.776 163.788 189.158 163.659L196.772 161.088C196.983 161.017 197.206 160.988 197.427 161.005C197.648 161.02 197.865 161.08 198.064 161.181C198.262 161.281 198.44 161.421 198.585 161.59C198.731 161.76 198.843 161.958 198.913 162.172C198.983 162.385 199.012 162.611 198.996 162.836C198.98 163.059 198.921 163.279 198.821 163.48C198.723 163.682 198.585 163.862 198.417 164.009C198.249 164.156 198.055 164.269 197.844 164.341L190.229 166.911C190.057 166.97 189.876 167 189.694 167Z" fill="black"/>
<path d="M198.805 134.999C197.707 135.015 196.616 134.812 195.599 134.403C194.737 134.062 193.966 133.534 193.343 132.856C192.72 132.178 192.26 131.369 192 130.492L195.28 129.709L195.273 129.679C195.414 130.066 195.641 130.418 195.936 130.71C196.23 131.002 196.586 131.226 196.978 131.368C198.312 131.892 201.553 132.184 208.273 128.266C217.747 122.743 225.41 113.256 226.495 105.705C226.946 102.564 226.255 100.007 224.438 98.1047C217.172 90.4953 208.099 96.6622 207.715 96.9291C207.681 96.9531 207.64 96.9791 207.604 97.0011C206.908 97.4259 206.272 97.9347 205.708 98.5175C205.56 98.6795 205.38 98.8114 205.18 98.9064C204.98 99.0004 204.764 99.0543 204.543 99.0663C204.321 99.0773 204.1 99.0463 203.891 98.9734C203.682 98.9014 203.49 98.7884 203.326 98.6425C203.16 98.4965 203.026 98.3206 202.931 98.1237C202.835 97.9267 202.781 97.7128 202.768 97.4949C202.756 97.277 202.789 97.059 202.862 96.8531C202.936 96.6472 203.05 96.4582 203.198 96.2953C203.973 95.4786 204.854 94.7668 205.819 94.18C207.918 92.8205 210.256 91.8588 212.712 91.344C216.492 90.5722 222.023 90.7242 226.895 95.8275C229.412 98.4636 230.429 102.04 229.835 106.172C228.599 114.774 220.438 125.036 209.992 131.126C205.569 133.705 201.824 134.999 198.805 134.999Z" fill="black"/>
<path d="M186.537 133C184.734 133.008 182.941 132.742 181.225 132.215C180.35 131.946 179.519 131.563 178.756 131.076C171.879 126.651 174.449 115.711 174.562 115.248C174.612 115.042 174.705 114.847 174.834 114.675C174.964 114.502 175.127 114.356 175.316 114.244C175.505 114.132 175.715 114.056 175.934 114.022C176.153 113.988 176.378 113.993 176.594 114.042C176.811 114.089 177.015 114.178 177.196 114.301C177.377 114.424 177.531 114.579 177.648 114.758C177.766 114.939 177.845 115.138 177.881 115.347C177.918 115.556 177.911 115.769 177.861 115.976C177.839 116.066 175.702 125.221 180.652 128.405C181.153 128.724 181.699 128.975 182.273 129.15C189.214 131.303 197.126 127.412 202.54 123.768C206.353 121.169 209.874 118.203 213.046 114.914C213.345 114.598 213.761 114.406 214.206 114.381C214.652 114.356 215.09 114.499 215.426 114.78C215.761 115.061 215.965 115.455 215.996 115.88C216.027 116.304 215.88 116.721 215.589 117.043C214.916 117.771 200.674 133 186.537 133Z" fill="black"/>
<path d="M239.118 188C238.793 188 238.476 187.906 238.204 187.73C237.932 187.553 237.719 187.302 237.589 187.007L234.807 180.678C234.691 180.414 234.646 180.124 234.679 179.837C234.69 179.743 235.708 170.269 233.128 164.145C232.977 163.787 232.959 163.388 233.076 163.018C233.192 162.648 233.437 162.33 233.767 162.121L257.131 147.262C257.421 147.077 257.762 146.987 258.107 147.002C258.452 147.016 258.783 147.137 259.056 147.346L272.685 157.802C272.96 158.013 273.161 158.304 273.26 158.632L274.929 164.136C275.045 164.516 275.018 164.924 274.854 165.286C274.611 165.821 268.581 178.494 239.641 187.917C239.472 187.972 239.296 188 239.118 188ZM238.04 179.755L240.038 184.302C263.031 176.514 270.13 166.722 271.531 164.423L270.216 160.088L257.942 150.671L236.701 164.18C238.733 170.207 238.216 177.822 238.04 179.755Z" fill="black"/>
<path d="M266.241 89C266.088 89 265.937 88.9798 265.79 88.9403L260.284 87.4766C259.839 87.3509 259.461 87.0537 259.232 86.6499C259.002 86.2461 258.941 85.7678 259.058 85.3183C259.177 84.8687 259.466 84.4841 259.863 84.2476C260.261 84.0101 260.735 83.9397 261.184 84.0527L266.689 85.5164C267.065 85.6165 267.397 85.8392 267.634 86.1481C267.871 86.4582 268 86.8385 268 87.2294C268 87.3818 267.98 87.5341 267.942 87.6822C267.842 88.0593 267.621 88.3938 267.314 88.6325C267.006 88.87 266.629 89 266.241 89Z" fill="black"/>
<path d="M264.296 92C264.029 92 263.766 91.9402 263.529 91.8236C263.291 91.708 263.083 91.5396 262.925 91.3314L259.336 86.6452C259.066 86.2925 258.952 85.8501 259.018 85.4156C259.084 84.9802 259.325 84.5896 259.688 84.3265C260.051 84.0645 260.507 83.9539 260.954 84.0176C261.402 84.0814 261.805 84.3156 262.075 84.6683L265.663 89.3545C265.852 89.6006 265.966 89.8936 265.993 90.1995C266.021 90.5054 265.961 90.8123 265.819 91.0863C265.677 91.3613 265.46 91.5915 265.191 91.7529C264.921 91.9143 264.612 91.999 264.296 92Z" fill="black"/>
<path d="M154.635 100.291C150.564 95.9455 148.21 90.2564 148.013 84.2916C147.818 78.3269 149.793 72.4959 153.57 67.8954C157.348 63.2949 162.666 60.239 168.527 59.3035C174.388 58.367 180.389 59.6147 185.404 62.8114C187.085 63.8838 192.895 103.387 178.608 107.186C174.367 108.314 169.9 108.269 165.681 107.055C161.46 105.842 157.644 103.505 154.635 100.291Z" fill="#F7AAB6"/>
<path d="M177.575 92.8003C173.533 92.4878 168.016 87.4249 169.151 83.2975C170.284 79.1711 176.556 81.09 178.067 82.2032C175.348 77.7284 178.748 66.6621 185.262 63.0149C193.518 62.6395 196.738 69.4476 198.778 71.6571C201.334 74.4267 208.106 76.2548 208.106 76.2548C208.207 79.2999 207.243 80.0966 205.757 81.136C217.071 97.9521 195.658 107.077 189.177 108" fill="white"/>
<path d="M207.091 100.401C202.265 106.055 199.812 106.371 195.622 106.982C195.398 107.015 195.17 107.003 194.95 106.946C194.73 106.89 194.523 106.79 194.341 106.652C194.16 106.515 194.006 106.343 193.892 106.147C193.776 105.95 193.699 105.732 193.667 105.505C193.634 105.278 193.646 105.048 193.702 104.826C193.758 104.604 193.856 104.395 193.992 104.212C194.127 104.028 194.297 103.874 194.492 103.757C194.687 103.64 194.902 103.563 195.127 103.531C199.461 102.898 203.564 101.685 206.604 94.813C208.314 90.9459 207.646 86.6507 204.618 82.0466C204.37 81.6689 204.277 81.2085 204.359 80.7632C204.441 80.318 204.691 79.9222 205.057 79.6597C206.007 78.9812 206.491 78.6338 206.622 77.4333C204.398 76.7063 200.028 75.0505 197.882 72.6706C197.414 72.1254 196.975 71.557 196.563 70.9673C194.548 68.1937 191.807 64.4205 186.3 64.4872C183.542 66.2491 181.104 69.9829 180.022 74.1417C179.254 77.093 179.309 79.8232 180.167 81.2671C180.373 81.6134 180.452 82.0213 180.394 82.4201C180.335 82.82 180.141 83.1865 179.844 83.4571C179.547 83.7277 179.167 83.8862 178.768 83.9044C178.369 83.9235 177.975 83.8014 177.654 83.5601C176.925 83.0088 174.165 82.0647 172.538 82.6312C172.288 82.7049 172.063 82.8452 171.887 83.0391C171.711 83.2319 171.591 83.4702 171.539 83.7277C171.178 85.0726 172.003 86.5336 172.527 87.2838C173.957 89.3334 176.453 90.9913 178.334 91.1397C178.908 91.1852 179.844 94.5939 177.824 94.5939C174.983 94.2667 171.676 92.1191 169.705 89.293C168.197 87.1313 167.665 84.8302 168.207 82.8119C168.402 82.0041 168.8 81.261 169.361 80.6522C169.921 80.0443 170.626 79.59 171.409 79.3345C172.855 78.8317 174.56 78.9165 176.084 79.2608C175.941 77.2384 176.144 75.206 176.684 73.2542C177.759 69.1186 180.495 63.7905 184.946 61.2421C185.182 61.1068 185.446 61.03 185.718 61.0169C193.356 60.6605 197.252 66.0239 199.345 68.9055C199.77 69.4902 200.137 69.996 200.433 70.3231C202.222 72.3072 207.103 73.9852 208.832 74.4659C209.187 74.5648 209.502 74.7758 209.731 75.0676C209.96 75.3604 210.09 75.7189 210.102 76.0914C210.195 78.9468 209.457 80.3927 208.331 81.4761C211.322 86.6507 211.803 91.6113 209.755 96.2366C209.071 97.7481 208.174 99.1505 207.091 100.401Z" fill="black"/>
<path d="M194.627 75.5122C193.827 73.6589 192.004 72.598 190.553 73.143C189.101 73.6889 188.574 75.6334 189.373 77.4878C190.172 79.3411 191.996 80.402 193.448 79.857C194.898 79.3111 195.427 77.3666 194.627 75.5122Z" fill="black"/>
<path d="M194.296 79.2757C194.065 79.5303 193.772 79.7281 193.441 79.854C191.984 80.4043 190.155 79.3507 189.363 77.5055C188.988 76.6718 188.901 75.7488 189.115 74.867C189.181 74.4895 189.35 74.1332 189.604 73.8345C189.859 73.5357 190.191 73.3033 190.57 73.1611C190.948 73.018 191.359 72.969 191.764 73.019C192.168 73.0689 192.553 73.2149 192.879 73.4455C193.674 73.9536 194.289 74.672 194.648 75.5096C195.007 76.3462 195.094 77.2654 194.897 78.1481C194.792 78.5621 194.587 78.9482 194.296 79.2757ZM189.636 77.4028C190.366 79.1057 192.025 80.0912 193.332 79.5975C193.658 79.4592 193.946 79.2489 194.169 78.9847C194.39 78.7206 194.543 78.4103 194.611 78.0799C194.793 77.2539 194.711 76.3952 194.375 75.6124C194.04 74.8295 193.465 74.1572 192.724 73.6798C192.437 73.4733 192.098 73.3398 191.739 73.2947C191.381 73.2486 191.016 73.2908 190.68 73.4176C190.345 73.5444 190.05 73.7509 189.826 74.017C189.601 74.283 189.455 74.599 189.4 74.9352C189.201 75.7603 189.284 76.6238 189.636 77.4028Z" fill="black"/>
<path d="M189.576 53.7327C189.377 53.9647 189.121 54.1408 188.834 54.2415C188.547 54.3432 188.238 54.3677 187.939 54.3117C187.638 54.2557 187.358 54.1214 187.126 53.923C186.894 53.7246 186.718 53.4682 186.614 53.1802C185.559 50.2396 183.067 47.6918 180.68 45.6996C180.171 54.8642 170.472 64.8113 166.532 66.8117C166.118 67.0213 165.639 67.0579 165.2 66.9114C164.76 66.7659 164.395 66.4495 164.187 66.0333C163.979 65.6172 163.943 65.1349 164.087 64.6923C164.232 64.2496 164.546 63.8833 164.958 63.6737C166.529 62.876 170.28 59.5956 173.343 55.085C175.289 52.2187 178.325 46.7506 176.79 42.3366C176.668 41.9827 176.66 41.5986 176.769 41.2404C176.878 40.8822 177.098 40.5686 177.397 40.3455C177.696 40.1222 178.058 40.0012 178.431 40C178.803 39.9988 179.166 40.1174 179.467 40.3386C182.433 42.522 187.955 46.5878 189.896 51.9877C190.001 52.2808 190.027 52.5972 189.972 52.9035C189.915 53.2108 189.779 53.4967 189.576 53.7327Z" fill="black"/>
<mask id="mask1_878_1785" style="mask-type:luminance" maskUnits="userSpaceOnUse" x="111" y="69" width="65" height="65">
<path d="M140.586 69.2046L111.839 102.546L147.174 133.012L175.921 99.6702L140.586 69.2046Z" fill="white"/>
</mask>
<g mask="url(#mask1_878_1785)">
<path d="M148.477 79.943C142.57 74.4941 124.404 83.5903 124.327 95.7431C124.22 112.222 145.467 112.79 146.423 130.058C154.472 123.451 157.895 117.721 155.329 110.744C152.81 103.891 137.79 94.2592 148.282 87.1066C147.854 85.1206 148.006 82.6407 148.477 79.943Z" fill="#F7AAB6"/>
<path d="M153.29 125.943C151.526 127.925 149.598 129.754 147.525 131.409C147.276 131.614 146.975 131.745 146.655 131.789C146.337 131.833 146.011 131.789 145.717 131.659C145.421 131.53 145.168 131.321 144.985 131.057C144.801 130.793 144.695 130.483 144.677 130.16C144.242 122.31 139.215 118.264 133.893 113.982C128.301 109.482 122.519 104.828 122.577 95.738C122.63 87.7598 129.414 81.2393 136.115 78.3168C141.715 75.8762 146.779 76.0032 149.658 78.6596C149.872 78.8572 150.033 79.1062 150.127 79.3824C150.221 79.6576 150.243 79.953 150.194 80.2413C149.717 82.9783 149.647 85.1639 149.986 86.7346C150.06 87.0753 150.03 87.4292 149.901 87.7528C149.772 88.0764 149.548 88.3536 149.261 88.5492C147.525 89.7327 146.586 90.9737 146.387 92.3437C145.944 95.4003 149.159 99.3208 151.995 102.78C154.106 105.353 156.099 107.784 156.965 110.139C159.28 116.436 157.045 121.587 153.29 125.943ZM147.716 126.633C153.832 121.014 155.565 116.459 153.688 111.352C153.024 109.55 151.213 107.339 149.293 105C146.001 100.982 142.269 96.4306 142.932 91.8507C143.232 89.7861 144.392 87.9362 146.386 86.3394C146.21 84.4683 146.275 82.5821 146.583 80.7262C144.608 79.6395 141.182 79.9167 137.506 81.5186C132.025 83.9098 126.111 89.3819 126.071 95.7531C126.021 103.158 130.686 106.911 136.086 111.258C140.825 115.072 146.118 119.332 147.717 126.632L147.716 126.633Z" fill="#F7AAB6"/>
<path d="M148.657 78.4712C148.306 81.3998 147.708 85.3677 148.448 87.7771L148.657 78.4712Z" fill="white"/>
<path d="M149.767 88.9172C149.563 89.1531 149.3 89.3306 149.004 89.4304C148.709 89.5312 148.392 89.5503 148.087 89.4858C147.782 89.4223 147.5 89.2781 147.27 89.0684C147.039 88.8588 146.87 88.5906 146.778 88.2932C145.999 85.7538 146.455 82.0711 146.821 79.1113C146.856 78.822 146.89 78.5407 146.923 78.2675C146.95 78.0387 147.02 77.8169 147.132 77.6153C147.244 77.4137 147.394 77.2362 147.575 77.0931C147.755 76.9499 147.963 76.8431 148.184 76.7806C148.405 76.717 148.637 76.6989 148.866 76.7261C149.095 76.7523 149.316 76.8249 149.516 76.9368C149.716 77.0497 149.892 77.2009 150.034 77.3824C150.176 77.5639 150.28 77.7715 150.341 77.9933C150.402 78.2151 150.419 78.447 150.389 78.6758C150.356 78.952 150.321 79.2383 150.284 79.5317C149.977 82.0227 149.555 85.4342 150.116 87.2609C150.203 87.5432 150.216 87.8436 150.155 88.1339C150.094 88.4232 149.961 88.6924 149.767 88.9172Z" fill="black"/>
<path d="M139.39 108.383C139.212 108.589 138.988 108.751 138.737 108.855C138.486 108.96 138.215 109.005 137.944 108.986C137.673 108.967 137.41 108.885 137.177 108.747C136.943 108.609 136.744 108.418 136.598 108.189C136.073 107.369 135.443 106.507 134.778 105.594C132.171 102.024 129.217 97.9762 129.88 93.108C130.738 86.8164 137.749 81.7042 141.877 81.4603C142.107 81.4451 142.336 81.4764 142.554 81.551C142.772 81.6246 142.973 81.7415 143.145 81.8938C143.317 82.047 143.457 82.2315 143.557 82.4381C143.658 82.6458 143.717 82.8706 143.73 83.1005C143.743 83.3303 143.709 83.5601 143.634 83.7779C143.557 83.9957 143.438 84.1953 143.285 84.3666C143.131 84.539 142.945 84.6782 142.737 84.778C142.529 84.8767 142.304 84.9342 142.074 84.9463C139.499 85.0985 133.949 89.0977 133.339 93.5717C132.864 97.0477 135.272 100.343 137.598 103.531C138.296 104.488 138.955 105.391 139.538 106.299C139.742 106.616 139.836 106.99 139.81 107.365C139.783 107.741 139.636 108.098 139.39 108.383Z" fill="black"/>
<path d="M151.351 122.995C151.077 123.314 150.697 123.523 150.281 123.584C149.866 123.646 149.443 123.556 149.089 123.33C148.735 123.105 148.475 122.76 148.356 122.357C148.237 121.955 148.266 121.523 148.439 121.14C150.547 116.47 150.109 114.76 148.42 111.397C147.598 109.76 146.419 108.357 145.171 106.871C142.767 104.007 140.04 100.761 140.295 95.6121C140.3 95.3792 140.351 95.1493 140.447 94.9366C140.543 94.7229 140.68 94.5314 140.851 94.3721C141.022 94.2128 141.222 94.0898 141.442 94.0092C141.661 93.9285 141.894 93.8932 142.127 93.9043C142.36 93.9154 142.587 93.9729 142.798 94.0737C143.008 94.1745 143.195 94.3166 143.35 94.491C143.504 94.6665 143.621 94.8701 143.695 95.0909C143.769 95.3116 143.798 95.5455 143.78 95.7784C143.593 99.5598 145.563 101.906 147.845 104.622C149.166 106.196 150.533 107.824 151.538 109.825C153.664 114.058 154.18 116.902 151.62 122.572C151.551 122.725 151.46 122.868 151.351 122.995Z" fill="black"/>
</g>
<path d="M179 93C179.517 93.6776 182.251 96.3017 183.36 100.621C184.468 104.94 183.951 113.068 183.212 114" stroke="black" stroke-width="3.5" stroke-linecap="round"/>
<path d="M262.077 42H267.205L278.487 43.5484L279 51.8065L275.923 58H262.59L261.051 56.4516L259 51.8065V45.0968L262.077 42Z" fill="white"/>
<path d="M84 196C92.5072 190.161 102.601 189.962 112 192.713" stroke="black" stroke-width="3" stroke-linecap="round"/>
<path d="M271 48.5263L263.826 58L260 52.2105L261.435 48H267.174L271 48.5263Z" fill="white"/>
<path d="M263.377 60C262.936 60 262.514 59.8254 262.202 59.5142C261.89 59.2039 261.715 58.7819 261.715 58.342C261.715 57.7674 261.137 56.8007 260.578 55.865C259.867 54.6768 259.06 53.3261 258.683 51.7339C257.941 48.5925 257.248 44.0893 259.789 41.2611C261.462 39.3974 264.169 38.6801 267.838 39.1304C276.182 40.154 280.556 40.9722 280.965 47.0751C281.168 50.1058 280.444 52.0711 279.805 53.8049C279.347 55.0489 278.951 56.1203 278.951 57.492C278.951 57.932 278.776 58.354 278.464 58.6652C278.153 58.9755 277.73 59.15 277.289 59.15C276.848 59.15 276.425 58.9755 276.113 58.6652C275.802 58.354 275.627 57.932 275.627 57.492C275.627 55.5298 276.164 54.0703 276.685 52.6597C277.261 51.0974 277.805 49.623 277.649 47.2966C277.45 44.3377 276.485 43.5327 267.433 42.4223C264.909 42.1128 263.169 42.4668 262.264 43.4748C260.588 45.3403 261.59 49.5791 261.919 50.9727C262.178 52.0661 262.816 53.1335 263.432 54.1651C264.259 55.5477 265.039 56.8536 265.039 58.341C265.039 58.5595 264.996 58.775 264.912 58.9765C264.829 59.177 264.706 59.3605 264.552 59.5142C264.398 59.6688 264.215 59.7905 264.013 59.8743C263.812 59.9571 263.595 60 263.377 60Z" fill="black"/>
<path d="M258.666 54C258.289 53.3401 258.067 52.6114 258.013 51.8617C257.959 51.1121 258.076 50.3605 258.355 49.6587C259.16 47.6819 261.217 46.1966 264.466 45.2446C265.869 44.8329 267.566 45.0193 269.533 45.2346C270.444 45.3343 271.386 45.437 272.297 45.4749C272.691 45.4908 273.068 45.6354 273.365 45.8826C273.662 46.1308 273.862 46.4677 273.931 46.8386C273.977 47.0808 274.332 49.255 272.834 51.0044C271.936 52.0541 270.629 52.6742 268.941 52.8546L268.629 53.2374C268.489 53.4089 268.315 53.5534 268.117 53.6611C267.918 53.7677 267.7 53.8375 267.475 53.8644C267.248 53.8913 267.018 53.8754 266.799 53.8176C266.579 53.7598 266.374 53.6611 266.193 53.5275C266.013 53.3939 265.863 53.2284 265.75 53.039C265.637 52.8496 265.565 52.6413 265.537 52.425C265.509 52.2086 265.526 51.9903 265.586 51.78C265.646 51.5707 265.749 51.3743 265.889 51.2018L266.678 50.2349C266.835 50.0415 267.037 49.883 267.268 49.7723C267.498 49.6617 267.75 49.6019 268.008 49.5959C268.728 49.5799 269.682 49.4483 270.147 48.9051C270.213 48.8273 270.27 48.7416 270.317 48.6519C269.918 48.613 269.525 48.5691 269.136 48.5273C267.691 48.3688 266.194 48.2053 265.484 48.4126C263.389 49.0267 262.01 49.884 261.603 50.827C261.506 51.0722 261.461 51.3334 261.474 51.5946C261.486 51.8568 261.555 52.1129 261.675 52.3482L261.661 52.3213L258.666 54Z" fill="black"/>
<path opacity="0.34" d="M453.354 66.3332L359.266 92.5976C354.575 93.9072 351.808 98.6805 353.086 103.259L379.464 197.755C380.743 202.334 385.582 204.984 390.273 203.674L484.361 177.41C489.052 176.1 491.819 171.327 490.541 166.748L464.163 72.2524C462.885 67.6738 458.046 65.0237 453.354 66.3332Z" fill="#E8E7FB"/>
<g filter="url(#filter0_d_878_1785)">
<path d="M434.289 59.8388L347.257 84.1336C342.697 85.4066 339.998 90.0129 341.229 94.4222L365.676 182.001C366.907 186.41 371.601 188.953 376.161 187.68L463.194 163.385C467.754 162.112 470.453 157.505 469.222 153.096L444.775 65.5177C443.544 61.1084 438.849 58.5659 434.289 59.8388Z" fill="white"/>
<path d="M423.108 141.801C423.228 142.232 423.172 142.694 422.952 143.083C422.733 143.473 422.367 143.76 421.936 143.88L405.682 148.417C405.251 148.538 404.79 148.482 404.4 148.262C404.01 148.042 403.724 147.677 403.603 147.246C403.483 146.815 403.539 146.353 403.758 145.964C403.978 145.574 404.344 145.287 404.775 145.167L421.028 140.63C421.46 140.509 421.921 140.565 422.311 140.785C422.701 141.005 422.987 141.37 423.108 141.801ZM423.975 113.527C424.738 116.234 424.873 119.081 424.369 121.848C423.864 124.616 422.734 127.232 421.065 129.496C420.752 129.913 420.538 130.396 420.439 130.908C420.341 131.42 420.361 131.947 420.497 132.451L420.839 133.674C421.079 134.537 420.966 135.458 420.527 136.238C420.088 137.018 419.357 137.591 418.496 137.833L405.493 141.462C404.631 141.702 403.709 141.59 402.929 141.15C402.15 140.711 401.576 139.981 401.335 139.119L400.993 137.894C400.853 137.397 400.602 136.939 400.258 136.554C399.914 136.17 399.487 135.869 399.009 135.675C396.417 134.612 394.102 132.973 392.237 130.882C390.372 128.792 389.007 126.305 388.245 123.609C385.489 113.941 391.065 103.692 400.676 100.764C403.044 100.041 405.532 99.7993 407.994 100.052C410.456 100.306 412.843 101.049 415.014 102.238C417.185 103.427 419.096 105.038 420.635 106.977C422.174 108.916 423.309 111.143 423.975 113.527V113.527ZM413.88 116.858C413.49 116.638 413.028 116.583 412.597 116.703C412.166 116.823 411.801 117.11 411.581 117.5L407.723 124.346L400.877 120.488C400.487 120.268 400.025 120.212 399.594 120.333C399.163 120.453 398.798 120.74 398.578 121.13C398.358 121.519 398.302 121.981 398.423 122.412C398.543 122.843 398.83 123.208 399.22 123.428L406.927 127.772L409.008 135.225C409.128 135.656 409.415 136.022 409.805 136.241C410.195 136.461 410.656 136.517 411.087 136.397C411.518 136.276 411.883 135.99 412.103 135.6C412.323 135.21 412.379 134.749 412.258 134.318L410.178 126.864L414.521 119.157C414.63 118.964 414.7 118.751 414.726 118.531C414.753 118.311 414.736 118.088 414.676 117.875C414.617 117.661 414.516 117.461 414.379 117.287C414.242 117.113 414.073 116.967 413.88 116.858Z" fill="url(#paint0_linear_878_1785)"/>
</g>
<g opacity="0.7" filter="url(#filter1_d_878_1785)">
<rect x="345.16" y="89.9102" width="25" height="25" rx="12.5" transform="rotate(-15.5969 345.16 89.9102)" fill="url(#paint1_linear_878_1785)"/>
</g>
<path opacity="0.99" fill-rule="evenodd" clip-rule="evenodd" d="M365.818 90.1903C366.48 91.0859 368.654 94.0262 369.835 95.6235C369.986 95.8277 370.16 96.2721 370.16 96.2721C370.16 96.2721 370.216 96.7792 370.18 97.0507C369.969 98.6474 369.602 101.413 369.421 102.78C369.355 103.279 369.228 103.518 369.228 103.518C369.228 103.518 368.966 103.848 368.792 103.977C367.283 105.095 364.573 107.103 363.531 107.875C363.265 108.072 363.07 108.134 363.07 108.134C363.07 108.134 362.909 108.156 362.649 108.121C361.439 107.961 357.887 107.497 355.911 107.235C355.774 107.217 355.465 107.052 355.465 107.052C355.465 107.052 355.295 106.906 355.192 106.769C353.866 105.002 352.541 103.236 351.216 101.47C351.091 101.303 350.969 100.933 350.969 100.933C350.969 100.933 350.907 100.472 350.94 100.223C351.163 98.5545 351.556 95.6193 351.731 94.3039C351.787 93.8874 351.896 93.6747 351.896 93.6747C351.896 93.6747 352.035 93.4728 352.386 93.2086C353.526 92.3521 356.116 90.4052 357.584 89.3017C357.772 89.1608 358.183 89.0072 358.183 89.0072C358.183 89.0072 358.586 88.9404 358.806 88.9711C360.684 89.2339 364.117 89.7141 365.248 89.8723C365.485 89.9054 365.59 89.9642 365.59 89.9642C365.59 89.9642 365.692 90.0207 365.818 90.1903ZM358.948 92.383C358.905 92.395 358.863 92.4082 358.821 92.4227L358.773 92.4346L358.736 92.4458C357.619 92.8426 357.038 94.0145 357.38 95.1697C357.714 96.2985 358.595 97.3136 359.959 98.1564L359.777 98.7255C359.75 98.8241 359.724 98.9189 359.699 99.0125C358.698 98.6872 357.676 98.5027 356.919 98.5163C356.646 98.5219 356.426 98.7429 356.427 99.0146C356.429 99.2892 356.656 99.5059 356.931 99.5007C357.571 99.4886 358.528 99.6669 359.457 99.975C359.065 101.64 359.042 102.392 359.254 103.176C359.393 103.686 359.742 104.105 360.234 104.354C360.722 104.601 361.296 104.655 361.83 104.506C361.879 104.492 361.929 104.477 361.977 104.459L362.099 104.416C363.175 104.034 363.751 102.868 363.41 101.763C363.141 100.893 362.279 100.062 360.633 99.361C360.663 99.2455 360.696 99.1234 360.732 98.9932L360.843 98.6446C361.061 98.7522 361.286 98.8556 361.518 98.9546C362.901 99.5444 364.602 99.9815 365.303 100.035C365.575 100.056 365.815 99.8569 365.84 99.5867C365.845 99.5294 365.84 99.4732 365.823 99.4064C365.766 99.2095 365.593 99.0695 365.386 99.0538C364.796 99.0085 363.201 98.5977 361.917 98.0505C361.655 97.9388 361.398 97.8191 361.15 97.6916L361.253 97.3696C361.66 95.937 361.876 94.5254 361.583 93.7105C361.39 93.1718 360.991 92.7415 360.464 92.5003C359.987 92.2824 359.455 92.2415 358.948 92.383ZM360.297 97.1077L360.273 97.1824C359.27 96.5213 358.591 95.7565 358.334 94.8877C358.144 94.243 358.449 93.5992 359.047 93.3791L359.083 93.3709L359.128 93.3572C359.431 93.2499 359.755 93.2633 360.042 93.3948C360.328 93.5251 360.542 93.7563 360.646 94.0461C360.823 94.5383 360.661 95.8211 360.297 97.1077ZM360.691 103.477C360.447 103.354 360.28 103.155 360.215 102.915C360.055 102.322 360.062 101.781 360.393 100.336C361.511 100.835 362.269 101.444 362.458 102.057C362.648 102.669 362.351 103.283 361.768 103.49L361.646 103.533C361.617 103.544 361.592 103.552 361.568 103.558C361.276 103.64 360.953 103.61 360.691 103.477Z" fill="#DCDCDC"/>
<g clip-path="url(#clip1_878_1785)">
<path d="M66.1562 109C63.4234 109 61.1875 106.773 61.1875 104.05C61.1875 101.328 63.4234 99.1 66.1562 99.1C66.7359 99.1 67.2991 99.2155 67.8125 99.397V85.9L51.25 90.025V107.35C51.25 110.073 49.0141 112.3 46.2812 112.3C43.5484 112.3 41.3125 110.073 41.3125 107.35C41.3125 104.628 43.5484 102.4 46.2812 102.4C46.8609 102.4 47.4241 102.516 47.9375 102.697V90.025C47.9375 88.507 48.9644 87.187 50.455 86.824L67.0175 82.699C68.0113 82.4515 69.0547 82.666 69.8497 83.293C70.6612 83.92 71.125 84.877 71.125 85.9V104.05C71.125 106.773 68.8891 109 66.1562 109ZM81.0625 115.6V95.8L85.0375 98.77C85.7662 99.3145 86.8097 99.166 87.3562 98.44C87.9028 97.714 87.7538 96.6745 87.025 96.13L83.05 93.16C82.0397 92.401 80.7147 92.2855 79.5884 92.8465C78.4622 93.4075 77.75 94.546 77.75 95.8V111.228C76.9881 110.865 76.16 110.65 75.2656 110.65C72.0691 110.65 69.4688 113.241 69.4688 116.425C69.4688 119.61 72.0691 122.2 75.2656 122.2C78.4622 122.2 81.0625 119.61 81.0625 116.425V115.6Z" fill="black"/>
</g>
</g>
<defs>
<filter id="filter0_d_878_1785" x="336.931" y="59.5107" width="136.588" height="136.497" filterUnits="userSpaceOnUse" color-interpolation-filters="sRGB">
<feFlood flood-opacity="0" result="BackgroundImageFix"/>
<feColorMatrix in="SourceAlpha" type="matrix" values="0 0 0 0 0 0 0 0 0 0 0 0 0 0 0 0 0 0 127 0" result="hardAlpha"/>
<feOffset dy="4"/>
<feGaussianBlur stdDeviation="2"/>
<feColorMatrix type="matrix" values="0 0 0 0 0 0 0 0 0 0 0 0 0 0 0 0 0 0 0.05 0"/>
<feBlend mode="normal" in2="BackgroundImageFix" result="effect1_dropShadow_878_1785"/>
<feBlend mode="normal" in="SourceGraphic" in2="effect1_dropShadow_878_1785" result="shape"/>
</filter>
<filter id="filter1_d_878_1785" x="335.16" y="77.1885" width="50.8013" height="50.8013" filterUnits="userSpaceOnUse" color-interpolation-filters="sRGB">
<feFlood flood-opacity="0" result="BackgroundImageFix"/>
<feColorMatrix in="SourceAlpha" type="matrix" values="0 0 0 0 0 0 0 0 0 0 0 0 0 0 0 0 0 0 127 0" result="hardAlpha"/>
<feOffset dy="4"/>
<feGaussianBlur stdDeviation="5"/>
<feComposite in2="hardAlpha" operator="out"/>
<feColorMatrix type="matrix" values="0 0 0 0 0 0 0 0 0 0 0 0 0 0 0 0 0 0 0.02 0"/>
<feBlend mode="normal" in2="BackgroundImageFix" result="effect1_dropShadow_878_1785"/>
<feBlend mode="normal" in="SourceGraphic" in2="effect1_dropShadow_878_1785" result="shape"/>
</filter>
<linearGradient id="paint0_linear_878_1785" x1="399.862" y1="100.076" x2="413.978" y2="150.643" gradientUnits="userSpaceOnUse">
<stop stop-color="#FFADB0"/>
<stop offset="0.54" stop-color="#D19CCD"/>
<stop offset="1" stop-color="#9183F6"/>
</linearGradient>
<linearGradient id="paint1_linear_878_1785" x1="357.66" y1="89.9102" x2="357.66" y2="114.91" gradientUnits="userSpaceOnUse">
<stop stop-color="#F5E5EA"/>
<stop offset="1" stop-color="white"/>
</linearGradient>
<clipPath id="clip0_878_1785">
<rect width="719" height="312" fill="white"/>
</clipPath>
<clipPath id="clip1_878_1785">
<rect width="53" height="66" fill="white" transform="translate(38 76)"/>
</clipPath>
</defs>
</svg>
