<svg width="172" height="32" viewBox="0 0 172 32" fill="none" xmlns="http://www.w3.org/2000/svg">
<g clip-path="url(#clip0_884_120)">
<path fill-rule="evenodd" clip-rule="evenodd" d="M87.1202 19.6107C87.1202 21.5765 86.4679 22.8709 85.1633 23.4939C84.7154 23.6903 84.2407 23.8201 83.7545 23.8791C83.0378 23.9667 82.3157 24.0047 81.5936 23.9927H66.2949V7.99906H80.8797C81.6579 7.98309 82.4362 8.03167 83.2063 8.14428C83.7293 8.21975 84.2358 8.38198 84.7043 8.62415C85.2931 8.92028 85.7678 9.39932 86.0557 9.98801C86.3582 10.6849 86.4997 11.4399 86.47 12.198C86.47 13.6207 86.1216 14.6036 85.4246 15.1466C85.176 15.3396 84.8986 15.4929 84.6023 15.6013C84.1746 15.7298 83.7378 15.8269 83.2956 15.8917C83.8764 15.9262 84.4527 16.015 85.0167 16.1569C85.393 16.2532 85.7462 16.4227 86.0557 16.6557C86.7696 17.2177 87.1202 18.2027 87.1202 19.6107ZM81.5936 12.9872C81.6256 12.6944 81.5533 12.3997 81.3892 12.1541C81.2251 11.9085 80.9794 11.7275 80.6948 11.6423C80.5286 11.6086 80.3604 11.5854 80.1912 11.5729C80.0255 11.5729 79.7131 11.5729 79.2414 11.5729H71.114V14.4016H79.4008C79.7562 14.4095 80.1118 14.3947 80.4653 14.3574C80.6592 14.335 80.8472 14.2772 81.0199 14.1869C81.2185 14.0594 81.3774 13.8796 81.4787 13.6678C81.58 13.4559 81.6198 13.2202 81.5936 12.9872ZM82.1737 19.0109C82.2202 18.7142 82.1586 18.4107 81.9997 18.155C81.8408 17.8993 81.5951 17.708 81.3067 17.6155C81.1564 17.5675 80.9993 17.5441 80.8414 17.546C80.6629 17.546 80.3123 17.546 79.7769 17.546H71.1076V20.4758H80.5291C80.6649 20.4848 80.8012 20.4848 80.937 20.4758C81.0271 20.4637 81.1165 20.4468 81.2048 20.4253C81.288 20.4118 81.3693 20.3884 81.447 20.3558C81.7008 20.2418 81.9099 20.0486 82.0422 19.8057C82.1746 19.5628 82.223 19.2836 82.18 19.0109H82.1737Z" fill="#5C6380"/>
<path fill-rule="evenodd" clip-rule="evenodd" d="M108.296 23.9922L106.696 21.1382H96.2549L94.7314 23.9922H89.1602L98.2374 7.99219H104.829L113.67 23.9922H108.296ZM101.488 11.4271L98.0461 17.8107H104.975L101.488 11.4271Z" fill="#5C6380"/>
<path fill-rule="evenodd" clip-rule="evenodd" d="M130.167 24L120.522 11.959L120.643 24H115.92V8H123.748L133.533 20.161L133.411 8H138.058V24H130.167Z" fill="#5C6380"/>
<path fill-rule="evenodd" clip-rule="evenodd" d="M162.497 18.6953C162.497 19.3267 162.497 19.8382 162.427 20.3054C162.388 20.7043 162.307 21.0979 162.185 21.4799C162.079 21.7937 161.933 22.0929 161.751 22.3702C161.57 22.6095 161.355 22.8221 161.114 23.0016C160.782 23.2386 160.425 23.4397 160.049 23.6014C159.54 23.7772 159.012 23.8896 158.475 23.9361C157.793 23.9992 156.9 24.0434 155.785 24.056C154.669 24.0687 153.235 24.1065 151.425 24.1065C150.277 24.1065 149.308 24.1065 148.518 24.056C147.727 24.0055 147.052 23.9676 146.484 23.8919C146.006 23.8281 145.535 23.7224 145.076 23.5762C144.702 23.4412 144.345 23.2654 144.011 23.0521C143.626 22.8095 143.289 22.4992 143.017 22.1365C142.728 21.7114 142.513 21.2421 142.379 20.7474C142.198 20.0568 142.082 19.3507 142.035 18.6385C141.971 17.805 141.939 16.7948 141.939 15.614C141.939 14.5575 141.971 13.6609 142.035 12.9242C142.081 12.2825 142.197 11.6474 142.379 11.03C142.522 10.5704 142.751 10.1418 143.055 9.76715C143.358 9.42158 143.718 9.12914 144.12 8.90212C144.49 8.69394 144.88 8.52464 145.286 8.39699C145.758 8.23739 146.245 8.12527 146.739 8.06234C147.414 7.97069 148.093 7.91378 148.773 7.89185C149.576 7.86028 150.545 7.84766 151.68 7.84766C152.954 7.84766 154.025 7.84766 154.899 7.84766C155.772 7.84766 156.531 7.88554 157.13 7.91711C157.625 7.93968 158.119 7.98815 158.609 8.06234C158.944 8.11472 159.275 8.19499 159.597 8.30227C160.461 8.53837 161.199 9.09748 161.656 9.86186C162.132 10.822 162.352 11.8874 162.293 12.9558V13.5556H157.595C157.596 13.2117 157.537 12.8701 157.423 12.5454C157.365 12.4098 157.278 12.2882 157.168 12.1891C157.058 12.0899 156.927 12.0154 156.786 11.9708C156.353 11.7998 155.893 11.7099 155.428 11.7056C154.829 11.674 154.019 11.6614 153.005 11.6614C152.489 11.6614 151.992 11.6614 151.527 11.6614C151.061 11.6614 150.628 11.6614 150.252 11.6614C149.876 11.6614 149.563 11.6614 149.302 11.6614C149.134 11.6477 148.966 11.6477 148.798 11.6614C148.28 11.7182 147.795 11.9397 147.415 12.2928C147.095 12.7184 146.909 13.2279 146.88 13.7577C146.88 13.9345 146.88 14.2565 146.835 14.7174C146.79 15.1784 146.835 15.6077 146.835 16.0371C146.823 16.7756 146.863 17.5141 146.956 18.247C147.012 18.7111 147.239 19.1384 147.594 19.4467C148.033 19.7573 148.552 19.9389 149.092 19.9708C149.729 20.0339 150.653 20.0655 151.782 20.0655H154.134L155.536 20.2044C155.805 20.1875 156.071 20.1473 156.333 20.0844C156.518 20.0384 156.698 19.9728 156.868 19.8887C157.151 19.7621 157.378 19.5376 157.506 19.2573C157.663 18.8553 157.73 18.4246 157.703 17.9945H162.472L162.497 18.6953Z" fill="#5C6380"/>
<path d="M171.288 8H166.373V24H171.288V8Z" fill="#5C6380"/>
<path d="M4.30257e-06 16C-0.00279845 12.1945 1.3638 8.51269 3.85449 5.61531C6.34518 2.71794 9.79688 0.794762 13.59 0.190986C17.3832 -0.41279 21.2694 0.342369 24.5511 2.32092C27.8328 4.29946 30.2952 7.37184 31.4961 10.9866C32.6987 7.37244 35.1618 4.30091 38.4437 2.32287C41.7256 0.344829 45.6116 -0.410311 49.4048 0.192888C53.1979 0.796087 56.65 2.71816 59.1419 5.61438C61.6338 8.5106 63.0025 12.1915 63.0025 15.9968C63.0025 19.8022 61.6338 23.4831 59.1419 26.3793C56.65 29.2755 53.1979 31.1976 49.4048 31.8008C45.6116 32.404 41.7256 31.6488 38.4437 29.6708C35.1618 27.6928 32.6987 24.6212 31.4961 21.0071C30.2953 24.6213 27.8335 27.6933 24.5525 29.6719C21.2714 31.6505 17.3859 32.4061 13.5932 31.8032C9.80045 31.2002 6.3488 29.2782 3.85759 26.382C1.36639 23.4857 -0.00127971 19.8049 4.30257e-06 16Z" fill="#5C6380"/>
<path fill-rule="evenodd" clip-rule="evenodd" d="M26.2371 19.0366C26.2371 17.376 25.8993 16.1763 25.2491 15.4565C24.4969 14.5978 23.5025 14.3074 21.0802 14.1937C19.7734 14.1432 18.8045 14.1179 18.5304 14.1179H13.9344C13.2954 14.1591 12.6538 14.1273 12.0221 14.0232C11.7146 13.9855 11.4326 13.8348 11.2319 13.6009C11.0312 13.3671 10.9265 13.0671 10.9384 12.7604C10.9384 11.8764 11.3719 11.5355 12.583 11.4407C13.3352 11.3966 15.5153 11.3208 17.0452 11.3208C20.3662 11.3208 20.8252 11.5165 20.8252 12.9056H25.5614C25.5614 10.1464 25.026 9.04138 23.4069 8.44154C22.1702 7.98692 20.8889 7.89221 16.1655 7.89221C14.1431 7.83421 12.1191 7.92285 10.1098 8.1574C7.10739 8.53625 6.06836 9.83696 6.06836 13.0256C6.06836 15.5512 6.74405 16.7699 8.43965 17.3445C9.26196 17.6286 10.6707 17.7486 13.0165 17.7486H17.4786C18.2864 17.723 19.0949 17.7398 19.9009 17.7991C20.8953 17.8938 21.3798 18.3484 21.3798 19.1629C21.3798 20.5836 20.7423 20.7225 15.0053 20.7225C13.9765 20.7382 12.9477 20.6833 11.9265 20.5583C11.1998 20.3879 11.0341 20.1037 10.9831 18.904H6.13848C6.13848 19.264 6.13848 19.6681 6.13848 19.8385C6.13848 22.1179 6.91616 23.2671 8.73288 23.7217C9.91853 24.0374 11.5631 24.1321 15.2221 24.1321C17.4856 24.1772 19.7499 24.0971 22.0045 23.8922C25.077 23.5639 26.2371 22.2505 26.2371 19.0366Z" fill="white"/>
<path fill-rule="evenodd" clip-rule="evenodd" d="M50.3581 17.8122L46.8458 11.4286L43.4036 17.8122H50.3581ZM59.0273 23.9937H53.6473L52.0537 21.1397H41.6378L40.0888 23.9937H34.5176L43.6012 8H50.186L59.0273 23.9937Z" fill="white"/>
<path fill-rule="evenodd" clip-rule="evenodd" d="M81.5936 12.9872C81.6256 12.6944 81.5533 12.3997 81.3892 12.1541C81.2251 11.9085 80.9794 11.7275 80.6948 11.6423C80.5286 11.6086 80.3604 11.5854 80.1912 11.5729C80.0255 11.5729 79.7131 11.5729 79.2414 11.5729H71.114V14.4016H79.4008C79.7562 14.4095 80.1118 14.3947 80.4653 14.3574C80.6592 14.335 80.8472 14.2772 81.0199 14.1869C81.2185 14.0594 81.3774 13.8796 81.4787 13.6678C81.58 13.4559 81.6198 13.2202 81.5936 12.9872ZM82.1737 19.0109C82.2202 18.7142 82.1586 18.4107 81.9997 18.155C81.8408 17.8993 81.5951 17.708 81.3067 17.6155C81.1564 17.5675 80.9993 17.5441 80.8414 17.546C80.6629 17.546 80.3123 17.546 79.7769 17.546H71.1076V20.4758H80.5291C80.6649 20.4848 80.8012 20.4848 80.937 20.4758L81.2048 20.4253C81.288 20.4118 81.3693 20.3884 81.447 20.3558C81.7008 20.2418 81.9099 20.0486 82.0422 19.8057C82.1746 19.5628 82.223 19.2836 82.18 19.0109H82.1737ZM87.1139 19.6107C87.1139 21.5765 86.4615 22.8709 85.1569 23.4939C84.709 23.6903 84.2343 23.8201 83.7482 23.8791C83.0335 23.9664 82.3136 24.0044 81.5936 23.9927H66.2949V7.99906H80.8797C81.6579 7.98309 82.4362 8.03167 83.2063 8.14428C83.7293 8.21975 84.2358 8.38198 84.7043 8.62415C85.2931 8.92028 85.7678 9.39932 86.0557 9.98801C86.3582 10.6849 86.4997 11.4399 86.47 12.198C86.47 13.6207 86.1216 14.6036 85.4246 15.1466C85.176 15.3396 84.8986 15.4929 84.6023 15.6013C84.1746 15.7298 83.7378 15.8269 83.2956 15.8917C83.8764 15.9262 84.4527 16.015 85.0167 16.1569C85.393 16.2532 85.7462 16.4227 86.0557 16.6557C86.7696 17.2177 87.1202 18.2027 87.1202 19.6107H87.1139Z" fill="#5C6380"/>
<path fill-rule="evenodd" clip-rule="evenodd" d="M101.488 11.4271L98.0461 17.8107H104.975L101.488 11.4271ZM108.296 23.9922L106.696 21.1382H96.2549L94.7314 23.9922H89.1602L98.2374 7.99219H104.829L113.67 23.9922H108.296Z" fill="#5C6380"/>
</g>
<defs>
<clipPath id="clip0_884_120">
<rect width="171.294" height="32" fill="white"/>
</clipPath>
</defs>
</svg>
